ISO-10303-21;
HEADER;
FILE_DESCRIPTION (( 'STEP AP214' ),
    '1' );
FILE_NAME ('maximtestchemp02.STEP',
    '2026-08-06T16:50:41',
    ( '' ),
    ( '' ),
    'SwSTEP 2.0',
    'SolidWorks 2026',
    '' );
FILE_SCHEMA (( 'AUTOMOTIVE_DESIGN' ));
ENDSEC;

DATA;
#1 = FACE_OUTER_BOUND ( 'NONE', #476, .T. ) ;
#2 = DIRECTION ( 'NONE',  ( -0.000000000000000000, -0.000000000000000000, 1.000000000000000000 ) ) ;
#3 = DIRECTION ( 'NONE',  ( 0.000000000000000000, -1.000000000000000000, 0.000000000000000000 ) ) ;
#4 = VERTEX_POINT ( 'NONE', #1099 ) ;
#5 = EDGE_CURVE ( 'NONE', #861, #974, #278, .T. ) ;
#6 = LINE ( 'NONE', #993, #1243 ) ;
#7 = VECTOR ( 'NONE', #179, 1000.000000000000000 ) ;
#8 = CARTESIAN_POINT ( 'NONE',  ( 10.00000000000001599, 6.886661668041969442, -13.00000000000001421 ) ) ;
#9 = DIRECTION ( 'NONE',  ( 0.000000000000000000, -1.000000000000000000, 0.000000000000000000 ) ) ;
#10 = SURFACE_SIDE_STYLE ('',( #202 ) ) ;
#11 = EDGE_LOOP ( 'NONE', ( #1084, #969, #229, #956 ) ) ;
#12 = CARTESIAN_POINT ( 'NONE',  ( 16.99999999999999289, 2.000000000000000000, 0.000000000000000000 ) ) ;
#13 = EDGE_CURVE ( 'NONE', #1162, #1219, #1303, .T. ) ;
#14 = PLANE ( 'NONE',  #806 ) ;
#15 = FACE_OUTER_BOUND ( 'NONE', #1076, .T. ) ;
#16 = SURFACE_STYLE_USAGE ( .BOTH. , #10 ) ;
#17 = VERTEX_POINT ( 'NONE', #195 ) ;
#18 = LINE ( 'NONE', #1050, #1181 ) ;
#19 = EDGE_CURVE ( 'NONE', #1037, #23, #996, .T. ) ;
#20 = DIRECTION ( 'NONE',  ( -0.7071067811865463515, 0.000000000000000000, -0.7071067811865487940 ) ) ;
#21 = CARTESIAN_POINT ( 'NONE',  ( 14.78196177587285121, 6.886661668041971218, -11.78196177587285831 ) ) ;
#22 = PLANE ( 'NONE',  #887 ) ;
#23 = VERTEX_POINT ( 'NONE', #784 ) ;
#24 = LINE ( 'NONE', #109, #913 ) ;
#25 = EDGE_LOOP ( 'NONE', ( #65, #373, #370, #756 ) ) ;
#26 = VECTOR ( 'NONE', #736, 999.9999999999998863 ) ;
#27 = CARTESIAN_POINT ( 'NONE',  ( 16.54548052232796351, 1.233955556881022764, -19.54548052232796351 ) ) ;
#28 = DIRECTION ( 'NONE',  ( -0.000000000000000000, 1.000000000000000000, -0.000000000000000000 ) ) ;
#29 = LINE ( 'NONE', #731, #893 ) ;
#30 = ORIENTED_EDGE ( 'NONE', *, *, #584, .F. ) ;
#31 = DIRECTION ( 'NONE',  ( 0.000000000000000000, 1.000000000000000000, 0.000000000000000000 ) ) ;
#32 = VECTOR ( 'NONE', #363, 1000.000000000000000 ) ;
#33 = PLANE ( 'NONE',  #275 ) ;
#34 = ORIENTED_EDGE ( 'NONE', *, *, #1096, .F. ) ;
#35 = EDGE_CURVE ( 'NONE', #430, #575, #291, .T. ) ;
#36 = CARTESIAN_POINT ( 'NONE',  ( 8.232233047033632900, 6.886661668041969442, -5.026190578351998894 ) ) ;
#37 = VERTEX_POINT ( 'NONE', #87 ) ;
#38 = DIRECTION ( 'NONE',  ( -1.734723475976807094E-16, 0.000000000000000000, -1.000000000000000000 ) ) ;
#39 = CARTESIAN_POINT ( 'NONE',  ( 11.76776695296638664, 6.886661668041969442, -14.97380942164799755 ) ) ;
#40 = ORIENTED_EDGE ( 'NONE', *, *, #35, .F. ) ;
#41 = DIRECTION ( 'NONE',  ( -0.5416752204197060605, -0.6427876096865402511, -0.5416752204196966236 ) ) ;
#42 = ADVANCED_FACE ( 'NONE', ( #699 ), #199, .T. ) ;
#43 = LINE ( 'NONE', #169, #895 ) ;
#44 = ORIENTED_EDGE ( 'NONE', *, *, #1202, .T. ) ;
#45 = VECTOR ( 'NONE', #388, 1000.000000000000000 ) ;
#46 = EDGE_LOOP ( 'NONE', ( #856, #628, #532, #536 ) ) ;
#47 = CARTESIAN_POINT ( 'NONE',  ( 17.00000000000000000, 0.000000000000000000, -20.00000000000000000 ) ) ;
#48 = CARTESIAN_POINT ( 'NONE',  ( 3.000000000000009770, 2.000000000000000000, -20.00000000000000000 ) ) ;
#49 = ORIENTED_EDGE ( 'NONE', *, *, #5, .F. ) ;
#50 = CARTESIAN_POINT ( 'NONE',  ( 8.954519477672048922, 11.32061722492299083, -11.95451947767202761 ) ) ;
#51 = VECTOR ( 'NONE', #821, 1000.000000000000000 ) ;
#52 = LINE ( 'NONE', #981, #872 ) ;
#53 = ORIENTED_EDGE ( 'NONE', *, *, #182, .T. ) ;
#54 = ADVANCED_FACE ( 'NONE', ( #597 ), #1317, .T. ) ;
#55 = ORIENTED_EDGE ( 'NONE', *, *, #292, .T. ) ;
#56 = CARTESIAN_POINT ( 'NONE',  ( 8.129211812692823003, 8.086661668041969619, -5.129211812692807015 ) ) ;
#57 = VERTEX_POINT ( 'NONE', #492 ) ;
#58 = LINE ( 'NONE', #1038, #939 ) ;
#59 = ORIENTED_EDGE ( 'NONE', *, *, #128, .T. ) ;
#60 = ORIENTED_EDGE ( 'NONE', *, *, #67, .F. ) ;
#61 = ADVANCED_FACE ( 'NONE', ( #1213 ), #582, .T. ) ;
#62 = CARTESIAN_POINT ( 'NONE',  ( 11.78196177587285653, 6.886661668041969442, -14.78196177587286897 ) ) ;
#63 = ORIENTED_EDGE ( 'NONE', *, *, #488, .F. ) ;
#64 = FACE_OUTER_BOUND ( 'NONE', #677, .T. ) ;
#65 = ORIENTED_EDGE ( 'NONE', *, *, #890, .F. ) ;
#66 = ORIENTED_EDGE ( 'NONE', *, *, #617, .F. ) ;
#67 = EDGE_CURVE ( 'NONE', #23, #419, #284, .T. ) ;
#68 = CARTESIAN_POINT ( 'NONE',  ( 14.87078818730720542, 0.000000000000000000, -8.129211812692840766 ) ) ;
#69 = ORIENTED_EDGE ( 'NONE', *, *, #1061, .F. ) ;
#70 = EDGE_CURVE ( 'NONE', #972, #633, #1208, .T. ) ;
#71 = VECTOR ( 'NONE', #680, 1000.000000000000000 ) ;
#72 = FACE_BOUND ( 'NONE', #269, .T. ) ;
#73 = ORIENTED_EDGE ( 'NONE', *, *, #155, .F. ) ;
#74 = ORIENTED_EDGE ( 'NONE', *, *, #957, .F. ) ;
#75 = VECTOR ( 'NONE', #1248, 1000.000000000000000 ) ;
#76 = DIRECTION ( 'NONE',  ( -0.7071067811865476838, 0.000000000000000000, 0.7071067811865474617 ) ) ;
#77 = ORIENTED_EDGE ( 'NONE', *, *, #1212, .T. ) ;
#78 = ADVANCED_FACE ( 'NONE', ( #81 ), #1104, .F. ) ;
#79 = DIRECTION ( 'NONE',  ( 0.000000000000000000, 1.000000000000000000, 0.000000000000000000 ) ) ;
#80 = ORIENTED_EDGE ( 'NONE', *, *, #222, .F. ) ;
#81 = FACE_OUTER_BOUND ( 'NONE', #341, .T. ) ;
#82 = CARTESIAN_POINT ( 'NONE',  ( 10.00000000000001776, 8.086661668041969619, -16.74157637461436465 ) ) ;
#83 = ORIENTED_EDGE ( 'NONE', *, *, #239, .F. ) ;
#84 = ADVANCED_FACE ( 'NONE', ( #474 ), #586, .T. ) ;
#85 = LINE ( 'NONE', #276, #45 ) ;
#86 = VERTEX_POINT ( 'NONE', #1308 ) ;
#87 = CARTESIAN_POINT ( 'NONE',  ( 14.87078818730720542, 8.086661668041969619, -8.129211812692844319 ) ) ;
#88 = PRODUCT_DEFINITION_SHAPE ( 'NONE', 'NONE',  #541 ) ;
#89 = DIRECTION ( 'NONE',  ( -0.7071067811865413555, 0.000000000000000000, 0.7071067811865536790 ) ) ;
#90 = PLANE ( 'NONE',  #1113 ) ;
#91 = CLOSED_SHELL ( 'NONE', ( #1277, #1150, #429, #758, #707, #457, #1054, #1302, #201, #42, #508, #881, #1266, #84, #100, #61, #562, #401, #1043, #1107, #573, #302, #1140, #78, #472, #1102, #822, #682, #54, #898, #295, #465, #494, #1177, #1115, #1121, #768, #248, #1222, #1036, #521, #216 ) ) ;
#92 = DIRECTION ( 'NONE',  ( -1.000000000000000000, -0.000000000000000000, 1.962615573354714164E-15 ) ) ;
#93 = EDGE_CURVE ( 'NONE', #1252, #1080, #1312, .T. ) ;
#94 = CARTESIAN_POINT ( 'NONE',  ( 14.78196177587287963, 6.886661668041969442, -8.218038224127170110 ) ) ;
#95 = CARTESIAN_POINT ( 'NONE',  ( 0.000000000000000000, 0.000000000000000000, 0.000000000000000000 ) ) ;
#96 = DIRECTION ( 'NONE',  ( 0.000000000000000000, -1.000000000000000000, 0.000000000000000000 ) ) ;
#97 = CARTESIAN_POINT ( 'NONE',  ( 21.50000000000003553, 0.000000000000000000, -1.500000000000034195 ) ) ;
#98 = SHAPE_DEFINITION_REPRESENTATION ( #88, #1313 ) ;
#99 = CARTESIAN_POINT ( 'NONE',  ( 8.232233047033632900, 6.886661668041969442, -5.026190578352000671 ) ) ;
#100 = ADVANCED_FACE ( 'NONE', ( #790 ), #669, .T. ) ;
#101 = FACE_OUTER_BOUND ( 'NONE', #1255, .T. ) ;
#102 = CARTESIAN_POINT ( 'NONE',  ( 2.999999999999999112, 2.000000000000000000, 0.000000000000000000 ) ) ;
#103 = CARTESIAN_POINT ( 'NONE',  ( 0.000000000000000000, 6.886661668041969442, 0.000000000000000000 ) ) ;
#104 = DIRECTION ( 'NONE',  ( -0.7071067811865487940, 0.000000000000000000, 0.7071067811865463515 ) ) ;
#105 = PLANE ( 'NONE',  #696 ) ;
#106 = CARTESIAN_POINT ( 'NONE',  ( 3.454519477672044925, 1.233955556881022764, -0.4545194776720429819 ) ) ;
#107 = ORIENTED_EDGE ( 'NONE', *, *, #326, .F. ) ;
#108 = EDGE_CURVE ( 'NONE', #86, #774, #1001, .T. ) ;
#109 = CARTESIAN_POINT ( 'NONE',  ( 2.999999999999999112, 2.000000000000000000, 0.000000000000000000 ) ) ;
#110 = AXIS2_PLACEMENT_3D ( 'NONE', #1015, #889, #294 ) ;
#111 = DIRECTION ( 'NONE',  ( 0.7071067811865474617, -0.000000000000000000, 0.7071067811865475727 ) ) ;
#112 = DIRECTION ( 'NONE',  ( -0.000000000000000000, 1.000000000000000000, -0.000000000000000000 ) ) ;
#113 = DIRECTION ( 'NONE',  ( 0.5416752204197022857, 0.6427876096865402511, -0.5416752204197003984 ) ) ;
#114 = ORIENTED_EDGE ( 'NONE', *, *, #1254, .T. ) ;
#115 = AXIS2_PLACEMENT_3D ( 'NONE', #626, #221, #1020 ) ;
#116 = PLANE ( 'NONE',  #1265 ) ;
#117 = EDGE_CURVE ( 'NONE', #812, #992, #795, .T. ) ;
#118 = DIRECTION ( 'NONE',  ( -1.000000000000000000, -0.000000000000000000, -0.000000000000000000 ) ) ;
#119 = LINE ( 'NONE', #123, #564 ) ;
#120 = ORIENTED_EDGE ( 'NONE', *, *, #593, .T. ) ;
#121 = CARTESIAN_POINT ( 'NONE',  ( 14.97380942164799578, 6.886661668041969442, -11.76776695296639019 ) ) ;
#122 = ORIENTED_EDGE ( 'NONE', *, *, #1229, .T. ) ;
#123 = CARTESIAN_POINT ( 'NONE',  ( -7.399937132373496596, 2.000000000000000000, -7.399937132373366033 ) ) ;
#124 = VERTEX_POINT ( 'NONE', #708 ) ;
#125 = DIRECTION ( 'NONE',  ( -0.7071067811865463515, -0.000000000000000000, -0.7071067811865487940 ) ) ;
#126 = VERTEX_POINT ( 'NONE', #693 ) ;
#127 = VECTOR ( 'NONE', #773, 1000.000000000000000 ) ;
#128 = EDGE_CURVE ( 'NONE', #1219, #419, #1122, .T. ) ;
#129 = DIRECTION ( 'NONE',  ( 0.000000000000000000, 0.000000000000000000, -1.000000000000000000 ) ) ;
#130 = VERTEX_POINT ( 'NONE', #605 ) ;
#131 = VECTOR ( 'NONE', #140, 1000.000000000000000 ) ;
#132 = CARTESIAN_POINT ( 'NONE',  ( 17.39993713237355522, 2.000000000000000000, -17.39993713237349482 ) ) ;
#133 = ORIENTED_EDGE ( 'NONE', *, *, #857, .F. ) ;
#134 = EDGE_CURVE ( 'NONE', #575, #430, #380, .T. ) ;
#135 = FACE_OUTER_BOUND ( 'NONE', #244, .T. ) ;
#136 = DIRECTION ( 'NONE',  ( 0.7071067811865487940, -0.000000000000000000, -0.7071067811865463515 ) ) ;
#137 = EDGE_LOOP ( 'NONE', ( #63, #1267, #555, #943 ) ) ;
#138 = FACE_OUTER_BOUND ( 'NONE', #1246, .T. ) ;
#139 = APPLICATION_CONTEXT ( 'automotive_design' ) ;
#140 = DIRECTION ( 'NONE',  ( 9.813077866773595716E-17, -1.000000000000000000, -9.813077866773592019E-17 ) ) ;
#141 = EDGE_LOOP ( 'NONE', ( #625, #647, #735, #1067 ) ) ;
#142 = ORIENTED_EDGE ( 'NONE', *, *, #741, .T. ) ;
#143 = DIRECTION ( 'NONE',  ( -0.7071067811865463515, -1.387778780781445676E-16, 0.7071067811865487940 ) ) ;
#144 = CARTESIAN_POINT ( 'NONE',  ( 21.50000000000003553, 6.886661668041969442, -1.500000000000034195 ) ) ;
#145 = ORIENTED_EDGE ( 'NONE', *, *, #1167, .T. ) ;
#146 = CARTESIAN_POINT ( 'NONE',  ( 0.000000000000000000, 2.000000000000000000, 0.000000000000000000 ) ) ;
#147 = EDGE_CURVE ( 'NONE', #572, #124, #755, .T. ) ;
#148 = DIRECTION ( 'NONE',  ( 0.7071067811865475727, -0.000000000000000000, -0.7071067811865474617 ) ) ;
#149 = VECTOR ( 'NONE', #1217, 1000.000000000000114 ) ;
#150 = ORIENTED_EDGE ( 'NONE', *, *, #634, .F. ) ;
#151 = DIRECTION ( 'NONE',  ( 0.000000000000000000, 0.000000000000000000, 1.000000000000000000 ) ) ;
#152 = VECTOR ( 'NONE', #270, 1000.000000000000000 ) ;
#153 = EDGE_LOOP ( 'NONE', ( #455, #965, #765, #1289 ) ) ;
#154 = AXIS2_PLACEMENT_3D ( 'NONE', #99, #809, #1223 ) ;
#155 = EDGE_CURVE ( 'NONE', #633, #1226, #159, .T. ) ;
#156 = LINE ( 'NONE', #746, #131 ) ;
#157 = ORIENTED_EDGE ( 'NONE', *, *, #230, .T. ) ;
#158 = ORIENTED_EDGE ( 'NONE', *, *, #342, .T. ) ;
#159 = LINE ( 'NONE', #1058, #193 ) ;
#160 = DIRECTION ( 'NONE',  ( -0.7071067811865473507, 0.000000000000000000, 0.7071067811865477948 ) ) ;
#161 = ORIENTED_EDGE ( 'NONE', *, *, #672, .F. ) ;
#162 = CARTESIAN_POINT ( 'NONE',  ( 16.74157637461437531, 8.086661668041969619, -10.00000000000001066 ) ) ;
#163 = ORIENTED_EDGE ( 'NONE', *, *, #770, .T. ) ;
#164 = EDGE_CURVE ( 'NONE', #783, #992, #642, .T. ) ;
#165 = ORIENTED_EDGE ( 'NONE', *, *, #645, .T. ) ;
#166 = FACE_OUTER_BOUND ( 'NONE', #153, .T. ) ;
#167 = VERTEX_POINT ( 'NONE', #351 ) ;
#168 = LINE ( 'NONE', #566, #1262 ) ;
#169 = CARTESIAN_POINT ( 'NONE',  ( 3.258423625385640232, 8.086661668041969619, -9.999999999999989342 ) ) ;
#170 = ORIENTED_EDGE ( 'NONE', *, *, #921, .F. ) ;
#171 = VERTEX_POINT ( 'NONE', #47 ) ;
#172 = FACE_OUTER_BOUND ( 'NONE', #663, .T. ) ;
#173 = EDGE_CURVE ( 'NONE', #37, #992, #1174, .T. ) ;
#174 = ORIENTED_EDGE ( 'NONE', *, *, #194, .T. ) ;
#175 = VECTOR ( 'NONE', #685, 1000.000000000000000 ) ;
#176 = AXIS2_PLACEMENT_3D ( 'NONE', #489, #20, #897 ) ;
#177 = CARTESIAN_POINT ( 'NONE',  ( 14.87078818730718943, -1.668223237351512048E-15, -11.87078818730719476 ) ) ;
#178 = ORIENTED_EDGE ( 'NONE', *, *, #1017, .F. ) ;
#179 = DIRECTION ( 'NONE',  ( 9.813077866773595716E-17, 1.000000000000000000, -9.813077866773592019E-17 ) ) ;
#180 = DIRECTION ( 'NONE',  ( 0.7071067811865487940, 0.000000000000000000, -0.7071067811865463515 ) ) ;
#181 = ORIENTED_EDGE ( 'NONE', *, *, #634, .T. ) ;
#182 = EDGE_CURVE ( 'NONE', #751, #419, #431, .T. ) ;
#183 = CARTESIAN_POINT ( 'NONE',  ( 8.499999999999969802, 0.000000000000000000, 8.499999999999998224 ) ) ;
#184 = ORIENTED_EDGE ( 'NONE', *, *, #287, .T. ) ;
#185 = DIRECTION ( 'NONE',  ( 0.000000000000000000, 0.000000000000000000, -1.000000000000000000 ) ) ;
#186 = DIRECTION ( 'NONE',  ( 2.453269466693390338E-15, -0.000000000000000000, 1.000000000000000000 ) ) ;
#187 = ORIENTED_EDGE ( 'NONE', *, *, #1133, .F. ) ;
#188 = CARTESIAN_POINT ( 'NONE',  ( 5.026190578352019322, 8.086661668041969619, -8.232233047033611584 ) ) ;
#189 = EDGE_CURVE ( 'NONE', #825, #433, #1065, .T. ) ;
#190 = DIRECTION ( 'NONE',  ( 0.000000000000000000, -1.000000000000000000, 0.000000000000000000 ) ) ;
#191 = CARTESIAN_POINT ( 'NONE',  ( 0.000000000000000000, 2.000000000000000000, 0.000000000000000000 ) ) ;
#192 = DIRECTION ( 'NONE',  ( -0.7071067811865463515, -1.387778780781445676E-16, -0.7071067811865487940 ) ) ;
#193 = VECTOR ( 'NONE', #1152, 1000.000000000000000 ) ;
#194 = EDGE_CURVE ( 'NONE', #1252, #601, #946, .T. ) ;
#195 = CARTESIAN_POINT ( 'NONE',  ( 5.129211812692830996, 8.086661668041969619, -11.87078818730718410 ) ) ;
#196 = DIRECTION ( 'NONE',  ( 0.7071067811865475727, -0.000000000000000000, -0.7071067811865474617 ) ) ;
#197 = VECTOR ( 'NONE', #1029, 1000.000000000000000 ) ;
#198 = DIRECTION ( 'NONE',  ( -0.7071067811865487940, 0.000000000000000000, 0.7071067811865463515 ) ) ;
#199 = PLANE ( 'NONE',  #588 ) ;
#200 = DIRECTION ( 'NONE',  ( 0.7071067811865473507, 0.000000000000000000, -0.7071067811865477948 ) ) ;
#201 = ADVANCED_FACE ( 'NONE', ( #135 ), #1276, .T. ) ;
#202 = SURFACE_STYLE_FILL_AREA ( #1117 ) ;
#203 = ORIENTED_EDGE ( 'NONE', *, *, #386, .F. ) ;
#204 = PLANE ( 'NONE',  #115 ) ;
#205 = CARTESIAN_POINT ( 'NONE',  ( -7.266007650902022547E-14, 2.000000000000000000, -16.99999999999990408 ) ) ;
#206 = EDGE_CURVE ( 'NONE', #1078, #171, #1053, .T. ) ;
#207 = DIRECTION ( 'NONE',  ( 0.5416752204197021747, 0.6427876096865402511, -0.5416752204197003984 ) ) ;
#208 = DIRECTION ( 'NONE',  ( 0.7071067811865463515, 0.000000000000000000, 0.7071067811865487940 ) ) ;
#209 = ORIENTED_EDGE ( 'NONE', *, *, #264, .F. ) ;
#210 = CARTESIAN_POINT ( 'NONE',  ( 8.500000000000000000, 2.000000000000000000, -8.500000000000030198 ) ) ;
#211 = AXIS2_PLACEMENT_3D ( 'NONE', #787, #571, #259 ) ;
#212 = DIRECTION ( 'NONE',  ( 0.7071067811865487940, 0.000000000000000000, -0.7071067811865463515 ) ) ;
#213 = CARTESIAN_POINT ( 'NONE',  ( 0.000000000000000000, 2.000000000000000000, -3.000000000000009770 ) ) ;
#214 =( NAMED_UNIT ( * ) SI_UNIT ( $, .STERADIAN. ) SOLID_ANGLE_UNIT ( ) );
#215 = ORIENTED_EDGE ( 'NONE', *, *, #282, .F. ) ;
#216 = ADVANCED_FACE ( 'NONE', ( #530 ), #1045, .F. ) ;
#217 = CARTESIAN_POINT ( 'NONE',  ( 20.00000000000000711, 2.000000000000000000, -16.99999999999999645 ) ) ;
#218 = CARTESIAN_POINT ( 'NONE',  ( 10.00000000000001599, 6.886661668041969442, -7.000000000000014211 ) ) ;
#219 =( LENGTH_UNIT ( ) NAMED_UNIT ( * ) SI_UNIT ( .MILLI., .METRE. ) );
#220 = ORIENTED_EDGE ( 'NONE', *, *, #317, .T. ) ;
#221 = DIRECTION ( 'NONE',  ( 0.7071067811865473507, 0.000000000000000000, -0.7071067811865477948 ) ) ;
#222 = EDGE_CURVE ( 'NONE', #575, #260, #649, .T. ) ;
#223 = ORIENTED_EDGE ( 'NONE', *, *, #407, .T. ) ;
#224 = CARTESIAN_POINT ( 'NONE',  ( 14.97380942164799578, 8.086661668041969619, -11.76776695296638842 ) ) ;
#225 = CARTESIAN_POINT ( 'NONE',  ( 14.87078818730720542, 6.886661668041969442, -8.129211812692844319 ) ) ;
#226 = ORIENTED_EDGE ( 'NONE', *, *, #134, .F. ) ;
#227 = CARTESIAN_POINT ( 'NONE',  ( 5.129211812692787475, 8.086661668041969619, -11.87078818730713436 ) ) ;
#228 = UNCERTAINTY_MEASURE_WITH_UNIT (LENGTH_MEASURE( 1.000000000000000082E-05 ), #817, 'distance_accuracy_value', 'NONE');
#229 = ORIENTED_EDGE ( 'NONE', *, *, #524, .F. ) ;
#230 = EDGE_CURVE ( 'NONE', #460, #866, #522, .T. ) ;
#231 = VECTOR ( 'NONE', #630, 1000.000000000000000 ) ;
#232 = CARTESIAN_POINT ( 'NONE',  ( 10.00000000000001599, -0.0009999999999992653654, -10.00000000000001421 ) ) ;
#233 = LINE ( 'NONE', #144, #1230 ) ;
#234 = EDGE_LOOP ( 'NONE', ( #869, #73, #1305, #1274 ) ) ;
#235 = ORIENTED_EDGE ( 'NONE', *, *, #654, .F. ) ;
#236 = ORIENTED_EDGE ( 'NONE', *, *, #108, .T. ) ;
#237 = CARTESIAN_POINT ( 'NONE',  ( 14.87078818730720720, 8.086661668041969619, -8.129211812692838990 ) ) ;
#238 = DIRECTION ( 'NONE',  ( 0.000000000000000000, 1.000000000000000000, 0.000000000000000000 ) ) ;
#239 = EDGE_CURVE ( 'NONE', #742, #845, #841, .T. ) ;
#240 = ORIENTED_EDGE ( 'NONE', *, *, #863, .T. ) ;
#241 = CARTESIAN_POINT ( 'NONE',  ( 11.76776695296638664, 6.886661668041969442, -14.97380942164799755 ) ) ;
#242 = CARTESIAN_POINT ( 'NONE',  ( 8.232233047033643558, 8.086661668041969619, -14.97380942164799045 ) ) ;
#243 = ORIENTED_EDGE ( 'NONE', *, *, #608, .F. ) ;
#244 = EDGE_LOOP ( 'NONE', ( #561, #254, #1055, #1264, #1131 ) ) ;
#245 = DIRECTION ( 'NONE',  ( 0.7071067811865536790, 0.000000000000000000, 0.7071067811865413555 ) ) ;
#246 = FACE_OUTER_BOUND ( 'NONE', #833, .T. ) ;
#247 = ORIENTED_EDGE ( 'NONE', *, *, #1284, .T. ) ;
#248 = ADVANCED_FACE ( 'NONE', ( #451 ), #33, .F. ) ;
#249 = VECTOR ( 'NONE', #471, 1000.000000000000000 ) ;
#250 = DIRECTION ( 'NONE',  ( -0.7071067811865487940, 0.000000000000000000, 0.7071067811865463515 ) ) ;
#251 = ORIENTED_EDGE ( 'NONE', *, *, #921, .T. ) ;
#252 = DIRECTION ( 'NONE',  ( -0.7071067811865463515, 0.000000000000000000, -0.7071067811865487940 ) ) ;
#253 = VECTOR ( 'NONE', #252, 999.9999999999998863 ) ;
#254 = ORIENTED_EDGE ( 'NONE', *, *, #479, .F. ) ;
#255 = EDGE_CURVE ( 'NONE', #919, #726, #556, .T. ) ;
#256 = PLANE ( 'NONE',  #1268 ) ;
#257 = ORIENTED_EDGE ( 'NONE', *, *, #814, .T. ) ;
#258 = ORIENTED_EDGE ( 'NONE', *, *, #1247, .T. ) ;
#259 = DIRECTION ( 'NONE',  ( 0.000000000000000000, 0.000000000000000000, -1.000000000000000000 ) ) ;
#260 = VERTEX_POINT ( 'NONE', #1142 ) ;
#261 = CARTESIAN_POINT ( 'NONE',  ( 11.87078818730720187, 8.086661668041969619, -5.129211812692838102 ) ) ;
#262 = CARTESIAN_POINT ( 'NONE',  ( 0.000000000000000000, 2.000000000000000000, -20.00000000000000000 ) ) ;
#263 = ORIENTED_EDGE ( 'NONE', *, *, #798, .F. ) ;
#264 = EDGE_CURVE ( 'NONE', #780, #1037, #729, .T. ) ;
#265 = ORIENTED_EDGE ( 'NONE', *, *, #1028, .F. ) ;
#266 = CARTESIAN_POINT ( 'NONE',  ( 20.00000000000003197, 2.000000000000000000, -3.000000000000033751 ) ) ;
#267 = ORIENTED_EDGE ( 'NONE', *, *, #222, .T. ) ;
#268 = DIRECTION ( 'NONE',  ( 0.000000000000000000, 0.000000000000000000, 1.000000000000000000 ) ) ;
#269 = EDGE_LOOP ( 'NONE', ( #829, #263 ) ) ;
#270 = DIRECTION ( 'NONE',  ( -9.813077866773595716E-17, 1.000000000000000000, -9.813077866773592019E-17 ) ) ;
#271 = EDGE_CURVE ( 'NONE', #747, #167, #830, .T. ) ;
#272 = AXIS2_PLACEMENT_3D ( 'NONE', #306, #125, #813 ) ;
#273 = DIRECTION ( 'NONE',  ( -0.7071067811865463515, -0.000000000000000000, -0.7071067811865487940 ) ) ;
#274 = ORIENTED_EDGE ( 'NONE', *, *, #1295, .F. ) ;
#275 = AXIS2_PLACEMENT_3D ( 'NONE', #328, #858, #1250 ) ;
#276 = CARTESIAN_POINT ( 'NONE',  ( 5.026190578352032645, 6.886661668041969442, -8.631419915757122821E-15 ) ) ;
#277 = ORIENTED_EDGE ( 'NONE', *, *, #688, .T. ) ;
#278 = LINE ( 'NONE', #1199, #7 ) ;
#279 = VECTOR ( 'NONE', #655, 1000.000000000000000 ) ;
#280 = FACE_OUTER_BOUND ( 'NONE', #871, .T. ) ;
#281 = VERTEX_POINT ( 'NONE', #224 ) ;
#282 = EDGE_CURVE ( 'NONE', #57, #845, #624, .T. ) ;
#283 = CARTESIAN_POINT ( 'NONE',  ( 15.89993713237354633, 2.000000000000000000, -1.100062867626506069 ) ) ;
#284 = LINE ( 'NONE', #884, #152 ) ;
#285 = PLANE ( 'NONE',  #462 ) ;
#286 = DIRECTION ( 'NONE',  ( -1.000000000000000000, 0.000000000000000000, 2.453269466693390338E-15 ) ) ;
#287 = EDGE_CURVE ( 'NONE', #878, #726, #791, .T. ) ;
#288 = CARTESIAN_POINT ( 'NONE',  ( 0.000000000000000000, 2.000000000000000000, 0.000000000000000000 ) ) ;
#289 = CARTESIAN_POINT ( 'NONE',  ( 17.00000000000003197, 2.000000000000000000, -2.335266376501830357E-14 ) ) ;
#290 = CARTESIAN_POINT ( 'NONE',  ( 11.50000000000000000, 2.000000000000000000, -11.50000000000003730 ) ) ;
#291 = CIRCLE ( 'NONE', #870, 2.999999999999999112 ) ;
#292 = EDGE_CURVE ( 'NONE', #460, #37, #1206, .T. ) ;
#293 = CARTESIAN_POINT ( 'NONE',  ( 0.000000000000000000, 8.086661668041969619, 0.000000000000000000 ) ) ;
#294 = DIRECTION ( 'NONE',  ( -9.008148811242255230E-15, -0.5102736053747384259, -0.8600121206459043766 ) ) ;
#295 = ADVANCED_FACE ( 'NONE', ( #166 ), #285, .T. ) ;
#296 = PRODUCT_DEFINITION_FORMATION_WITH_SPECIFIED_SOURCE ( 'ANY', '', #1032, .NOT_KNOWN. ) ;
#297 = DIRECTION ( 'NONE',  ( 0.5416752204197060605, 0.6427876096865401401, 0.5416752204196966236 ) ) ;
#298 = DIRECTION ( 'NONE',  ( -0.8600121206459043766, -0.5102736053747384259, 0.000000000000000000 ) ) ;
#299 = DIRECTION ( 'NONE',  ( -0.7071067811865487940, 0.000000000000000000, 0.7071067811865463515 ) ) ;
#300 = ORIENTED_EDGE ( 'NONE', *, *, #19, .F. ) ;
#301 = LINE ( 'NONE', #807, #197 ) ;
#302 = ADVANCED_FACE ( 'NONE', ( #280 ), #563, .F. ) ;
#303 = LINE ( 'NONE', #706, #485 ) ;
#304 = DIRECTION ( 'NONE',  ( 0.7071067811865463515, -1.387778780781445676E-16, 0.7071067811865487940 ) ) ;
#305 = ORIENTED_EDGE ( 'NONE', *, *, #1184, .T. ) ;
#306 = CARTESIAN_POINT ( 'NONE',  ( 20.00000000000000355, 2.000000000000000000, -2.999999999999999112 ) ) ;
#307 = AXIS2_PLACEMENT_3D ( 'NONE', #744, #28, #636 ) ;
#308 = PLANE ( 'NONE',  #936 ) ;
#309 = FACE_OUTER_BOUND ( 'NONE', #1173, .T. ) ;
#310 = ORIENTED_EDGE ( 'NONE', *, *, #326, .T. ) ;
#311 = VECTOR ( 'NONE', #9, 1000.000000000000000 ) ;
#312 = CARTESIAN_POINT ( 'NONE',  ( 15.89993713237352502, 1.999999999999999112, -18.89993713237352679 ) ) ;
#313 = AXIS2_PLACEMENT_3D ( 'NONE', #1091, #487, #1205 ) ;
#314 = CARTESIAN_POINT ( 'NONE',  ( 5.129211812692830996, 6.886661668041969442, -11.87078818730718410 ) ) ;
#315 = AXIS2_PLACEMENT_3D ( 'NONE', #102, #511, #3 ) ;
#316 = ORIENTED_EDGE ( 'NONE', *, *, #182, .F. ) ;
#317 = EDGE_CURVE ( 'NONE', #468, #1162, #1310, .T. ) ;
#318 = LINE ( 'NONE', #705, #1127 ) ;
#319 = AXIS2_PLACEMENT_3D ( 'NONE', #1196, #192, #198 ) ;
#320 = PRODUCT_DEFINITION_CONTEXT ( 'detailed design', #139, 'design' ) ;
#321 = ORIENTED_EDGE ( 'NONE', *, *, #875, .T. ) ;
#322 = DIRECTION ( 'NONE',  ( -1.734723475976807094E-16, 0.000000000000000000, -1.000000000000000000 ) ) ;
#323 = CARTESIAN_POINT ( 'NONE',  ( 0.000000000000000000, 2.000000000000000000, -20.00000000000000000 ) ) ;
#324 = ORIENTED_EDGE ( 'NONE', *, *, #206, .T. ) ;
#325 = CARTESIAN_POINT ( 'NONE',  ( 18.50000000000003553, -1.668223237351514809E-15, 1.499999999999976241 ) ) ;
#326 = EDGE_CURVE ( 'NONE', #17, #416, #456, .T. ) ;
#327 = ORIENTED_EDGE ( 'NONE', *, *, #147, .T. ) ;
#328 = CARTESIAN_POINT ( 'NONE',  ( 11.76776695296638664, 6.886661668041969442, -14.97380942164799755 ) ) ;
#329 = CARTESIAN_POINT ( 'NONE',  ( 19.54548052232798838, 1.233955556881022764, -3.454519477672077787 ) ) ;
#330 = ORIENTED_EDGE ( 'NONE', *, *, #420, .F. ) ;
#331 = PLANE ( 'NONE',  #444 ) ;
#332 = VECTOR ( 'NONE', #113, 1000.000000000000000 ) ;
#333 = ORIENTED_EDGE ( 'NONE', *, *, #1077, .F. ) ;
#334 = EDGE_CURVE ( 'NONE', #1242, #726, #1100, .T. ) ;
#335 = CARTESIAN_POINT ( 'NONE',  ( 11.49999999999989342, 2.000000000000000000, -11.50000000000009592 ) ) ;
#336 = APPLICATION_PROTOCOL_DEFINITION ( 'draft international standard', 'automotive_design', 1998, #139 ) ;
#337 = ORIENTED_EDGE ( 'NONE', *, *, #282, .T. ) ;
#338 = CARTESIAN_POINT ( 'NONE',  ( 11.95451947767201695, 11.32061722492299083, -11.04548052232797950 ) ) ;
#339 = LINE ( 'NONE', #162, #592 ) ;
#340 = CIRCLE ( 'NONE', #1151, 2.999999999999999112 ) ;
#341 = EDGE_LOOP ( 'NONE', ( #637, #447, #880, #1027 ) ) ;
#342 = EDGE_CURVE ( 'NONE', #1226, #1283, #1282, .T. ) ;
#343 = DIRECTION ( 'NONE',  ( 0.000000000000000000, -1.000000000000000000, 0.000000000000000000 ) ) ;
#344 = LINE ( 'NONE', #947, #819 ) ;
#345 = ORIENTED_EDGE ( 'NONE', *, *, #734, .F. ) ;
#346 = DIRECTION ( 'NONE',  ( 0.000000000000000000, -1.000000000000000000, 0.000000000000000000 ) ) ;
#347 = DIRECTION ( 'NONE',  ( -0.7071067811865477948, -0.000000000000000000, -0.7071067811865473507 ) ) ;
#348 = ORIENTED_EDGE ( 'NONE', *, *, #1254, .F. ) ;
#349 = ORIENTED_EDGE ( 'NONE', *, *, #672, .T. ) ;
#350 = EDGE_CURVE ( 'NONE', #995, #640, #975, .T. ) ;
#351 = CARTESIAN_POINT ( 'NONE',  ( 20.00000000000000000, 0.000000000000000000, -16.99999999999998934 ) ) ;
#352 = PLANE ( 'NONE',  #689 ) ;
#353 = ORIENTED_EDGE ( 'NONE', *, *, #377, .T. ) ;
#354 = CARTESIAN_POINT ( 'NONE',  ( 14.78196177587287785, 6.886661668041969442, -8.218038224127168334 ) ) ;
#355 = DIRECTION ( 'NONE',  ( 0.5416752204197060605, 0.6427876096865401401, 0.5416752204196966236 ) ) ;
#356 = ORIENTED_EDGE ( 'NONE', *, *, #479, .T. ) ;
#357 = ORIENTED_EDGE ( 'NONE', *, *, #350, .F. ) ;
#358 = VECTOR ( 'NONE', #207, 1000.000000000000000 ) ;
#359 = LINE ( 'NONE', #885, #501 ) ;
#360 = EDGE_LOOP ( 'NONE', ( #1070, #761, #657, #375 ) ) ;
#361 = DIRECTION ( 'NONE',  ( 0.7071067811865462405, 0.000000000000000000, -0.7071067811865489050 ) ) ;
#362 = EDGE_CURVE ( 'NONE', #460, #747, #463, .T. ) ;
#363 = DIRECTION ( 'NONE',  ( 1.000000000000000000, -0.000000000000000000, -1.962615573354718108E-15 ) ) ;
#364 = ORIENTED_EDGE ( 'NONE', *, *, #750, .F. ) ;
#365 = VERTEX_POINT ( 'NONE', #1292 ) ;
#366 = LINE ( 'NONE', #1304, #1259 ) ;
#367 = ORIENTED_EDGE ( 'NONE', *, *, #413, .T. ) ;
#368 = EDGE_CURVE ( 'NONE', #878, #1283, #665, .T. ) ;
#369 = DIRECTION ( 'NONE',  ( 0.4545194776720451468, 0.7660444431189773473, 0.4545194776720435370 ) ) ;
#370 = ORIENTED_EDGE ( 'NONE', *, *, #741, .F. ) ;
#371 = CARTESIAN_POINT ( 'NONE',  ( 2.999999999999999112, 2.000000000000000000, 0.000000000000000000 ) ) ;
#372 = DIRECTION ( 'NONE',  ( 0.000000000000000000, -0.000000000000000000, -1.000000000000000000 ) ) ;
#373 = ORIENTED_EDGE ( 'NONE', *, *, #814, .F. ) ;
#374 = LINE ( 'NONE', #1316, #653 ) ;
#375 = ORIENTED_EDGE ( 'NONE', *, *, #164, .T. ) ;
#376 = DIRECTION ( 'NONE',  ( -0.8600121206459043766, -0.5102736053747384259, 0.000000000000000000 ) ) ;
#377 = EDGE_CURVE ( 'NONE', #416, #780, #1298, .T. ) ;
#378 = CARTESIAN_POINT ( 'NONE',  ( 5.218038224127118596, 6.886661668041969442, -11.78196177587280324 ) ) ;
#379 = EDGE_LOOP ( 'NONE', ( #1034, #324, #984, #120 ) ) ;
#380 = CIRCLE ( 'NONE', #826, 2.999999999999999112 ) ;
#381 = AXIS2_PLACEMENT_3D ( 'NONE', #714, #390, #598 ) ;
#382 = DIRECTION ( 'NONE',  ( 0.8600121206459043766, -0.5102736053747384259, -0.000000000000000000 ) ) ;
#383 = VECTOR ( 'NONE', #1218, 1000.000000000000000 ) ;
#384 = CARTESIAN_POINT ( 'NONE',  ( 0.000000000000000000, 2.000000000000000000, -17.00000000000000000 ) ) ;
#385 = DIRECTION ( 'NONE',  ( 1.000000000000000000, -0.000000000000000000, -1.962615573354714164E-15 ) ) ;
#386 = EDGE_CURVE ( 'NONE', #753, #1155, #359, .T. ) ;
#387 = DIRECTION ( 'NONE',  ( -0.7071067811865487940, 0.000000000000000000, -0.7071067811865463515 ) ) ;
#388 = DIRECTION ( 'NONE',  ( -1.717288626685373118E-15, -0.000000000000000000, -1.000000000000000000 ) ) ;
#389 = DIRECTION ( 'NONE',  ( 0.5416752204197022857, -0.6427876096865402511, 0.5416752204197002873 ) ) ;
#390 = DIRECTION ( 'NONE',  ( -0.4545194776720483110, 0.7660444431189773473, -0.4545194776720403174 ) ) ;
#391 = EDGE_CURVE ( 'NONE', #1226, #861, #366, .T. ) ;
#392 = CARTESIAN_POINT ( 'NONE',  ( 8.129211812692826555, 6.886661668041969442, -5.129211812692808792 ) ) ;
#393 = VECTOR ( 'NONE', #432, 999.9999999999998863 ) ;
#394 = DIRECTION ( 'NONE',  ( -0.7071067811865487940, 0.000000000000000000, -0.7071067811865463515 ) ) ;
#395 = LINE ( 'NONE', #612, #1024 ) ;
#396 = CARTESIAN_POINT ( 'NONE',  ( 11.04548052232795818, 11.32061722492299083, -8.045480522327979500 ) ) ;
#397 = FILL_AREA_STYLE_COLOUR ( '', #1072 ) ;
#398 = EDGE_LOOP ( 'NONE', ( #506, #209, #1145, #1057 ) ) ;
#399 = VECTOR ( 'NONE', #245, 1000.000000000000114 ) ;
#400 = FACE_OUTER_BOUND ( 'NONE', #454, .T. ) ;
#401 = ADVANCED_FACE ( 'NONE', ( #172 ), #1182, .F. ) ;
#402 = LINE ( 'NONE', #796, #1132 ) ;
#403 = CARTESIAN_POINT ( 'NONE',  ( 18.89993713237354811, 2.000000000000000444, -4.100062867626515839 ) ) ;
#404 = DIRECTION ( 'NONE',  ( 0.000000000000000000, 1.000000000000000000, 0.000000000000000000 ) ) ;
#405 = ORIENTED_EDGE ( 'NONE', *, *, #1193, .T. ) ;
#406 = CARTESIAN_POINT ( 'NONE',  ( 20.00000000000000355, 2.000000000000000000, -2.999999999999999112 ) ) ;
#407 = EDGE_CURVE ( 'NONE', #37, #1098, #658, .T. ) ;
#408 = DIRECTION ( 'NONE',  ( -0.7071067811865477948, 0.000000000000000000, -0.7071067811865473507 ) ) ;
#409 = PLANE ( 'NONE',  #434 ) ;
#410 = ORIENTED_EDGE ( 'NONE', *, *, #875, .F. ) ;
#411 = DIRECTION ( 'NONE',  ( -0.7071067811865487940, 0.000000000000000000, -0.7071067811865463515 ) ) ;
#412 = CARTESIAN_POINT ( 'NONE',  ( 2.999999999999999112, 2.000000000000000000, 0.000000000000000000 ) ) ;
#413 = EDGE_CURVE ( 'NONE', #452, #416, #1201, .T. ) ;
#414 = LINE ( 'NONE', #1046, #393 ) ;
#415 = DIRECTION ( 'NONE',  ( 0.7071067811865487940, 0.000000000000000000, -0.7071067811865463515 ) ) ;
#416 = VERTEX_POINT ( 'NONE', #879 ) ;
#417 = DIRECTION ( 'NONE',  ( 0.000000000000000000, -1.000000000000000000, 0.000000000000000000 ) ) ;
#418 = VECTOR ( 'NONE', #990, 1000.000000000000114 ) ;
#419 = VERTEX_POINT ( 'NONE', #1094 ) ;
#420 = EDGE_CURVE ( 'NONE', #919, #1078, #779, .T. ) ;
#421 = CARTESIAN_POINT ( 'NONE',  ( 5.026190578352018434, 6.886661668041969442, -8.232233047033611584 ) ) ;
#422 = DIRECTION ( 'NONE',  ( -1.000000000000000000, 0.000000000000000000, -0.000000000000000000 ) ) ;
#423 = EDGE_LOOP ( 'NONE', ( #859, #235, #305, #348, #1089 ) ) ;
#424 = VECTOR ( 'NONE', #782, 1000.000000000000000 ) ;
#425 = CARTESIAN_POINT ( 'NONE',  ( 18.50000000000003553, 6.886661668041969442, 1.499999999999976907 ) ) ;
#426 = CARTESIAN_POINT ( 'NONE',  ( -9.864479903722361395E-15, 6.886661668041969442, -5.026190578351983795 ) ) ;
#427 = VERTEX_POINT ( 'NONE', #314 ) ;
#428 = DIRECTION ( 'NONE',  ( -0.7071067811865462405, 0.000000000000000000, 0.7071067811865489050 ) ) ;
#429 = ADVANCED_FACE ( 'NONE', ( #1 ), #308, .T. ) ;
#430 = VERTEX_POINT ( 'NONE', #8 ) ;
#431 = LINE ( 'NONE', #56, #253 ) ;
#432 = DIRECTION ( 'NONE',  ( 0.7071067811865463515, 0.000000000000000000, 0.7071067811865487940 ) ) ;
#433 = VERTEX_POINT ( 'NONE', #493 ) ;
#434 = AXIS2_PLACEMENT_3D ( 'NONE', #106, #1018, #298 ) ;
#435 = LINE ( 'NONE', #970, #938 ) ;
#436 = EDGE_CURVE ( 'NONE', #171, #1101, #395, .T. ) ;
#437 = CARTESIAN_POINT ( 'NONE',  ( 18.50000000000003553, 6.886661668041969442, 1.499999999999976907 ) ) ;
#438 = ORIENTED_EDGE ( 'NONE', *, *, #533, .T. ) ;
#439 = VECTOR ( 'NONE', #583, 1000.000000000000000 ) ;
#440 = ORIENTED_EDGE ( 'NONE', *, *, #1010, .F. ) ;
#441 = CARTESIAN_POINT ( 'NONE',  ( 20.00000000000000355, 2.000000000000000000, 0.000000000000000000 ) ) ;
#442 = DIRECTION ( 'NONE',  ( -0.7071067811865487940, 0.000000000000000000, 0.7071067811865463515 ) ) ;
#443 = VERTEX_POINT ( 'NONE', #94 ) ;
#444 = AXIS2_PLACEMENT_3D ( 'NONE', #1261, #1156, #1056 ) ;
#445 = AXIS2_PLACEMENT_3D ( 'NONE', #1279, #369, #1069 ) ;
#446 = DIRECTION ( 'NONE',  ( 0.000000000000000000, 1.000000000000000000, 0.000000000000000000 ) ) ;
#447 = ORIENTED_EDGE ( 'NONE', *, *, #629, .F. ) ;
#448 = VECTOR ( 'NONE', #491, 1000.000000000000000 ) ;
#449 = EDGE_CURVE ( 'NONE', #1080, #1219, #1209, .T. ) ;
#450 = ORIENTED_EDGE ( 'NONE', *, *, #792, .T. ) ;
#451 = FACE_OUTER_BOUND ( 'NONE', #234, .T. ) ;
#452 = VERTEX_POINT ( 'NONE', #1016 ) ;
#453 = FACE_OUTER_BOUND ( 'NONE', #379, .T. ) ;
#454 = EDGE_LOOP ( 'NONE', ( #60, #847, #1165, #641, #59 ) ) ;
#455 = ORIENTED_EDGE ( 'NONE', *, *, #987, .F. ) ;
#456 = LINE ( 'NONE', #82, #71 ) ;
#457 = ADVANCED_FACE ( 'NONE', ( #509 ), #1216, .T. ) ;
#458 = ORIENTED_EDGE ( 'NONE', *, *, #436, .F. ) ;
#459 = CARTESIAN_POINT ( 'NONE',  ( -9.864479903722361395E-15, 8.086661668041969619, -5.026190578351983795 ) ) ;
#460 = VERTEX_POINT ( 'NONE', #604 ) ;
#461 = ORIENTED_EDGE ( 'NONE', *, *, #1315, .T. ) ;
#462 = AXIS2_PLACEMENT_3D ( 'NONE', #482, #1079, #764 ) ;
#463 = LINE ( 'NONE', #1086, #175 ) ;
#464 = ORIENTED_EDGE ( 'NONE', *, *, #368, .T. ) ;
#465 = ADVANCED_FACE ( 'NONE', ( #701 ), #14, .T. ) ;
#466 = FACE_OUTER_BOUND ( 'NONE', #581, .T. ) ;
#467 = EDGE_LOOP ( 'NONE', ( #659, #1278, #986, #223 ) ) ;
#468 = VERTEX_POINT ( 'NONE', #1022 ) ;
#469 = CARTESIAN_POINT ( 'NONE',  ( 5.026190578352013105, 6.886661668041969442, -11.76776695296636177 ) ) ;
#470 = ORIENTED_EDGE ( 'NONE', *, *, #715, .F. ) ;
#471 = DIRECTION ( 'NONE',  ( 9.813077866773596949E-17, 1.000000000000000000, 9.813077866773592019E-17 ) ) ;
#472 = ADVANCED_FACE ( 'NONE', ( #922 ), #691, .F. ) ;
#473 = ORIENTED_EDGE ( 'NONE', *, *, #857, .T. ) ;
#474 = FACE_OUTER_BOUND ( 'NONE', #1186, .T. ) ;
#475 = CARTESIAN_POINT ( 'NONE',  ( -2.938783156337186350E-14, 6.886661668041969442, -14.97380942164797446 ) ) ;
#476 = EDGE_LOOP ( 'NONE', ( #648, #842, #327, #77, #632 ) ) ;
#477 = PLANE ( 'NONE',  #1221 ) ;
#478 = ORIENTED_EDGE ( 'NONE', *, *, #271, .F. ) ;
#479 = EDGE_CURVE ( 'NONE', #1080, #17, #503, .T. ) ;
#480 = ORIENTED_EDGE ( 'NONE', *, *, #798, .T. ) ;
#481 = VECTOR ( 'NONE', #528, 1000.000000000000000 ) ;
#482 = CARTESIAN_POINT ( 'NONE',  ( 10.00000000000001776, 6.886661668041969442, -16.74157637461436465 ) ) ;
#483 = VECTOR ( 'NONE', #1009, 1000.000000000000000 ) ;
#484 = LINE ( 'NONE', #1026, #332 ) ;
#485 = VECTOR ( 'NONE', #1120, 1000.000000000000000 ) ;
#486 = CARTESIAN_POINT ( 'NONE',  ( 17.00000000000003197, 2.000000000000000000, -2.335266376501830357E-14 ) ) ;
#487 = DIRECTION ( 'NONE',  ( 0.4545194776720450913, 0.7660444431189773473, -0.4545194776720435370 ) ) ;
#488 = EDGE_CURVE ( 'NONE', #1219, #572, #1116, .T. ) ;
#489 = CARTESIAN_POINT ( 'NONE',  ( 18.50000000000001421, 0.000000000000000000, -21.50000000000000355 ) ) ;
#490 = PLANE ( 'NONE',  #713 ) ;
#491 = DIRECTION ( 'NONE',  ( 1.000000000000000000, 0.000000000000000000, 0.000000000000000000 ) ) ;
#492 = CARTESIAN_POINT ( 'NONE',  ( 11.76776695296637065, 6.886661668041969442, -5.026190578352007776 ) ) ;
#493 = CARTESIAN_POINT ( 'NONE',  ( 8.218038224127154123, 6.886661668041969442, -5.218038224127136360 ) ) ;
#494 = ADVANCED_FACE ( 'NONE', ( #1228 ), #105, .T. ) ;
#495 = CARTESIAN_POINT ( 'NONE',  ( 11.78196177587285653, 6.886661668041969442, -14.78196177587286897 ) ) ;
#496 = DIRECTION ( 'NONE',  ( 0.7071067811865463515, 0.000000000000000000, -0.7071067811865487940 ) ) ;
#497 = CARTESIAN_POINT ( 'NONE',  ( 11.87078818730718410, 0.000000000000000000, -14.87078818730719831 ) ) ;
#498 = DIRECTION ( 'NONE',  ( 0.7071067811865474617, -0.000000000000000000, 0.7071067811865475727 ) ) ;
#499 = EDGE_LOOP ( 'NONE', ( #40, #1189, #480, #80 ) ) ;
#500 = EDGE_CURVE ( 'NONE', #989, #878, #1128, .T. ) ;
#501 = VECTOR ( 'NONE', #186, 1000.000000000000000 ) ;
#502 = LINE ( 'NONE', #914, #828 ) ;
#503 = LINE ( 'NONE', #205, #1291 ) ;
#504 = LINE ( 'NONE', #816, #311 ) ;
#505 = PLANE ( 'NONE',  #549 ) ;
#506 = ORIENTED_EDGE ( 'NONE', *, *, #777, .F. ) ;
#507 = LINE ( 'NONE', #727, #481 ) ;
#508 = ADVANCED_FACE ( 'NONE', ( #587 ), #1111, .F. ) ;
#509 = FACE_OUTER_BOUND ( 'NONE', #763, .T. ) ;
#510 = LINE ( 'NONE', #1270, #1256 ) ;
#511 = DIRECTION ( 'NONE',  ( 0.7071067811865487940, 0.000000000000000000, -0.7071067811865463515 ) ) ;
#512 = ORIENTED_EDGE ( 'NONE', *, *, #623, .F. ) ;
#513 = DIRECTION ( 'NONE',  ( 0.000000000000000000, -1.000000000000000000, 0.000000000000000000 ) ) ;
#514 = ORIENTED_EDGE ( 'NONE', *, *, #915, .F. ) ;
#515 = EDGE_CURVE ( 'NONE', #37, #681, #402, .T. ) ;
#516 = FACE_OUTER_BOUND ( 'NONE', #1275, .T. ) ;
#517 = DIRECTION ( 'NONE',  ( 0.000000000000000000, 0.000000000000000000, -1.000000000000000000 ) ) ;
#518 = ORIENTED_EDGE ( 'NONE', *, *, #929, .F. ) ;
#519 = CARTESIAN_POINT ( 'NONE',  ( 2.999999999999905409, 2.000000000000000000, -19.99999999999993605 ) ) ;
#520 = VECTOR ( 'NONE', #1269, 1000.000000000000000 ) ;
#521 = ADVANCED_FACE ( 'NONE', ( #1011 ), #916, .F. ) ;
#522 = LINE ( 'NONE', #441, #932 ) ;
#523 = APPLICATION_PROTOCOL_DEFINITION ( 'draft international standard', 'automotive_design', 1998, #973 ) ;
#524 = EDGE_CURVE ( 'NONE', #866, #568, #303, .T. ) ;
#525 = ORIENTED_EDGE ( 'NONE', *, *, #1085, .T. ) ;
#526 = VECTOR ( 'NONE', #760, 1000.000000000000000 ) ;
#527 = VECTOR ( 'NONE', #1311, 1000.000000000000000 ) ;
#528 = DIRECTION ( 'NONE',  ( 0.000000000000000000, -1.000000000000000000, 0.000000000000000000 ) ) ;
#529 = ORIENTED_EDGE ( 'NONE', *, *, #391, .F. ) ;
#530 = FACE_OUTER_BOUND ( 'NONE', #1249, .T. ) ;
#531 =( NAMED_UNIT ( * ) PLANE_ANGLE_UNIT ( ) SI_UNIT ( $, .RADIAN. ) );
#532 = ORIENTED_EDGE ( 'NONE', *, *, #230, .F. ) ;
#533 = EDGE_CURVE ( 'NONE', #17, #427, #156, .T. ) ;
#534 = PLANE ( 'NONE',  #1290 ) ;
#535 = PLANE ( 'NONE',  #445 ) ;
#536 = ORIENTED_EDGE ( 'NONE', *, *, #362, .T. ) ;
#537 = DIRECTION ( 'NONE',  ( -0.000000000000000000, 1.000000000000000000, -0.000000000000000000 ) ) ;
#538 = DIRECTION ( 'NONE',  ( 3.002716270414084419E-15, -0.5102736053747384259, 0.8600121206459043766 ) ) ;
#539 = ORIENTED_EDGE ( 'NONE', *, *, #386, .T. ) ;
#540 = CARTESIAN_POINT ( 'NONE',  ( 10.00000000000001776, 8.086661668041969619, -16.74157637461436465 ) ) ;
#541 = PRODUCT_DEFINITION ( 'UNKNOWN', '', #296, #320 ) ;
#542 = VECTOR ( 'NONE', #411, 1000.000000000000000 ) ;
#543 = DIRECTION ( 'NONE',  ( 0.000000000000000000, 0.000000000000000000, 1.000000000000000000 ) ) ;
#544 = ORIENTED_EDGE ( 'NONE', *, *, #987, .T. ) ;
#545 = AXIS2_PLACEMENT_3D ( 'NONE', #191, #967, #372 ) ;
#546 = ORIENTED_EDGE ( 'NONE', *, *, #67, .T. ) ;
#547 = CARTESIAN_POINT ( 'NONE',  ( 10.00000000000001599, -0.0009999999999992653654, -7.000000000000015099 ) ) ;
#548 = ORIENTED_EDGE ( 'NONE', *, *, #164, .F. ) ;
#549 = AXIS2_PLACEMENT_3D ( 'NONE', #832, #304, #415 ) ;
#550 = VECTOR ( 'NONE', #944, 999.9999999999998863 ) ;
#551 = CARTESIAN_POINT ( 'NONE',  ( 11.76776695296638664, 8.086661668041969619, -14.97380942164799755 ) ) ;
#552 = CARTESIAN_POINT ( 'NONE',  ( 2.999999999999999112, 2.000000000000000000, 0.000000000000000000 ) ) ;
#553 = EDGE_LOOP ( 'NONE', ( #215, #1260, #243, #333 ) ) ;
#554 = EDGE_CURVE ( 'NONE', #1098, #1155, #52, .T. ) ;
#555 = ORIENTED_EDGE ( 'NONE', *, *, #317, .F. ) ;
#556 = LINE ( 'NONE', #27, #520 ) ;
#557 = DIRECTION ( 'NONE',  ( 0.7071067811865477948, 0.000000000000000000, 0.7071067811865473507 ) ) ;
#558 = ORIENTED_EDGE ( 'NONE', *, *, #500, .F. ) ;
#559 = CARTESIAN_POINT ( 'NONE',  ( -1.500000000000006217, 6.886661668041969442, -1.500000000000010658 ) ) ;
#560 = ORIENTED_EDGE ( 'NONE', *, *, #1229, .F. ) ;
#561 = ORIENTED_EDGE ( 'NONE', *, *, #533, .F. ) ;
#562 = ADVANCED_FACE ( 'NONE', ( #64 ), #535, .T. ) ;
#563 = PLANE ( 'NONE',  #545 ) ;
#564 = VECTOR ( 'NONE', #823, 1000.000000000000114 ) ;
#565 = ORIENTED_EDGE ( 'NONE', *, *, #940, .F. ) ;
#566 = CARTESIAN_POINT ( 'NONE',  ( 7.399937132373549886, 2.000000000000000000, 7.399937132373523241 ) ) ;
#567 = CARTESIAN_POINT ( 'NONE',  ( 14.97380942164800466, 8.086661668041969619, -8.232233047033640005 ) ) ;
#568 = VERTEX_POINT ( 'NONE', #876 ) ;
#569 = ORIENTED_EDGE ( 'NONE', *, *, #957, .T. ) ;
#570 = VECTOR ( 'NONE', #385, 1000.000000000000000 ) ;
#571 = DIRECTION ( 'NONE',  ( 1.000000000000000000, -0.000000000000000000, 0.000000000000000000 ) ) ;
#572 = VERTEX_POINT ( 'NONE', #552 ) ;
#573 = ADVANCED_FACE ( 'NONE', ( #453 ), #256, .F. ) ;
#574 = FACE_OUTER_BOUND ( 'NONE', #141, .T. ) ;
#575 = VERTEX_POINT ( 'NONE', #218 ) ;
#576 = CARTESIAN_POINT ( 'NONE',  ( 3.258423625385640232, 6.886661668041969442, -9.999999999999989342 ) ) ;
#577 = CARTESIAN_POINT ( 'NONE',  ( -1.500000000000029088, 2.000000000000000000, -1.500000000000033973 ) ) ;
#578 = ORIENTED_EDGE ( 'NONE', *, *, #1315, .F. ) ;
#579 = EDGE_CURVE ( 'NONE', #365, #640, #958, .T. ) ;
#580 = FACE_BOUND ( 'NONE', #1141, .T. ) ;
#581 = EDGE_LOOP ( 'NONE', ( #181, #912, #544, #410, #310, #353, #349, #316, #945, #1138, #738, #754, #621, #772, #1296, #1095 ) ) ;
#582 = PLANE ( 'NONE',  #110 ) ;
#583 = DIRECTION ( 'NONE',  ( -0.7071067811865477948, -0.000000000000000000, -0.7071067811865473507 ) ) ;
#584 = EDGE_CURVE ( 'NONE', #86, #783, #775, .T. ) ;
#585 = CARTESIAN_POINT ( 'NONE',  ( 17.00000000000000000, 2.000000000000000000, -20.00000000000000000 ) ) ;
#586 = PLANE ( 'NONE',  #803 ) ;
#587 = FACE_OUTER_BOUND ( 'NONE', #745, .T. ) ;
#588 = AXIS2_PLACEMENT_3D ( 'NONE', #97, #496, #394 ) ;
#589 = PLANE ( 'NONE',  #867 ) ;
#590 = PLANE ( 'NONE',  #917 ) ;
#591 = CARTESIAN_POINT ( 'NONE',  ( 0.000000000000000000, 2.000000000000000000, -3.000000000000009770 ) ) ;
#592 = VECTOR ( 'NONE', #1075, 1000.000000000000000 ) ;
#593 = EDGE_CURVE ( 'NONE', #1101, #1252, #769, .T. ) ;
#594 = DIRECTION ( 'NONE',  ( 0.7071067811865475727, 0.000000000000000000, -0.7071067811865474617 ) ) ;
#595 = DIRECTION ( 'NONE',  ( -0.7071067811865474617, 0.000000000000000000, -0.7071067811865476838 ) ) ;
#596 = DIRECTION ( 'NONE',  ( 0.000000000000000000, -0.000000000000000000, -1.000000000000000000 ) ) ;
#597 = FACE_OUTER_BOUND ( 'NONE', #963, .T. ) ;
#598 = DIRECTION ( 'NONE',  ( -9.008148811242255230E-15, -0.5102736053747384259, -0.8600121206459043766 ) ) ;
#599 = EDGE_CURVE ( 'NONE', #1191, #992, #339, .T. ) ;
#600 = DIRECTION ( 'NONE',  ( 0.000000000000000000, -1.000000000000000000, 0.000000000000000000 ) ) ;
#601 = VERTEX_POINT ( 'NONE', #854 ) ;
#602 = DIRECTION ( 'NONE',  ( -0.7071067811865477948, -0.000000000000000000, -0.7071067811865473507 ) ) ;
#603 = VECTOR ( 'NONE', #442, 1000.000000000000000 ) ;
#604 = CARTESIAN_POINT ( 'NONE',  ( 20.00000000000003197, 2.000000000000000000, -3.000000000000033751 ) ) ;
#605 = CARTESIAN_POINT ( 'NONE',  ( 8.232233047033632900, 8.086661668041969619, -5.026190578351998894 ) ) ;
#606 = LINE ( 'NONE', #810, #1044 ) ;
#607 = ORIENTED_EDGE ( 'NONE', *, *, #93, .T. ) ;
#608 = EDGE_CURVE ( 'NONE', #130, #1191, #661, .T. ) ;
#609 = VECTOR ( 'NONE', #671, 1000.000000000000000 ) ;
#610 = LINE ( 'NONE', #227, #849 ) ;
#611 = VECTOR ( 'NONE', #710, 1000.000000000000000 ) ;
#612 = CARTESIAN_POINT ( 'NONE',  ( 0.000000000000000000, 0.000000000000000000, -20.00000000000000000 ) ) ;
#613 = LINE ( 'NONE', #95, #1021 ) ;
#614 = VECTOR ( 'NONE', #1211, 1000.000000000000000 ) ;
#615 = ORIENTED_EDGE ( 'NONE', *, *, #1133, .T. ) ;
#616 = LINE ( 'NONE', #121, #1135 ) ;
#617 = EDGE_CURVE ( 'NONE', #681, #281, #618, .T. ) ;
#618 = LINE ( 'NONE', #1063, #767 ) ;
#619 = PLANE ( 'NONE',  #1146 ) ;
#620 = LINE ( 'NONE', #323, #383 ) ;
#621 = ORIENTED_EDGE ( 'NONE', *, *, #515, .T. ) ;
#622 = LINE ( 'NONE', #210, #542 ) ;
#623 = EDGE_CURVE ( 'NONE', #57, #783, #58, .T. ) ;
#624 = LINE ( 'NONE', #426, #127 ) ;
#625 = ORIENTED_EDGE ( 'NONE', *, *, #1184, .F. ) ;
#626 = CARTESIAN_POINT ( 'NONE',  ( 10.00000000000001776, 6.886661668041969442, -16.74157637461436465 ) ) ;
#627 = VECTOR ( 'NONE', #748, 1000.000000000000000 ) ;
#628 = ORIENTED_EDGE ( 'NONE', *, *, #629, .T. ) ;
#629 = EDGE_CURVE ( 'NONE', #167, #866, #1263, .T. ) ;
#630 = DIRECTION ( 'NONE',  ( -9.813077866773593251E-17, 1.000000000000000000, 9.813077866773592019E-17 ) ) ;
#631 = FACE_OUTER_BOUND ( 'NONE', #499, .T. ) ;
#632 = ORIENTED_EDGE ( 'NONE', *, *, #698, .F. ) ;
#633 = VERTEX_POINT ( 'NONE', #242 ) ;
#634 = EDGE_CURVE ( 'NONE', #989, #972, #1273, .T. ) ;
#635 = DIRECTION ( 'NONE',  ( -0.7071067811865462405, 0.000000000000000000, 0.7071067811865489050 ) ) ;
#636 = DIRECTION ( 'NONE',  ( 0.000000000000000000, 0.000000000000000000, 1.000000000000000000 ) ) ;
#637 = ORIENTED_EDGE ( 'NONE', *, *, #808, .F. ) ;
#638 = DIRECTION ( 'NONE',  ( -0.5416752204197022857, -0.6427876096865402511, 0.5416752204197002873 ) ) ;
#639 = DIRECTION ( 'NONE',  ( 1.000000000000000000, 0.000000000000000000, -0.000000000000000000 ) ) ;
#640 = VERTEX_POINT ( 'NONE', #752 ) ;
#641 = ORIENTED_EDGE ( 'NONE', *, *, #1096, .T. ) ;
#642 = LINE ( 'NONE', #1257, #231 ) ;
#643 = CARTESIAN_POINT ( 'NONE',  ( 1.499999999999971356, 2.000000000000000000, 1.499999999999976685 ) ) ;
#644 = ORIENTED_EDGE ( 'NONE', *, *, #13, .T. ) ;
#645 = EDGE_CURVE ( 'NONE', #825, #23, #1172, .T. ) ;
#646 = LINE ( 'NONE', #860, #1052 ) ;
#647 = ORIENTED_EDGE ( 'NONE', *, *, #334, .T. ) ;
#648 = ORIENTED_EDGE ( 'NONE', *, *, #1193, .F. ) ;
#649 = LINE ( 'NONE', #547, #1237 ) ;
#650 = CARTESIAN_POINT ( 'NONE',  ( 3.258423625385640232, 6.886661668041969442, -9.999999999999989342 ) ) ;
#651 = ORIENTED_EDGE ( 'NONE', *, *, #334, .F. ) ;
#652 = PRESENTATION_LAYER_ASSIGNMENT (  '', '', ( #1240 ) ) ;
#653 = VECTOR ( 'NONE', #695, 1000.000000000000000 ) ;
#654 = EDGE_CURVE ( 'NONE', #1242, #959, #646, .T. ) ;
#655 = DIRECTION ( 'NONE',  ( 0.7071067811865487940, 0.000000000000000000, 0.7071067811865463515 ) ) ;
#656 = ORIENTED_EDGE ( 'NONE', *, *, #1017, .T. ) ;
#657 = ORIENTED_EDGE ( 'NONE', *, *, #623, .T. ) ;
#658 = LINE ( 'NONE', #68, #1198 ) ;
#659 = ORIENTED_EDGE ( 'NONE', *, *, #554, .T. ) ;
#660 = DIRECTION ( 'NONE',  ( 0.000000000000000000, 1.000000000000000000, 0.000000000000000000 ) ) ;
#661 = LINE ( 'NONE', #459, #32 ) ;
#662 = ORIENTED_EDGE ( 'NONE', *, *, #108, .F. ) ;
#663 = EDGE_LOOP ( 'NONE', ( #1049, #982, #615, #644 ) ) ;
#664 = EDGE_CURVE ( 'NONE', #572, #751, #1287, .T. ) ;
#665 = LINE ( 'NONE', #997, #439 ) ;
#666 = ORIENTED_EDGE ( 'NONE', *, *, #950, .T. ) ;
#667 = VECTOR ( 'NONE', #1005, 1000.000000000000000 ) ;
#668 = ORIENTED_EDGE ( 'NONE', *, *, #194, .F. ) ;
#669 = PLANE ( 'NONE',  #313 ) ;
#670 = AXIS2_PLACEMENT_3D ( 'NONE', #800, #1109, #684 ) ;
#671 = DIRECTION ( 'NONE',  ( 0.000000000000000000, 1.000000000000000000, 0.000000000000000000 ) ) ;
#672 = EDGE_CURVE ( 'NONE', #780, #419, #43, .T. ) ;
#673 = ORIENTED_EDGE ( 'NONE', *, *, #1167, .F. ) ;
#674 = VECTOR ( 'NONE', #638, 1000.000000000000114 ) ;
#675 = VECTOR ( 'NONE', #1119, 1000.000000000000000 ) ;
#676 = LINE ( 'NONE', #183, #424 ) ;
#677 = EDGE_LOOP ( 'NONE', ( #55, #1087, #877, #1083 ) ) ;
#678 = VECTOR ( 'NONE', #355, 1000.000000000000114 ) ;
#679 = DIRECTION ( 'NONE',  ( -0.000000000000000000, 1.000000000000000000, -0.000000000000000000 ) ) ;
#680 = DIRECTION ( 'NONE',  ( -0.7071067811865476838, 0.000000000000000000, 0.7071067811865474617 ) ) ;
#681 = VERTEX_POINT ( 'NONE', #567 ) ;
#682 = ADVANCED_FACE ( 'NONE', ( #72, #466 ), #477, .T. ) ;
#683 = DIRECTION ( 'NONE',  ( 0.000000000000000000, 1.000000000000000000, 0.000000000000000000 ) ) ;
#684 = DIRECTION ( 'NONE',  ( 0.7071067811865477948, 0.000000000000000000, 0.7071067811865473507 ) ) ;
#685 = DIRECTION ( 'NONE',  ( 0.000000000000000000, -1.000000000000000000, 0.000000000000000000 ) ) ;
#686 = CARTESIAN_POINT ( 'NONE',  ( 14.97380942164800466, 6.886661668041969442, -8.232233047033640005 ) ) ;
#687 = DIRECTION ( 'NONE',  ( 0.000000000000000000, 1.000000000000000000, -0.000000000000000000 ) ) ;
#688 = EDGE_CURVE ( 'NONE', #572, #812, #1088, .T. ) ;
#689 = AXIS2_PLACEMENT_3D ( 'NONE', #650, #160, #557 ) ;
#690 = DIRECTION ( 'NONE',  ( -0.5416752204197023968, 0.6427876096865403621, -0.5416752204197002873 ) ) ;
#691 = PLANE ( 'NONE',  #697 ) ;
#692 = VECTOR ( 'NONE', #1192, 1000.000000000000000 ) ;
#693 = CARTESIAN_POINT ( 'NONE',  ( 0.000000000000000000, 0.000000000000000000, -17.00000000000000000 ) ) ;
#694 = CARTESIAN_POINT ( 'NONE',  ( 0.000000000000000000, 0.000000000000000000, 0.000000000000000000 ) ) ;
#695 = DIRECTION ( 'NONE',  ( -0.5416752204197022857, 0.6427876096865402511, -0.5416752204197003984 ) ) ;
#696 = AXIS2_PLACEMENT_3D ( 'NONE', #1236, #200, #408 ) ;
#697 = AXIS2_PLACEMENT_3D ( 'NONE', #902, #723, #802 ) ;
#698 = EDGE_CURVE ( 'NONE', #742, #433, #1097, .T. ) ;
#699 = FACE_OUTER_BOUND ( 'NONE', #1166, .T. ) ;
#700 = VECTOR ( 'NONE', #347, 1000.000000000000000 ) ;
#701 = FACE_OUTER_BOUND ( 'NONE', #467, .T. ) ;
#702 = PLANE ( 'NONE',  #1234 ) ;
#703 = FACE_OUTER_BOUND ( 'NONE', #423, .T. ) ;
#704 = ORIENTED_EDGE ( 'NONE', *, *, #147, .F. ) ;
#705 = CARTESIAN_POINT ( 'NONE',  ( 10.00000000000001776, 6.886661668041969442, -16.74157637461436465 ) ) ;
#706 = CARTESIAN_POINT ( 'NONE',  ( 20.00000000000000711, 2.000000000000000000, -16.99999999999999645 ) ) ;
#707 = ADVANCED_FACE ( 'NONE', ( #574 ), #90, .F. ) ;
#708 = CARTESIAN_POINT ( 'NONE',  ( 4.100062867626484753, 2.000000000000000000, -1.100062867626480756 ) ) ;
#709 = DIRECTION ( 'NONE',  ( 0.000000000000000000, -0.000000000000000000, -1.000000000000000000 ) ) ;
#710 = DIRECTION ( 'NONE',  ( -0.7071067811865477948, -0.000000000000000000, -0.7071067811865473507 ) ) ;
#711 = ORIENTED_EDGE ( 'NONE', *, *, #128, .F. ) ;
#712 = PLANE ( 'NONE',  #272 ) ;
#713 = AXIS2_PLACEMENT_3D ( 'NONE', #1130, #498, #892 ) ;
#714 = CARTESIAN_POINT ( 'NONE',  ( 0.4545194776719750918, 1.233955556881022764, -16.54548052232786404 ) ) ;
#715 = EDGE_CURVE ( 'NONE', #1155, #681, #6, .T. ) ;
#716 = CARTESIAN_POINT ( 'NONE',  ( -8.673617379884035472E-16, 2.000000000000000000, -3.000000000000009770 ) ) ;
#717 = PLANE ( 'NONE',  #801 ) ;
#718 = EDGE_LOOP ( 'NONE', ( #69, #251, #1280, #450 ) ) ;
#719 = AXIS2_PLACEMENT_3D ( 'NONE', #232, #537, #151 ) ;
#720 = CARTESIAN_POINT ( 'NONE',  ( 5.218038224127160341, 6.886661668041973883, -8.218038224127152347 ) ) ;
#721 = VECTOR ( 'NONE', #602, 1000.000000000000000 ) ;
#722 = AXIS2_PLACEMENT_3D ( 'NONE', #838, #1251, #1153 ) ;
#723 = DIRECTION ( 'NONE',  ( 0.7071067811865463515, 0.000000000000000000, 0.7071067811865487940 ) ) ;
#724 = VECTOR ( 'NONE', #1082, 1000.000000000000000 ) ;
#725 = LINE ( 'NONE', #911, #961 ) ;
#726 = VERTEX_POINT ( 'NONE', #495 ) ;
#727 = CARTESIAN_POINT ( 'NONE',  ( 0.000000000000000000, 2.000000000000000000, -17.00000000000000000 ) ) ;
#728 = EDGE_LOOP ( 'NONE', ( #529, #158, #1232, #184, #651, #776, #565, #539, #933, #258, #1183, #1271, #512, #337, #83, #966, #906, #165, #300, #852, #836, #240, #357, #569 ) ) ;
#729 = LINE ( 'NONE', #421, #1285 ) ;
#730 = CYLINDRICAL_SURFACE ( 'NONE', #307, 2.999999999999999112 ) ;
#731 = CARTESIAN_POINT ( 'NONE',  ( -1.500000000000005995, 2.000000000000000000, -1.500000000000010214 ) ) ;
#732 = EDGE_LOOP ( 'NONE', ( #161, #1180, #948, #546 ) ) ;
#733 = DIRECTION ( 'NONE',  ( -0.7071067811865476838, 0.000000000000000000, 0.7071067811865474617 ) ) ;
#734 = EDGE_CURVE ( 'NONE', #1197, #443, #374, .T. ) ;
#735 = ORIENTED_EDGE ( 'NONE', *, *, #255, .F. ) ;
#736 = DIRECTION ( 'NONE',  ( 0.7071067811865463515, 0.000000000000000000, 0.7071067811865487940 ) ) ;
#737 = DIRECTION ( 'NONE',  ( 0.7071067811865413555, -1.387778780781445182E-16, -0.7071067811865536790 ) ) ;
#738 = ORIENTED_EDGE ( 'NONE', *, *, #599, .T. ) ;
#739 = VECTOR ( 'NONE', #89, 1000.000000000000114 ) ;
#740 = ORIENTED_EDGE ( 'NONE', *, *, #189, .T. ) ;
#741 = EDGE_CURVE ( 'NONE', #747, #1071, #676, .T. ) ;
#742 = VERTEX_POINT ( 'NONE', #392 ) ;
#743 = CARTESIAN_POINT ( 'NONE',  ( 1.499999999999994449, 2.000000000000000000, 1.499999999999999556 ) ) ;
#744 = CARTESIAN_POINT ( 'NONE',  ( 10.00000000000001599, -0.0009999999999992653654, -10.00000000000001421 ) ) ;
#745 = EDGE_LOOP ( 'NONE', ( #178, #883, #886, #461 ) ) ;
#746 = CARTESIAN_POINT ( 'NONE',  ( 5.129211812692832773, -1.668223237351519543E-15, -11.87078818730718410 ) ) ;
#747 = VERTEX_POINT ( 'NONE', #894 ) ;
#748 = DIRECTION ( 'NONE',  ( 0.7071067811865487940, 0.000000000000000000, -0.7071067811865463515 ) ) ;
#749 = PLANE ( 'NONE',  #926 ) ;
#750 = EDGE_CURVE ( 'NONE', #1078, #989, #908, .T. ) ;
#751 = VERTEX_POINT ( 'NONE', #1207 ) ;
#752 = CARTESIAN_POINT ( 'NONE',  ( 5.218038224127117708, 6.886661668041969442, -11.78196177587280324 ) ) ;
#753 = VERTEX_POINT ( 'NONE', #1008 ) ;
#754 = ORIENTED_EDGE ( 'NONE', *, *, #173, .F. ) ;
#755 = LINE ( 'NONE', #743, #627 ) ;
#756 = ORIENTED_EDGE ( 'NONE', *, *, #362, .F. ) ;
#757 =( GEOMETRIC_REPRESENTATION_CONTEXT ( 3 ) GLOBAL_UNCERTAINTY_ASSIGNED_CONTEXT ( ( #228 ) ) GLOBAL_UNIT_ASSIGNED_CONTEXT ( ( #817, #918, #214 ) ) REPRESENTATION_CONTEXT ( 'NONE', 'WORKASPACE' ) );
#758 = ADVANCED_FACE ( 'NONE', ( #400 ), #1014, .T. ) ;
#759 = LINE ( 'NONE', #540, #1006 ) ;
#760 = DIRECTION ( 'NONE',  ( 0.000000000000000000, 1.000000000000000000, 0.000000000000000000 ) ) ;
#761 = ORIENTED_EDGE ( 'NONE', *, *, #1000, .T. ) ;
#762 = AXIS2_PLACEMENT_3D ( 'NONE', #1114, #104, #190 ) ;
#763 = EDGE_LOOP ( 'NONE', ( #558, #364, #330, #805, #1203 ) ) ;
#764 = DIRECTION ( 'NONE',  ( -0.7071067811865476838, 0.000000000000000000, 0.7071067811865474617 ) ) ;
#765 = ORIENTED_EDGE ( 'NONE', *, *, #391, .T. ) ;
#766 = MECHANICAL_DESIGN_GEOMETRIC_PRESENTATION_REPRESENTATION (  '', ( #1240 ), #757 ) ;
#767 = VECTOR ( 'NONE', #1294, 1000.000000000000000 ) ;
#768 = ADVANCED_FACE ( 'NONE', ( #580, #799 ), #590, .T. ) ;
#769 = LINE ( 'NONE', #964, #1007 ) ;
#770 = EDGE_CURVE ( 'NONE', #260, #1118, #340, .T. ) ;
#771 = ORIENTED_EDGE ( 'NONE', *, *, #449, .T. ) ;
#772 = ORIENTED_EDGE ( 'NONE', *, *, #617, .T. ) ;
#773 = DIRECTION ( 'NONE',  ( -1.000000000000000000, -0.000000000000000000, 1.962615573354718108E-15 ) ) ;
#774 = VERTEX_POINT ( 'NONE', #283 ) ;
#775 = LINE ( 'NONE', #437, #279 ) ;
#776 = ORIENTED_EDGE ( 'NONE', *, *, #654, .T. ) ;
#777 = EDGE_CURVE ( 'NONE', #1037, #452, #85, .T. ) ;
#778 = DIRECTION ( 'NONE',  ( -0.4545194776720450913, 0.7660444431189773473, 0.4545194776720435370 ) ) ;
#779 = LINE ( 'NONE', #577, #1004 ) ;
#780 = VERTEX_POINT ( 'NONE', #188 ) ;
#781 = VECTOR ( 'NONE', #31, 1000.000000000000000 ) ;
#782 = DIRECTION ( 'NONE',  ( -0.7071067811865487940, -0.000000000000000000, 0.7071067811865463515 ) ) ;
#783 = VERTEX_POINT ( 'NONE', #1204 ) ;
#784 = CARTESIAN_POINT ( 'NONE',  ( 5.129211812692819450, 6.886661668041969442, -8.129211812692812344 ) ) ;
#785 = PRODUCT_RELATED_PRODUCT_CATEGORY ( 'part', '', ( #1032 ) ) ;
#786 = VECTOR ( 'NONE', #991, 1000.000000000000000 ) ;
#787 = CARTESIAN_POINT ( 'NONE',  ( 0.000000000000000000, 2.000000000000000000, 0.000000000000000000 ) ) ;
#788 = ORIENTED_EDGE ( 'NONE', *, *, #407, .F. ) ;
#789 = DIRECTION ( 'NONE',  ( 0.000000000000000000, 1.000000000000000000, 0.000000000000000000 ) ) ;
#790 = FACE_OUTER_BOUND ( 'NONE', #11, .T. ) ;
#791 = LINE ( 'NONE', #1188, #1048 ) ;
#792 = EDGE_CURVE ( 'NONE', #959, #568, #794, .T. ) ;
#793 = CARTESIAN_POINT ( 'NONE',  ( 14.97380942164800466, 6.886661668041969442, -8.232233047033640005 ) ) ;
#794 = LINE ( 'NONE', #177, #249 ) ;
#795 = LINE ( 'NONE', #289, #1129 ) ;
#796 = CARTESIAN_POINT ( 'NONE',  ( 16.74157637461437531, 8.086661668041969619, -10.00000000000001066 ) ) ;
#797 = FACE_OUTER_BOUND ( 'NONE', #360, .T. ) ;
#798 = EDGE_CURVE ( 'NONE', #1118, #260, #979, .T. ) ;
#799 = FACE_OUTER_BOUND ( 'NONE', #728, .T. ) ;
#800 = CARTESIAN_POINT ( 'NONE',  ( 3.258423625385640232, 6.886661668041969442, -9.999999999999989342 ) ) ;
#801 = AXIS2_PLACEMENT_3D ( 'NONE', #793, #286, #238 ) ;
#802 = DIRECTION ( 'NONE',  ( -0.000000000000000000, -1.000000000000000000, 0.000000000000000000 ) ) ;
#803 = AXIS2_PLACEMENT_3D ( 'NONE', #371, #778, #376 ) ;
#804 = CARTESIAN_POINT ( 'NONE',  ( 0.000000000000000000, 0.000000000000000000, -3.000000000000009770 ) ) ;
#805 = ORIENTED_EDGE ( 'NONE', *, *, #255, .T. ) ;
#806 = AXIS2_PLACEMENT_3D ( 'NONE', #910, #111, #594 ) ;
#807 = CARTESIAN_POINT ( 'NONE',  ( 18.50000000000003197, -0.000000000000000000, -18.49999999999996803 ) ) ;
#808 = EDGE_CURVE ( 'NONE', #866, #1078, #988, .T. ) ;
#809 = DIRECTION ( 'NONE',  ( -1.962615573354718108E-15, 0.000000000000000000, -1.000000000000000000 ) ) ;
#810 = CARTESIAN_POINT ( 'NONE',  ( 8.500000000000000000, 2.000000000000000000, -8.500000000000030198 ) ) ;
#811 = CARTESIAN_POINT ( 'NONE',  ( 3.000000000000009770, 0.000000000000000000, -20.00000000000000000 ) ) ;
#812 = VERTEX_POINT ( 'NONE', #486 ) ;
#813 = DIRECTION ( 'NONE',  ( 0.000000000000000000, -1.000000000000000000, 0.000000000000000000 ) ) ;
#814 = EDGE_CURVE ( 'NONE', #1071, #812, #1300, .T. ) ;
#815 = DIRECTION ( 'NONE',  ( 0.000000000000000000, -1.000000000000000000, 0.000000000000000000 ) ) ;
#816 = CARTESIAN_POINT ( 'NONE',  ( 8.129211812692824779, 0.000000000000000000, -5.129211812692807904 ) ) ;
#817 =( LENGTH_UNIT ( ) NAMED_UNIT ( * ) SI_UNIT ( .MILLI., .METRE. ) );
#818 = ORIENTED_EDGE ( 'NONE', *, *, #1247, .F. ) ;
#819 = VECTOR ( 'NONE', #136, 1000.000000000000000 ) ;
#820 = FACE_OUTER_BOUND ( 'NONE', #960, .T. ) ;
#821 = DIRECTION ( 'NONE',  ( 0.7071067811865463515, -0.000000000000000000, 0.7071067811865487940 ) ) ;
#822 = ADVANCED_FACE ( 'NONE', ( #1241 ), #712, .F. ) ;
#823 = DIRECTION ( 'NONE',  ( 0.7071067811865413555, 0.000000000000000000, -0.7071067811865536790 ) ) ;
#824 = PLANE ( 'NONE',  #315 ) ;
#825 = VERTEX_POINT ( 'NONE', #720 ) ;
#826 = AXIS2_PLACEMENT_3D ( 'NONE', #1025, #112, #129 ) ;
#827 = FACE_OUTER_BOUND ( 'NONE', #1195, .T. ) ;
#828 = VECTOR ( 'NONE', #843, 1000.000000000000114 ) ;
#829 = ORIENTED_EDGE ( 'NONE', *, *, #770, .F. ) ;
#830 = LINE ( 'NONE', #1244, #1154 ) ;
#831 =( NAMED_UNIT ( * ) SI_UNIT ( $, .STERADIAN. ) SOLID_ANGLE_UNIT ( ) );
#832 = CARTESIAN_POINT ( 'NONE',  ( 21.50000000000001066, -1.668223237351514809E-15, -18.49999999999999645 ) ) ;
#833 = EDGE_LOOP ( 'NONE', ( #49, #74, #656, #668, #473 ) ) ;
#834 = EDGE_CURVE ( 'NONE', #427, #452, #318, .T. ) ;
#835 = DIRECTION ( 'NONE',  ( 0.5416752204197060605, 0.6427876096865402511, 0.5416752204196965126 ) ) ;
#836 = ORIENTED_EDGE ( 'NONE', *, *, #834, .F. ) ;
#837 = CARTESIAN_POINT ( 'NONE',  ( 8.218038224127152347, 6.886661668041969442, -5.218038224127135472 ) ) ;
#838 = CARTESIAN_POINT ( 'NONE',  ( 0.000000000000000000, 0.000000000000000000, 0.000000000000000000 ) ) ;
#839 = ORIENTED_EDGE ( 'NONE', *, *, #1212, .F. ) ;
#840 = EDGE_CURVE ( 'NONE', #365, #1080, #622, .T. ) ;
#841 = LINE ( 'NONE', #1168, #1110 ) ;
#842 = ORIENTED_EDGE ( 'NONE', *, *, #664, .F. ) ;
#843 = DIRECTION ( 'NONE',  ( -0.7071067811865536790, 0.000000000000000000, -0.7071067811865413555 ) ) ;
#844 = DIRECTION ( 'NONE',  ( 0.7071067811865476838, 0.000000000000000000, 0.7071067811865473507 ) ) ;
#845 = VERTEX_POINT ( 'NONE', #36 ) ;
#846 = EDGE_CURVE ( 'NONE', #1080, #126, #507, .T. ) ;
#847 = ORIENTED_EDGE ( 'NONE', *, *, #645, .F. ) ;
#848 = VECTOR ( 'NONE', #41, 1000.000000000000114 ) ;
#849 = VECTOR ( 'NONE', #1126, 1000.000000000000114 ) ;
#850 = CARTESIAN_POINT ( 'NONE',  ( 17.00000000000000000, 2.000000000000000000, -20.00000000000000000 ) ) ;
#851 = LINE ( 'NONE', #1169, #903 ) ;
#852 = ORIENTED_EDGE ( 'NONE', *, *, #777, .T. ) ;
#853 = CARTESIAN_POINT ( 'NONE',  ( 8.218038224127095503, 6.886661668041970330, -14.78196177587283522 ) ) ;
#854 = CARTESIAN_POINT ( 'NONE',  ( 4.100062867626399488, 2.000000000000001776, -18.89993713237345929 ) ) ;
#855 = ORIENTED_EDGE ( 'NONE', *, *, #117, .T. ) ;
#856 = ORIENTED_EDGE ( 'NONE', *, *, #271, .T. ) ;
#857 = EDGE_CURVE ( 'NONE', #1252, #974, #1035, .T. ) ;
#858 = DIRECTION ( 'NONE',  ( 1.962615573354714164E-15, -0.000000000000000000, 1.000000000000000000 ) ) ;
#859 = ORIENTED_EDGE ( 'NONE', *, *, #792, .F. ) ;
#860 = CARTESIAN_POINT ( 'NONE',  ( 21.50000000000001066, 6.886661668041969442, -18.49999999999999645 ) ) ;
#861 = VERTEX_POINT ( 'NONE', #935 ) ;
#862 = ORIENTED_EDGE ( 'NONE', *, *, #134, .T. ) ;
#863 = EDGE_CURVE ( 'NONE', #427, #640, #1147, .T. ) ;
#864 = DIRECTION ( 'NONE',  ( -0.7071067811865463515, 0.000000000000000000, -0.7071067811865487940 ) ) ;
#865 = FACE_OUTER_BOUND ( 'NONE', #1074, .T. ) ;
#866 = VERTEX_POINT ( 'NONE', #217 ) ;
#867 = AXIS2_PLACEMENT_3D ( 'NONE', #694, #600, #709 ) ;
#868 = CARTESIAN_POINT ( 'NONE',  ( 20.00000000000000000, 2.000000000000000000, -16.99999999999998934 ) ) ;
#869 = ORIENTED_EDGE ( 'NONE', *, *, #342, .F. ) ;
#870 = AXIS2_PLACEMENT_3D ( 'NONE', #901, #679, #185 ) ;
#871 = EDGE_LOOP ( 'NONE', ( #704, #277, #44, #440, #145, #157, #114, #518, #1158, #525, #174, #578, #1051, #771, #34, #247 ) ) ;
#872 = VECTOR ( 'NONE', #148, 1000.000000000000000 ) ;
#873 = CARTESIAN_POINT ( 'NONE',  ( 5.026190578352032645, 8.086661668041969619, -8.631419915757122821E-15 ) ) ;
#874 = ORIENTED_EDGE ( 'NONE', *, *, #688, .F. ) ;
#875 = EDGE_CURVE ( 'NONE', #17, #974, #610, .T. ) ;
#876 = CARTESIAN_POINT ( 'NONE',  ( 14.87078818730718410, 8.086661668041969619, -11.87078818730719121 ) ) ;
#877 = ORIENTED_EDGE ( 'NONE', *, *, #117, .F. ) ;
#878 = VERTEX_POINT ( 'NONE', #1227 ) ;
#879 = CARTESIAN_POINT ( 'NONE',  ( 5.026190578352013993, 8.086661668041969619, -11.76776695296636355 ) ) ;
#880 = ORIENTED_EDGE ( 'NONE', *, *, #907, .F. ) ;
#881 = ADVANCED_FACE ( 'NONE', ( #827 ), #116, .T. ) ;
#882 = CARTESIAN_POINT ( 'NONE',  ( 10.00000000000001599, 8.086661668041969619, -10.00000000000001421 ) ) ;
#883 = ORIENTED_EDGE ( 'NONE', *, *, #350, .T. ) ;
#884 = CARTESIAN_POINT ( 'NONE',  ( 5.129211812692820338, -1.668223237351512246E-15, -8.129211812692812344 ) ) ;
#885 = CARTESIAN_POINT ( 'NONE',  ( 14.97380942164802420, 6.886661668041969442, -3.673478945421491457E-14 ) ) ;
#886 = ORIENTED_EDGE ( 'NONE', *, *, #579, .F. ) ;
#887 = AXIS2_PLACEMENT_3D ( 'NONE', #1013, #955, #1066 ) ;
#888 = DIRECTION ( 'NONE',  ( 0.000000000000000000, 0.000000000000000000, 1.000000000000000000 ) ) ;
#889 = DIRECTION ( 'NONE',  ( -0.4545194776720483110, 0.7660444431189773473, -0.4545194776720403174 ) ) ;
#890 = EDGE_CURVE ( 'NONE', #812, #460, #1134, .T. ) ;
#891 = DIRECTION ( 'NONE',  ( 1.717288626685373118E-15, -0.000000000000000000, 1.000000000000000000 ) ) ;
#892 = DIRECTION ( 'NONE',  ( 0.7071067811865475727, 0.000000000000000000, -0.7071067811865474617 ) ) ;
#893 = VECTOR ( 'NONE', #299, 1000.000000000000000 ) ;
#894 = CARTESIAN_POINT ( 'NONE',  ( 20.00000000000000355, 0.000000000000000000, -2.999999999999998668 ) ) ;
#895 = VECTOR ( 'NONE', #844, 1000.000000000000114 ) ;
#896 = CARTESIAN_POINT ( 'NONE',  ( 8.045480522327983053, 11.32061722492299083, -8.954519477672041816 ) ) ;
#897 = DIRECTION ( 'NONE',  ( -0.7071067811865487940, 0.000000000000000000, 0.7071067811865463515 ) ) ;
#898 = ADVANCED_FACE ( 'NONE', ( #820 ), #204, .T. ) ;
#899 = LINE ( 'NONE', #396, #149 ) ;
#900 = CARTESIAN_POINT ( 'NONE',  ( 16.54548052232796351, 1.233955556881022764, -19.54548052232796351 ) ) ;
#901 = CARTESIAN_POINT ( 'NONE',  ( 10.00000000000001599, 6.886661668041969442, -10.00000000000001421 ) ) ;
#902 = CARTESIAN_POINT ( 'NONE',  ( 0.000000000000000000, 2.000000000000000000, -17.00000000000000000 ) ) ;
#903 = VECTOR ( 'NONE', #1161, 1000.000000000000000 ) ;
#904 = CARTESIAN_POINT ( 'NONE',  ( 11.87078818730718410, 8.086661668041969619, -14.87078818730720009 ) ) ;
#905 = FACE_OUTER_BOUND ( 'NONE', #137, .T. ) ;
#906 = ORIENTED_EDGE ( 'NONE', *, *, #189, .F. ) ;
#907 = EDGE_CURVE ( 'NONE', #171, #167, #301, .T. ) ;
#908 = LINE ( 'NONE', #1112, #527 ) ;
#909 = CARTESIAN_POINT ( 'NONE',  ( -2.938783156337186350E-14, 8.086661668041969619, -14.97380942164797446 ) ) ;
#910 = CARTESIAN_POINT ( 'NONE',  ( 16.74157637461437531, 6.886661668041969442, -10.00000000000001066 ) ) ;
#911 = CARTESIAN_POINT ( 'NONE',  ( 8.232233047033632900, 6.886661668041969442, -5.026190578352000671 ) ) ;
#912 = ORIENTED_EDGE ( 'NONE', *, *, #70, .T. ) ;
#913 = VECTOR ( 'NONE', #417, 1000.000000000000000 ) ;
#914 = CARTESIAN_POINT ( 'NONE',  ( 1.499999999999890976, 6.886661668041969442, -21.49999999999992539 ) ) ;
#915 = EDGE_CURVE ( 'NONE', #751, #130, #18, .T. ) ;
#916 = PLANE ( 'NONE',  #154 ) ;
#917 = AXIS2_PLACEMENT_3D ( 'NONE', #103, #96, #596 ) ;
#918 =( NAMED_UNIT ( * ) PLANE_ANGLE_UNIT ( ) SI_UNIT ( $, .RADIAN. ) );
#919 = VERTEX_POINT ( 'NONE', #312 ) ;
#920 = DIRECTION ( 'NONE',  ( 0.7071067811865487940, 0.000000000000000000, 0.7071067811865463515 ) ) ;
#921 = EDGE_CURVE ( 'NONE', #281, #753, #616, .T. ) ;
#922 = FACE_OUTER_BOUND ( 'NONE', #1239, .T. ) ;
#923 = DIRECTION ( 'NONE',  ( 0.4545194776720451468, 0.7660444431189773473, 0.4545194776720435370 ) ) ;
#924 = FACE_OUTER_BOUND ( 'NONE', #46, .T. ) ;
#925 = ORIENTED_EDGE ( 'NONE', *, *, #976, .T. ) ;
#926 = AXIS2_PLACEMENT_3D ( 'NONE', #329, #923, #538 ) ;
#927 = LINE ( 'NONE', #1220, #721 ) ;
#928 = ORIENTED_EDGE ( 'NONE', *, *, #834, .T. ) ;
#929 = EDGE_CURVE ( 'NONE', #919, #1288, #1041, .T. ) ;
#930 = CARTESIAN_POINT ( 'NONE',  ( 8.232233047033643558, 6.886661668041969442, -14.97380942164799045 ) ) ;
#931 = CARTESIAN_POINT ( 'NONE',  ( -7.266007650902022547E-14, 2.000000000000000000, -16.99999999999990408 ) ) ;
#932 = VECTOR ( 'NONE', #38, 1000.000000000000000 ) ;
#933 = ORIENTED_EDGE ( 'NONE', *, *, #554, .F. ) ;
#934 = VECTOR ( 'NONE', #92, 1000.000000000000000 ) ;
#935 = CARTESIAN_POINT ( 'NONE',  ( 8.129211812692792805, 6.886661668041969442, -14.87078818730713792 ) ) ;
#936 = AXIS2_PLACEMENT_3D ( 'NONE', #1003, #1031, #212 ) ;
#937 = UNCERTAINTY_MEASURE_WITH_UNIT (LENGTH_MEASURE( 1.000000000000000082E-05 ), #219, 'distance_accuracy_value', 'NONE');
#938 = VECTOR ( 'NONE', #346, 1000.000000000000000 ) ;
#939 = VECTOR ( 'NONE', #1178, 1000.000000000000000 ) ;
#940 = EDGE_CURVE ( 'NONE', #753, #959, #927, .T. ) ;
#941 = DIRECTION ( 'NONE',  ( 0.7071067811865476838, 0.000000000000000000, 0.7071067811865473507 ) ) ;
#942 = LINE ( 'NONE', #643, #603 ) ;
#943 = ORIENTED_EDGE ( 'NONE', *, *, #950, .F. ) ;
#944 = DIRECTION ( 'NONE',  ( 0.7071067811865463515, 0.000000000000000000, 0.7071067811865487940 ) ) ;
#945 = ORIENTED_EDGE ( 'NONE', *, *, #915, .T. ) ;
#946 = LINE ( 'NONE', #335, #399 ) ;
#947 = CARTESIAN_POINT ( 'NONE',  ( -8.500000000000000000, -0.000000000000000000, -8.500000000000030198 ) ) ;
#948 = ORIENTED_EDGE ( 'NONE', *, *, #19, .T. ) ;
#949 = CARTESIAN_POINT ( 'NONE',  ( 11.87078818730718410, 8.086661668041971396, -14.87078818730720009 ) ) ;
#950 = EDGE_CURVE ( 'NONE', #572, #468, #24, .T. ) ;
#951 = CARTESIAN_POINT ( 'NONE',  ( 10.00000000000001776, 8.086661668041969619, -16.74157637461436465 ) ) ;
#952 = ORIENTED_EDGE ( 'NONE', *, *, #593, .F. ) ;
#953 = CARTESIAN_POINT ( 'NONE',  ( 18.50000000000003553, -1.668223237351514809E-15, 1.499999999999976241 ) ) ;
#954 = CARTESIAN_POINT ( 'NONE',  ( 18.89993713237352324, 2.000000000000000000, -15.89993713237351791 ) ) ;
#955 = DIRECTION ( 'NONE',  ( -1.000000000000000000, 0.000000000000000000, 1.734723475976807094E-16 ) ) ;
#956 = ORIENTED_EDGE ( 'NONE', *, *, #808, .T. ) ;
#957 = EDGE_CURVE ( 'NONE', #995, #861, #502, .T. ) ;
#958 = LINE ( 'NONE', #1164, #678 ) ;
#959 = VERTEX_POINT ( 'NONE', #1081 ) ;
#960 = EDGE_LOOP ( 'NONE', ( #464, #1297, #150, #1060 ) ) ;
#961 = VECTOR ( 'NONE', #404, 1000.000000000000000 ) ;
#962 = DIRECTION ( 'NONE',  ( -0.000000000000000000, 1.000000000000000000, -0.000000000000000000 ) ) ;
#963 = EDGE_LOOP ( 'NONE', ( #1040, #1125, #514, #405 ) ) ;
#964 = CARTESIAN_POINT ( 'NONE',  ( 3.000000000000009770, 2.000000000000000000, -20.00000000000000000 ) ) ;
#965 = ORIENTED_EDGE ( 'NONE', *, *, #155, .T. ) ;
#966 = ORIENTED_EDGE ( 'NONE', *, *, #698, .T. ) ;
#967 = DIRECTION ( 'NONE',  ( 0.000000000000000000, -1.000000000000000000, 0.000000000000000000 ) ) ;
#968 = CARTESIAN_POINT ( 'NONE',  ( 10.00000000000001599, 8.086661668041969619, -13.00000000000001421 ) ) ;
#969 = ORIENTED_EDGE ( 'NONE', *, *, #1159, .T. ) ;
#970 = CARTESIAN_POINT ( 'NONE',  ( 11.76776695296637065, 6.886661668041969442, -5.026190578352007776 ) ) ;
#971 = DIRECTION ( 'NONE',  ( 0.7071067811865487940, 0.000000000000000000, -0.7071067811865463515 ) ) ;
#972 = VERTEX_POINT ( 'NONE', #551 ) ;
#973 = APPLICATION_CONTEXT ( 'automotive_design' ) ;
#974 = VERTEX_POINT ( 'NONE', #1171 ) ;
#975 = LINE ( 'NONE', #378, #739 ) ;
#976 = EDGE_CURVE ( 'NONE', #86, #443, #1286, .T. ) ;
#977 = ORIENTED_EDGE ( 'NONE', *, *, #1238, .F. ) ;
#978 = VECTOR ( 'NONE', #208, 999.9999999999998863 ) ;
#979 = CIRCLE ( 'NONE', #998, 2.999999999999999112 ) ;
#980 = LINE ( 'NONE', #338, #848 ) ;
#981 = CARTESIAN_POINT ( 'NONE',  ( 16.74157637461437531, 6.886661668041969442, -10.00000000000001066 ) ) ;
#982 = ORIENTED_EDGE ( 'NONE', *, *, #846, .T. ) ;
#983 = AXIS2_PLACEMENT_3D ( 'NONE', #953, #143, #1160 ) ;
#984 = ORIENTED_EDGE ( 'NONE', *, *, #436, .T. ) ;
#985 = DIRECTION ( 'NONE',  ( 0.000000000000000000, -1.000000000000000000, 0.000000000000000000 ) ) ;
#986 = ORIENTED_EDGE ( 'NONE', *, *, #515, .F. ) ;
#987 = EDGE_CURVE ( 'NONE', #633, #974, #759, .T. ) ;
#988 = LINE ( 'NONE', #585, #1148 ) ;
#989 = VERTEX_POINT ( 'NONE', #949 ) ;
#990 = DIRECTION ( 'NONE',  ( 0.7071067811865476838, 0.000000000000000000, 0.7071067811865473507 ) ) ;
#991 = DIRECTION ( 'NONE',  ( -0.5416752204197022857, 0.6427876096865402511, -0.5416752204197003984 ) ) ;
#992 = VERTEX_POINT ( 'NONE', #261 ) ;
#993 = CARTESIAN_POINT ( 'NONE',  ( 14.97380942164800466, 6.886661668041969442, -8.232233047033640005 ) ) ;
#994 = EDGE_CURVE ( 'NONE', #1283, #972, #1062, .T. ) ;
#995 = VERTEX_POINT ( 'NONE', #853 ) ;
#996 = LINE ( 'NONE', #576, #418 ) ;
#997 = CARTESIAN_POINT ( 'NONE',  ( 10.00000000000001776, 6.886661668041969442, -16.74157637461436465 ) ) ;
#998 = AXIS2_PLACEMENT_3D ( 'NONE', #882, #683, #1103 ) ;
#999 = DIRECTION ( 'NONE',  ( -0.7071067811865463515, -0.000000000000000000, -0.7071067811865487940 ) ) ;
#1000 = EDGE_CURVE ( 'NONE', #1191, #57, #435, .T. ) ;
#1001 = LINE ( 'NONE', #896, #1023 ) ;
#1002 = VECTOR ( 'NONE', #635, 999.9999999999998863 ) ;
#1003 = CARTESIAN_POINT ( 'NONE',  ( 1.499999999999994449, 0.000000000000000000, 1.499999999999999556 ) ) ;
#1004 = VECTOR ( 'NONE', #180, 1000.000000000000000 ) ;
#1005 = DIRECTION ( 'NONE',  ( 0.7071067811865487940, 0.000000000000000000, 0.7071067811865463515 ) ) ;
#1006 = VECTOR ( 'NONE', #1176, 1000.000000000000000 ) ;
#1007 = VECTOR ( 'NONE', #446, 1000.000000000000000 ) ;
#1008 = CARTESIAN_POINT ( 'NONE',  ( 14.97380942164799578, 6.886661668041969442, -11.76776695296638842 ) ) ;
#1009 = DIRECTION ( 'NONE',  ( 0.000000000000000000, 1.000000000000000000, 0.000000000000000000 ) ) ;
#1010 = EDGE_CURVE ( 'NONE', #1197, #774, #168, .T. ) ;
#1011 = FACE_OUTER_BOUND ( 'NONE', #553, .T. ) ;
#1012 = DIRECTION ( 'NONE',  ( -0.7071067811865476838, 0.000000000000000000, 0.7071067811865474617 ) ) ;
#1013 = CARTESIAN_POINT ( 'NONE',  ( 20.00000000000000355, 2.000000000000000000, 0.000000000000000000 ) ) ;
#1014 = PLANE ( 'NONE',  #319 ) ;
#1015 = CARTESIAN_POINT ( 'NONE',  ( -7.266007650902022547E-14, 2.000000000000000000, -16.99999999999990408 ) ) ;
#1016 = CARTESIAN_POINT ( 'NONE',  ( 5.026190578352013993, 6.886661668041969442, -11.76776695296636355 ) ) ;
#1017 = EDGE_CURVE ( 'NONE', #995, #601, #980, .T. ) ;
#1018 = DIRECTION ( 'NONE',  ( -0.4545194776720450913, 0.7660444431189773473, 0.4545194776720435370 ) ) ;
#1019 = ORIENTED_EDGE ( 'NONE', *, *, #1238, .T. ) ;
#1020 = DIRECTION ( 'NONE',  ( -0.7071067811865477948, 0.000000000000000000, -0.7071067811865473507 ) ) ;
#1021 = VECTOR ( 'NONE', #2, 1000.000000000000000 ) ;
#1022 = CARTESIAN_POINT ( 'NONE',  ( 2.999999999999999112, 0.000000000000000000, 0.000000000000000000 ) ) ;
#1023 = VECTOR ( 'NONE', #389, 1000.000000000000114 ) ;
#1024 = VECTOR ( 'NONE', #118, 1000.000000000000000 ) ;
#1025 = CARTESIAN_POINT ( 'NONE',  ( 10.00000000000001599, 6.886661668041969442, -10.00000000000001421 ) ) ;
#1026 = CARTESIAN_POINT ( 'NONE',  ( 3.454519477672044925, 1.233955556881022764, -0.4545194776720429819 ) ) ;
#1027 = ORIENTED_EDGE ( 'NONE', *, *, #206, .F. ) ;
#1028 = EDGE_CURVE ( 'NONE', #825, #4, #1163, .T. ) ;
#1029 = DIRECTION ( 'NONE',  ( 0.7071067811865463515, -0.000000000000000000, 0.7071067811865487940 ) ) ;
#1030 = VECTOR ( 'NONE', #250, 1000.000000000000000 ) ;
#1031 = DIRECTION ( 'NONE',  ( 0.7071067811865463515, 0.000000000000000000, 0.7071067811865487940 ) ) ;
#1032 = PRODUCT ( 'maximtestchemp02', 'maximtestchemp02', '', ( #1258 ) ) ;
#1033 = LINE ( 'NONE', #290, #667 ) ;
#1034 = ORIENTED_EDGE ( 'NONE', *, *, #1085, .F. ) ;
#1035 = LINE ( 'NONE', #519, #1235 ) ;
#1036 = ADVANCED_FACE ( 'NONE', ( #1253 ), #331, .F. ) ;
#1037 = VERTEX_POINT ( 'NONE', #1272 ) ;
#1038 = CARTESIAN_POINT ( 'NONE',  ( 16.74157637461437531, 6.886661668041969442, -10.00000000000001066 ) ) ;
#1039 = DIRECTION ( 'NONE',  ( -0.7071067811865536790, 0.000000000000000000, -0.7071067811865413555 ) ) ;
#1040 = ORIENTED_EDGE ( 'NONE', *, *, #239, .T. ) ;
#1041 = LINE ( 'NONE', #132, #550 ) ;
#1042 = ORIENTED_EDGE ( 'NONE', *, *, #907, .T. ) ;
#1043 = ADVANCED_FACE ( 'NONE', ( #138 ), #534, .F. ) ;
#1044 = VECTOR ( 'NONE', #387, 1000.000000000000000 ) ;
#1045 = CYLINDRICAL_SURFACE ( 'NONE', #719, 2.999999999999999112 ) ;
#1046 = CARTESIAN_POINT ( 'NONE',  ( 4.100062867626484753, 2.000000000000000000, -1.100062867626479868 ) ) ;
#1047 = FACE_OUTER_BOUND ( 'NONE', #732, .T. ) ;
#1048 = VECTOR ( 'NONE', #1106, 1000.000000000000000 ) ;
#1049 = ORIENTED_EDGE ( 'NONE', *, *, #449, .F. ) ;
#1050 = CARTESIAN_POINT ( 'NONE',  ( 3.258423625385640232, 8.086661668041969619, -9.999999999999989342 ) ) ;
#1051 = ORIENTED_EDGE ( 'NONE', *, *, #840, .T. ) ;
#1052 = VECTOR ( 'NONE', #971, 1000.000000000000000 ) ;
#1053 = LINE ( 'NONE', #850, #1068 ) ;
#1054 = ADVANCED_FACE ( 'NONE', ( #703 ), #505, .T. ) ;
#1055 = ORIENTED_EDGE ( 'NONE', *, *, #840, .F. ) ;
#1056 = DIRECTION ( 'NONE',  ( 0.000000000000000000, 1.000000000000000000, 0.000000000000000000 ) ) ;
#1057 = ORIENTED_EDGE ( 'NONE', *, *, #413, .F. ) ;
#1058 = CARTESIAN_POINT ( 'NONE',  ( 8.232233047033643558, 6.886661668041969442, -14.97380942164799045 ) ) ;
#1059 = DIRECTION ( 'NONE',  ( 1.000000000000000000, 0.000000000000000000, 0.000000000000000000 ) ) ;
#1060 = ORIENTED_EDGE ( 'NONE', *, *, #500, .T. ) ;
#1061 = EDGE_CURVE ( 'NONE', #281, #568, #1225, .T. ) ;
#1062 = LINE ( 'NONE', #241, #1092 ) ;
#1063 = CARTESIAN_POINT ( 'NONE',  ( 14.97380942164802420, 8.086661668041969619, -3.673478945421491457E-14 ) ) ;
#1064 = ORIENTED_EDGE ( 'NONE', *, *, #846, .F. ) ;
#1065 = LINE ( 'NONE', #837, #26 ) ;
#1066 = DIRECTION ( 'NONE',  ( 1.734723475976807094E-16, 0.000000000000000000, 1.000000000000000000 ) ) ;
#1067 = ORIENTED_EDGE ( 'NONE', *, *, #929, .T. ) ;
#1068 = VECTOR ( 'NONE', #1073, 1000.000000000000000 ) ;
#1069 = DIRECTION ( 'NONE',  ( 3.002716270414084419E-15, -0.5102736053747384259, 0.8600121206459043766 ) ) ;
#1070 = ORIENTED_EDGE ( 'NONE', *, *, #599, .F. ) ;
#1071 = VERTEX_POINT ( 'NONE', #1144 ) ;
#1072 = COLOUR_RGB ( '',0.7921568627450980005, 0.8196078431372548767, 0.9333333333333333481 ) ;
#1073 = DIRECTION ( 'NONE',  ( 0.000000000000000000, -1.000000000000000000, 0.000000000000000000 ) ) ;
#1074 = EDGE_LOOP ( 'NONE', ( #928, #367, #107, #438 ) ) ;
#1075 = DIRECTION ( 'NONE',  ( 0.7071067811865475727, -0.000000000000000000, -0.7071067811865474617 ) ) ;
#1076 = EDGE_LOOP ( 'NONE', ( #458, #1042, #478, #142, #560, #220, #187, #1019 ) ) ;
#1077 = EDGE_CURVE ( 'NONE', #845, #130, #725, .T. ) ;
#1078 = VERTEX_POINT ( 'NONE', #1231 ) ;
#1079 = DIRECTION ( 'NONE',  ( -0.7071067811865474617, 0.000000000000000000, -0.7071067811865476838 ) ) ;
#1080 = VERTEX_POINT ( 'NONE', #931 ) ;
#1081 = CARTESIAN_POINT ( 'NONE',  ( 14.87078818730718588, 6.886661668041969442, -11.87078818730719654 ) ) ;
#1082 = DIRECTION ( 'NONE',  ( 0.5416752204197022857, 0.6427876096865402511, -0.5416752204197003984 ) ) ;
#1083 = ORIENTED_EDGE ( 'NONE', *, *, #890, .T. ) ;
#1084 = ORIENTED_EDGE ( 'NONE', *, *, #750, .T. ) ;
#1085 = EDGE_CURVE ( 'NONE', #1078, #1252, #620, .T. ) ;
#1086 = CARTESIAN_POINT ( 'NONE',  ( 20.00000000000000355, 2.000000000000000000, -2.999999999999998668 ) ) ;
#1087 = ORIENTED_EDGE ( 'NONE', *, *, #173, .T. ) ;
#1088 = LINE ( 'NONE', #288, #448 ) ;
#1089 = ORIENTED_EDGE ( 'NONE', *, *, #524, .T. ) ;
#1090 = VECTOR ( 'NONE', #891, 1000.000000000000000 ) ;
#1091 = CARTESIAN_POINT ( 'NONE',  ( 17.00000000000000711, 2.000000000000000000, -20.00000000000000711 ) ) ;
#1092 = VECTOR ( 'NONE', #660, 1000.000000000000000 ) ;
#1093 = VECTOR ( 'NONE', #815, 1000.000000000000000 ) ;
#1094 = CARTESIAN_POINT ( 'NONE',  ( 5.129211812692823003, 8.086661668041969619, -8.129211812692815897 ) ) ;
#1095 = ORIENTED_EDGE ( 'NONE', *, *, #1159, .F. ) ;
#1096 = EDGE_CURVE ( 'NONE', #4, #1219, #29, .T. ) ;
#1097 = LINE ( 'NONE', #1108, #614 ) ;
#1098 = VERTEX_POINT ( 'NONE', #225 ) ;
#1099 = CARTESIAN_POINT ( 'NONE',  ( 1.100062867626488528, 2.000000000000002665, -4.100062867626494523 ) ) ;
#1100 = LINE ( 'NONE', #62, #1307 ) ;
#1101 = VERTEX_POINT ( 'NONE', #811 ) ;
#1102 = ADVANCED_FACE ( 'NONE', ( #905 ), #824, .F. ) ;
#1103 = DIRECTION ( 'NONE',  ( 0.000000000000000000, 0.000000000000000000, 1.000000000000000000 ) ) ;
#1104 = PLANE ( 'NONE',  #762 ) ;
#1105 = MANIFOLD_SOLID_BREP ( 'Cut-Extrude3', #91 ) ;
#1106 = DIRECTION ( 'NONE',  ( -0.7071067811865487940, 0.000000000000000000, 0.7071067811865463515 ) ) ;
#1107 = ADVANCED_FACE ( 'NONE', ( #924 ), #22, .F. ) ;
#1108 = CARTESIAN_POINT ( 'NONE',  ( 1.499999999999994449, 6.886661668041969442, 1.499999999999999556 ) ) ;
#1109 = DIRECTION ( 'NONE',  ( -0.7071067811865473507, 0.000000000000000000, 0.7071067811865477948 ) ) ;
#1110 = VECTOR ( 'NONE', #941, 1000.000000000000114 ) ;
#1111 = PLANE ( 'NONE',  #381 ) ;
#1112 = CARTESIAN_POINT ( 'NONE',  ( 17.00000000000000711, 2.000000000000000000, -20.00000000000000711 ) ) ;
#1113 = AXIS2_PLACEMENT_3D ( 'NONE', #900, #1306, #382 ) ;
#1114 = CARTESIAN_POINT ( 'NONE',  ( 17.00000000000000000, 2.000000000000000000, -20.00000000000000000 ) ) ;
#1115 = ADVANCED_FACE ( 'NONE', ( #1047 ), #352, .T. ) ;
#1116 = LINE ( 'NONE', #412, #51 ) ;
#1117 = FILL_AREA_STYLE ('',( #397 ) ) ;
#1118 = VERTEX_POINT ( 'NONE', #968 ) ;
#1119 = DIRECTION ( 'NONE',  ( 0.7071067811865487940, -0.000000000000000000, -0.7071067811865463515 ) ) ;
#1120 = DIRECTION ( 'NONE',  ( -0.5416752204197021747, 0.6427876096865402511, 0.5416752204197003984 ) ) ;
#1121 = ADVANCED_FACE ( 'NONE', ( #865 ), #702, .T. ) ;
#1122 = LINE ( 'NONE', #716, #358 ) ;
#1123 = CARTESIAN_POINT ( 'NONE',  ( 10.00000000000001776, 6.886661668041969442, -16.74157637461436465 ) ) ;
#1124 = PRESENTATION_STYLE_ASSIGNMENT (( #16 ) ) ;
#1125 = ORIENTED_EDGE ( 'NONE', *, *, #1077, .T. ) ;
#1126 = DIRECTION ( 'NONE',  ( 0.7071067811865413555, -0.000000000000000000, -0.7071067811865536790 ) ) ;
#1127 = VECTOR ( 'NONE', #733, 1000.000000000000000 ) ;
#1128 = LINE ( 'NONE', #497, #1093 ) ;
#1129 = VECTOR ( 'NONE', #690, 999.9999999999998863 ) ;
#1130 = CARTESIAN_POINT ( 'NONE',  ( 16.74157637461437531, 6.886661668041969442, -10.00000000000001066 ) ) ;
#1131 = ORIENTED_EDGE ( 'NONE', *, *, #863, .F. ) ;
#1132 = VECTOR ( 'NONE', #196, 1000.000000000000000 ) ;
#1133 = EDGE_CURVE ( 'NONE', #126, #1162, #613, .T. ) ;
#1134 = LINE ( 'NONE', #406, #675 ) ;
#1135 = VECTOR ( 'NONE', #513, 1000.000000000000000 ) ;
#1136 = DIRECTION ( 'NONE',  ( -0.000000000000000000, -0.000000000000000000, 1.000000000000000000 ) ) ;
#1137 = CARTESIAN_POINT ( 'NONE',  ( 10.00000000000001776, 8.086661668041969619, -16.74157637461436465 ) ) ;
#1138 = ORIENTED_EDGE ( 'NONE', *, *, #608, .T. ) ;
#1139 = DIRECTION ( 'NONE',  ( -0.7071067811865463515, -1.387778780781445676E-16, 0.7071067811865487940 ) ) ;
#1140 = ADVANCED_FACE ( 'NONE', ( #15 ), #589, .T. ) ;
#1141 = EDGE_LOOP ( 'NONE', ( #862, #1187 ) ) ;
#1142 = CARTESIAN_POINT ( 'NONE',  ( 10.00000000000001599, 8.086661668041969619, -7.000000000000015099 ) ) ;
#1143 = DIRECTION ( 'NONE',  ( -0.7071067811865487940, 0.000000000000000000, -0.7071067811865463515 ) ) ;
#1144 = CARTESIAN_POINT ( 'NONE',  ( 16.99999999999999289, 0.000000000000000000, 0.000000000000000000 ) ) ;
#1145 = ORIENTED_EDGE ( 'NONE', *, *, #377, .F. ) ;
#1146 = AXIS2_PLACEMENT_3D ( 'NONE', #1245, #737, #1039 ) ;
#1147 = LINE ( 'NONE', #425, #75 ) ;
#1148 = VECTOR ( 'NONE', #999, 1000.000000000000000 ) ;
#1149 = ORIENTED_EDGE ( 'NONE', *, *, #292, .F. ) ;
#1150 = ADVANCED_FACE ( 'NONE', ( #101 ), #409, .F. ) ;
#1151 = AXIS2_PLACEMENT_3D ( 'NONE', #1190, #789, #268 ) ;
#1152 = DIRECTION ( 'NONE',  ( 0.000000000000000000, -1.000000000000000000, 0.000000000000000000 ) ) ;
#1153 = DIRECTION ( 'NONE',  ( 1.000000000000000000, 0.000000000000000000, 0.000000000000000000 ) ) ;
#1154 = VECTOR ( 'NONE', #322, 1000.000000000000000 ) ;
#1155 = VERTEX_POINT ( 'NONE', #686 ) ;
#1156 = DIRECTION ( 'NONE',  ( 1.000000000000000000, 0.000000000000000000, -1.717288626685373118E-15 ) ) ;
#1157 = ORIENTED_EDGE ( 'NONE', *, *, #488, .T. ) ;
#1158 = ORIENTED_EDGE ( 'NONE', *, *, #420, .T. ) ;
#1159 = EDGE_CURVE ( 'NONE', #989, #568, #1224, .T. ) ;
#1160 = DIRECTION ( 'NONE',  ( 0.7071067811865487940, 0.000000000000000000, 0.7071067811865463515 ) ) ;
#1161 = DIRECTION ( 'NONE',  ( -0.000000000000000000, 1.000000000000000000, -0.000000000000000000 ) ) ;
#1162 = VERTEX_POINT ( 'NONE', #804 ) ;
#1163 = LINE ( 'NONE', #50, #674 ) ;
#1164 = CARTESIAN_POINT ( 'NONE',  ( 0.4545194776719750918, 1.233955556881022764, -16.54548052232786404 ) ) ;
#1165 = ORIENTED_EDGE ( 'NONE', *, *, #1028, .T. ) ;
#1166 = EDGE_LOOP ( 'NONE', ( #788, #1149, #673, #1170, #818 ) ) ;
#1167 = EDGE_CURVE ( 'NONE', #1197, #460, #1033, .T. ) ;
#1168 = CARTESIAN_POINT ( 'NONE',  ( 3.258423625385640232, 6.886661668041969442, -9.999999999999989342 ) ) ;
#1169 = CARTESIAN_POINT ( 'NONE',  ( 10.00000000000001599, -0.0009999999999992653654, -13.00000000000001243 ) ) ;
#1170 = ORIENTED_EDGE ( 'NONE', *, *, #734, .T. ) ;
#1171 = CARTESIAN_POINT ( 'NONE',  ( 8.129211812692794581, 8.086661668041969619, -14.87078818730713969 ) ) ;
#1172 = LINE ( 'NONE', #559, #1030 ) ;
#1173 = EDGE_LOOP ( 'NONE', ( #203, #170, #66, #470 ) ) ;
#1174 = LINE ( 'NONE', #237, #1002 ) ;
#1175 = ORIENTED_EDGE ( 'NONE', *, *, #1284, .F. ) ;
#1176 = DIRECTION ( 'NONE',  ( -0.7071067811865476838, 0.000000000000000000, 0.7071067811865474617 ) ) ;
#1177 = ADVANCED_FACE ( 'NONE', ( #797 ), #490, .T. ) ;
#1178 = DIRECTION ( 'NONE',  ( 0.7071067811865475727, -0.000000000000000000, -0.7071067811865474617 ) ) ;
#1179 = ORIENTED_EDGE ( 'NONE', *, *, #1202, .F. ) ;
#1180 = ORIENTED_EDGE ( 'NONE', *, *, #264, .T. ) ;
#1181 = VECTOR ( 'NONE', #1233, 1000.000000000000114 ) ;
#1182 = PLANE ( 'NONE',  #211 ) ;
#1183 = ORIENTED_EDGE ( 'NONE', *, *, #976, .F. ) ;
#1184 = EDGE_CURVE ( 'NONE', #1242, #1288, #899, .T. ) ;
#1185 = CARTESIAN_POINT ( 'NONE',  ( 2.999999999999999112, 2.000000000000000000, 0.000000000000000000 ) ) ;
#1186 = EDGE_LOOP ( 'NONE', ( #1301, #53, #711, #1157 ) ) ;
#1187 = ORIENTED_EDGE ( 'NONE', *, *, #35, .T. ) ;
#1188 = CARTESIAN_POINT ( 'NONE',  ( 18.50000000000001421, 6.886661668041969442, -21.50000000000000355 ) ) ;
#1189 = ORIENTED_EDGE ( 'NONE', *, *, #1295, .T. ) ;
#1190 = CARTESIAN_POINT ( 'NONE',  ( 10.00000000000001599, 8.086661668041969619, -10.00000000000001421 ) ) ;
#1191 = VERTEX_POINT ( 'NONE', #1210 ) ;
#1192 = DIRECTION ( 'NONE',  ( -0.7071067811865487940, -0.000000000000000000, 0.7071067811865463515 ) ) ;
#1193 = EDGE_CURVE ( 'NONE', #751, #742, #504, .T. ) ;
#1194 = CARTESIAN_POINT ( 'NONE',  ( 1.500000000000005107, 0.000000000000000000, -1.499999999999999778 ) ) ;
#1195 = EDGE_LOOP ( 'NONE', ( #548, #30, #236, #1179, #855 ) ) ;
#1196 = CARTESIAN_POINT ( 'NONE',  ( -1.500000000000005773, -1.668223237351514809E-15, -1.500000000000009992 ) ) ;
#1197 = VERTEX_POINT ( 'NONE', #403 ) ;
#1198 = VECTOR ( 'NONE', #985, 1000.000000000000000 ) ;
#1199 = CARTESIAN_POINT ( 'NONE',  ( 8.129211812692792805, -1.668223237351526248E-15, -14.87078818730714147 ) ) ;
#1200 = VECTOR ( 'NONE', #361, 999.9999999999998863 ) ;
#1201 = LINE ( 'NONE', #469, #609 ) ;
#1202 = EDGE_CURVE ( 'NONE', #812, #774, #606, .T. ) ;
#1203 = ORIENTED_EDGE ( 'NONE', *, *, #287, .F. ) ;
#1204 = CARTESIAN_POINT ( 'NONE',  ( 11.87078818730720187, 6.886661668041969442, -5.129211812692838102 ) ) ;
#1205 = DIRECTION ( 'NONE',  ( 0.8600121206459043766, -0.5102736053747384259, -0.000000000000000000 ) ) ;
#1206 = LINE ( 'NONE', #266, #786 ) ;
#1207 = CARTESIAN_POINT ( 'NONE',  ( 8.129211812692823003, 8.086661668041971396, -5.129211812692807015 ) ) ;
#1208 = LINE ( 'NONE', #909, #934 ) ;
#1209 = LINE ( 'NONE', #1314, #1215 ) ;
#1210 = CARTESIAN_POINT ( 'NONE',  ( 11.76776695296637065, 8.086661668041969619, -5.026190578352007776 ) ) ;
#1211 = DIRECTION ( 'NONE',  ( 0.7071067811865487940, 0.000000000000000000, -0.7071067811865463515 ) ) ;
#1212 = EDGE_CURVE ( 'NONE', #124, #433, #484, .T. ) ;
#1213 = FACE_OUTER_BOUND ( 'NONE', #1293, .T. ) ;
#1214 = VECTOR ( 'NONE', #273, 1000.000000000000000 ) ;
#1215 = VECTOR ( 'NONE', #1136, 1000.000000000000000 ) ;
#1216 = PLANE ( 'NONE',  #176 ) ;
#1217 = DIRECTION ( 'NONE',  ( 0.5416752204197022857, -0.6427876096865402511, -0.5416752204197002873 ) ) ;
#1218 = DIRECTION ( 'NONE',  ( -1.000000000000000000, -0.000000000000000000, -0.000000000000000000 ) ) ;
#1219 = VERTEX_POINT ( 'NONE', #213 ) ;
#1220 = CARTESIAN_POINT ( 'NONE',  ( 10.00000000000001776, 6.886661668041969442, -16.74157637461436465 ) ) ;
#1221 = AXIS2_PLACEMENT_3D ( 'NONE', #293, #687, #888 ) ;
#1222 = ADVANCED_FACE ( 'NONE', ( #309 ), #717, .F. ) ;
#1223 = DIRECTION ( 'NONE',  ( 0.000000000000000000, 1.000000000000000000, 0.000000000000000000 ) ) ;
#1224 = LINE ( 'NONE', #904, #978 ) ;
#1225 = LINE ( 'NONE', #1137, #611 ) ;
#1226 = VERTEX_POINT ( 'NONE', #930 ) ;
#1227 = CARTESIAN_POINT ( 'NONE',  ( 11.87078818730718410, 6.886661668041969442, -14.87078818730720009 ) ) ;
#1228 = FACE_OUTER_BOUND ( 'NONE', #718, .T. ) ;
#1229 = EDGE_CURVE ( 'NONE', #468, #1071, #510, .T. ) ;
#1230 = VECTOR ( 'NONE', #1143, 1000.000000000000000 ) ;
#1231 = CARTESIAN_POINT ( 'NONE',  ( 17.00000000000000711, 2.000000000000000000, -20.00000000000000711 ) ) ;
#1232 = ORIENTED_EDGE ( 'NONE', *, *, #368, .F. ) ;
#1233 = DIRECTION ( 'NONE',  ( 0.7071067811865476838, 0.000000000000000000, 0.7071067811865473507 ) ) ;
#1234 = AXIS2_PLACEMENT_3D ( 'NONE', #1123, #595, #1012 ) ;
#1235 = VECTOR ( 'NONE', #835, 1000.000000000000000 ) ;
#1236 = CARTESIAN_POINT ( 'NONE',  ( 10.00000000000001776, 6.886661668041969442, -16.74157637461436465 ) ) ;
#1237 = VECTOR ( 'NONE', #962, 1000.000000000000000 ) ;
#1238 = EDGE_CURVE ( 'NONE', #126, #1101, #344, .T. ) ;
#1239 = EDGE_LOOP ( 'NONE', ( #1299, #952, #977, #1064 ) ) ;
#1240 = STYLED_ITEM ( 'NONE', ( #1124 ), #1105 ) ;
#1241 = FACE_OUTER_BOUND ( 'NONE', #25, .T. ) ;
#1242 = VERTEX_POINT ( 'NONE', #21 ) ;
#1243 = VECTOR ( 'NONE', #79, 1000.000000000000000 ) ;
#1244 = CARTESIAN_POINT ( 'NONE',  ( 20.00000000000000355, 0.000000000000000000, 0.000000000000000000 ) ) ;
#1245 = CARTESIAN_POINT ( 'NONE',  ( 1.499999999999890310, -1.668223237351514809E-15, -21.49999999999992539 ) ) ;
#1246 = EDGE_LOOP ( 'NONE', ( #874, #666, #122, #257 ) ) ;
#1247 = EDGE_CURVE ( 'NONE', #1098, #443, #233, .T. ) ;
#1248 = DIRECTION ( 'NONE',  ( 0.7071067811865487940, 0.000000000000000000, 0.7071067811865463515 ) ) ;
#1249 = EDGE_LOOP ( 'NONE', ( #274, #226, #267, #163 ) ) ;
#1250 = DIRECTION ( 'NONE',  ( 0.000000000000000000, 1.000000000000000000, 0.000000000000000000 ) ) ;
#1251 = DIRECTION ( 'NONE',  ( 0.000000000000000000, 0.000000000000000000, 1.000000000000000000 ) ) ;
#1252 = VERTEX_POINT ( 'NONE', #48 ) ;
#1253 = FACE_OUTER_BOUND ( 'NONE', #398, .T. ) ;
#1254 = EDGE_CURVE ( 'NONE', #866, #1288, #942, .T. ) ;
#1255 = EDGE_LOOP ( 'NONE', ( #265, #740, #839, #1175 ) ) ;
#1256 = VECTOR ( 'NONE', #1059, 1000.000000000000000 ) ;
#1257 = CARTESIAN_POINT ( 'NONE',  ( 11.87078818730720187, -1.668223237351517176E-15, -5.129211812692836325 ) ) ;
#1258 = PRODUCT_CONTEXT ( 'NONE', #973, 'mechanical' ) ;
#1259 = VECTOR ( 'NONE', #76, 1000.000000000000000 ) ;
#1260 = ORIENTED_EDGE ( 'NONE', *, *, #1000, .F. ) ;
#1261 = CARTESIAN_POINT ( 'NONE',  ( 5.026190578352013105, 6.886661668041969442, -11.76776695296636177 ) ) ;
#1262 = VECTOR ( 'NONE', #428, 999.9999999999998863 ) ;
#1263 = LINE ( 'NONE', #868, #526 ) ;
#1264 = ORIENTED_EDGE ( 'NONE', *, *, #579, .T. ) ;
#1265 = AXIS2_PLACEMENT_3D ( 'NONE', #325, #1139, #920 ) ;
#1266 = ADVANCED_FACE ( 'NONE', ( #516 ), #749, .F. ) ;
#1267 = ORIENTED_EDGE ( 'NONE', *, *, #13, .F. ) ;
#1268 = AXIS2_PLACEMENT_3D ( 'NONE', #262, #543, #639 ) ;
#1269 = DIRECTION ( 'NONE',  ( -0.5416752204197022857, 0.6427876096865402511, 0.5416752204197003984 ) ) ;
#1270 = CARTESIAN_POINT ( 'NONE',  ( 0.000000000000000000, 0.000000000000000000, 0.000000000000000000 ) ) ;
#1271 = ORIENTED_EDGE ( 'NONE', *, *, #584, .T. ) ;
#1272 = CARTESIAN_POINT ( 'NONE',  ( 5.026190578352019322, 6.886661668041969442, -8.232233047033611584 ) ) ;
#1273 = LINE ( 'NONE', #951, #700 ) ;
#1274 = ORIENTED_EDGE ( 'NONE', *, *, #994, .F. ) ;
#1275 = EDGE_LOOP ( 'NONE', ( #662, #925, #345, #1281 ) ) ;
#1276 = PLANE ( 'NONE',  #983 ) ;
#1277 = ADVANCED_FACE ( 'NONE', ( #631 ), #730, .F. ) ;
#1278 = ORIENTED_EDGE ( 'NONE', *, *, #715, .T. ) ;
#1279 = CARTESIAN_POINT ( 'NONE',  ( 20.00000000000003197, 2.000000000000000000, -3.000000000000033751 ) ) ;
#1280 = ORIENTED_EDGE ( 'NONE', *, *, #940, .T. ) ;
#1281 = ORIENTED_EDGE ( 'NONE', *, *, #1010, .T. ) ;
#1282 = LINE ( 'NONE', #475, #570 ) ;
#1283 = VERTEX_POINT ( 'NONE', #39 ) ;
#1284 = EDGE_CURVE ( 'NONE', #4, #124, #414, .T. ) ;
#1285 = VECTOR ( 'NONE', #343, 1000.000000000000000 ) ;
#1286 = LINE ( 'NONE', #354, #1200 ) ;
#1287 = LINE ( 'NONE', #1185, #724 ) ;
#1288 = VERTEX_POINT ( 'NONE', #954 ) ;
#1289 = ORIENTED_EDGE ( 'NONE', *, *, #5, .T. ) ;
#1290 = AXIS2_PLACEMENT_3D ( 'NONE', #146, #517, #422 ) ;
#1291 = VECTOR ( 'NONE', #297, 1000.000000000000114 ) ;
#1292 = CARTESIAN_POINT ( 'NONE',  ( 1.100062867626419250, 2.000000000000000444, -15.89993713237343087 ) ) ;
#1293 = EDGE_LOOP ( 'NONE', ( #356, #321, #133, #607 ) ) ;
#1294 = DIRECTION ( 'NONE',  ( -2.453269466693390338E-15, -0.000000000000000000, -1.000000000000000000 ) ) ;
#1295 = EDGE_CURVE ( 'NONE', #430, #1118, #851, .T. ) ;
#1296 = ORIENTED_EDGE ( 'NONE', *, *, #1061, .T. ) ;
#1297 = ORIENTED_EDGE ( 'NONE', *, *, #994, .T. ) ;
#1298 = LINE ( 'NONE', #873, #1090 ) ;
#1299 = ORIENTED_EDGE ( 'NONE', *, *, #93, .F. ) ;
#1300 = LINE ( 'NONE', #12, #781 ) ;
#1301 = ORIENTED_EDGE ( 'NONE', *, *, #664, .T. ) ;
#1302 = ADVANCED_FACE ( 'NONE', ( #246 ), #619, .T. ) ;
#1303 = LINE ( 'NONE', #591, #483 ) ;
#1304 = CARTESIAN_POINT ( 'NONE',  ( 10.00000000000001776, 6.886661668041969442, -16.74157637461436465 ) ) ;
#1305 = ORIENTED_EDGE ( 'NONE', *, *, #70, .F. ) ;
#1306 = DIRECTION ( 'NONE',  ( 0.4545194776720450913, 0.7660444431189773473, -0.4545194776720435370 ) ) ;
#1307 = VECTOR ( 'NONE', #864, 999.9999999999998863 ) ;
#1308 = CARTESIAN_POINT ( 'NONE',  ( 11.78196177587287785, 6.886661668041969442, -5.218038224127159452 ) ) ;
#1309 =( GEOMETRIC_REPRESENTATION_CONTEXT ( 3 ) GLOBAL_UNCERTAINTY_ASSIGNED_CONTEXT ( ( #937 ) ) GLOBAL_UNIT_ASSIGNED_CONTEXT ( ( #219, #531, #831 ) ) REPRESENTATION_CONTEXT ( 'NONE', 'WORKASPACE' ) );
#1310 = LINE ( 'NONE', #1194, #1214 ) ;
#1311 = DIRECTION ( 'NONE',  ( -0.5416752204197022857, 0.6427876096865402511, 0.5416752204197003984 ) ) ;
#1312 = LINE ( 'NONE', #384, #692 ) ;
#1313 = ADVANCED_BREP_SHAPE_REPRESENTATION ( 'maximtestchemp02', ( #1105, #722 ), #1309 ) ;
#1314 = CARTESIAN_POINT ( 'NONE',  ( 0.000000000000000000, 2.000000000000000000, 0.000000000000000000 ) ) ;
#1315 = EDGE_CURVE ( 'NONE', #365, #601, #119, .T. ) ;
#1316 = CARTESIAN_POINT ( 'NONE',  ( 19.54548052232798838, 1.233955556881022764, -3.454519477672077787 ) ) ;
#1317 = PLANE ( 'NONE',  #670 ) ;
ENDSEC;
END-ISO-10303-21;
