ISO-10303-21;
HEADER;
/* Generated by software containing ST-Developer
 * from STEP Tools, Inc. (www.steptools.com) 
 */

FILE_DESCRIPTION(
/* description */ (''),
/* implementation_level */ '2;1');

FILE_NAME(
/* name */ 'ELC.step',
/* time_stamp */ '2024-11-15T18:03:21+01:00',
/* author */ (''),
/* organization */ (''),
/* preprocessor_version */ 'ST-DEVELOPER v20',
/* originating_system */ 'Autodesk Translation Framework v13.20.0.188',

/* authorisation */ '');

FILE_SCHEMA (('AUTOMOTIVE_DESIGN { 1 0 10303 214 3 1 1 }'));
ENDSEC;

DATA;
#10=MECHANICAL_DESIGN_GEOMETRIC_PRESENTATION_REPRESENTATION('',(#13),#1723);
#11=SHAPE_REPRESENTATION_RELATIONSHIP('SRR','None',#1730,#12);
#12=ADVANCED_BREP_SHAPE_REPRESENTATION('',(#14),#1722);
#13=STYLED_ITEM('',(#1740),#14);
#14=MANIFOLD_SOLID_BREP('Body1',#1085);
#15=FACE_BOUND('',#77,.T.);
#16=FACE_BOUND('',#78,.T.);
#17=FACE_BOUND('',#105,.T.);
#18=FACE_BOUND('',#106,.T.);
#19=FACE_OUTER_BOUND('',#75,.T.);
#20=FACE_OUTER_BOUND('',#76,.T.);
#21=FACE_OUTER_BOUND('',#79,.T.);
#22=FACE_OUTER_BOUND('',#80,.T.);
#23=FACE_OUTER_BOUND('',#81,.T.);
#24=FACE_OUTER_BOUND('',#82,.T.);
#25=FACE_OUTER_BOUND('',#83,.T.);
#26=FACE_OUTER_BOUND('',#84,.T.);
#27=FACE_OUTER_BOUND('',#85,.T.);
#28=FACE_OUTER_BOUND('',#86,.T.);
#29=FACE_OUTER_BOUND('',#87,.T.);
#30=FACE_OUTER_BOUND('',#88,.T.);
#31=FACE_OUTER_BOUND('',#89,.T.);
#32=FACE_OUTER_BOUND('',#90,.T.);
#33=FACE_OUTER_BOUND('',#91,.T.);
#34=FACE_OUTER_BOUND('',#92,.T.);
#35=FACE_OUTER_BOUND('',#93,.T.);
#36=FACE_OUTER_BOUND('',#94,.T.);
#37=FACE_OUTER_BOUND('',#95,.T.);
#38=FACE_OUTER_BOUND('',#96,.T.);
#39=FACE_OUTER_BOUND('',#97,.T.);
#40=FACE_OUTER_BOUND('',#98,.T.);
#41=FACE_OUTER_BOUND('',#99,.T.);
#42=FACE_OUTER_BOUND('',#100,.T.);
#43=FACE_OUTER_BOUND('',#101,.T.);
#44=FACE_OUTER_BOUND('',#102,.T.);
#45=FACE_OUTER_BOUND('',#103,.T.);
#46=FACE_OUTER_BOUND('',#104,.T.);
#47=FACE_OUTER_BOUND('',#107,.T.);
#48=FACE_OUTER_BOUND('',#108,.T.);
#49=FACE_OUTER_BOUND('',#109,.T.);
#50=FACE_OUTER_BOUND('',#110,.T.);
#51=FACE_OUTER_BOUND('',#111,.T.);
#52=FACE_OUTER_BOUND('',#112,.T.);
#53=FACE_OUTER_BOUND('',#113,.T.);
#54=FACE_OUTER_BOUND('',#114,.T.);
#55=FACE_OUTER_BOUND('',#115,.T.);
#56=FACE_OUTER_BOUND('',#116,.T.);
#57=FACE_OUTER_BOUND('',#117,.T.);
#58=FACE_OUTER_BOUND('',#118,.T.);
#59=FACE_OUTER_BOUND('',#119,.T.);
#60=FACE_OUTER_BOUND('',#120,.T.);
#61=FACE_OUTER_BOUND('',#121,.T.);
#62=FACE_OUTER_BOUND('',#122,.T.);
#63=FACE_OUTER_BOUND('',#123,.T.);
#64=FACE_OUTER_BOUND('',#124,.T.);
#65=FACE_OUTER_BOUND('',#125,.T.);
#66=FACE_OUTER_BOUND('',#126,.T.);
#67=FACE_OUTER_BOUND('',#127,.T.);
#68=FACE_OUTER_BOUND('',#128,.T.);
#69=FACE_OUTER_BOUND('',#129,.T.);
#70=FACE_OUTER_BOUND('',#130,.T.);
#71=FACE_OUTER_BOUND('',#131,.T.);
#72=FACE_OUTER_BOUND('',#132,.T.);
#73=FACE_OUTER_BOUND('',#133,.T.);
#74=FACE_OUTER_BOUND('',#134,.T.);
#75=EDGE_LOOP('',(#677,#678,#679,#680,#681,#682,#683,#684));
#76=EDGE_LOOP('',(#685,#686,#687,#688,#689,#690,#691,#692,#693,#694));
#77=EDGE_LOOP('',(#695,#696,#697,#698));
#78=EDGE_LOOP('',(#699,#700,#701,#702));
#79=EDGE_LOOP('',(#703,#704,#705,#706,#707));
#80=EDGE_LOOP('',(#708,#709,#710,#711));
#81=EDGE_LOOP('',(#712,#713,#714,#715));
#82=EDGE_LOOP('',(#716,#717,#718,#719,#720));
#83=EDGE_LOOP('',(#721,#722,#723,#724));
#84=EDGE_LOOP('',(#725,#726,#727,#728));
#85=EDGE_LOOP('',(#729,#730,#731,#732));
#86=EDGE_LOOP('',(#733,#734,#735,#736));
#87=EDGE_LOOP('',(#737,#738,#739,#740));
#88=EDGE_LOOP('',(#741,#742,#743,#744));
#89=EDGE_LOOP('',(#745,#746,#747,#748));
#90=EDGE_LOOP('',(#749,#750,#751,#752));
#91=EDGE_LOOP('',(#753,#754,#755,#756));
#92=EDGE_LOOP('',(#757,#758,#759,#760));
#93=EDGE_LOOP('',(#761,#762,#763,#764));
#94=EDGE_LOOP('',(#765,#766,#767,#768));
#95=EDGE_LOOP('',(#769,#770,#771,#772));
#96=EDGE_LOOP('',(#773,#774,#775,#776,#777));
#97=EDGE_LOOP('',(#778,#779,#780,#781));
#98=EDGE_LOOP('',(#782,#783,#784,#785));
#99=EDGE_LOOP('',(#786,#787,#788,#789,#790,#791));
#100=EDGE_LOOP('',(#792,#793,#794,#795));
#101=EDGE_LOOP('',(#796,#797,#798,#799));
#102=EDGE_LOOP('',(#800,#801,#802,#803));
#103=EDGE_LOOP('',(#804,#805,#806,#807,#808,#809,#810,#811));
#104=EDGE_LOOP('',(#812,#813,#814,#815,#816,#817,#818,#819,#820,#821));
#105=EDGE_LOOP('',(#822,#823,#824,#825));
#106=EDGE_LOOP('',(#826,#827,#828,#829));
#107=EDGE_LOOP('',(#830,#831,#832,#833,#834));
#108=EDGE_LOOP('',(#835,#836,#837,#838));
#109=EDGE_LOOP('',(#839,#840,#841,#842));
#110=EDGE_LOOP('',(#843,#844,#845,#846,#847));
#111=EDGE_LOOP('',(#848,#849,#850,#851));
#112=EDGE_LOOP('',(#852,#853,#854,#855));
#113=EDGE_LOOP('',(#856,#857,#858,#859));
#114=EDGE_LOOP('',(#860,#861,#862,#863));
#115=EDGE_LOOP('',(#864,#865,#866,#867));
#116=EDGE_LOOP('',(#868,#869,#870,#871));
#117=EDGE_LOOP('',(#872,#873,#874,#875));
#118=EDGE_LOOP('',(#876,#877,#878,#879));
#119=EDGE_LOOP('',(#880,#881,#882,#883));
#120=EDGE_LOOP('',(#884,#885,#886,#887));
#121=EDGE_LOOP('',(#888,#889,#890,#891));
#122=EDGE_LOOP('',(#892,#893,#894,#895));
#123=EDGE_LOOP('',(#896,#897,#898,#899));
#124=EDGE_LOOP('',(#900,#901,#902,#903,#904));
#125=EDGE_LOOP('',(#905,#906,#907,#908));
#126=EDGE_LOOP('',(#909,#910,#911,#912));
#127=EDGE_LOOP('',(#913,#914,#915,#916));
#128=EDGE_LOOP('',(#917,#918,#919,#920,#921,#922));
#129=EDGE_LOOP('',(#923,#924,#925,#926));
#130=EDGE_LOOP('',(#927,#928,#929,#930));
#131=EDGE_LOOP('',(#931,#932,#933,#934));
#132=EDGE_LOOP('',(#935,#936,#937,#938));
#133=EDGE_LOOP('',(#939,#940,#941,#942,#943,#944,#945,#946,#947,#948,#949, #950,#951,#952));
#134=EDGE_LOOP('',(#953,#954,#955,#956,#957,#958,#959,#960,#961,#962,#963, #964,#965,#966,#967,#968,#969,#970,#971,#972));
#135=LINE('',#1421,#283);
#136=LINE('',#1423,#284);
#137=LINE('',#1425,#285);
#138=LINE('',#1427,#286);
#139=LINE('',#1429,#287);
#140=LINE('',#1431,#288);
#141=LINE('',#1433,#289);
#142=LINE('',#1434,#290);
#143=LINE('',#1437,#291);
#144=LINE('',#1439,#292);
#145=LINE('',#1441,#293);
#146=LINE('',#1443,#294);
#147=LINE('',#1444,#295);
#148=LINE('',#1446,#296);
#149=LINE('',#1448,#297);
#150=LINE('',#1449,#298);
#151=LINE('',#1452,#299);
#152=LINE('',#1454,#300);
#153=LINE('',#1456,#301);
#154=LINE('',#1457,#302);
#155=LINE('',#1460,#303);
#156=LINE('',#1462,#304);
#157=LINE('',#1464,#305);
#158=LINE('',#1465,#306);
#159=LINE('',#1468,#307);
#160=LINE('',#1470,#308);
#161=LINE('',#1471,#309);
#162=LINE('',#1474,#310);
#163=LINE('',#1475,#311);
#164=LINE('',#1478,#312);
#165=LINE('',#1479,#313);
#166=LINE('',#1481,#314);
#167=LINE('',#1485,#315);
#168=LINE('',#1487,#316);
#169=LINE('',#1488,#317);
#170=LINE('',#1491,#318);
#171=LINE('',#1492,#319);
#172=LINE('',#1495,#320);
#173=LINE('',#1496,#321);
#174=LINE('',#1498,#322);
#175=LINE('',#1502,#323);
#176=LINE('',#1504,#324);
#177=LINE('',#1505,#325);
#178=LINE('',#1508,#326);
#179=LINE('',#1509,#327);
#180=LINE('',#1512,#328);
#181=LINE('',#1513,#329);
#182=LINE('',#1515,#330);
#183=LINE('',#1519,#331);
#184=LINE('',#1521,#332);
#185=LINE('',#1522,#333);
#186=LINE('',#1525,#334);
#187=LINE('',#1526,#335);
#188=LINE('',#1530,#336);
#189=LINE('',#1531,#337);
#190=LINE('',#1532,#338);
#191=LINE('',#1534,#339);
#192=LINE('',#1537,#340);
#193=LINE('',#1539,#341);
#194=LINE('',#1540,#342);
#195=LINE('',#1543,#343);
#196=LINE('',#1545,#344);
#197=LINE('',#1546,#345);
#198=LINE('',#1549,#346);
#199=LINE('',#1551,#347);
#200=LINE('',#1552,#348);
#201=LINE('',#1555,#349);
#202=LINE('',#1557,#350);
#203=LINE('',#1558,#351);
#204=LINE('',#1561,#352);
#205=LINE('',#1563,#353);
#206=LINE('',#1564,#354);
#207=LINE('',#1568,#355);
#208=LINE('',#1570,#356);
#209=LINE('',#1572,#357);
#210=LINE('',#1574,#358);
#211=LINE('',#1576,#359);
#212=LINE('',#1578,#360);
#213=LINE('',#1580,#361);
#214=LINE('',#1581,#362);
#215=LINE('',#1584,#363);
#216=LINE('',#1586,#364);
#217=LINE('',#1587,#365);
#218=LINE('',#1589,#366);
#219=LINE('',#1591,#367);
#220=LINE('',#1593,#368);
#221=LINE('',#1595,#369);
#222=LINE('',#1596,#370);
#223=LINE('',#1599,#371);
#224=LINE('',#1601,#372);
#225=LINE('',#1603,#373);
#226=LINE('',#1604,#374);
#227=LINE('',#1607,#375);
#228=LINE('',#1609,#376);
#229=LINE('',#1611,#377);
#230=LINE('',#1612,#378);
#231=LINE('',#1615,#379);
#232=LINE('',#1617,#380);
#233=LINE('',#1618,#381);
#234=LINE('',#1621,#382);
#235=LINE('',#1622,#383);
#236=LINE('',#1625,#384);
#237=LINE('',#1626,#385);
#238=LINE('',#1628,#386);
#239=LINE('',#1632,#387);
#240=LINE('',#1634,#388);
#241=LINE('',#1635,#389);
#242=LINE('',#1638,#390);
#243=LINE('',#1639,#391);
#244=LINE('',#1642,#392);
#245=LINE('',#1643,#393);
#246=LINE('',#1645,#394);
#247=LINE('',#1649,#395);
#248=LINE('',#1651,#396);
#249=LINE('',#1652,#397);
#250=LINE('',#1655,#398);
#251=LINE('',#1656,#399);
#252=LINE('',#1659,#400);
#253=LINE('',#1660,#401);
#254=LINE('',#1662,#402);
#255=LINE('',#1666,#403);
#256=LINE('',#1668,#404);
#257=LINE('',#1669,#405);
#258=LINE('',#1672,#406);
#259=LINE('',#1673,#407);
#260=LINE('',#1677,#408);
#261=LINE('',#1678,#409);
#262=LINE('',#1679,#410);
#263=LINE('',#1681,#411);
#264=LINE('',#1684,#412);
#265=LINE('',#1686,#413);
#266=LINE('',#1687,#414);
#267=LINE('',#1689,#415);
#268=LINE('',#1690,#416);
#269=LINE('',#1693,#417);
#270=LINE('',#1695,#418);
#271=LINE('',#1696,#419);
#272=LINE('',#1699,#420);
#273=LINE('',#1701,#421);
#274=LINE('',#1702,#422);
#275=LINE('',#1705,#423);
#276=LINE('',#1707,#424);
#277=LINE('',#1708,#425);
#278=LINE('',#1711,#426);
#279=LINE('',#1713,#427);
#280=LINE('',#1714,#428);
#281=LINE('',#1716,#429);
#282=LINE('',#1717,#430);
#283=VECTOR('',#1159,60.0);
#284=VECTOR('',#1160,60.0);
#285=VECTOR('',#1161,60.0);
#286=VECTOR('',#1162,60.0);
#287=VECTOR('',#1163,60.0);
#288=VECTOR('',#1164,60.0);
#289=VECTOR('',#1165,60.0);
#290=VECTOR('',#1166,60.0);
#291=VECTOR('',#1169,60.0);
#292=VECTOR('',#1170,60.0);
#293=VECTOR('',#1171,60.0);
#294=VECTOR('',#1172,60.0);
#295=VECTOR('',#1173,60.0);
#296=VECTOR('',#1174,60.0);
#297=VECTOR('',#1175,60.0);
#298=VECTOR('',#1176,60.0);
#299=VECTOR('',#1177,60.0);
#300=VECTOR('',#1178,60.0);
#301=VECTOR('',#1179,60.0);
#302=VECTOR('',#1180,60.0);
#303=VECTOR('',#1181,60.0);
#304=VECTOR('',#1182,60.0);
#305=VECTOR('',#1183,60.0);
#306=VECTOR('',#1184,60.0);
#307=VECTOR('',#1187,60.0);
#308=VECTOR('',#1188,60.0);
#309=VECTOR('',#1189,60.0);
#310=VECTOR('',#1192,60.0);
#311=VECTOR('',#1193,60.0);
#312=VECTOR('',#1196,60.0);
#313=VECTOR('',#1197,60.0);
#314=VECTOR('',#1200,60.0);
#315=VECTOR('',#1205,60.0);
#316=VECTOR('',#1206,60.0);
#317=VECTOR('',#1207,60.0);
#318=VECTOR('',#1210,60.0);
#319=VECTOR('',#1211,60.0);
#320=VECTOR('',#1214,60.0);
#321=VECTOR('',#1215,60.0);
#322=VECTOR('',#1218,60.0);
#323=VECTOR('',#1223,60.0);
#324=VECTOR('',#1224,60.0);
#325=VECTOR('',#1225,60.0);
#326=VECTOR('',#1228,60.0);
#327=VECTOR('',#1229,60.0);
#328=VECTOR('',#1232,60.0);
#329=VECTOR('',#1233,60.0);
#330=VECTOR('',#1236,60.0);
#331=VECTOR('',#1241,60.0);
#332=VECTOR('',#1242,60.0);
#333=VECTOR('',#1243,60.0);
#334=VECTOR('',#1246,60.0);
#335=VECTOR('',#1247,60.0);
#336=VECTOR('',#1250,60.0);
#337=VECTOR('',#1251,60.0);
#338=VECTOR('',#1252,60.0);
#339=VECTOR('',#1255,60.0);
#340=VECTOR('',#1258,60.0);
#341=VECTOR('',#1259,60.0);
#342=VECTOR('',#1260,60.0);
#343=VECTOR('',#1263,60.0);
#344=VECTOR('',#1264,60.0);
#345=VECTOR('',#1265,60.0);
#346=VECTOR('',#1268,60.0);
#347=VECTOR('',#1269,60.0);
#348=VECTOR('',#1270,60.0);
#349=VECTOR('',#1273,60.0);
#350=VECTOR('',#1274,60.0);
#351=VECTOR('',#1275,60.0);
#352=VECTOR('',#1278,60.0);
#353=VECTOR('',#1279,60.0);
#354=VECTOR('',#1280,60.0);
#355=VECTOR('',#1283,60.0);
#356=VECTOR('',#1284,60.0);
#357=VECTOR('',#1285,60.0);
#358=VECTOR('',#1286,60.0);
#359=VECTOR('',#1287,60.0);
#360=VECTOR('',#1288,60.0);
#361=VECTOR('',#1289,60.0);
#362=VECTOR('',#1290,60.0);
#363=VECTOR('',#1293,60.0);
#364=VECTOR('',#1294,60.0);
#365=VECTOR('',#1295,60.0);
#366=VECTOR('',#1296,60.0);
#367=VECTOR('',#1297,60.0);
#368=VECTOR('',#1298,60.0);
#369=VECTOR('',#1299,60.0);
#370=VECTOR('',#1300,60.0);
#371=VECTOR('',#1301,60.0);
#372=VECTOR('',#1302,60.0);
#373=VECTOR('',#1303,60.0);
#374=VECTOR('',#1304,60.0);
#375=VECTOR('',#1305,60.0);
#376=VECTOR('',#1306,60.0);
#377=VECTOR('',#1307,60.0);
#378=VECTOR('',#1308,60.0);
#379=VECTOR('',#1311,60.0);
#380=VECTOR('',#1312,60.0);
#381=VECTOR('',#1313,60.0);
#382=VECTOR('',#1316,60.0);
#383=VECTOR('',#1317,60.0);
#384=VECTOR('',#1320,60.0);
#385=VECTOR('',#1321,60.0);
#386=VECTOR('',#1324,60.0);
#387=VECTOR('',#1329,60.0);
#388=VECTOR('',#1330,60.0);
#389=VECTOR('',#1331,60.0);
#390=VECTOR('',#1334,60.0);
#391=VECTOR('',#1335,60.0);
#392=VECTOR('',#1338,60.0);
#393=VECTOR('',#1339,60.0);
#394=VECTOR('',#1342,60.0);
#395=VECTOR('',#1347,60.0);
#396=VECTOR('',#1348,60.0);
#397=VECTOR('',#1349,60.0);
#398=VECTOR('',#1352,60.0);
#399=VECTOR('',#1353,60.0);
#400=VECTOR('',#1356,60.0);
#401=VECTOR('',#1357,60.0);
#402=VECTOR('',#1360,60.0);
#403=VECTOR('',#1365,60.0);
#404=VECTOR('',#1366,60.0);
#405=VECTOR('',#1367,60.0);
#406=VECTOR('',#1370,60.0);
#407=VECTOR('',#1371,60.0);
#408=VECTOR('',#1374,60.0);
#409=VECTOR('',#1375,60.0);
#410=VECTOR('',#1376,60.0);
#411=VECTOR('',#1379,60.0);
#412=VECTOR('',#1382,60.0);
#413=VECTOR('',#1383,60.0);
#414=VECTOR('',#1384,60.0);
#415=VECTOR('',#1387,60.0);
#416=VECTOR('',#1388,60.0);
#417=VECTOR('',#1391,60.0);
#418=VECTOR('',#1392,60.0);
#419=VECTOR('',#1393,60.0);
#420=VECTOR('',#1396,60.0);
#421=VECTOR('',#1397,60.0);
#422=VECTOR('',#1398,60.0);
#423=VECTOR('',#1401,60.0);
#424=VECTOR('',#1402,60.0);
#425=VECTOR('',#1403,60.0);
#426=VECTOR('',#1406,60.0);
#427=VECTOR('',#1407,60.0);
#428=VECTOR('',#1408,60.0);
#429=VECTOR('',#1411,60.0);
#430=VECTOR('',#1412,60.0);
#431=VERTEX_POINT('',#1419);
#432=VERTEX_POINT('',#1420);
#433=VERTEX_POINT('',#1422);
#434=VERTEX_POINT('',#1424);
#435=VERTEX_POINT('',#1426);
#436=VERTEX_POINT('',#1428);
#437=VERTEX_POINT('',#1430);
#438=VERTEX_POINT('',#1432);
#439=VERTEX_POINT('',#1436);
#440=VERTEX_POINT('',#1438);
#441=VERTEX_POINT('',#1440);
#442=VERTEX_POINT('',#1442);
#443=VERTEX_POINT('',#1445);
#444=VERTEX_POINT('',#1447);
#445=VERTEX_POINT('',#1450);
#446=VERTEX_POINT('',#1451);
#447=VERTEX_POINT('',#1453);
#448=VERTEX_POINT('',#1455);
#449=VERTEX_POINT('',#1458);
#450=VERTEX_POINT('',#1459);
#451=VERTEX_POINT('',#1461);
#452=VERTEX_POINT('',#1463);
#453=VERTEX_POINT('',#1467);
#454=VERTEX_POINT('',#1469);
#455=VERTEX_POINT('',#1473);
#456=VERTEX_POINT('',#1477);
#457=VERTEX_POINT('',#1484);
#458=VERTEX_POINT('',#1486);
#459=VERTEX_POINT('',#1490);
#460=VERTEX_POINT('',#1494);
#461=VERTEX_POINT('',#1501);
#462=VERTEX_POINT('',#1503);
#463=VERTEX_POINT('',#1507);
#464=VERTEX_POINT('',#1511);
#465=VERTEX_POINT('',#1518);
#466=VERTEX_POINT('',#1520);
#467=VERTEX_POINT('',#1524);
#468=VERTEX_POINT('',#1528);
#469=VERTEX_POINT('',#1529);
#470=VERTEX_POINT('',#1536);
#471=VERTEX_POINT('',#1538);
#472=VERTEX_POINT('',#1542);
#473=VERTEX_POINT('',#1544);
#474=VERTEX_POINT('',#1548);
#475=VERTEX_POINT('',#1550);
#476=VERTEX_POINT('',#1554);
#477=VERTEX_POINT('',#1556);
#478=VERTEX_POINT('',#1560);
#479=VERTEX_POINT('',#1562);
#480=VERTEX_POINT('',#1566);
#481=VERTEX_POINT('',#1567);
#482=VERTEX_POINT('',#1569);
#483=VERTEX_POINT('',#1571);
#484=VERTEX_POINT('',#1573);
#485=VERTEX_POINT('',#1575);
#486=VERTEX_POINT('',#1577);
#487=VERTEX_POINT('',#1579);
#488=VERTEX_POINT('',#1583);
#489=VERTEX_POINT('',#1585);
#490=VERTEX_POINT('',#1588);
#491=VERTEX_POINT('',#1590);
#492=VERTEX_POINT('',#1592);
#493=VERTEX_POINT('',#1594);
#494=VERTEX_POINT('',#1597);
#495=VERTEX_POINT('',#1598);
#496=VERTEX_POINT('',#1600);
#497=VERTEX_POINT('',#1602);
#498=VERTEX_POINT('',#1605);
#499=VERTEX_POINT('',#1606);
#500=VERTEX_POINT('',#1608);
#501=VERTEX_POINT('',#1610);
#502=VERTEX_POINT('',#1614);
#503=VERTEX_POINT('',#1616);
#504=VERTEX_POINT('',#1620);
#505=VERTEX_POINT('',#1624);
#506=VERTEX_POINT('',#1631);
#507=VERTEX_POINT('',#1633);
#508=VERTEX_POINT('',#1637);
#509=VERTEX_POINT('',#1641);
#510=VERTEX_POINT('',#1648);
#511=VERTEX_POINT('',#1650);
#512=VERTEX_POINT('',#1654);
#513=VERTEX_POINT('',#1658);
#514=VERTEX_POINT('',#1665);
#515=VERTEX_POINT('',#1667);
#516=VERTEX_POINT('',#1671);
#517=VERTEX_POINT('',#1675);
#518=VERTEX_POINT('',#1676);
#519=VERTEX_POINT('',#1683);
#520=VERTEX_POINT('',#1685);
#521=VERTEX_POINT('',#1692);
#522=VERTEX_POINT('',#1694);
#523=VERTEX_POINT('',#1698);
#524=VERTEX_POINT('',#1700);
#525=VERTEX_POINT('',#1704);
#526=VERTEX_POINT('',#1706);
#527=VERTEX_POINT('',#1710);
#528=VERTEX_POINT('',#1712);
#529=EDGE_CURVE('',#431,#432,#135,.T.);
#530=EDGE_CURVE('',#433,#431,#136,.T.);
#531=EDGE_CURVE('',#433,#434,#137,.T.);
#532=EDGE_CURVE('',#434,#435,#138,.T.);
#533=EDGE_CURVE('',#435,#436,#139,.T.);
#534=EDGE_CURVE('',#437,#436,#140,.T.);
#535=EDGE_CURVE('',#437,#438,#141,.F.);
#536=EDGE_CURVE('',#438,#432,#142,.T.);
#537=EDGE_CURVE('',#439,#431,#143,.T.);
#538=EDGE_CURVE('',#440,#439,#144,.T.);
#539=EDGE_CURVE('',#441,#440,#145,.T.);
#540=EDGE_CURVE('',#442,#441,#146,.T.);
#541=EDGE_CURVE('',#437,#442,#147,.T.);
#542=EDGE_CURVE('',#443,#436,#148,.T.);
#543=EDGE_CURVE('',#444,#443,#149,.T.);
#544=EDGE_CURVE('',#433,#444,#150,.T.);
#545=EDGE_CURVE('',#445,#446,#151,.T.);
#546=EDGE_CURVE('',#447,#445,#152,.T.);
#547=EDGE_CURVE('',#448,#447,#153,.T.);
#548=EDGE_CURVE('',#446,#448,#154,.T.);
#549=EDGE_CURVE('',#449,#450,#155,.T.);
#550=EDGE_CURVE('',#451,#449,#156,.T.);
#551=EDGE_CURVE('',#452,#451,#157,.T.);
#552=EDGE_CURVE('',#450,#452,#158,.T.);
#553=EDGE_CURVE('',#444,#453,#159,.T.);
#554=EDGE_CURVE('',#453,#454,#160,.T.);
#555=EDGE_CURVE('',#434,#454,#161,.T.);
#556=EDGE_CURVE('',#454,#455,#162,.T.);
#557=EDGE_CURVE('',#435,#455,#163,.T.);
#558=EDGE_CURVE('',#443,#456,#164,.T.);
#559=EDGE_CURVE('',#456,#453,#165,.T.);
#560=EDGE_CURVE('',#455,#456,#166,.T.);
#561=EDGE_CURVE('',#450,#457,#167,.T.);
#562=EDGE_CURVE('',#457,#458,#168,.T.);
#563=EDGE_CURVE('',#449,#458,#169,.T.);
#564=EDGE_CURVE('',#452,#459,#170,.T.);
#565=EDGE_CURVE('',#459,#457,#171,.T.);
#566=EDGE_CURVE('',#451,#460,#172,.T.);
#567=EDGE_CURVE('',#460,#459,#173,.T.);
#568=EDGE_CURVE('',#458,#460,#174,.T.);
#569=EDGE_CURVE('',#446,#461,#175,.T.);
#570=EDGE_CURVE('',#461,#462,#176,.T.);
#571=EDGE_CURVE('',#445,#462,#177,.T.);
#572=EDGE_CURVE('',#448,#463,#178,.T.);
#573=EDGE_CURVE('',#463,#461,#179,.T.);
#574=EDGE_CURVE('',#447,#464,#180,.T.);
#575=EDGE_CURVE('',#464,#463,#181,.T.);
#576=EDGE_CURVE('',#462,#464,#182,.T.);
#577=EDGE_CURVE('',#465,#442,#183,.T.);
#578=EDGE_CURVE('',#466,#441,#184,.T.);
#579=EDGE_CURVE('',#466,#465,#185,.T.);
#580=EDGE_CURVE('',#467,#466,#186,.T.);
#581=EDGE_CURVE('',#467,#440,#187,.T.);
#582=EDGE_CURVE('',#468,#469,#188,.T.);
#583=EDGE_CURVE('',#469,#439,#189,.T.);
#584=EDGE_CURVE('',#468,#432,#190,.T.);
#585=EDGE_CURVE('',#469,#467,#191,.T.);
#586=EDGE_CURVE('',#470,#468,#192,.T.);
#587=EDGE_CURVE('',#432,#471,#193,.T.);
#588=EDGE_CURVE('',#470,#471,#194,.T.);
#589=EDGE_CURVE('',#472,#465,#195,.T.);
#590=EDGE_CURVE('',#472,#473,#196,.T.);
#591=EDGE_CURVE('',#473,#438,#197,.T.);
#592=EDGE_CURVE('',#474,#472,#198,.T.);
#593=EDGE_CURVE('',#474,#475,#199,.T.);
#594=EDGE_CURVE('',#475,#473,#200,.T.);
#595=EDGE_CURVE('',#476,#474,#201,.T.);
#596=EDGE_CURVE('',#476,#477,#202,.T.);
#597=EDGE_CURVE('',#477,#475,#203,.T.);
#598=EDGE_CURVE('',#478,#476,#204,.T.);
#599=EDGE_CURVE('',#478,#479,#205,.T.);
#600=EDGE_CURVE('',#479,#477,#206,.T.);
#601=EDGE_CURVE('',#480,#481,#207,.T.);
#602=EDGE_CURVE('',#482,#481,#208,.T.);
#603=EDGE_CURVE('',#483,#482,#209,.F.);
#604=EDGE_CURVE('',#483,#484,#210,.T.);
#605=EDGE_CURVE('',#485,#484,#211,.T.);
#606=EDGE_CURVE('',#486,#485,#212,.T.);
#607=EDGE_CURVE('',#487,#486,#213,.T.);
#608=EDGE_CURVE('',#487,#480,#214,.T.);
#609=EDGE_CURVE('',#487,#488,#215,.T.);
#610=EDGE_CURVE('',#488,#489,#216,.T.);
#611=EDGE_CURVE('',#489,#484,#217,.T.);
#612=EDGE_CURVE('',#483,#490,#218,.T.);
#613=EDGE_CURVE('',#490,#491,#219,.T.);
#614=EDGE_CURVE('',#491,#492,#220,.T.);
#615=EDGE_CURVE('',#492,#493,#221,.T.);
#616=EDGE_CURVE('',#493,#480,#222,.T.);
#617=EDGE_CURVE('',#494,#495,#223,.T.);
#618=EDGE_CURVE('',#495,#496,#224,.T.);
#619=EDGE_CURVE('',#496,#497,#225,.T.);
#620=EDGE_CURVE('',#497,#494,#226,.T.);
#621=EDGE_CURVE('',#498,#499,#227,.T.);
#622=EDGE_CURVE('',#499,#500,#228,.T.);
#623=EDGE_CURVE('',#500,#501,#229,.T.);
#624=EDGE_CURVE('',#501,#498,#230,.T.);
#625=EDGE_CURVE('',#486,#502,#231,.T.);
#626=EDGE_CURVE('',#503,#502,#232,.T.);
#627=EDGE_CURVE('',#488,#503,#233,.T.);
#628=EDGE_CURVE('',#485,#504,#234,.T.);
#629=EDGE_CURVE('',#502,#504,#235,.T.);
#630=EDGE_CURVE('',#505,#503,#236,.T.);
#631=EDGE_CURVE('',#489,#505,#237,.T.);
#632=EDGE_CURVE('',#504,#505,#238,.T.);
#633=EDGE_CURVE('',#498,#506,#239,.T.);
#634=EDGE_CURVE('',#507,#506,#240,.T.);
#635=EDGE_CURVE('',#499,#507,#241,.T.);
#636=EDGE_CURVE('',#508,#507,#242,.T.);
#637=EDGE_CURVE('',#500,#508,#243,.T.);
#638=EDGE_CURVE('',#509,#508,#244,.T.);
#639=EDGE_CURVE('',#501,#509,#245,.T.);
#640=EDGE_CURVE('',#506,#509,#246,.T.);
#641=EDGE_CURVE('',#494,#510,#247,.T.);
#642=EDGE_CURVE('',#511,#510,#248,.T.);
#643=EDGE_CURVE('',#495,#511,#249,.T.);
#644=EDGE_CURVE('',#512,#511,#250,.T.);
#645=EDGE_CURVE('',#496,#512,#251,.T.);
#646=EDGE_CURVE('',#513,#512,#252,.T.);
#647=EDGE_CURVE('',#497,#513,#253,.T.);
#648=EDGE_CURVE('',#510,#513,#254,.T.);
#649=EDGE_CURVE('',#514,#490,#255,.T.);
#650=EDGE_CURVE('',#515,#514,#256,.T.);
#651=EDGE_CURVE('',#515,#491,#257,.T.);
#652=EDGE_CURVE('',#516,#515,#258,.T.);
#653=EDGE_CURVE('',#516,#492,#259,.T.);
#654=EDGE_CURVE('',#517,#518,#260,.T.);
#655=EDGE_CURVE('',#517,#481,#261,.T.);
#656=EDGE_CURVE('',#518,#493,#262,.T.);
#657=EDGE_CURVE('',#518,#516,#263,.T.);
#658=EDGE_CURVE('',#470,#519,#264,.T.);
#659=EDGE_CURVE('',#520,#471,#265,.T.);
#660=EDGE_CURVE('',#519,#520,#266,.T.);
#661=EDGE_CURVE('',#519,#517,#267,.T.);
#662=EDGE_CURVE('',#481,#520,#268,.T.);
#663=EDGE_CURVE('',#521,#514,#269,.T.);
#664=EDGE_CURVE('',#522,#482,#270,.T.);
#665=EDGE_CURVE('',#521,#522,#271,.T.);
#666=EDGE_CURVE('',#523,#521,#272,.T.);
#667=EDGE_CURVE('',#524,#522,#273,.T.);
#668=EDGE_CURVE('',#523,#524,#274,.T.);
#669=EDGE_CURVE('',#525,#523,#275,.T.);
#670=EDGE_CURVE('',#526,#524,#276,.T.);
#671=EDGE_CURVE('',#525,#526,#277,.T.);
#672=EDGE_CURVE('',#527,#525,#278,.T.);
#673=EDGE_CURVE('',#528,#526,#279,.T.);
#674=EDGE_CURVE('',#527,#528,#280,.T.);
#675=EDGE_CURVE('',#478,#527,#281,.T.);
#676=EDGE_CURVE('',#528,#479,#282,.T.);
#677=ORIENTED_EDGE('',*,*,#529,.F.);
#678=ORIENTED_EDGE('',*,*,#530,.F.);
#679=ORIENTED_EDGE('',*,*,#531,.T.);
#680=ORIENTED_EDGE('',*,*,#532,.T.);
#681=ORIENTED_EDGE('',*,*,#533,.T.);
#682=ORIENTED_EDGE('',*,*,#534,.F.);
#683=ORIENTED_EDGE('',*,*,#535,.T.);
#684=ORIENTED_EDGE('',*,*,#536,.T.);
#685=ORIENTED_EDGE('',*,*,#530,.T.);
#686=ORIENTED_EDGE('',*,*,#537,.F.);
#687=ORIENTED_EDGE('',*,*,#538,.F.);
#688=ORIENTED_EDGE('',*,*,#539,.F.);
#689=ORIENTED_EDGE('',*,*,#540,.F.);
#690=ORIENTED_EDGE('',*,*,#541,.F.);
#691=ORIENTED_EDGE('',*,*,#534,.T.);
#692=ORIENTED_EDGE('',*,*,#542,.F.);
#693=ORIENTED_EDGE('',*,*,#543,.F.);
#694=ORIENTED_EDGE('',*,*,#544,.F.);
#695=ORIENTED_EDGE('',*,*,#545,.F.);
#696=ORIENTED_EDGE('',*,*,#546,.F.);
#697=ORIENTED_EDGE('',*,*,#547,.F.);
#698=ORIENTED_EDGE('',*,*,#548,.F.);
#699=ORIENTED_EDGE('',*,*,#549,.F.);
#700=ORIENTED_EDGE('',*,*,#550,.F.);
#701=ORIENTED_EDGE('',*,*,#551,.F.);
#702=ORIENTED_EDGE('',*,*,#552,.F.);
#703=ORIENTED_EDGE('',*,*,#531,.F.);
#704=ORIENTED_EDGE('',*,*,#544,.T.);
#705=ORIENTED_EDGE('',*,*,#553,.T.);
#706=ORIENTED_EDGE('',*,*,#554,.T.);
#707=ORIENTED_EDGE('',*,*,#555,.F.);
#708=ORIENTED_EDGE('',*,*,#532,.F.);
#709=ORIENTED_EDGE('',*,*,#555,.T.);
#710=ORIENTED_EDGE('',*,*,#556,.T.);
#711=ORIENTED_EDGE('',*,*,#557,.F.);
#712=ORIENTED_EDGE('',*,*,#543,.T.);
#713=ORIENTED_EDGE('',*,*,#558,.T.);
#714=ORIENTED_EDGE('',*,*,#559,.T.);
#715=ORIENTED_EDGE('',*,*,#553,.F.);
#716=ORIENTED_EDGE('',*,*,#533,.F.);
#717=ORIENTED_EDGE('',*,*,#557,.T.);
#718=ORIENTED_EDGE('',*,*,#560,.T.);
#719=ORIENTED_EDGE('',*,*,#558,.F.);
#720=ORIENTED_EDGE('',*,*,#542,.T.);
#721=ORIENTED_EDGE('',*,*,#556,.F.);
#722=ORIENTED_EDGE('',*,*,#554,.F.);
#723=ORIENTED_EDGE('',*,*,#559,.F.);
#724=ORIENTED_EDGE('',*,*,#560,.F.);
#725=ORIENTED_EDGE('',*,*,#549,.T.);
#726=ORIENTED_EDGE('',*,*,#561,.T.);
#727=ORIENTED_EDGE('',*,*,#562,.T.);
#728=ORIENTED_EDGE('',*,*,#563,.F.);
#729=ORIENTED_EDGE('',*,*,#552,.T.);
#730=ORIENTED_EDGE('',*,*,#564,.T.);
#731=ORIENTED_EDGE('',*,*,#565,.T.);
#732=ORIENTED_EDGE('',*,*,#561,.F.);
#733=ORIENTED_EDGE('',*,*,#551,.T.);
#734=ORIENTED_EDGE('',*,*,#566,.T.);
#735=ORIENTED_EDGE('',*,*,#567,.T.);
#736=ORIENTED_EDGE('',*,*,#564,.F.);
#737=ORIENTED_EDGE('',*,*,#550,.T.);
#738=ORIENTED_EDGE('',*,*,#563,.T.);
#739=ORIENTED_EDGE('',*,*,#568,.T.);
#740=ORIENTED_EDGE('',*,*,#566,.F.);
#741=ORIENTED_EDGE('',*,*,#568,.F.);
#742=ORIENTED_EDGE('',*,*,#562,.F.);
#743=ORIENTED_EDGE('',*,*,#565,.F.);
#744=ORIENTED_EDGE('',*,*,#567,.F.);
#745=ORIENTED_EDGE('',*,*,#545,.T.);
#746=ORIENTED_EDGE('',*,*,#569,.T.);
#747=ORIENTED_EDGE('',*,*,#570,.T.);
#748=ORIENTED_EDGE('',*,*,#571,.F.);
#749=ORIENTED_EDGE('',*,*,#548,.T.);
#750=ORIENTED_EDGE('',*,*,#572,.T.);
#751=ORIENTED_EDGE('',*,*,#573,.T.);
#752=ORIENTED_EDGE('',*,*,#569,.F.);
#753=ORIENTED_EDGE('',*,*,#547,.T.);
#754=ORIENTED_EDGE('',*,*,#574,.T.);
#755=ORIENTED_EDGE('',*,*,#575,.T.);
#756=ORIENTED_EDGE('',*,*,#572,.F.);
#757=ORIENTED_EDGE('',*,*,#546,.T.);
#758=ORIENTED_EDGE('',*,*,#571,.T.);
#759=ORIENTED_EDGE('',*,*,#576,.T.);
#760=ORIENTED_EDGE('',*,*,#574,.F.);
#761=ORIENTED_EDGE('',*,*,#576,.F.);
#762=ORIENTED_EDGE('',*,*,#570,.F.);
#763=ORIENTED_EDGE('',*,*,#573,.F.);
#764=ORIENTED_EDGE('',*,*,#575,.F.);
#765=ORIENTED_EDGE('',*,*,#577,.T.);
#766=ORIENTED_EDGE('',*,*,#540,.T.);
#767=ORIENTED_EDGE('',*,*,#578,.F.);
#768=ORIENTED_EDGE('',*,*,#579,.T.);
#769=ORIENTED_EDGE('',*,*,#580,.T.);
#770=ORIENTED_EDGE('',*,*,#578,.T.);
#771=ORIENTED_EDGE('',*,*,#539,.T.);
#772=ORIENTED_EDGE('',*,*,#581,.F.);
#773=ORIENTED_EDGE('',*,*,#582,.T.);
#774=ORIENTED_EDGE('',*,*,#583,.T.);
#775=ORIENTED_EDGE('',*,*,#537,.T.);
#776=ORIENTED_EDGE('',*,*,#529,.T.);
#777=ORIENTED_EDGE('',*,*,#584,.F.);
#778=ORIENTED_EDGE('',*,*,#585,.T.);
#779=ORIENTED_EDGE('',*,*,#581,.T.);
#780=ORIENTED_EDGE('',*,*,#538,.T.);
#781=ORIENTED_EDGE('',*,*,#583,.F.);
#782=ORIENTED_EDGE('',*,*,#586,.T.);
#783=ORIENTED_EDGE('',*,*,#584,.T.);
#784=ORIENTED_EDGE('',*,*,#587,.T.);
#785=ORIENTED_EDGE('',*,*,#588,.F.);
#786=ORIENTED_EDGE('',*,*,#589,.F.);
#787=ORIENTED_EDGE('',*,*,#590,.T.);
#788=ORIENTED_EDGE('',*,*,#591,.T.);
#789=ORIENTED_EDGE('',*,*,#535,.F.);
#790=ORIENTED_EDGE('',*,*,#541,.T.);
#791=ORIENTED_EDGE('',*,*,#577,.F.);
#792=ORIENTED_EDGE('',*,*,#592,.F.);
#793=ORIENTED_EDGE('',*,*,#593,.T.);
#794=ORIENTED_EDGE('',*,*,#594,.T.);
#795=ORIENTED_EDGE('',*,*,#590,.F.);
#796=ORIENTED_EDGE('',*,*,#595,.F.);
#797=ORIENTED_EDGE('',*,*,#596,.T.);
#798=ORIENTED_EDGE('',*,*,#597,.T.);
#799=ORIENTED_EDGE('',*,*,#593,.F.);
#800=ORIENTED_EDGE('',*,*,#598,.F.);
#801=ORIENTED_EDGE('',*,*,#599,.T.);
#802=ORIENTED_EDGE('',*,*,#600,.T.);
#803=ORIENTED_EDGE('',*,*,#596,.F.);
#804=ORIENTED_EDGE('',*,*,#601,.T.);
#805=ORIENTED_EDGE('',*,*,#602,.F.);
#806=ORIENTED_EDGE('',*,*,#603,.F.);
#807=ORIENTED_EDGE('',*,*,#604,.T.);
#808=ORIENTED_EDGE('',*,*,#605,.F.);
#809=ORIENTED_EDGE('',*,*,#606,.F.);
#810=ORIENTED_EDGE('',*,*,#607,.F.);
#811=ORIENTED_EDGE('',*,*,#608,.T.);
#812=ORIENTED_EDGE('',*,*,#608,.F.);
#813=ORIENTED_EDGE('',*,*,#609,.T.);
#814=ORIENTED_EDGE('',*,*,#610,.T.);
#815=ORIENTED_EDGE('',*,*,#611,.T.);
#816=ORIENTED_EDGE('',*,*,#604,.F.);
#817=ORIENTED_EDGE('',*,*,#612,.T.);
#818=ORIENTED_EDGE('',*,*,#613,.T.);
#819=ORIENTED_EDGE('',*,*,#614,.T.);
#820=ORIENTED_EDGE('',*,*,#615,.T.);
#821=ORIENTED_EDGE('',*,*,#616,.T.);
#822=ORIENTED_EDGE('',*,*,#617,.T.);
#823=ORIENTED_EDGE('',*,*,#618,.T.);
#824=ORIENTED_EDGE('',*,*,#619,.T.);
#825=ORIENTED_EDGE('',*,*,#620,.T.);
#826=ORIENTED_EDGE('',*,*,#621,.T.);
#827=ORIENTED_EDGE('',*,*,#622,.T.);
#828=ORIENTED_EDGE('',*,*,#623,.T.);
#829=ORIENTED_EDGE('',*,*,#624,.T.);
#830=ORIENTED_EDGE('',*,*,#607,.T.);
#831=ORIENTED_EDGE('',*,*,#625,.T.);
#832=ORIENTED_EDGE('',*,*,#626,.F.);
#833=ORIENTED_EDGE('',*,*,#627,.F.);
#834=ORIENTED_EDGE('',*,*,#609,.F.);
#835=ORIENTED_EDGE('',*,*,#606,.T.);
#836=ORIENTED_EDGE('',*,*,#628,.T.);
#837=ORIENTED_EDGE('',*,*,#629,.F.);
#838=ORIENTED_EDGE('',*,*,#625,.F.);
#839=ORIENTED_EDGE('',*,*,#610,.F.);
#840=ORIENTED_EDGE('',*,*,#627,.T.);
#841=ORIENTED_EDGE('',*,*,#630,.F.);
#842=ORIENTED_EDGE('',*,*,#631,.F.);
#843=ORIENTED_EDGE('',*,*,#605,.T.);
#844=ORIENTED_EDGE('',*,*,#611,.F.);
#845=ORIENTED_EDGE('',*,*,#631,.T.);
#846=ORIENTED_EDGE('',*,*,#632,.F.);
#847=ORIENTED_EDGE('',*,*,#628,.F.);
#848=ORIENTED_EDGE('',*,*,#629,.T.);
#849=ORIENTED_EDGE('',*,*,#632,.T.);
#850=ORIENTED_EDGE('',*,*,#630,.T.);
#851=ORIENTED_EDGE('',*,*,#626,.T.);
#852=ORIENTED_EDGE('',*,*,#621,.F.);
#853=ORIENTED_EDGE('',*,*,#633,.T.);
#854=ORIENTED_EDGE('',*,*,#634,.F.);
#855=ORIENTED_EDGE('',*,*,#635,.F.);
#856=ORIENTED_EDGE('',*,*,#622,.F.);
#857=ORIENTED_EDGE('',*,*,#635,.T.);
#858=ORIENTED_EDGE('',*,*,#636,.F.);
#859=ORIENTED_EDGE('',*,*,#637,.F.);
#860=ORIENTED_EDGE('',*,*,#623,.F.);
#861=ORIENTED_EDGE('',*,*,#637,.T.);
#862=ORIENTED_EDGE('',*,*,#638,.F.);
#863=ORIENTED_EDGE('',*,*,#639,.F.);
#864=ORIENTED_EDGE('',*,*,#624,.F.);
#865=ORIENTED_EDGE('',*,*,#639,.T.);
#866=ORIENTED_EDGE('',*,*,#640,.F.);
#867=ORIENTED_EDGE('',*,*,#633,.F.);
#868=ORIENTED_EDGE('',*,*,#640,.T.);
#869=ORIENTED_EDGE('',*,*,#638,.T.);
#870=ORIENTED_EDGE('',*,*,#636,.T.);
#871=ORIENTED_EDGE('',*,*,#634,.T.);
#872=ORIENTED_EDGE('',*,*,#617,.F.);
#873=ORIENTED_EDGE('',*,*,#641,.T.);
#874=ORIENTED_EDGE('',*,*,#642,.F.);
#875=ORIENTED_EDGE('',*,*,#643,.F.);
#876=ORIENTED_EDGE('',*,*,#618,.F.);
#877=ORIENTED_EDGE('',*,*,#643,.T.);
#878=ORIENTED_EDGE('',*,*,#644,.F.);
#879=ORIENTED_EDGE('',*,*,#645,.F.);
#880=ORIENTED_EDGE('',*,*,#619,.F.);
#881=ORIENTED_EDGE('',*,*,#645,.T.);
#882=ORIENTED_EDGE('',*,*,#646,.F.);
#883=ORIENTED_EDGE('',*,*,#647,.F.);
#884=ORIENTED_EDGE('',*,*,#620,.F.);
#885=ORIENTED_EDGE('',*,*,#647,.T.);
#886=ORIENTED_EDGE('',*,*,#648,.F.);
#887=ORIENTED_EDGE('',*,*,#641,.F.);
#888=ORIENTED_EDGE('',*,*,#648,.T.);
#889=ORIENTED_EDGE('',*,*,#646,.T.);
#890=ORIENTED_EDGE('',*,*,#644,.T.);
#891=ORIENTED_EDGE('',*,*,#642,.T.);
#892=ORIENTED_EDGE('',*,*,#649,.F.);
#893=ORIENTED_EDGE('',*,*,#650,.F.);
#894=ORIENTED_EDGE('',*,*,#651,.T.);
#895=ORIENTED_EDGE('',*,*,#613,.F.);
#896=ORIENTED_EDGE('',*,*,#652,.F.);
#897=ORIENTED_EDGE('',*,*,#653,.T.);
#898=ORIENTED_EDGE('',*,*,#614,.F.);
#899=ORIENTED_EDGE('',*,*,#651,.F.);
#900=ORIENTED_EDGE('',*,*,#654,.F.);
#901=ORIENTED_EDGE('',*,*,#655,.T.);
#902=ORIENTED_EDGE('',*,*,#601,.F.);
#903=ORIENTED_EDGE('',*,*,#616,.F.);
#904=ORIENTED_EDGE('',*,*,#656,.F.);
#905=ORIENTED_EDGE('',*,*,#657,.F.);
#906=ORIENTED_EDGE('',*,*,#656,.T.);
#907=ORIENTED_EDGE('',*,*,#615,.F.);
#908=ORIENTED_EDGE('',*,*,#653,.F.);
#909=ORIENTED_EDGE('',*,*,#658,.F.);
#910=ORIENTED_EDGE('',*,*,#588,.T.);
#911=ORIENTED_EDGE('',*,*,#659,.F.);
#912=ORIENTED_EDGE('',*,*,#660,.F.);
#913=ORIENTED_EDGE('',*,*,#661,.F.);
#914=ORIENTED_EDGE('',*,*,#660,.T.);
#915=ORIENTED_EDGE('',*,*,#662,.F.);
#916=ORIENTED_EDGE('',*,*,#655,.F.);
#917=ORIENTED_EDGE('',*,*,#663,.T.);
#918=ORIENTED_EDGE('',*,*,#649,.T.);
#919=ORIENTED_EDGE('',*,*,#612,.F.);
#920=ORIENTED_EDGE('',*,*,#603,.T.);
#921=ORIENTED_EDGE('',*,*,#664,.F.);
#922=ORIENTED_EDGE('',*,*,#665,.F.);
#923=ORIENTED_EDGE('',*,*,#666,.T.);
#924=ORIENTED_EDGE('',*,*,#665,.T.);
#925=ORIENTED_EDGE('',*,*,#667,.F.);
#926=ORIENTED_EDGE('',*,*,#668,.F.);
#927=ORIENTED_EDGE('',*,*,#669,.T.);
#928=ORIENTED_EDGE('',*,*,#668,.T.);
#929=ORIENTED_EDGE('',*,*,#670,.F.);
#930=ORIENTED_EDGE('',*,*,#671,.F.);
#931=ORIENTED_EDGE('',*,*,#672,.T.);
#932=ORIENTED_EDGE('',*,*,#671,.T.);
#933=ORIENTED_EDGE('',*,*,#673,.F.);
#934=ORIENTED_EDGE('',*,*,#674,.F.);
#935=ORIENTED_EDGE('',*,*,#675,.T.);
#936=ORIENTED_EDGE('',*,*,#674,.T.);
#937=ORIENTED_EDGE('',*,*,#676,.T.);
#938=ORIENTED_EDGE('',*,*,#599,.F.);
#939=ORIENTED_EDGE('',*,*,#676,.F.);
#940=ORIENTED_EDGE('',*,*,#673,.T.);
#941=ORIENTED_EDGE('',*,*,#670,.T.);
#942=ORIENTED_EDGE('',*,*,#667,.T.);
#943=ORIENTED_EDGE('',*,*,#664,.T.);
#944=ORIENTED_EDGE('',*,*,#602,.T.);
#945=ORIENTED_EDGE('',*,*,#662,.T.);
#946=ORIENTED_EDGE('',*,*,#659,.T.);
#947=ORIENTED_EDGE('',*,*,#587,.F.);
#948=ORIENTED_EDGE('',*,*,#536,.F.);
#949=ORIENTED_EDGE('',*,*,#591,.F.);
#950=ORIENTED_EDGE('',*,*,#594,.F.);
#951=ORIENTED_EDGE('',*,*,#597,.F.);
#952=ORIENTED_EDGE('',*,*,#600,.F.);
#953=ORIENTED_EDGE('',*,*,#675,.F.);
#954=ORIENTED_EDGE('',*,*,#598,.T.);
#955=ORIENTED_EDGE('',*,*,#595,.T.);
#956=ORIENTED_EDGE('',*,*,#592,.T.);
#957=ORIENTED_EDGE('',*,*,#589,.T.);
#958=ORIENTED_EDGE('',*,*,#579,.F.);
#959=ORIENTED_EDGE('',*,*,#580,.F.);
#960=ORIENTED_EDGE('',*,*,#585,.F.);
#961=ORIENTED_EDGE('',*,*,#582,.F.);
#962=ORIENTED_EDGE('',*,*,#586,.F.);
#963=ORIENTED_EDGE('',*,*,#658,.T.);
#964=ORIENTED_EDGE('',*,*,#661,.T.);
#965=ORIENTED_EDGE('',*,*,#654,.T.);
#966=ORIENTED_EDGE('',*,*,#657,.T.);
#967=ORIENTED_EDGE('',*,*,#652,.T.);
#968=ORIENTED_EDGE('',*,*,#650,.T.);
#969=ORIENTED_EDGE('',*,*,#663,.F.);
#970=ORIENTED_EDGE('',*,*,#666,.F.);
#971=ORIENTED_EDGE('',*,*,#669,.F.);
#972=ORIENTED_EDGE('',*,*,#672,.F.);
#973=PLANE('',#1099);
#974=PLANE('',#1100);
#975=PLANE('',#1101);
#976=PLANE('',#1102);
#977=PLANE('',#1103);
#978=PLANE('',#1104);
#979=PLANE('',#1105);
#980=PLANE('',#1106);
#981=PLANE('',#1107);
#982=PLANE('',#1108);
#983=PLANE('',#1109);
#984=PLANE('',#1110);
#985=PLANE('',#1111);
#986=PLANE('',#1112);
#987=PLANE('',#1113);
#988=PLANE('',#1114);
#989=PLANE('',#1115);
#990=PLANE('',#1116);
#991=PLANE('',#1117);
#992=PLANE('',#1118);
#993=PLANE('',#1119);
#994=PLANE('',#1120);
#995=PLANE('',#1121);
#996=PLANE('',#1122);
#997=PLANE('',#1123);
#998=PLANE('',#1124);
#999=PLANE('',#1125);
#1000=PLANE('',#1126);
#1001=PLANE('',#1127);
#1002=PLANE('',#1128);
#1003=PLANE('',#1129);
#1004=PLANE('',#1130);
#1005=PLANE('',#1131);
#1006=PLANE('',#1132);
#1007=PLANE('',#1133);
#1008=PLANE('',#1134);
#1009=PLANE('',#1135);
#1010=PLANE('',#1136);
#1011=PLANE('',#1137);
#1012=PLANE('',#1138);
#1013=PLANE('',#1139);
#1014=PLANE('',#1140);
#1015=PLANE('',#1141);
#1016=PLANE('',#1142);
#1017=PLANE('',#1143);
#1018=PLANE('',#1144);
#1019=PLANE('',#1145);
#1020=PLANE('',#1146);
#1021=PLANE('',#1147);
#1022=PLANE('',#1148);
#1023=PLANE('',#1149);
#1024=PLANE('',#1150);
#1025=PLANE('',#1151);
#1026=PLANE('',#1152);
#1027=PLANE('',#1153);
#1028=PLANE('',#1154);
#1029=ADVANCED_FACE('',(#19),#973,.F.);
#1030=ADVANCED_FACE('',(#20,#15,#16),#974,.F.);
#1031=ADVANCED_FACE('',(#21),#975,.F.);
#1032=ADVANCED_FACE('',(#22),#976,.F.);
#1033=ADVANCED_FACE('',(#23),#977,.F.);
#1034=ADVANCED_FACE('',(#24),#978,.F.);
#1035=ADVANCED_FACE('',(#25),#979,.F.);
#1036=ADVANCED_FACE('',(#26),#980,.F.);
#1037=ADVANCED_FACE('',(#27),#981,.F.);
#1038=ADVANCED_FACE('',(#28),#982,.F.);
#1039=ADVANCED_FACE('',(#29),#983,.F.);
#1040=ADVANCED_FACE('',(#30),#984,.F.);
#1041=ADVANCED_FACE('',(#31),#985,.F.);
#1042=ADVANCED_FACE('',(#32),#986,.F.);
#1043=ADVANCED_FACE('',(#33),#987,.F.);
#1044=ADVANCED_FACE('',(#34),#988,.F.);
#1045=ADVANCED_FACE('',(#35),#989,.F.);
#1046=ADVANCED_FACE('',(#36),#990,.F.);
#1047=ADVANCED_FACE('',(#37),#991,.F.);
#1048=ADVANCED_FACE('',(#38),#992,.F.);
#1049=ADVANCED_FACE('',(#39),#993,.F.);
#1050=ADVANCED_FACE('',(#40),#994,.F.);
#1051=ADVANCED_FACE('',(#41),#995,.F.);
#1052=ADVANCED_FACE('',(#42),#996,.F.);
#1053=ADVANCED_FACE('',(#43),#997,.F.);
#1054=ADVANCED_FACE('',(#44),#998,.F.);
#1055=ADVANCED_FACE('',(#45),#999,.T.);
#1056=ADVANCED_FACE('',(#46,#17,#18),#1000,.T.);
#1057=ADVANCED_FACE('',(#47),#1001,.T.);
#1058=ADVANCED_FACE('',(#48),#1002,.T.);
#1059=ADVANCED_FACE('',(#49),#1003,.T.);
#1060=ADVANCED_FACE('',(#50),#1004,.T.);
#1061=ADVANCED_FACE('',(#51),#1005,.T.);
#1062=ADVANCED_FACE('',(#52),#1006,.T.);
#1063=ADVANCED_FACE('',(#53),#1007,.T.);
#1064=ADVANCED_FACE('',(#54),#1008,.T.);
#1065=ADVANCED_FACE('',(#55),#1009,.T.);
#1066=ADVANCED_FACE('',(#56),#1010,.T.);
#1067=ADVANCED_FACE('',(#57),#1011,.T.);
#1068=ADVANCED_FACE('',(#58),#1012,.T.);
#1069=ADVANCED_FACE('',(#59),#1013,.T.);
#1070=ADVANCED_FACE('',(#60),#1014,.T.);
#1071=ADVANCED_FACE('',(#61),#1015,.T.);
#1072=ADVANCED_FACE('',(#62),#1016,.T.);
#1073=ADVANCED_FACE('',(#63),#1017,.T.);
#1074=ADVANCED_FACE('',(#64),#1018,.T.);
#1075=ADVANCED_FACE('',(#65),#1019,.T.);
#1076=ADVANCED_FACE('',(#66),#1020,.T.);
#1077=ADVANCED_FACE('',(#67),#1021,.T.);
#1078=ADVANCED_FACE('',(#68),#1022,.T.);
#1079=ADVANCED_FACE('',(#69),#1023,.T.);
#1080=ADVANCED_FACE('',(#70),#1024,.T.);
#1081=ADVANCED_FACE('',(#71),#1025,.T.);
#1082=ADVANCED_FACE('',(#72),#1026,.T.);
#1083=ADVANCED_FACE('',(#73),#1027,.T.);
#1084=ADVANCED_FACE('',(#74),#1028,.F.);
#1085=CLOSED_SHELL('',(#1029,#1030,#1031,#1032,#1033,#1034,#1035,#1036, #1037,#1038,#1039,#1040,#1041,#1042,#1043,#1044,#1045,#1046,#1047,#1048, #1049,#1050,#1051,#1052,#1053,#1054,#1055,#1056,#1057,#1058,#1059,#1060, #1061,#1062,#1063,#1064,#1065,#1066,#1067,#1068,#1069,#1070,#1071,#1072, #1073,#1074,#1075,#1076,#1077,#1078,#1079,#1080,#1081,#1082,#1083,#1084));
#1086=DERIVED_UNIT_ELEMENT(#1088,1.);
#1087=DERIVED_UNIT_ELEMENT(#1725,-3.);
#1088=( MASS_UNIT() NAMED_UNIT(*) SI_UNIT(.KILO.,.GRAM.) );
#1089=DERIVED_UNIT((#1086,#1087));
#1090=MEASURE_REPRESENTATION_ITEM('density measure', POSITIVE_RATIO_MEASURE(7850.),#1089);
#1091=PROPERTY_DEFINITION_REPRESENTATION(#1096,#1093);
#1092=PROPERTY_DEFINITION_REPRESENTATION(#1097,#1094);
#1093=REPRESENTATION('material name',(#1095),#1722);
#1094=REPRESENTATION('density',(#1090),#1722);
#1095=DESCRIPTIVE_REPRESENTATION_ITEM('Steel','Steel');
#1096=PROPERTY_DEFINITION('material property','material name',#1732);
#1097=PROPERTY_DEFINITION('material property','density of part',#1732);
#1098=AXIS2_PLACEMENT_3D('',#1417,#1155,#1156);
#1099=AXIS2_PLACEMENT_3D('',#1418,#1157,#1158);
#1100=AXIS2_PLACEMENT_3D('',#1435,#1167,#1168);
#1101=AXIS2_PLACEMENT_3D('',#1466,#1185,#1186);
#1102=AXIS2_PLACEMENT_3D('',#1472,#1190,#1191);
#1103=AXIS2_PLACEMENT_3D('',#1476,#1194,#1195);
#1104=AXIS2_PLACEMENT_3D('',#1480,#1198,#1199);
#1105=AXIS2_PLACEMENT_3D('',#1482,#1201,#1202);
#1106=AXIS2_PLACEMENT_3D('',#1483,#1203,#1204);
#1107=AXIS2_PLACEMENT_3D('',#1489,#1208,#1209);
#1108=AXIS2_PLACEMENT_3D('',#1493,#1212,#1213);
#1109=AXIS2_PLACEMENT_3D('',#1497,#1216,#1217);
#1110=AXIS2_PLACEMENT_3D('',#1499,#1219,#1220);
#1111=AXIS2_PLACEMENT_3D('',#1500,#1221,#1222);
#1112=AXIS2_PLACEMENT_3D('',#1506,#1226,#1227);
#1113=AXIS2_PLACEMENT_3D('',#1510,#1230,#1231);
#1114=AXIS2_PLACEMENT_3D('',#1514,#1234,#1235);
#1115=AXIS2_PLACEMENT_3D('',#1516,#1237,#1238);
#1116=AXIS2_PLACEMENT_3D('',#1517,#1239,#1240);
#1117=AXIS2_PLACEMENT_3D('',#1523,#1244,#1245);
#1118=AXIS2_PLACEMENT_3D('',#1527,#1248,#1249);
#1119=AXIS2_PLACEMENT_3D('',#1533,#1253,#1254);
#1120=AXIS2_PLACEMENT_3D('',#1535,#1256,#1257);
#1121=AXIS2_PLACEMENT_3D('',#1541,#1261,#1262);
#1122=AXIS2_PLACEMENT_3D('',#1547,#1266,#1267);
#1123=AXIS2_PLACEMENT_3D('',#1553,#1271,#1272);
#1124=AXIS2_PLACEMENT_3D('',#1559,#1276,#1277);
#1125=AXIS2_PLACEMENT_3D('',#1565,#1281,#1282);
#1126=AXIS2_PLACEMENT_3D('',#1582,#1291,#1292);
#1127=AXIS2_PLACEMENT_3D('',#1613,#1309,#1310);
#1128=AXIS2_PLACEMENT_3D('',#1619,#1314,#1315);
#1129=AXIS2_PLACEMENT_3D('',#1623,#1318,#1319);
#1130=AXIS2_PLACEMENT_3D('',#1627,#1322,#1323);
#1131=AXIS2_PLACEMENT_3D('',#1629,#1325,#1326);
#1132=AXIS2_PLACEMENT_3D('',#1630,#1327,#1328);
#1133=AXIS2_PLACEMENT_3D('',#1636,#1332,#1333);
#1134=AXIS2_PLACEMENT_3D('',#1640,#1336,#1337);
#1135=AXIS2_PLACEMENT_3D('',#1644,#1340,#1341);
#1136=AXIS2_PLACEMENT_3D('',#1646,#1343,#1344);
#1137=AXIS2_PLACEMENT_3D('',#1647,#1345,#1346);
#1138=AXIS2_PLACEMENT_3D('',#1653,#1350,#1351);
#1139=AXIS2_PLACEMENT_3D('',#1657,#1354,#1355);
#1140=AXIS2_PLACEMENT_3D('',#1661,#1358,#1359);
#1141=AXIS2_PLACEMENT_3D('',#1663,#1361,#1362);
#1142=AXIS2_PLACEMENT_3D('',#1664,#1363,#1364);
#1143=AXIS2_PLACEMENT_3D('',#1670,#1368,#1369);
#1144=AXIS2_PLACEMENT_3D('',#1674,#1372,#1373);
#1145=AXIS2_PLACEMENT_3D('',#1680,#1377,#1378);
#1146=AXIS2_PLACEMENT_3D('',#1682,#1380,#1381);
#1147=AXIS2_PLACEMENT_3D('',#1688,#1385,#1386);
#1148=AXIS2_PLACEMENT_3D('',#1691,#1389,#1390);
#1149=AXIS2_PLACEMENT_3D('',#1697,#1394,#1395);
#1150=AXIS2_PLACEMENT_3D('',#1703,#1399,#1400);
#1151=AXIS2_PLACEMENT_3D('',#1709,#1404,#1405);
#1152=AXIS2_PLACEMENT_3D('',#1715,#1409,#1410);
#1153=AXIS2_PLACEMENT_3D('',#1718,#1413,#1414);
#1154=AXIS2_PLACEMENT_3D('',#1719,#1415,#1416);
#1155=DIRECTION('axis',(0.,0.,1.));
#1156=DIRECTION('refdir',(1.,0.,0.));
#1157=DIRECTION('center_axis',(0.707106781186547,0.,0.707106781186548));
#1158=DIRECTION('ref_axis',(0.707106781186548,0.,-0.707106781186547));
#1159=DIRECTION('',(-0.707106781186548,-3.53270803203849E-16,0.707106781186547));
#1160=DIRECTION('',(0.,1.,0.));
#1161=DIRECTION('',(-0.707106781186548,0.,0.707106781186547));
#1162=DIRECTION('',(0.,-1.,0.));
#1163=DIRECTION('',(0.707106781186548,0.,-0.707106781186547));
#1164=DIRECTION('',(0.,1.,0.));
#1165=DIRECTION('',(0.707106781186548,5.88784672006411E-16,-0.707106781186547));
#1166=DIRECTION('',(0.,1.,0.));
#1167=DIRECTION('center_axis',(1.,0.,0.));
#1168=DIRECTION('ref_axis',(0.,0.,-1.));
#1169=DIRECTION('',(0.,-4.99600361081321E-16,1.));
#1170=DIRECTION('',(0.,1.,0.));
#1171=DIRECTION('',(0.,5.55111512312578E-17,-1.));
#1172=DIRECTION('',(0.,-1.,0.));
#1173=DIRECTION('',(0.,-8.32667268468861E-16,1.));
#1174=DIRECTION('',(0.,0.,1.));
#1175=DIRECTION('',(0.,-1.,0.));
#1176=DIRECTION('',(0.,0.,-1.));
#1177=DIRECTION('',(0.,0.,-1.));
#1178=DIRECTION('',(0.,1.,0.));
#1179=DIRECTION('',(0.,0.,1.));
#1180=DIRECTION('',(0.,-1.,0.));
#1181=DIRECTION('',(0.,0.,-1.));
#1182=DIRECTION('',(0.,1.,0.));
#1183=DIRECTION('',(0.,0.,1.));
#1184=DIRECTION('',(0.,-1.,0.));
#1185=DIRECTION('center_axis',(0.,-1.,0.));
#1186=DIRECTION('ref_axis',(0.,0.,1.));
#1187=DIRECTION('',(-1.,0.,0.));
#1188=DIRECTION('',(0.,0.,1.));
#1189=DIRECTION('',(-1.,0.,0.));
#1190=DIRECTION('center_axis',(0.,0.,-1.));
#1191=DIRECTION('ref_axis',(0.,-1.,0.));
#1192=DIRECTION('',(0.,-1.,0.));
#1193=DIRECTION('',(-1.,0.,0.));
#1194=DIRECTION('center_axis',(0.,0.,1.));
#1195=DIRECTION('ref_axis',(0.,1.,0.));
#1196=DIRECTION('',(-1.,0.,0.));
#1197=DIRECTION('',(0.,1.,0.));
#1198=DIRECTION('center_axis',(0.,1.,0.));
#1199=DIRECTION('ref_axis',(0.,0.,-1.));
#1200=DIRECTION('',(0.,0.,-1.));
#1201=DIRECTION('center_axis',(1.,0.,0.));
#1202=DIRECTION('ref_axis',(0.,0.,-1.));
#1203=DIRECTION('center_axis',(0.,-1.,0.));
#1204=DIRECTION('ref_axis',(0.,0.,1.));
#1205=DIRECTION('',(-1.,0.,0.));
#1206=DIRECTION('',(0.,0.,1.));
#1207=DIRECTION('',(-1.,0.,0.));
#1208=DIRECTION('center_axis',(0.,0.,1.));
#1209=DIRECTION('ref_axis',(0.,1.,0.));
#1210=DIRECTION('',(-1.,0.,0.));
#1211=DIRECTION('',(0.,1.,0.));
#1212=DIRECTION('center_axis',(0.,1.,0.));
#1213=DIRECTION('ref_axis',(0.,0.,-1.));
#1214=DIRECTION('',(-1.,0.,0.));
#1215=DIRECTION('',(0.,0.,-1.));
#1216=DIRECTION('center_axis',(0.,0.,-1.));
#1217=DIRECTION('ref_axis',(0.,-1.,0.));
#1218=DIRECTION('',(0.,-1.,0.));
#1219=DIRECTION('center_axis',(1.,0.,0.));
#1220=DIRECTION('ref_axis',(0.,0.,-1.));
#1221=DIRECTION('center_axis',(0.,-1.,0.));
#1222=DIRECTION('ref_axis',(0.,0.,1.));
#1223=DIRECTION('',(-1.,0.,0.));
#1224=DIRECTION('',(0.,0.,1.));
#1225=DIRECTION('',(-1.,0.,0.));
#1226=DIRECTION('center_axis',(0.,0.,1.));
#1227=DIRECTION('ref_axis',(0.,1.,0.));
#1228=DIRECTION('',(-1.,0.,0.));
#1229=DIRECTION('',(0.,1.,0.));
#1230=DIRECTION('center_axis',(0.,1.,0.));
#1231=DIRECTION('ref_axis',(0.,0.,-1.));
#1232=DIRECTION('',(-1.,0.,0.));
#1233=DIRECTION('',(0.,0.,-1.));
#1234=DIRECTION('center_axis',(0.,0.,-1.));
#1235=DIRECTION('ref_axis',(0.,-1.,0.));
#1236=DIRECTION('',(0.,-1.,0.));
#1237=DIRECTION('center_axis',(1.,0.,0.));
#1238=DIRECTION('ref_axis',(0.,0.,-1.));
#1239=DIRECTION('center_axis',(0.,0.,-1.));
#1240=DIRECTION('ref_axis',(0.,-1.,0.));
#1241=DIRECTION('',(-1.,0.,0.));
#1242=DIRECTION('',(-1.,0.,0.));
#1243=DIRECTION('',(0.,1.,0.));
#1244=DIRECTION('center_axis',(0.,1.,5.55111512312578E-17));
#1245=DIRECTION('ref_axis',(0.,5.55111512312578E-17,-1.));
#1246=DIRECTION('',(0.,-5.55111512312578E-17,1.));
#1247=DIRECTION('',(-1.,0.,0.));
#1248=DIRECTION('center_axis',(0.,-1.,-4.99600361081321E-16));
#1249=DIRECTION('ref_axis',(0.,-4.99600361081321E-16,1.));
#1250=DIRECTION('',(0.,4.99600361081321E-16,-1.));
#1251=DIRECTION('',(-1.,0.,0.));
#1252=DIRECTION('',(-1.,0.,0.));
#1253=DIRECTION('center_axis',(0.,0.,1.));
#1254=DIRECTION('ref_axis',(0.,1.,0.));
#1255=DIRECTION('',(0.,-1.,0.));
#1256=DIRECTION('center_axis',(0.,-0.500000000000003,0.866025403784437));
#1257=DIRECTION('ref_axis',(0.,0.866025403784437,0.500000000000003));
#1258=DIRECTION('',(0.,-0.866025403784437,-0.500000000000003));
#1259=DIRECTION('',(0.,0.866025403784437,0.500000000000003));
#1260=DIRECTION('',(-1.,0.,0.));
#1261=DIRECTION('center_axis',(0.,1.,8.32667268468861E-16));
#1262=DIRECTION('ref_axis',(0.,8.32667268468861E-16,-1.));
#1263=DIRECTION('',(0.,8.32667268468861E-16,-1.));
#1264=DIRECTION('',(-1.,0.,0.));
#1265=DIRECTION('',(0.,8.32667268468861E-16,-1.));
#1266=DIRECTION('center_axis',(0.,-0.499999999999981,-0.86602540378445));
#1267=DIRECTION('ref_axis',(0.,-0.86602540378445,0.499999999999981));
#1268=DIRECTION('',(0.,-0.86602540378445,0.499999999999981));
#1269=DIRECTION('',(-1.,0.,0.));
#1270=DIRECTION('',(0.,-0.86602540378445,0.499999999999981));
#1271=DIRECTION('center_axis',(0.,0.,-1.));
#1272=DIRECTION('ref_axis',(0.,-1.,0.));
#1273=DIRECTION('',(0.,-1.,0.));
#1274=DIRECTION('',(-1.,0.,0.));
#1275=DIRECTION('',(0.,-1.,0.));
#1276=DIRECTION('center_axis',(0.,0.499999999999999,-0.866025403784439));
#1277=DIRECTION('ref_axis',(0.,-0.866025403784439,-0.499999999999999));
#1278=DIRECTION('',(0.,-0.866025403784439,-0.499999999999999));
#1279=DIRECTION('',(-1.,0.,0.));
#1280=DIRECTION('',(0.,-0.866025403784439,-0.499999999999999));
#1281=DIRECTION('center_axis',(-0.707106781186547,0.,0.707106781186548));
#1282=DIRECTION('ref_axis',(0.707106781186548,0.,0.707106781186547));
#1283=DIRECTION('',(-0.707106781186548,-3.53270803203849E-16,-0.707106781186547));
#1284=DIRECTION('',(0.,1.,0.));
#1285=DIRECTION('',(0.707106781186548,5.88784672006411E-16,0.707106781186547));
#1286=DIRECTION('',(0.,1.,0.));
#1287=DIRECTION('',(0.707106781186548,0.,0.707106781186547));
#1288=DIRECTION('',(0.,-1.,0.));
#1289=DIRECTION('',(-0.707106781186548,0.,-0.707106781186547));
#1290=DIRECTION('',(0.,1.,0.));
#1291=DIRECTION('center_axis',(-1.,0.,0.));
#1292=DIRECTION('ref_axis',(0.,0.,1.));
#1293=DIRECTION('',(0.,0.,1.));
#1294=DIRECTION('',(0.,-1.,0.));
#1295=DIRECTION('',(0.,0.,-1.));
#1296=DIRECTION('',(0.,-8.32667268468861E-16,-1.));
#1297=DIRECTION('',(0.,-1.,0.));
#1298=DIRECTION('',(0.,5.55111512312578E-17,1.));
#1299=DIRECTION('',(0.,1.,0.));
#1300=DIRECTION('',(0.,-4.99600361081321E-16,-1.));
#1301=DIRECTION('',(0.,0.,1.));
#1302=DIRECTION('',(0.,-1.,0.));
#1303=DIRECTION('',(0.,0.,-1.));
#1304=DIRECTION('',(0.,1.,0.));
#1305=DIRECTION('',(0.,0.,1.));
#1306=DIRECTION('',(0.,-1.,0.));
#1307=DIRECTION('',(0.,0.,-1.));
#1308=DIRECTION('',(0.,1.,0.));
#1309=DIRECTION('center_axis',(0.,1.,0.));
#1310=DIRECTION('ref_axis',(0.,0.,-1.));
#1311=DIRECTION('',(-1.,0.,0.));
#1312=DIRECTION('',(0.,0.,-1.));
#1313=DIRECTION('',(-1.,0.,0.));
#1314=DIRECTION('center_axis',(0.,0.,-1.));
#1315=DIRECTION('ref_axis',(0.,-1.,0.));
#1316=DIRECTION('',(-1.,0.,0.));
#1317=DIRECTION('',(0.,-1.,0.));
#1318=DIRECTION('center_axis',(0.,0.,1.));
#1319=DIRECTION('ref_axis',(0.,1.,0.));
#1320=DIRECTION('',(0.,1.,0.));
#1321=DIRECTION('',(-1.,0.,0.));
#1322=DIRECTION('center_axis',(0.,-1.,0.));
#1323=DIRECTION('ref_axis',(0.,0.,1.));
#1324=DIRECTION('',(0.,0.,1.));
#1325=DIRECTION('center_axis',(-1.,0.,0.));
#1326=DIRECTION('ref_axis',(0.,0.,1.));
#1327=DIRECTION('center_axis',(0.,1.,0.));
#1328=DIRECTION('ref_axis',(0.,0.,-1.));
#1329=DIRECTION('',(-1.,0.,0.));
#1330=DIRECTION('',(0.,0.,-1.));
#1331=DIRECTION('',(-1.,0.,0.));
#1332=DIRECTION('center_axis',(0.,0.,1.));
#1333=DIRECTION('ref_axis',(0.,1.,0.));
#1334=DIRECTION('',(0.,1.,0.));
#1335=DIRECTION('',(-1.,0.,0.));
#1336=DIRECTION('center_axis',(0.,-1.,0.));
#1337=DIRECTION('ref_axis',(0.,0.,1.));
#1338=DIRECTION('',(0.,0.,1.));
#1339=DIRECTION('',(-1.,0.,0.));
#1340=DIRECTION('center_axis',(0.,0.,-1.));
#1341=DIRECTION('ref_axis',(0.,-1.,0.));
#1342=DIRECTION('',(0.,-1.,0.));
#1343=DIRECTION('center_axis',(-1.,0.,0.));
#1344=DIRECTION('ref_axis',(0.,0.,1.));
#1345=DIRECTION('center_axis',(0.,1.,0.));
#1346=DIRECTION('ref_axis',(0.,0.,-1.));
#1347=DIRECTION('',(-1.,0.,0.));
#1348=DIRECTION('',(0.,0.,-1.));
#1349=DIRECTION('',(-1.,0.,0.));
#1350=DIRECTION('center_axis',(0.,0.,1.));
#1351=DIRECTION('ref_axis',(0.,1.,0.));
#1352=DIRECTION('',(0.,1.,0.));
#1353=DIRECTION('',(-1.,0.,0.));
#1354=DIRECTION('center_axis',(0.,-1.,0.));
#1355=DIRECTION('ref_axis',(0.,0.,1.));
#1356=DIRECTION('',(0.,0.,1.));
#1357=DIRECTION('',(-1.,0.,0.));
#1358=DIRECTION('center_axis',(0.,0.,-1.));
#1359=DIRECTION('ref_axis',(0.,-1.,0.));
#1360=DIRECTION('',(0.,-1.,0.));
#1361=DIRECTION('center_axis',(-1.,0.,0.));
#1362=DIRECTION('ref_axis',(0.,0.,1.));
#1363=DIRECTION('center_axis',(0.,0.,-1.));
#1364=DIRECTION('ref_axis',(0.,-1.,0.));
#1365=DIRECTION('',(-1.,0.,0.));
#1366=DIRECTION('',(0.,1.,0.));
#1367=DIRECTION('',(-1.,0.,0.));
#1368=DIRECTION('center_axis',(0.,-1.,5.55111512312578E-17));
#1369=DIRECTION('ref_axis',(0.,5.55111512312578E-17,1.));
#1370=DIRECTION('',(0.,-5.55111512312578E-17,-1.));
#1371=DIRECTION('',(-1.,0.,0.));
#1372=DIRECTION('center_axis',(0.,1.,-4.99600361081321E-16));
#1373=DIRECTION('ref_axis',(0.,-4.99600361081321E-16,-1.));
#1374=DIRECTION('',(0.,4.99600361081321E-16,1.));
#1375=DIRECTION('',(-1.,0.,0.));
#1376=DIRECTION('',(-1.,0.,0.));
#1377=DIRECTION('center_axis',(0.,0.,1.));
#1378=DIRECTION('ref_axis',(0.,1.,0.));
#1379=DIRECTION('',(0.,-1.,0.));
#1380=DIRECTION('center_axis',(0.,1.,1.81738208218639E-15));
#1381=DIRECTION('ref_axis',(0.,1.81738208218639E-15,-1.));
#1382=DIRECTION('',(0.,-1.81738208218639E-15,1.));
#1383=DIRECTION('',(0.,1.81738208218639E-15,-1.));
#1384=DIRECTION('',(-1.,0.,0.));
#1385=DIRECTION('center_axis',(0.,0.500000000000003,0.866025403784437));
#1386=DIRECTION('ref_axis',(0.,0.866025403784437,-0.500000000000003));
#1387=DIRECTION('',(0.,-0.866025403784437,0.500000000000003));
#1388=DIRECTION('',(0.,0.866025403784437,-0.500000000000003));
#1389=DIRECTION('center_axis',(0.,-1.,8.32667268468861E-16));
#1390=DIRECTION('ref_axis',(0.,8.32667268468861E-16,1.));
#1391=DIRECTION('',(0.,8.32667268468861E-16,1.));
#1392=DIRECTION('',(0.,8.32667268468861E-16,1.));
#1393=DIRECTION('',(-1.,0.,0.));
#1394=DIRECTION('center_axis',(0.,0.499999999999981,-0.86602540378445));
#1395=DIRECTION('ref_axis',(0.,-0.86602540378445,-0.499999999999981));
#1396=DIRECTION('',(0.,-0.86602540378445,-0.499999999999981));
#1397=DIRECTION('',(0.,-0.86602540378445,-0.499999999999981));
#1398=DIRECTION('',(-1.,0.,0.));
#1399=DIRECTION('center_axis',(0.,0.,-1.));
#1400=DIRECTION('ref_axis',(0.,-1.,0.));
#1401=DIRECTION('',(0.,-1.,0.));
#1402=DIRECTION('',(0.,-1.,0.));
#1403=DIRECTION('',(-1.,0.,0.));
#1404=DIRECTION('center_axis',(0.,-0.499999999999999,-0.866025403784439));
#1405=DIRECTION('ref_axis',(0.,-0.866025403784439,0.499999999999999));
#1406=DIRECTION('',(0.,-0.866025403784439,0.499999999999999));
#1407=DIRECTION('',(0.,-0.866025403784439,0.499999999999999));
#1408=DIRECTION('',(-1.,0.,0.));
#1409=DIRECTION('center_axis',(0.,-1.,-1.20042313272711E-15));
#1410=DIRECTION('ref_axis',(0.,-1.20042313272711E-15,1.));
#1411=DIRECTION('',(0.,-1.20042313272711E-15,1.));
#1412=DIRECTION('',(0.,-1.20042313272711E-15,-1.));
#1413=DIRECTION('center_axis',(-1.,0.,0.));
#1414=DIRECTION('ref_axis',(0.,0.,1.));
#1415=DIRECTION('center_axis',(-1.,0.,0.));
#1416=DIRECTION('ref_axis',(0.,-1.,0.));
#1417=CARTESIAN_POINT('',(0.0,0.0,0.0));
#1418=CARTESIAN_POINT('Origin',(189.6,-5.196152422706622,-18.60000000000006));
#1419=CARTESIAN_POINT('',(192.6,12.0,-21.60000000000006));
#1420=CARTESIAN_POINT('',(186.6,12.0,-15.60000000000006));
#1421=CARTESIAN_POINT('',(197.7,12.0,-26.70000000000006));
#1422=CARTESIAN_POINT('',(192.6,9.00000013411044,-21.60000000000006));
#1423=CARTESIAN_POINT('',(192.6,-5.196152422706622,-21.60000000000006));
#1424=CARTESIAN_POINT('',(192.50515798437,9.00000013411044,-21.50515798436994));
#1425=CARTESIAN_POINT('',(192.4500001005828,9.00000013411044,-21.45000010058286));
#1426=CARTESIAN_POINT('',(192.50515798437,-0.93690497787531,-21.50515798436994));
#1427=CARTESIAN_POINT('',(192.50515798437,1.901923855701912,-21.50515798436994));
#1428=CARTESIAN_POINT('',(192.6,-0.93690497787531,-21.60000000000006));
#1429=CARTESIAN_POINT('',(191.0762894960928,-0.93690497787531,-20.0762894960925));
#1430=CARTESIAN_POINT('',(192.6,-10.39230484541322,-21.60000000000006));
#1431=CARTESIAN_POINT('',(192.6,-5.196152422706622,-21.60000000000006));
#1432=CARTESIAN_POINT('',(186.6,-10.39230484541322,-15.60000000000006));
#1433=CARTESIAN_POINT('',(188.873205080757,-10.39230484541322,-17.87320508075694));
#1434=CARTESIAN_POINT('',(186.6,-12.0,-15.60000000000006));
#1435=CARTESIAN_POINT('Origin',(192.6,1.665334536937734E-15,-30.60000000000006));
#1436=CARTESIAN_POINT('',(192.6,12.0,-45.60000000000007));
#1437=CARTESIAN_POINT('',(192.6,12.0,-15.60000000000006));
#1438=CARTESIAN_POINT('',(192.6,-12.0,-45.60000000000007));
#1439=CARTESIAN_POINT('',(192.6,12.0,-45.60000000000007));
#1440=CARTESIAN_POINT('',(192.6,-12.0,-15.60000000000006));
#1441=CARTESIAN_POINT('',(192.6,-12.0,-45.60000000000007));
#1442=CARTESIAN_POINT('',(192.6,-10.39230484541322,-15.60000000000006));
#1443=CARTESIAN_POINT('',(192.6,-12.0,-15.60000000000006));
#1444=CARTESIAN_POINT('',(192.6,-10.39230484541322,-20.44641016151388));
#1445=CARTESIAN_POINT('',(192.6,-0.93690497787531,-27.00000040233138));
#1446=CARTESIAN_POINT('',(192.6,-0.93690497787531,-26.052578992185));
#1447=CARTESIAN_POINT('',(192.6,9.00000013411044,-27.00000040233138));
#1448=CARTESIAN_POINT('',(192.6,-0.4684524889376532,-27.00000040233138));
#1449=CARTESIAN_POINT('',(192.6,9.00000013411044,-28.80000020116572));
#1450=CARTESIAN_POINT('',(192.6,10.04135775719076,-32.23007619478062));
#1451=CARTESIAN_POINT('',(192.6,10.04135775719076,-43.37723527961694));
#1452=CARTESIAN_POINT('',(192.6,10.04135775719076,-36.9886176398085));
#1453=CARTESIAN_POINT('',(192.6,-0.93690497787531,-32.23007619478062));
#1454=CARTESIAN_POINT('',(192.6,5.020678878595368,-32.23007619478062));
#1455=CARTESIAN_POINT('',(192.6,-0.93690497787531,-43.37723527961694));
#1456=CARTESIAN_POINT('',(192.6,-0.93690497787531,-31.41503809739034));
#1457=CARTESIAN_POINT('',(192.6,-0.4684524889376532,-43.37723527961688));
#1458=CARTESIAN_POINT('',(192.6,-2.87921300023314,-25.64311855374102));
#1459=CARTESIAN_POINT('',(192.6,-2.87921300023314,-34.84796961621948));
#1460=CARTESIAN_POINT('',(192.6,-2.87921300023314,-32.72398480810974));
#1461=CARTESIAN_POINT('',(192.6,-10.3951005650091,-25.64311855374102));
#1462=CARTESIAN_POINT('',(192.6,-1.43960650011657,-25.64311855374102));
#1463=CARTESIAN_POINT('',(192.6,-10.3951005650091,-34.84796961621948));
#1464=CARTESIAN_POINT('',(192.6,-10.3951005650091,-28.12155927687054));
#1465=CARTESIAN_POINT('',(192.6,-5.197550282504556,-34.84796961621948));
#1466=CARTESIAN_POINT('Origin',(192.6,9.00000013411044,-27.00000040233138));
#1467=CARTESIAN_POINT('',(183.6,9.00000013411044,-27.00000040233138));
#1468=CARTESIAN_POINT('',(192.6,9.00000013411044,-27.00000040233138));
#1469=CARTESIAN_POINT('',(183.6,9.00000013411044,-21.50515798436994));
#1470=CARTESIAN_POINT('',(183.6,9.00000013411044,-21.50515798436994));
#1471=CARTESIAN_POINT('',(192.6,9.00000013411044,-21.50515798436994));
#1472=CARTESIAN_POINT('Origin',(192.6,9.00000013411044,-21.50515798436994));
#1473=CARTESIAN_POINT('',(183.6,-0.93690497787531,-21.50515798436994));
#1474=CARTESIAN_POINT('',(183.6,-0.93690497787531,-21.50515798436994));
#1475=CARTESIAN_POINT('',(192.6,-0.93690497787531,-21.50515798436994));
#1476=CARTESIAN_POINT('Origin',(192.6,-0.93690497787531,-27.00000040233138));
#1477=CARTESIAN_POINT('',(183.6,-0.93690497787531,-27.00000040233138));
#1478=CARTESIAN_POINT('',(192.6,-0.93690497787531,-27.00000040233138));
#1479=CARTESIAN_POINT('',(183.6,9.00000013411044,-27.00000040233138));
#1480=CARTESIAN_POINT('Origin',(192.6,-0.93690497787531,-21.50515798436994));
#1481=CARTESIAN_POINT('',(183.6,-0.93690497787531,-27.00000040233138));
#1482=CARTESIAN_POINT('Origin',(183.6,4.031547578117574,-24.25257919335066));
#1483=CARTESIAN_POINT('Origin',(192.6,-2.87921300023314,-34.84796961621948));
#1484=CARTESIAN_POINT('',(183.6,-2.87921300023314,-34.84796961621948));
#1485=CARTESIAN_POINT('',(192.6,-2.87921300023314,-34.84796961621948));
#1486=CARTESIAN_POINT('',(183.6,-2.87921300023314,-25.64311855374102));
#1487=CARTESIAN_POINT('',(183.6,-2.87921300023314,-25.64311855374102));
#1488=CARTESIAN_POINT('',(192.6,-2.87921300023314,-25.64311855374102));
#1489=CARTESIAN_POINT('Origin',(192.6,-10.3951005650091,-34.84796961621948));
#1490=CARTESIAN_POINT('',(183.6,-10.3951005650091,-34.84796961621948));
#1491=CARTESIAN_POINT('',(192.6,-10.3951005650091,-34.84796961621948));
#1492=CARTESIAN_POINT('',(183.6,-2.87921300023314,-34.84796961621948));
#1493=CARTESIAN_POINT('Origin',(192.6,-10.3951005650091,-25.64311855374102));
#1494=CARTESIAN_POINT('',(183.6,-10.3951005650091,-25.64311855374102));
#1495=CARTESIAN_POINT('',(192.6,-10.3951005650091,-25.64311855374102));
#1496=CARTESIAN_POINT('',(183.6,-10.3951005650091,-34.84796961621948));
#1497=CARTESIAN_POINT('Origin',(192.6,-2.87921300023314,-25.64311855374102));
#1498=CARTESIAN_POINT('',(183.6,-10.3951005650091,-25.64311855374102));
#1499=CARTESIAN_POINT('Origin',(183.6,-6.63715678262112,-30.24554408498022));
#1500=CARTESIAN_POINT('Origin',(192.6,10.04135775719076,-43.37723527961694));
#1501=CARTESIAN_POINT('',(183.6,10.04135775719076,-43.37723527961694));
#1502=CARTESIAN_POINT('',(192.6,10.04135775719076,-43.37723527961694));
#1503=CARTESIAN_POINT('',(183.6,10.04135775719076,-32.23007619478062));
#1504=CARTESIAN_POINT('',(183.6,10.04135775719076,-32.23007619478062));
#1505=CARTESIAN_POINT('',(192.6,10.04135775719076,-32.23007619478062));
#1506=CARTESIAN_POINT('Origin',(192.6,-0.93690497787531,-43.37723527961694));
#1507=CARTESIAN_POINT('',(183.6,-0.93690497787531,-43.37723527961694));
#1508=CARTESIAN_POINT('',(192.6,-0.93690497787531,-43.37723527961694));
#1509=CARTESIAN_POINT('',(183.6,10.04135775719076,-43.37723527961694));
#1510=CARTESIAN_POINT('Origin',(192.6,-0.93690497787531,-32.23007619478062));
#1511=CARTESIAN_POINT('',(183.6,-0.93690497787531,-32.23007619478062));
#1512=CARTESIAN_POINT('',(192.6,-0.93690497787531,-32.23007619478062));
#1513=CARTESIAN_POINT('',(183.6,-0.93690497787531,-43.37723527961694));
#1514=CARTESIAN_POINT('Origin',(192.6,10.04135775719076,-32.23007619478062));
#1515=CARTESIAN_POINT('',(183.6,-0.93690497787531,-32.23007619478062));
#1516=CARTESIAN_POINT('Origin',(183.6,4.55222638965771,-37.80365573719878));
#1517=CARTESIAN_POINT('Origin',(195.0,12.0,-15.60000000000006));
#1518=CARTESIAN_POINT('',(195.0,-10.39230484541322,-15.60000000000006));
#1519=CARTESIAN_POINT('',(195.0,-10.39230484541322,-15.60000000000006));
#1520=CARTESIAN_POINT('',(195.0,-12.0,-15.60000000000006));
#1521=CARTESIAN_POINT('',(195.0,-12.0,-15.60000000000006));
#1522=CARTESIAN_POINT('',(195.0,-12.0,-15.60000000000006));
#1523=CARTESIAN_POINT('Origin',(195.0,-12.0,-15.60000000000006));
#1524=CARTESIAN_POINT('',(195.0,-12.0,-45.60000000000007));
#1525=CARTESIAN_POINT('',(195.0,-12.0,-45.60000000000007));
#1526=CARTESIAN_POINT('',(195.0,-12.0,-45.60000000000007));
#1527=CARTESIAN_POINT('Origin',(195.0,12.0,-45.60000000000007));
#1528=CARTESIAN_POINT('',(195.0,12.0,-15.60000000000006));
#1529=CARTESIAN_POINT('',(195.0,12.0,-45.60000000000007));
#1530=CARTESIAN_POINT('',(195.0,12.0,-15.60000000000006));
#1531=CARTESIAN_POINT('',(195.0,12.0,-45.60000000000007));
#1532=CARTESIAN_POINT('',(195.0,12.0,-15.60000000000006));
#1533=CARTESIAN_POINT('Origin',(195.0,-12.0,-45.60000000000007));
#1534=CARTESIAN_POINT('',(195.0,12.0,-45.60000000000007));
#1535=CARTESIAN_POINT('Origin',(195.0,12.0,-15.60000000000006));
#1536=CARTESIAN_POINT('',(195.0,16.8,-12.8287187078898));
#1537=CARTESIAN_POINT('',(195.0,16.8,-12.8287187078898));
#1538=CARTESIAN_POINT('',(186.6,16.8,-12.8287187078898));
#1539=CARTESIAN_POINT('',(186.6,16.8,-12.8287187078898));
#1540=CARTESIAN_POINT('',(195.0,16.8,-12.8287187078898));
#1541=CARTESIAN_POINT('Origin',(195.0,-10.39230484541328,-10.2928203230277));
#1542=CARTESIAN_POINT('',(195.0,-10.39230484541328,-10.2928203230277));
#1543=CARTESIAN_POINT('',(195.0,-10.39230484541328,-9.6));
#1544=CARTESIAN_POINT('',(186.6,-10.39230484541328,-10.2928203230277));
#1545=CARTESIAN_POINT('',(195.0,-10.39230484541328,-10.2928203230277));
#1546=CARTESIAN_POINT('',(186.6,-10.39230484541328,-9.6));
#1547=CARTESIAN_POINT('Origin',(195.0,-5.356921938165306,-13.2));
#1548=CARTESIAN_POINT('',(195.0,-5.356921938165306,-13.2));
#1549=CARTESIAN_POINT('',(195.0,-5.356921938165306,-13.2));
#1550=CARTESIAN_POINT('',(186.6,-5.356921938165306,-13.2));
#1551=CARTESIAN_POINT('',(195.0,-5.356921938165306,-13.2));
#1552=CARTESIAN_POINT('',(186.6,-5.356921938165306,-13.2));
#1553=CARTESIAN_POINT('Origin',(195.0,5.356921938165306,-13.2));
#1554=CARTESIAN_POINT('',(195.0,5.356921938165306,-13.2));
#1555=CARTESIAN_POINT('',(195.0,5.356921938165306,-13.2));
#1556=CARTESIAN_POINT('',(186.6,5.356921938165306,-13.2));
#1557=CARTESIAN_POINT('',(195.0,5.356921938165306,-13.2));
#1558=CARTESIAN_POINT('',(186.6,5.356921938165306,-13.2));
#1559=CARTESIAN_POINT('Origin',(195.0,11.4,-9.71102725426584));
#1560=CARTESIAN_POINT('',(195.0,11.4,-9.71102725426584));
#1561=CARTESIAN_POINT('',(195.0,11.4,-9.71102725426584));
#1562=CARTESIAN_POINT('',(186.6,11.4,-9.71102725426584));
#1563=CARTESIAN_POINT('',(195.0,11.4,-9.71102725426584));
#1564=CARTESIAN_POINT('',(186.6,11.4,-9.71102725426584));
#1565=CARTESIAN_POINT('Origin',(189.6,-5.196152422706622,18.60000000000006));
#1566=CARTESIAN_POINT('',(192.6,12.0,21.60000000000006));
#1567=CARTESIAN_POINT('',(186.6,12.0,15.60000000000006));
#1568=CARTESIAN_POINT('',(197.7,12.0,26.70000000000006));
#1569=CARTESIAN_POINT('',(186.6,-10.39230484541322,15.60000000000006));
#1570=CARTESIAN_POINT('',(186.6,-12.0,15.60000000000006));
#1571=CARTESIAN_POINT('',(192.6,-10.39230484541322,21.60000000000006));
#1572=CARTESIAN_POINT('',(188.873205080757,-10.39230484541322,17.87320508075694));
#1573=CARTESIAN_POINT('',(192.6,-0.93690497787531,21.60000000000006));
#1574=CARTESIAN_POINT('',(192.6,-5.196152422706622,21.60000000000006));
#1575=CARTESIAN_POINT('',(192.50515798437,-0.93690497787531,21.50515798436994));
#1576=CARTESIAN_POINT('',(191.0762894960928,-0.93690497787531,20.0762894960925));
#1577=CARTESIAN_POINT('',(192.50515798437,9.00000013411044,21.50515798436994));
#1578=CARTESIAN_POINT('',(192.50515798437,1.901923855701912,21.50515798436994));
#1579=CARTESIAN_POINT('',(192.6,9.00000013411044,21.60000000000006));
#1580=CARTESIAN_POINT('',(192.4500001005828,9.00000013411044,21.45000010058286));
#1581=CARTESIAN_POINT('',(192.6,-5.196152422706622,21.60000000000006));
#1582=CARTESIAN_POINT('Origin',(192.6,1.665334536937734E-15,30.60000000000006));
#1583=CARTESIAN_POINT('',(192.6,9.00000013411044,27.00000040233138));
#1584=CARTESIAN_POINT('',(192.6,9.00000013411044,28.80000020116572));
#1585=CARTESIAN_POINT('',(192.6,-0.93690497787531,27.00000040233138));
#1586=CARTESIAN_POINT('',(192.6,-0.4684524889376532,27.00000040233138));
#1587=CARTESIAN_POINT('',(192.6,-0.93690497787531,26.052578992185));
#1588=CARTESIAN_POINT('',(192.6,-10.39230484541322,15.60000000000006));
#1589=CARTESIAN_POINT('',(192.6,-10.39230484541322,20.44641016151388));
#1590=CARTESIAN_POINT('',(192.6,-12.0,15.60000000000006));
#1591=CARTESIAN_POINT('',(192.6,-12.0,15.60000000000006));
#1592=CARTESIAN_POINT('',(192.6,-12.0,45.60000000000007));
#1593=CARTESIAN_POINT('',(192.6,-12.0,45.60000000000007));
#1594=CARTESIAN_POINT('',(192.6,12.0,45.60000000000007));
#1595=CARTESIAN_POINT('',(192.6,12.0,45.60000000000007));
#1596=CARTESIAN_POINT('',(192.6,12.0,15.60000000000006));
#1597=CARTESIAN_POINT('',(192.6,10.04135775719076,32.23007619478062));
#1598=CARTESIAN_POINT('',(192.6,10.04135775719076,43.37723527961694));
#1599=CARTESIAN_POINT('',(192.6,10.04135775719076,36.9886176398085));
#1600=CARTESIAN_POINT('',(192.6,-0.93690497787531,43.37723527961694));
#1601=CARTESIAN_POINT('',(192.6,-0.4684524889376532,43.37723527961688));
#1602=CARTESIAN_POINT('',(192.6,-0.93690497787531,32.23007619478062));
#1603=CARTESIAN_POINT('',(192.6,-0.93690497787531,31.41503809739034));
#1604=CARTESIAN_POINT('',(192.6,5.020678878595368,32.23007619478062));
#1605=CARTESIAN_POINT('',(192.6,-2.87921300023314,25.64311855374102));
#1606=CARTESIAN_POINT('',(192.6,-2.87921300023314,34.84796961621948));
#1607=CARTESIAN_POINT('',(192.6,-2.87921300023314,32.72398480810974));
#1608=CARTESIAN_POINT('',(192.6,-10.3951005650091,34.84796961621948));
#1609=CARTESIAN_POINT('',(192.6,-5.197550282504556,34.84796961621948));
#1610=CARTESIAN_POINT('',(192.6,-10.3951005650091,25.64311855374102));
#1611=CARTESIAN_POINT('',(192.6,-10.3951005650091,28.12155927687054));
#1612=CARTESIAN_POINT('',(192.6,-1.43960650011657,25.64311855374102));
#1613=CARTESIAN_POINT('Origin',(192.6,9.00000013411044,27.00000040233138));
#1614=CARTESIAN_POINT('',(183.6,9.00000013411044,21.50515798436994));
#1615=CARTESIAN_POINT('',(192.6,9.00000013411044,21.50515798436994));
#1616=CARTESIAN_POINT('',(183.6,9.00000013411044,27.00000040233138));
#1617=CARTESIAN_POINT('',(183.6,9.00000013411044,21.50515798436994));
#1618=CARTESIAN_POINT('',(192.6,9.00000013411044,27.00000040233138));
#1619=CARTESIAN_POINT('Origin',(192.6,9.00000013411044,21.50515798436994));
#1620=CARTESIAN_POINT('',(183.6,-0.93690497787531,21.50515798436994));
#1621=CARTESIAN_POINT('',(192.6,-0.93690497787531,21.50515798436994));
#1622=CARTESIAN_POINT('',(183.6,-0.93690497787531,21.50515798436994));
#1623=CARTESIAN_POINT('Origin',(192.6,-0.93690497787531,27.00000040233138));
#1624=CARTESIAN_POINT('',(183.6,-0.93690497787531,27.00000040233138));
#1625=CARTESIAN_POINT('',(183.6,9.00000013411044,27.00000040233138));
#1626=CARTESIAN_POINT('',(192.6,-0.93690497787531,27.00000040233138));
#1627=CARTESIAN_POINT('Origin',(192.6,-0.93690497787531,21.50515798436994));
#1628=CARTESIAN_POINT('',(183.6,-0.93690497787531,27.00000040233138));
#1629=CARTESIAN_POINT('Origin',(183.6,4.031547578117574,24.25257919335066));
#1630=CARTESIAN_POINT('Origin',(192.6,-2.87921300023314,34.84796961621948));
#1631=CARTESIAN_POINT('',(183.6,-2.87921300023314,25.64311855374102));
#1632=CARTESIAN_POINT('',(192.6,-2.87921300023314,25.64311855374102));
#1633=CARTESIAN_POINT('',(183.6,-2.87921300023314,34.84796961621948));
#1634=CARTESIAN_POINT('',(183.6,-2.87921300023314,25.64311855374102));
#1635=CARTESIAN_POINT('',(192.6,-2.87921300023314,34.84796961621948));
#1636=CARTESIAN_POINT('Origin',(192.6,-10.3951005650091,34.84796961621948));
#1637=CARTESIAN_POINT('',(183.6,-10.3951005650091,34.84796961621948));
#1638=CARTESIAN_POINT('',(183.6,-2.87921300023314,34.84796961621948));
#1639=CARTESIAN_POINT('',(192.6,-10.3951005650091,34.84796961621948));
#1640=CARTESIAN_POINT('Origin',(192.6,-10.3951005650091,25.64311855374102));
#1641=CARTESIAN_POINT('',(183.6,-10.3951005650091,25.64311855374102));
#1642=CARTESIAN_POINT('',(183.6,-10.3951005650091,34.84796961621948));
#1643=CARTESIAN_POINT('',(192.6,-10.3951005650091,25.64311855374102));
#1644=CARTESIAN_POINT('Origin',(192.6,-2.87921300023314,25.64311855374102));
#1645=CARTESIAN_POINT('',(183.6,-10.3951005650091,25.64311855374102));
#1646=CARTESIAN_POINT('Origin',(183.6,-6.63715678262112,30.24554408498022));
#1647=CARTESIAN_POINT('Origin',(192.6,10.04135775719076,43.37723527961694));
#1648=CARTESIAN_POINT('',(183.6,10.04135775719076,32.23007619478062));
#1649=CARTESIAN_POINT('',(192.6,10.04135775719076,32.23007619478062));
#1650=CARTESIAN_POINT('',(183.6,10.04135775719076,43.37723527961694));
#1651=CARTESIAN_POINT('',(183.6,10.04135775719076,32.23007619478062));
#1652=CARTESIAN_POINT('',(192.6,10.04135775719076,43.37723527961694));
#1653=CARTESIAN_POINT('Origin',(192.6,-0.93690497787531,43.37723527961694));
#1654=CARTESIAN_POINT('',(183.6,-0.93690497787531,43.37723527961694));
#1655=CARTESIAN_POINT('',(183.6,10.04135775719076,43.37723527961694));
#1656=CARTESIAN_POINT('',(192.6,-0.93690497787531,43.37723527961694));
#1657=CARTESIAN_POINT('Origin',(192.6,-0.93690497787531,32.23007619478062));
#1658=CARTESIAN_POINT('',(183.6,-0.93690497787531,32.23007619478062));
#1659=CARTESIAN_POINT('',(183.6,-0.93690497787531,43.37723527961694));
#1660=CARTESIAN_POINT('',(192.6,-0.93690497787531,32.23007619478062));
#1661=CARTESIAN_POINT('Origin',(192.6,10.04135775719076,32.23007619478062));
#1662=CARTESIAN_POINT('',(183.6,-0.93690497787531,32.23007619478062));
#1663=CARTESIAN_POINT('Origin',(183.6,4.55222638965771,37.80365573719878));
#1664=CARTESIAN_POINT('Origin',(195.0,12.0,15.60000000000006));
#1665=CARTESIAN_POINT('',(195.0,-10.39230484541322,15.60000000000006));
#1666=CARTESIAN_POINT('',(195.0,-10.39230484541322,15.60000000000006));
#1667=CARTESIAN_POINT('',(195.0,-12.0,15.60000000000006));
#1668=CARTESIAN_POINT('',(195.0,-12.0,15.60000000000006));
#1669=CARTESIAN_POINT('',(195.0,-12.0,15.60000000000006));
#1670=CARTESIAN_POINT('Origin',(195.0,-12.0,15.60000000000006));
#1671=CARTESIAN_POINT('',(195.0,-12.0,45.60000000000007));
#1672=CARTESIAN_POINT('',(195.0,-12.0,45.60000000000007));
#1673=CARTESIAN_POINT('',(195.0,-12.0,45.60000000000007));
#1674=CARTESIAN_POINT('Origin',(195.0,12.0,45.60000000000007));
#1675=CARTESIAN_POINT('',(195.0,12.0,15.60000000000006));
#1676=CARTESIAN_POINT('',(195.0,12.0,45.60000000000007));
#1677=CARTESIAN_POINT('',(195.0,12.0,15.60000000000006));
#1678=CARTESIAN_POINT('',(195.0,12.0,15.60000000000006));
#1679=CARTESIAN_POINT('',(195.0,12.0,45.60000000000007));
#1680=CARTESIAN_POINT('Origin',(195.0,-12.0,45.60000000000007));
#1681=CARTESIAN_POINT('',(195.0,12.0,45.60000000000007));
#1682=CARTESIAN_POINT('Origin',(195.0,16.8,12.8287187078898));
#1683=CARTESIAN_POINT('',(195.0,16.8,12.8287187078898));
#1684=CARTESIAN_POINT('',(195.0,16.80000000000006,0.0));
#1685=CARTESIAN_POINT('',(186.6,16.8,12.8287187078898));
#1686=CARTESIAN_POINT('',(186.6,16.80000000000006,0.0));
#1687=CARTESIAN_POINT('',(195.0,16.8,12.8287187078898));
#1688=CARTESIAN_POINT('Origin',(195.0,12.0,15.60000000000006));
#1689=CARTESIAN_POINT('',(195.0,16.8,12.8287187078898));
#1690=CARTESIAN_POINT('',(186.6,16.8,12.8287187078898));
#1691=CARTESIAN_POINT('Origin',(195.0,-10.39230484541328,10.2928203230277));
#1692=CARTESIAN_POINT('',(195.0,-10.39230484541328,10.2928203230277));
#1693=CARTESIAN_POINT('',(195.0,-10.39230484541328,9.6));
#1694=CARTESIAN_POINT('',(186.6,-10.39230484541328,10.2928203230277));
#1695=CARTESIAN_POINT('',(186.6,-10.39230484541328,9.6));
#1696=CARTESIAN_POINT('',(195.0,-10.39230484541328,10.2928203230277));
#1697=CARTESIAN_POINT('Origin',(195.0,-5.356921938165306,13.2));
#1698=CARTESIAN_POINT('',(195.0,-5.356921938165306,13.2));
#1699=CARTESIAN_POINT('',(195.0,-5.356921938165306,13.2));
#1700=CARTESIAN_POINT('',(186.6,-5.356921938165306,13.2));
#1701=CARTESIAN_POINT('',(186.6,-5.356921938165306,13.2));
#1702=CARTESIAN_POINT('',(195.0,-5.356921938165306,13.2));
#1703=CARTESIAN_POINT('Origin',(195.0,5.356921938165306,13.2));
#1704=CARTESIAN_POINT('',(195.0,5.356921938165306,13.2));
#1705=CARTESIAN_POINT('',(195.0,5.356921938165306,13.2));
#1706=CARTESIAN_POINT('',(186.6,5.356921938165306,13.2));
#1707=CARTESIAN_POINT('',(186.6,5.356921938165306,13.2));
#1708=CARTESIAN_POINT('',(195.0,5.356921938165306,13.2));
#1709=CARTESIAN_POINT('Origin',(195.0,11.4,9.71102725426584));
#1710=CARTESIAN_POINT('',(195.0,11.4,9.71102725426584));
#1711=CARTESIAN_POINT('',(195.0,11.4,9.71102725426584));
#1712=CARTESIAN_POINT('',(186.6,11.4,9.71102725426584));
#1713=CARTESIAN_POINT('',(186.6,11.4,9.71102725426584));
#1714=CARTESIAN_POINT('',(195.0,11.4,9.71102725426584));
#1715=CARTESIAN_POINT('Origin',(195.0,11.4,0.0));
#1716=CARTESIAN_POINT('',(195.0,11.4,0.0));
#1717=CARTESIAN_POINT('',(186.6,11.4,0.0));
#1718=CARTESIAN_POINT('Origin',(186.6,3.20384757729339,7.8));
#1719=CARTESIAN_POINT('Origin',(195.0,3.20384757729339,7.8));
#1720=UNCERTAINTY_MEASURE_WITH_UNIT(LENGTH_MEASURE(0.06),#1724, 'DISTANCE_ACCURACY_VALUE', 'Maximum model space distance between geometric entities at asserted c onnectivities');
#1721=UNCERTAINTY_MEASURE_WITH_UNIT(LENGTH_MEASURE(0.06),#1724, 'DISTANCE_ACCURACY_VALUE', 'Maximum model space distance between geometric entities at asserted c onnectivities');
#1722=( GEOMETRIC_REPRESENTATION_CONTEXT(3) GLOBAL_UNCERTAINTY_ASSIGNED_CONTEXT((#1720)) GLOBAL_UNIT_ASSIGNED_CONTEXT((#1724,#1726,#1727)) REPRESENTATION_CONTEXT('','3D') );
#1723=( GEOMETRIC_REPRESENTATION_CONTEXT(3) GLOBAL_UNCERTAINTY_ASSIGNED_CONTEXT((#1721)) GLOBAL_UNIT_ASSIGNED_CONTEXT((#1724,#1726,#1727)) REPRESENTATION_CONTEXT('','3D') );
#1724=( LENGTH_UNIT() NAMED_UNIT(*) SI_UNIT(.MILLI.,.METRE.) );
#1725=( LENGTH_UNIT() NAMED_UNIT(*) SI_UNIT($,.METRE.) );
#1726=( NAMED_UNIT(*) PLANE_ANGLE_UNIT() SI_UNIT($,.RADIAN.) );
#1727=( NAMED_UNIT(*) SI_UNIT($,.STERADIAN.) SOLID_ANGLE_UNIT() );
#1728=SHAPE_DEFINITION_REPRESENTATION(#1729,#1730);
#1729=PRODUCT_DEFINITION_SHAPE('',$,#1732);
#1730=SHAPE_REPRESENTATION('',(#1098),#1722);
#1731=PRODUCT_DEFINITION_CONTEXT('part definition',#1736,'design');
#1732=PRODUCT_DEFINITION('ELC','ELC',#1733,#1731);
#1733=PRODUCT_DEFINITION_FORMATION('',$,#1738);
#1734=PRODUCT_RELATED_PRODUCT_CATEGORY('ELC','ELC',(#1738));
#1735=APPLICATION_PROTOCOL_DEFINITION('international standard', 'automotive_design',2009,#1736);
#1736=APPLICATION_CONTEXT( 'Core Data for Automotive Mechanical Design Process');
#1737=PRODUCT_CONTEXT('part definition',#1736,'mechanical');
#1738=PRODUCT('ELC','ELC',$,(#1737));
#1739=PRESENTATION_STYLE_ASSIGNMENT((#1741));
#1740=PRESENTATION_STYLE_ASSIGNMENT((#1742));
#1741=SURFACE_STYLE_USAGE(.BOTH.,#1743);
#1742=SURFACE_STYLE_USAGE(.BOTH.,#1744);
#1743=SURFACE_SIDE_STYLE('',(#1745));
#1744=SURFACE_SIDE_STYLE('',(#1746));
#1745=SURFACE_STYLE_FILL_AREA(#1747);
#1746=SURFACE_STYLE_FILL_AREA(#1748);
#1747=FILL_AREA_STYLE('Steel - Satin',(#1749));
#1748=FILL_AREA_STYLE('ABS (White)',(#1750));
#1749=FILL_AREA_STYLE_COLOUR('Steel - Satin',#1751);
#1750=FILL_AREA_STYLE_COLOUR('ABS (White)',#1752);
#1751=COLOUR_RGB('Steel - Satin',0.627450980392157,0.627450980392157,0.627450980392157);
#1752=COLOUR_RGB('ABS (White)',0.964705882352941,0.964705882352941,0.952941176470588);
ENDSEC;
END-ISO-10303-21;
