ISO-10303-21;
HEADER;
/* Generated by software containing ST-Developer
 * from STEP Tools, Inc. (www.steptools.com) 
 */

FILE_DESCRIPTION(
/* description */ (''),
/* implementation_level */ '2;1');

FILE_NAME(
/* name */ 'Lower module.step',
/* time_stamp */ '2024-11-15T18:00:40+01:00',
/* author */ (''),
/* organization */ (''),
/* preprocessor_version */ 'ST-DEVELOPER v20',
/* originating_system */ 'Autodesk Translation Framework v13.20.0.188',

/* authorisation */ '');

FILE_SCHEMA (('AUTOMOTIVE_DESIGN { 1 0 10303 214 3 1 1 }'));
ENDSEC;

DATA;
#10=MECHANICAL_DESIGN_GEOMETRIC_PRESENTATION_REPRESENTATION('',(#13),#256);
#11=SHAPE_REPRESENTATION_RELATIONSHIP('SRR','None',#263,#12);
#12=ADVANCED_BREP_SHAPE_REPRESENTATION('',(#14),#255);
#13=STYLED_ITEM('',(#272),#14);
#14=MANIFOLD_SOLID_BREP('Body1',#137);
#15=FACE_BOUND('',#36,.T.);
#16=CYLINDRICAL_SURFACE('',#155,9.6);
#17=CYLINDRICAL_SURFACE('',#161,17.99999959766868);
#18=CYLINDRICAL_SURFACE('',#165,9.0);
#19=PLANE('',#154);
#20=PLANE('',#157);
#21=PLANE('',#169);
#22=FACE_OUTER_BOUND('',#32,.T.);
#23=FACE_OUTER_BOUND('',#33,.T.);
#24=FACE_OUTER_BOUND('',#34,.T.);
#25=FACE_OUTER_BOUND('',#35,.T.);
#26=FACE_OUTER_BOUND('',#37,.T.);
#27=FACE_OUTER_BOUND('',#38,.T.);
#28=FACE_OUTER_BOUND('',#39,.T.);
#29=FACE_OUTER_BOUND('',#40,.T.);
#30=FACE_OUTER_BOUND('',#41,.T.);
#31=FACE_OUTER_BOUND('',#42,.T.);
#32=EDGE_LOOP('',(#91,#92,#93,#94));
#33=EDGE_LOOP('',(#95));
#34=EDGE_LOOP('',(#96,#97,#98,#99));
#35=EDGE_LOOP('',(#100));
#36=EDGE_LOOP('',(#101));
#37=EDGE_LOOP('',(#102,#103,#104,#105));
#38=EDGE_LOOP('',(#106,#107,#108,#109));
#39=EDGE_LOOP('',(#110,#111,#112,#113));
#40=EDGE_LOOP('',(#114,#115,#116,#117));
#41=EDGE_LOOP('',(#118,#119,#120,#121));
#42=EDGE_LOOP('',(#122));
#43=LINE('',#222,#50);
#44=LINE('',#228,#51);
#45=LINE('',#235,#52);
#46=LINE('',#239,#53);
#47=LINE('',#243,#54);
#48=LINE('',#247,#55);
#49=LINE('',#251,#56);
#50=VECTOR('',#176,9.6);
#51=VECTOR('',#185,9.6);
#52=VECTOR('',#194,14.99999979883434);
#53=VECTOR('',#199,17.99999959766868);
#54=VECTOR('',#204,13.19999979883434);
#55=VECTOR('',#209,8.4);
#56=VECTOR('',#214,5.50192378864668);
#57=CIRCLE('',#152,9.6);
#58=CIRCLE('',#153,1.286156123669388);
#59=CIRCLE('',#156,9.6);
#60=CIRCLE('',#158,12.0);
#61=CIRCLE('',#160,17.99999959766868);
#62=CIRCLE('',#162,17.99999959766868);
#63=CIRCLE('',#164,9.0);
#64=CIRCLE('',#166,9.0);
#65=CIRCLE('',#168,2.60384757729336);
#66=VERTEX_POINT('',#219);
#67=VERTEX_POINT('',#221);
#68=VERTEX_POINT('',#226);
#69=VERTEX_POINT('',#230);
#70=VERTEX_POINT('',#233);
#71=VERTEX_POINT('',#237);
#72=VERTEX_POINT('',#241);
#73=VERTEX_POINT('',#245);
#74=VERTEX_POINT('',#249);
#75=EDGE_CURVE('',#66,#66,#57,.T.);
#76=EDGE_CURVE('',#66,#67,#43,.T.);
#77=EDGE_CURVE('',#67,#67,#58,.T.);
#78=EDGE_CURVE('',#68,#68,#59,.T.);
#79=EDGE_CURVE('',#68,#66,#44,.T.);
#80=EDGE_CURVE('',#69,#69,#60,.T.);
#81=EDGE_CURVE('',#70,#70,#61,.T.);
#82=EDGE_CURVE('',#70,#69,#45,.T.);
#83=EDGE_CURVE('',#71,#71,#62,.T.);
#84=EDGE_CURVE('',#71,#70,#46,.T.);
#85=EDGE_CURVE('',#72,#72,#63,.F.);
#86=EDGE_CURVE('',#72,#71,#47,.T.);
#87=EDGE_CURVE('',#73,#73,#64,.F.);
#88=EDGE_CURVE('',#73,#72,#48,.T.);
#89=EDGE_CURVE('',#74,#74,#65,.T.);
#90=EDGE_CURVE('',#74,#73,#49,.T.);
#91=ORIENTED_EDGE('',*,*,#75,.F.);
#92=ORIENTED_EDGE('',*,*,#76,.T.);
#93=ORIENTED_EDGE('',*,*,#77,.F.);
#94=ORIENTED_EDGE('',*,*,#76,.F.);
#95=ORIENTED_EDGE('',*,*,#77,.T.);
#96=ORIENTED_EDGE('',*,*,#78,.F.);
#97=ORIENTED_EDGE('',*,*,#79,.T.);
#98=ORIENTED_EDGE('',*,*,#75,.T.);
#99=ORIENTED_EDGE('',*,*,#79,.F.);
#100=ORIENTED_EDGE('',*,*,#80,.F.);
#101=ORIENTED_EDGE('',*,*,#78,.T.);
#102=ORIENTED_EDGE('',*,*,#81,.F.);
#103=ORIENTED_EDGE('',*,*,#82,.T.);
#104=ORIENTED_EDGE('',*,*,#80,.T.);
#105=ORIENTED_EDGE('',*,*,#82,.F.);
#106=ORIENTED_EDGE('',*,*,#83,.F.);
#107=ORIENTED_EDGE('',*,*,#84,.T.);
#108=ORIENTED_EDGE('',*,*,#81,.T.);
#109=ORIENTED_EDGE('',*,*,#84,.F.);
#110=ORIENTED_EDGE('',*,*,#85,.F.);
#111=ORIENTED_EDGE('',*,*,#86,.T.);
#112=ORIENTED_EDGE('',*,*,#83,.T.);
#113=ORIENTED_EDGE('',*,*,#86,.F.);
#114=ORIENTED_EDGE('',*,*,#87,.F.);
#115=ORIENTED_EDGE('',*,*,#88,.T.);
#116=ORIENTED_EDGE('',*,*,#85,.T.);
#117=ORIENTED_EDGE('',*,*,#88,.F.);
#118=ORIENTED_EDGE('',*,*,#89,.F.);
#119=ORIENTED_EDGE('',*,*,#90,.T.);
#120=ORIENTED_EDGE('',*,*,#87,.T.);
#121=ORIENTED_EDGE('',*,*,#90,.F.);
#122=ORIENTED_EDGE('',*,*,#89,.T.);
#123=CONICAL_SURFACE('',#151,9.6,1.0471975511966);
#124=CONICAL_SURFACE('',#159,14.99999979883434,1.0471975511966);
#125=CONICAL_SURFACE('',#163,13.19999979883434,1.04719755119663);
#126=CONICAL_SURFACE('',#167,5.50192378864668,1.0471975511966);
#127=ADVANCED_FACE('',(#22),#123,.F.);
#128=ADVANCED_FACE('',(#23),#19,.T.);
#129=ADVANCED_FACE('',(#24),#16,.F.);
#130=ADVANCED_FACE('',(#25,#15),#20,.T.);
#131=ADVANCED_FACE('',(#26),#124,.T.);
#132=ADVANCED_FACE('',(#27),#17,.T.);
#133=ADVANCED_FACE('',(#28),#125,.T.);
#134=ADVANCED_FACE('',(#29),#18,.T.);
#135=ADVANCED_FACE('',(#30),#126,.T.);
#136=ADVANCED_FACE('',(#31),#21,.T.);
#137=CLOSED_SHELL('',(#127,#128,#129,#130,#131,#132,#133,#134,#135,#136));
#138=DERIVED_UNIT_ELEMENT(#140,1.);
#139=DERIVED_UNIT_ELEMENT(#258,-3.);
#140=( MASS_UNIT() NAMED_UNIT(*) SI_UNIT(.KILO.,.GRAM.) );
#141=DERIVED_UNIT((#138,#139));
#142=MEASURE_REPRESENTATION_ITEM('density measure', POSITIVE_RATIO_MEASURE(1060.),#141);
#143=PROPERTY_DEFINITION_REPRESENTATION(#148,#145);
#144=PROPERTY_DEFINITION_REPRESENTATION(#149,#146);
#145=REPRESENTATION('material name',(#147),#255);
#146=REPRESENTATION('density',(#142),#255);
#147=DESCRIPTIVE_REPRESENTATION_ITEM('ABS Plastic','ABS Plastic');
#148=PROPERTY_DEFINITION('material property','material name',#265);
#149=PROPERTY_DEFINITION('material property','density of part',#265);
#150=AXIS2_PLACEMENT_3D('',#217,#170,#171);
#151=AXIS2_PLACEMENT_3D('',#218,#172,#173);
#152=AXIS2_PLACEMENT_3D('',#220,#174,#175);
#153=AXIS2_PLACEMENT_3D('',#223,#177,#178);
#154=AXIS2_PLACEMENT_3D('',#224,#179,#180);
#155=AXIS2_PLACEMENT_3D('',#225,#181,#182);
#156=AXIS2_PLACEMENT_3D('',#227,#183,#184);
#157=AXIS2_PLACEMENT_3D('',#229,#186,#187);
#158=AXIS2_PLACEMENT_3D('',#231,#188,#189);
#159=AXIS2_PLACEMENT_3D('',#232,#190,#191);
#160=AXIS2_PLACEMENT_3D('',#234,#192,#193);
#161=AXIS2_PLACEMENT_3D('',#236,#195,#196);
#162=AXIS2_PLACEMENT_3D('',#238,#197,#198);
#163=AXIS2_PLACEMENT_3D('',#240,#200,#201);
#164=AXIS2_PLACEMENT_3D('',#242,#202,#203);
#165=AXIS2_PLACEMENT_3D('',#244,#205,#206);
#166=AXIS2_PLACEMENT_3D('',#246,#207,#208);
#167=AXIS2_PLACEMENT_3D('',#248,#210,#211);
#168=AXIS2_PLACEMENT_3D('',#250,#212,#213);
#169=AXIS2_PLACEMENT_3D('',#252,#215,#216);
#170=DIRECTION('axis',(0.,0.,1.));
#171=DIRECTION('refdir',(1.,0.,0.));
#172=DIRECTION('center_axis',(0.,0.,-1.));
#173=DIRECTION('ref_axis',(1.,0.,1.54056874609057E-16));
#174=DIRECTION('center_axis',(-1.54056874609057E-16,0.,1.));
#175=DIRECTION('ref_axis',(1.,0.,1.54056874609057E-16));
#176=DIRECTION('',(0.866025403784438,1.06057523872491E-16,0.5));
#177=DIRECTION('center_axis',(1.54056874609057E-16,0.,-1.));
#178=DIRECTION('ref_axis',(1.,0.,1.54056874609057E-16));
#179=DIRECTION('center_axis',(1.54056874609057E-16,0.,-1.));
#180=DIRECTION('ref_axis',(1.,0.,1.54056874609057E-16));
#181=DIRECTION('center_axis',(-1.79068229778251E-16,0.,1.));
#182=DIRECTION('ref_axis',(1.,0.,1.79068229778251E-16));
#183=DIRECTION('center_axis',(-1.54056874609057E-16,0.,1.));
#184=DIRECTION('ref_axis',(1.,0.,1.79068229778251E-16));
#185=DIRECTION('',(-1.79068229778251E-16,0.,1.));
#186=DIRECTION('center_axis',(1.54056874609057E-16,0.,-1.));
#187=DIRECTION('ref_axis',(-1.,0.,-1.54056874609057E-16));
#188=DIRECTION('center_axis',(-1.54056874609057E-16,0.,1.));
#189=DIRECTION('ref_axis',(1.,0.,1.54056874609057E-16));
#190=DIRECTION('center_axis',(-1.54056874609057E-16,0.,1.));
#191=DIRECTION('ref_axis',(1.,0.,0.));
#192=DIRECTION('center_axis',(-1.54056874609057E-16,0.,1.));
#193=DIRECTION('ref_axis',(1.,0.,1.54056874609057E-16));
#194=DIRECTION('',(0.866025403784438,1.06057523872491E-16,-0.500000000000001));
#195=DIRECTION('center_axis',(-1.54056874609057E-16,0.,1.));
#196=DIRECTION('ref_axis',(1.,0.,0.));
#197=DIRECTION('center_axis',(-1.54056874609057E-16,0.,1.));
#198=DIRECTION('ref_axis',(1.,0.,1.54056874609057E-16));
#199=DIRECTION('',(1.54056874609057E-16,0.,-1.));
#200=DIRECTION('center_axis',(1.54056874609057E-16,0.,-1.));
#201=DIRECTION('ref_axis',(1.,0.,0.));
#202=DIRECTION('center_axis',(1.54056874609057E-16,0.,-1.));
#203=DIRECTION('ref_axis',(1.,0.,0.));
#204=DIRECTION('',(-0.866025403784453,-1.06057523872493E-16,-0.499999999999974));
#205=DIRECTION('center_axis',(-1.54056874609057E-16,0.,1.));
#206=DIRECTION('ref_axis',(1.,0.,0.));
#207=DIRECTION('center_axis',(1.54056874609057E-16,0.,-1.));
#208=DIRECTION('ref_axis',(1.,0.,0.));
#209=DIRECTION('',(1.54056874609057E-16,0.,-1.));
#210=DIRECTION('center_axis',(1.54056874609057E-16,0.,-1.));
#211=DIRECTION('ref_axis',(1.,0.,0.));
#212=DIRECTION('center_axis',(-1.54056874609057E-16,0.,1.));
#213=DIRECTION('ref_axis',(1.,0.,1.54056874609057E-16));
#214=DIRECTION('',(-0.866025403784438,-1.06057523872491E-16,-0.500000000000001));
#215=DIRECTION('center_axis',(-1.54056874609057E-16,0.,1.));
#216=DIRECTION('ref_axis',(1.,0.,1.54056874609057E-16));
#217=CARTESIAN_POINT('',(0.0,0.0,0.0));
#218=CARTESIAN_POINT('Origin',(6.036837696399301E-15,36.00251399663269,-80.1760723633272));
#219=CARTESIAN_POINT('',(-9.6,36.00251399663269,-80.1760723633272));
#220=CARTESIAN_POINT('Origin',(6.036837696399301E-15,36.00251399663269,-80.1760723633272));
#221=CARTESIAN_POINT('',(-1.286156123669382,36.00251399663269,-75.3760723633272));
#222=CARTESIAN_POINT('',(-9.6,36.00251399663269,-80.1760723633272));
#223=CARTESIAN_POINT('Origin',(6.036837696399301E-15,36.00251399663269,-75.3760723633272));
#224=CARTESIAN_POINT('Origin',(5.225125772825827E-15,36.00251399663269,-75.3760723633272));
#225=CARTESIAN_POINT('Origin',(9.367506770274780E-15,36.00251399663269,-98.7760723633272));
#226=CARTESIAN_POINT('',(-9.6,36.00251399663269,-98.7760723633272));
#227=CARTESIAN_POINT('Origin',(9.367506770274780E-15,36.00251399663269,-98.7760723633272));
#228=CARTESIAN_POINT('',(-9.6,36.00251399663269,-98.7760723633272));
#229=CARTESIAN_POINT('Origin',(12.0,36.00251399663269,-98.7760723633272));
#230=CARTESIAN_POINT('',(-12.0,36.00251399663269,-98.7760723633272));
#231=CARTESIAN_POINT('Origin',(9.367506770274780E-15,36.00251399663269,-98.7760723633272));
#232=CARTESIAN_POINT('Origin',(9.100672454089260E-15,36.00251399663269,-97.044021671901));
#233=CARTESIAN_POINT('',(-17.99999959766868,36.00251399663269,-95.3119709804754));
#234=CARTESIAN_POINT('Origin',(8.833838137903740E-15,36.00251399663269,-95.3119709804754));
#235=CARTESIAN_POINT('',(-14.99999979883434,36.00251399663269,-97.044021671901));
#236=CARTESIAN_POINT('Origin',(6.155476392089880E-15,36.00251399663269,-77.9264323434582));
#237=CARTESIAN_POINT('',(-17.99999959766868,36.00251399663269,-60.540893706441));
#238=CARTESIAN_POINT('Origin',(3.477114646275990E-15,36.00251399663269,-60.540893706441));
#239=CARTESIAN_POINT('',(-17.99999959766868,36.00251399663269,-77.9264323434582));
#240=CARTESIAN_POINT('Origin',(3.050179729643604E-15,36.00251399663269,-57.76961253047418));
#241=CARTESIAN_POINT('',(-9.0,36.00251399663269,-55.344741516021));
#242=CARTESIAN_POINT('Origin',(2.676611679826854E-15,36.00251399663269,-55.344741516021));
#243=CARTESIAN_POINT('',(-13.19999979883434,36.00251399663269,-57.76961253047418));
#244=CARTESIAN_POINT('Origin',(1.569391151827014E-15,36.00251399663269,-48.1576521322491));
#245=CARTESIAN_POINT('',(-9.0,36.00251399663269,-41.66338307150466));
#246=CARTESIAN_POINT('Origin',(5.689043574584364E-16,36.00251399663269,-41.66338307150466));
#247=CARTESIAN_POINT('',(-9.0,36.00251399663269,-48.1576521322491));
#248=CARTESIAN_POINT('Origin',(2.577687453214032E-16,36.00251399663269,-39.64376782923402));
#249=CARTESIAN_POINT('',(-2.60384757729336,36.00251399663269,-37.97056274847714));
#250=CARTESIAN_POINT('Origin',(1.540912667441610E-30,36.00251399663269,-37.97056274847714));
#251=CARTESIAN_POINT('',(-5.50192378864668,36.00251399663269,-39.64376782923402));
#252=CARTESIAN_POINT('Origin',(0.0,36.00251399663269,-37.97056274847714));
#253=UNCERTAINTY_MEASURE_WITH_UNIT(LENGTH_MEASURE(0.06),#257, 'DISTANCE_ACCURACY_VALUE', 'Maximum model space distance between geometric entities at asserted c onnectivities');
#254=UNCERTAINTY_MEASURE_WITH_UNIT(LENGTH_MEASURE(0.06),#257, 'DISTANCE_ACCURACY_VALUE', 'Maximum model space distance between geometric entities at asserted c onnectivities');
#255=( GEOMETRIC_REPRESENTATION_CONTEXT(3) GLOBAL_UNCERTAINTY_ASSIGNED_CONTEXT((#253)) GLOBAL_UNIT_ASSIGNED_CONTEXT((#257,#259,#260)) REPRESENTATION_CONTEXT('','3D') );
#256=( GEOMETRIC_REPRESENTATION_CONTEXT(3) GLOBAL_UNCERTAINTY_ASSIGNED_CONTEXT((#254)) GLOBAL_UNIT_ASSIGNED_CONTEXT((#257,#259,#260)) REPRESENTATION_CONTEXT('','3D') );
#257=( LENGTH_UNIT() NAMED_UNIT(*) SI_UNIT(.MILLI.,.METRE.) );
#258=( LENGTH_UNIT() NAMED_UNIT(*) SI_UNIT($,.METRE.) );
#259=( NAMED_UNIT(*) PLANE_ANGLE_UNIT() SI_UNIT($,.RADIAN.) );
#260=( NAMED_UNIT(*) SI_UNIT($,.STERADIAN.) SOLID_ANGLE_UNIT() );
#261=SHAPE_DEFINITION_REPRESENTATION(#262,#263);
#262=PRODUCT_DEFINITION_SHAPE('',$,#265);
#263=SHAPE_REPRESENTATION('',(#150),#255);
#264=PRODUCT_DEFINITION_CONTEXT('part definition',#269,'design');
#265=PRODUCT_DEFINITION('Lower module','Lower module',#266,#264);
#266=PRODUCT_DEFINITION_FORMATION('',$,#271);
#267=PRODUCT_RELATED_PRODUCT_CATEGORY('Lower module','Lower module',(#271));
#268=APPLICATION_PROTOCOL_DEFINITION('international standard', 'automotive_design',2009,#269);
#269=APPLICATION_CONTEXT( 'Core Data for Automotive Mechanical Design Process');
#270=PRODUCT_CONTEXT('part definition',#269,'mechanical');
#271=PRODUCT('Lower module','Lower module',$,(#270));
#272=PRESENTATION_STYLE_ASSIGNMENT((#273));
#273=SURFACE_STYLE_USAGE(.BOTH.,#274);
#274=SURFACE_SIDE_STYLE('',(#275));
#275=SURFACE_STYLE_FILL_AREA(#276);
#276=FILL_AREA_STYLE('ABS (White)',(#277));
#277=FILL_AREA_STYLE_COLOUR('ABS (White)',#278);
#278=COLOUR_RGB('ABS (White)',0.964705882352941,0.964705882352941,0.952941176470588);
ENDSEC;
END-ISO-10303-21;
