ISO-10303-21;
HEADER;
/* Generated by software containing ST-Developer
 * from STEP Tools, Inc. (www.steptools.com) 
 */

FILE_DESCRIPTION(
/* description */ (''),
/* implementation_level */ '2;1');

FILE_NAME(
/* name */ 'Radiators base.step',
/* time_stamp */ '2024-11-15T18:01:54+01:00',
/* author */ (''),
/* organization */ (''),
/* preprocessor_version */ 'ST-DEVELOPER v20',
/* originating_system */ 'Autodesk Translation Framework v13.20.0.188',

/* authorisation */ '');

FILE_SCHEMA (('AUTOMOTIVE_DESIGN { 1 0 10303 214 3 1 1 }'));
ENDSEC;

DATA;
#10=MECHANICAL_DESIGN_GEOMETRIC_PRESENTATION_REPRESENTATION('',(#13),#624);
#11=SHAPE_REPRESENTATION_RELATIONSHIP('SRR','None',#631,#12);
#12=ADVANCED_BREP_SHAPE_REPRESENTATION('',(#14),#623);
#13=STYLED_ITEM('',(#641),#14);
#14=MANIFOLD_SOLID_BREP('Body1',#384);
#15=CYLINDRICAL_SURFACE('',#417,9.9);
#16=FACE_BOUND('',#50,.T.);
#17=CIRCLE('',#409,9.9);
#18=CIRCLE('',#418,9.9);
#19=FACE_OUTER_BOUND('',#39,.T.);
#20=FACE_OUTER_BOUND('',#40,.T.);
#21=FACE_OUTER_BOUND('',#41,.T.);
#22=FACE_OUTER_BOUND('',#42,.T.);
#23=FACE_OUTER_BOUND('',#43,.T.);
#24=FACE_OUTER_BOUND('',#44,.T.);
#25=FACE_OUTER_BOUND('',#45,.T.);
#26=FACE_OUTER_BOUND('',#46,.T.);
#27=FACE_OUTER_BOUND('',#47,.T.);
#28=FACE_OUTER_BOUND('',#48,.T.);
#29=FACE_OUTER_BOUND('',#49,.T.);
#30=FACE_OUTER_BOUND('',#51,.T.);
#31=FACE_OUTER_BOUND('',#52,.T.);
#32=FACE_OUTER_BOUND('',#53,.T.);
#33=FACE_OUTER_BOUND('',#54,.T.);
#34=FACE_OUTER_BOUND('',#55,.T.);
#35=FACE_OUTER_BOUND('',#56,.T.);
#36=FACE_OUTER_BOUND('',#57,.T.);
#37=FACE_OUTER_BOUND('',#58,.T.);
#38=FACE_OUTER_BOUND('',#59,.T.);
#39=EDGE_LOOP('',(#243,#244,#245,#246));
#40=EDGE_LOOP('',(#247,#248,#249,#250,#251,#252));
#41=EDGE_LOOP('',(#253,#254,#255,#256,#257,#258));
#42=EDGE_LOOP('',(#259,#260,#261,#262));
#43=EDGE_LOOP('',(#263,#264,#265,#266,#267,#268,#269));
#44=EDGE_LOOP('',(#270,#271,#272,#273,#274,#275));
#45=EDGE_LOOP('',(#276,#277,#278,#279,#280,#281,#282));
#46=EDGE_LOOP('',(#283,#284,#285,#286,#287,#288));
#47=EDGE_LOOP('',(#289,#290,#291,#292,#293,#294));
#48=EDGE_LOOP('',(#295,#296,#297,#298,#299,#300,#301));
#49=EDGE_LOOP('',(#302,#303,#304,#305));
#50=EDGE_LOOP('',(#306));
#51=EDGE_LOOP('',(#307,#308,#309,#310,#311,#312));
#52=EDGE_LOOP('',(#313,#314,#315,#316));
#53=EDGE_LOOP('',(#317,#318,#319,#320));
#54=EDGE_LOOP('',(#321,#322,#323,#324));
#55=EDGE_LOOP('',(#325,#326,#327,#328));
#56=EDGE_LOOP('',(#329,#330,#331,#332));
#57=EDGE_LOOP('',(#333,#334,#335,#336,#337,#338,#339));
#58=EDGE_LOOP('',(#340,#341,#342,#343));
#59=EDGE_LOOP('',(#344));
#60=LINE('',#519,#109);
#61=LINE('',#521,#110);
#62=LINE('',#523,#111);
#63=LINE('',#524,#112);
#64=LINE('',#527,#113);
#65=LINE('',#529,#114);
#66=LINE('',#531,#115);
#67=LINE('',#533,#116);
#68=LINE('',#534,#117);
#69=LINE('',#537,#118);
#70=LINE('',#539,#119);
#71=LINE('',#541,#120);
#72=LINE('',#542,#121);
#73=LINE('',#546,#122);
#74=LINE('',#548,#123);
#75=LINE('',#550,#124);
#76=LINE('',#551,#125);
#77=LINE('',#554,#126);
#78=LINE('',#556,#127);
#79=LINE('',#558,#128);
#80=LINE('',#560,#129);
#81=LINE('',#562,#130);
#82=LINE('',#563,#131);
#83=LINE('',#566,#132);
#84=LINE('',#568,#133);
#85=LINE('',#570,#134);
#86=LINE('',#571,#135);
#87=LINE('',#574,#136);
#88=LINE('',#575,#137);
#89=LINE('',#576,#138);
#90=LINE('',#579,#139);
#91=LINE('',#581,#140);
#92=LINE('',#583,#141);
#93=LINE('',#584,#142);
#94=LINE('',#587,#143);
#95=LINE('',#589,#144);
#96=LINE('',#590,#145);
#97=LINE('',#592,#146);
#98=LINE('',#593,#147);
#99=LINE('',#594,#148);
#100=LINE('',#600,#149);
#101=LINE('',#601,#150);
#102=LINE('',#603,#151);
#103=LINE('',#606,#152);
#104=LINE('',#607,#153);
#105=LINE('',#610,#154);
#106=LINE('',#611,#155);
#107=LINE('',#614,#156);
#108=LINE('',#619,#157);
#109=VECTOR('',#424,60.0);
#110=VECTOR('',#425,60.0);
#111=VECTOR('',#426,60.0);
#112=VECTOR('',#427,60.0);
#113=VECTOR('',#430,60.0);
#114=VECTOR('',#431,60.0);
#115=VECTOR('',#432,60.0);
#116=VECTOR('',#433,60.0);
#117=VECTOR('',#434,60.0);
#118=VECTOR('',#437,60.0);
#119=VECTOR('',#438,60.0);
#120=VECTOR('',#439,60.0);
#121=VECTOR('',#440,60.0);
#122=VECTOR('',#443,60.0);
#123=VECTOR('',#444,60.0);
#124=VECTOR('',#445,60.0);
#125=VECTOR('',#446,60.0);
#126=VECTOR('',#449,60.0);
#127=VECTOR('',#450,60.0);
#128=VECTOR('',#451,60.0);
#129=VECTOR('',#452,60.0);
#130=VECTOR('',#453,60.0);
#131=VECTOR('',#454,60.0);
#132=VECTOR('',#457,60.0);
#133=VECTOR('',#458,60.0);
#134=VECTOR('',#459,60.0);
#135=VECTOR('',#460,60.0);
#136=VECTOR('',#463,60.0);
#137=VECTOR('',#464,60.0);
#138=VECTOR('',#465,60.0);
#139=VECTOR('',#468,60.0);
#140=VECTOR('',#469,60.0);
#141=VECTOR('',#470,60.0);
#142=VECTOR('',#471,60.0);
#143=VECTOR('',#474,60.0);
#144=VECTOR('',#475,60.0);
#145=VECTOR('',#476,60.0);
#146=VECTOR('',#479,60.0);
#147=VECTOR('',#480,60.0);
#148=VECTOR('',#481,60.0);
#149=VECTOR('',#488,60.0);
#150=VECTOR('',#489,60.0);
#151=VECTOR('',#492,60.0);
#152=VECTOR('',#495,60.0);
#153=VECTOR('',#496,60.0);
#154=VECTOR('',#499,60.0);
#155=VECTOR('',#500,60.0);
#156=VECTOR('',#505,60.0);
#157=VECTOR('',#512,9.9);
#158=VERTEX_POINT('',#517);
#159=VERTEX_POINT('',#518);
#160=VERTEX_POINT('',#520);
#161=VERTEX_POINT('',#522);
#162=VERTEX_POINT('',#526);
#163=VERTEX_POINT('',#528);
#164=VERTEX_POINT('',#530);
#165=VERTEX_POINT('',#532);
#166=VERTEX_POINT('',#536);
#167=VERTEX_POINT('',#538);
#168=VERTEX_POINT('',#540);
#169=VERTEX_POINT('',#544);
#170=VERTEX_POINT('',#545);
#171=VERTEX_POINT('',#547);
#172=VERTEX_POINT('',#549);
#173=VERTEX_POINT('',#553);
#174=VERTEX_POINT('',#555);
#175=VERTEX_POINT('',#557);
#176=VERTEX_POINT('',#559);
#177=VERTEX_POINT('',#561);
#178=VERTEX_POINT('',#565);
#179=VERTEX_POINT('',#567);
#180=VERTEX_POINT('',#569);
#181=VERTEX_POINT('',#573);
#182=VERTEX_POINT('',#578);
#183=VERTEX_POINT('',#580);
#184=VERTEX_POINT('',#582);
#185=VERTEX_POINT('',#586);
#186=VERTEX_POINT('',#588);
#187=VERTEX_POINT('',#596);
#188=VERTEX_POINT('',#599);
#189=VERTEX_POINT('',#605);
#190=VERTEX_POINT('',#609);
#191=VERTEX_POINT('',#617);
#192=EDGE_CURVE('',#158,#159,#60,.T.);
#193=EDGE_CURVE('',#159,#160,#61,.T.);
#194=EDGE_CURVE('',#160,#161,#62,.T.);
#195=EDGE_CURVE('',#161,#158,#63,.T.);
#196=EDGE_CURVE('',#162,#161,#64,.T.);
#197=EDGE_CURVE('',#163,#162,#65,.T.);
#198=EDGE_CURVE('',#163,#164,#66,.T.);
#199=EDGE_CURVE('',#165,#164,#67,.T.);
#200=EDGE_CURVE('',#165,#158,#68,.T.);
#201=EDGE_CURVE('',#166,#160,#69,.T.);
#202=EDGE_CURVE('',#166,#167,#70,.T.);
#203=EDGE_CURVE('',#167,#168,#71,.T.);
#204=EDGE_CURVE('',#162,#168,#72,.T.);
#205=EDGE_CURVE('',#169,#170,#73,.T.);
#206=EDGE_CURVE('',#170,#171,#74,.T.);
#207=EDGE_CURVE('',#171,#172,#75,.T.);
#208=EDGE_CURVE('',#172,#169,#76,.T.);
#209=EDGE_CURVE('',#173,#169,#77,.T.);
#210=EDGE_CURVE('',#174,#173,#78,.T.);
#211=EDGE_CURVE('',#174,#175,#79,.T.);
#212=EDGE_CURVE('',#175,#176,#80,.T.);
#213=EDGE_CURVE('',#176,#177,#81,.T.);
#214=EDGE_CURVE('',#170,#177,#82,.T.);
#215=EDGE_CURVE('',#178,#172,#83,.T.);
#216=EDGE_CURVE('',#179,#178,#84,.T.);
#217=EDGE_CURVE('',#179,#180,#85,.T.);
#218=EDGE_CURVE('',#173,#180,#86,.T.);
#219=EDGE_CURVE('',#181,#174,#87,.T.);
#220=EDGE_CURVE('',#180,#163,#88,.T.);
#221=EDGE_CURVE('',#168,#181,#89,.T.);
#222=EDGE_CURVE('',#182,#181,#90,.T.);
#223=EDGE_CURVE('',#183,#182,#91,.T.);
#224=EDGE_CURVE('',#184,#183,#92,.T.);
#225=EDGE_CURVE('',#184,#175,#93,.T.);
#226=EDGE_CURVE('',#185,#167,#94,.T.);
#227=EDGE_CURVE('',#186,#185,#95,.T.);
#228=EDGE_CURVE('',#182,#186,#96,.T.);
#229=EDGE_CURVE('',#186,#165,#97,.T.);
#230=EDGE_CURVE('',#164,#179,#98,.T.);
#231=EDGE_CURVE('',#178,#183,#99,.T.);
#232=EDGE_CURVE('',#187,#187,#17,.T.);
#233=EDGE_CURVE('',#185,#188,#100,.T.);
#234=EDGE_CURVE('',#159,#188,#101,.T.);
#235=EDGE_CURVE('',#188,#166,#102,.T.);
#236=EDGE_CURVE('',#189,#184,#103,.T.);
#237=EDGE_CURVE('',#189,#176,#104,.T.);
#238=EDGE_CURVE('',#190,#189,#105,.T.);
#239=EDGE_CURVE('',#177,#190,#106,.T.);
#240=EDGE_CURVE('',#190,#171,#107,.T.);
#241=EDGE_CURVE('',#191,#191,#18,.T.);
#242=EDGE_CURVE('',#191,#187,#108,.T.);
#243=ORIENTED_EDGE('',*,*,#192,.T.);
#244=ORIENTED_EDGE('',*,*,#193,.T.);
#245=ORIENTED_EDGE('',*,*,#194,.T.);
#246=ORIENTED_EDGE('',*,*,#195,.T.);
#247=ORIENTED_EDGE('',*,*,#195,.F.);
#248=ORIENTED_EDGE('',*,*,#196,.F.);
#249=ORIENTED_EDGE('',*,*,#197,.F.);
#250=ORIENTED_EDGE('',*,*,#198,.T.);
#251=ORIENTED_EDGE('',*,*,#199,.F.);
#252=ORIENTED_EDGE('',*,*,#200,.T.);
#253=ORIENTED_EDGE('',*,*,#194,.F.);
#254=ORIENTED_EDGE('',*,*,#201,.F.);
#255=ORIENTED_EDGE('',*,*,#202,.T.);
#256=ORIENTED_EDGE('',*,*,#203,.T.);
#257=ORIENTED_EDGE('',*,*,#204,.F.);
#258=ORIENTED_EDGE('',*,*,#196,.T.);
#259=ORIENTED_EDGE('',*,*,#205,.T.);
#260=ORIENTED_EDGE('',*,*,#206,.T.);
#261=ORIENTED_EDGE('',*,*,#207,.T.);
#262=ORIENTED_EDGE('',*,*,#208,.T.);
#263=ORIENTED_EDGE('',*,*,#205,.F.);
#264=ORIENTED_EDGE('',*,*,#209,.F.);
#265=ORIENTED_EDGE('',*,*,#210,.F.);
#266=ORIENTED_EDGE('',*,*,#211,.T.);
#267=ORIENTED_EDGE('',*,*,#212,.T.);
#268=ORIENTED_EDGE('',*,*,#213,.T.);
#269=ORIENTED_EDGE('',*,*,#214,.F.);
#270=ORIENTED_EDGE('',*,*,#208,.F.);
#271=ORIENTED_EDGE('',*,*,#215,.F.);
#272=ORIENTED_EDGE('',*,*,#216,.F.);
#273=ORIENTED_EDGE('',*,*,#217,.T.);
#274=ORIENTED_EDGE('',*,*,#218,.F.);
#275=ORIENTED_EDGE('',*,*,#209,.T.);
#276=ORIENTED_EDGE('',*,*,#219,.T.);
#277=ORIENTED_EDGE('',*,*,#210,.T.);
#278=ORIENTED_EDGE('',*,*,#218,.T.);
#279=ORIENTED_EDGE('',*,*,#220,.T.);
#280=ORIENTED_EDGE('',*,*,#197,.T.);
#281=ORIENTED_EDGE('',*,*,#204,.T.);
#282=ORIENTED_EDGE('',*,*,#221,.T.);
#283=ORIENTED_EDGE('',*,*,#219,.F.);
#284=ORIENTED_EDGE('',*,*,#222,.F.);
#285=ORIENTED_EDGE('',*,*,#223,.F.);
#286=ORIENTED_EDGE('',*,*,#224,.F.);
#287=ORIENTED_EDGE('',*,*,#225,.T.);
#288=ORIENTED_EDGE('',*,*,#211,.F.);
#289=ORIENTED_EDGE('',*,*,#221,.F.);
#290=ORIENTED_EDGE('',*,*,#203,.F.);
#291=ORIENTED_EDGE('',*,*,#226,.F.);
#292=ORIENTED_EDGE('',*,*,#227,.F.);
#293=ORIENTED_EDGE('',*,*,#228,.F.);
#294=ORIENTED_EDGE('',*,*,#222,.T.);
#295=ORIENTED_EDGE('',*,*,#228,.T.);
#296=ORIENTED_EDGE('',*,*,#229,.T.);
#297=ORIENTED_EDGE('',*,*,#199,.T.);
#298=ORIENTED_EDGE('',*,*,#230,.T.);
#299=ORIENTED_EDGE('',*,*,#216,.T.);
#300=ORIENTED_EDGE('',*,*,#231,.T.);
#301=ORIENTED_EDGE('',*,*,#223,.T.);
#302=ORIENTED_EDGE('',*,*,#220,.F.);
#303=ORIENTED_EDGE('',*,*,#217,.F.);
#304=ORIENTED_EDGE('',*,*,#230,.F.);
#305=ORIENTED_EDGE('',*,*,#198,.F.);
#306=ORIENTED_EDGE('',*,*,#232,.T.);
#307=ORIENTED_EDGE('',*,*,#192,.F.);
#308=ORIENTED_EDGE('',*,*,#200,.F.);
#309=ORIENTED_EDGE('',*,*,#229,.F.);
#310=ORIENTED_EDGE('',*,*,#227,.T.);
#311=ORIENTED_EDGE('',*,*,#233,.T.);
#312=ORIENTED_EDGE('',*,*,#234,.F.);
#313=ORIENTED_EDGE('',*,*,#233,.F.);
#314=ORIENTED_EDGE('',*,*,#226,.T.);
#315=ORIENTED_EDGE('',*,*,#202,.F.);
#316=ORIENTED_EDGE('',*,*,#235,.F.);
#317=ORIENTED_EDGE('',*,*,#236,.F.);
#318=ORIENTED_EDGE('',*,*,#237,.T.);
#319=ORIENTED_EDGE('',*,*,#212,.F.);
#320=ORIENTED_EDGE('',*,*,#225,.F.);
#321=ORIENTED_EDGE('',*,*,#238,.F.);
#322=ORIENTED_EDGE('',*,*,#239,.F.);
#323=ORIENTED_EDGE('',*,*,#213,.F.);
#324=ORIENTED_EDGE('',*,*,#237,.F.);
#325=ORIENTED_EDGE('',*,*,#193,.F.);
#326=ORIENTED_EDGE('',*,*,#234,.T.);
#327=ORIENTED_EDGE('',*,*,#235,.T.);
#328=ORIENTED_EDGE('',*,*,#201,.T.);
#329=ORIENTED_EDGE('',*,*,#206,.F.);
#330=ORIENTED_EDGE('',*,*,#214,.T.);
#331=ORIENTED_EDGE('',*,*,#239,.T.);
#332=ORIENTED_EDGE('',*,*,#240,.T.);
#333=ORIENTED_EDGE('',*,*,#207,.F.);
#334=ORIENTED_EDGE('',*,*,#240,.F.);
#335=ORIENTED_EDGE('',*,*,#238,.T.);
#336=ORIENTED_EDGE('',*,*,#236,.T.);
#337=ORIENTED_EDGE('',*,*,#224,.T.);
#338=ORIENTED_EDGE('',*,*,#231,.F.);
#339=ORIENTED_EDGE('',*,*,#215,.T.);
#340=ORIENTED_EDGE('',*,*,#241,.F.);
#341=ORIENTED_EDGE('',*,*,#242,.T.);
#342=ORIENTED_EDGE('',*,*,#232,.F.);
#343=ORIENTED_EDGE('',*,*,#242,.F.);
#344=ORIENTED_EDGE('',*,*,#241,.T.);
#345=PLANE('',#398);
#346=PLANE('',#399);
#347=PLANE('',#400);
#348=PLANE('',#401);
#349=PLANE('',#402);
#350=PLANE('',#403);
#351=PLANE('',#404);
#352=PLANE('',#405);
#353=PLANE('',#406);
#354=PLANE('',#407);
#355=PLANE('',#408);
#356=PLANE('',#410);
#357=PLANE('',#411);
#358=PLANE('',#412);
#359=PLANE('',#413);
#360=PLANE('',#414);
#361=PLANE('',#415);
#362=PLANE('',#416);
#363=PLANE('',#419);
#364=ADVANCED_FACE('',(#19),#345,.T.);
#365=ADVANCED_FACE('',(#20),#346,.T.);
#366=ADVANCED_FACE('',(#21),#347,.T.);
#367=ADVANCED_FACE('',(#22),#348,.T.);
#368=ADVANCED_FACE('',(#23),#349,.T.);
#369=ADVANCED_FACE('',(#24),#350,.T.);
#370=ADVANCED_FACE('',(#25),#351,.T.);
#371=ADVANCED_FACE('',(#26),#352,.F.);
#372=ADVANCED_FACE('',(#27),#353,.F.);
#373=ADVANCED_FACE('',(#28),#354,.T.);
#374=ADVANCED_FACE('',(#29,#16),#355,.F.);
#375=ADVANCED_FACE('',(#30),#356,.T.);
#376=ADVANCED_FACE('',(#31),#357,.F.);
#377=ADVANCED_FACE('',(#32),#358,.F.);
#378=ADVANCED_FACE('',(#33),#359,.F.);
#379=ADVANCED_FACE('',(#34),#360,.T.);
#380=ADVANCED_FACE('',(#35),#361,.T.);
#381=ADVANCED_FACE('',(#36),#362,.T.);
#382=ADVANCED_FACE('',(#37),#15,.T.);
#383=ADVANCED_FACE('',(#38),#363,.F.);
#384=CLOSED_SHELL('',(#364,#365,#366,#367,#368,#369,#370,#371,#372,#373, #374,#375,#376,#377,#378,#379,#380,#381,#382,#383));
#385=DERIVED_UNIT_ELEMENT(#387,1.);
#386=DERIVED_UNIT_ELEMENT(#626,-3.);
#387=( MASS_UNIT() NAMED_UNIT(*) SI_UNIT(.KILO.,.GRAM.) );
#388=DERIVED_UNIT((#385,#386));
#389=MEASURE_REPRESENTATION_ITEM('density measure', POSITIVE_RATIO_MEASURE(7850.),#388);
#390=PROPERTY_DEFINITION_REPRESENTATION(#395,#392);
#391=PROPERTY_DEFINITION_REPRESENTATION(#396,#393);
#392=REPRESENTATION('material name',(#394),#623);
#393=REPRESENTATION('density',(#389),#623);
#394=DESCRIPTIVE_REPRESENTATION_ITEM('Steel','Steel');
#395=PROPERTY_DEFINITION('material property','material name',#633);
#396=PROPERTY_DEFINITION('material property','density of part',#633);
#397=AXIS2_PLACEMENT_3D('',#515,#420,#421);
#398=AXIS2_PLACEMENT_3D('',#516,#422,#423);
#399=AXIS2_PLACEMENT_3D('',#525,#428,#429);
#400=AXIS2_PLACEMENT_3D('',#535,#435,#436);
#401=AXIS2_PLACEMENT_3D('',#543,#441,#442);
#402=AXIS2_PLACEMENT_3D('',#552,#447,#448);
#403=AXIS2_PLACEMENT_3D('',#564,#455,#456);
#404=AXIS2_PLACEMENT_3D('',#572,#461,#462);
#405=AXIS2_PLACEMENT_3D('',#577,#466,#467);
#406=AXIS2_PLACEMENT_3D('',#585,#472,#473);
#407=AXIS2_PLACEMENT_3D('',#591,#477,#478);
#408=AXIS2_PLACEMENT_3D('',#595,#482,#483);
#409=AXIS2_PLACEMENT_3D('',#597,#484,#485);
#410=AXIS2_PLACEMENT_3D('',#598,#486,#487);
#411=AXIS2_PLACEMENT_3D('',#602,#490,#491);
#412=AXIS2_PLACEMENT_3D('',#604,#493,#494);
#413=AXIS2_PLACEMENT_3D('',#608,#497,#498);
#414=AXIS2_PLACEMENT_3D('',#612,#501,#502);
#415=AXIS2_PLACEMENT_3D('',#613,#503,#504);
#416=AXIS2_PLACEMENT_3D('',#615,#506,#507);
#417=AXIS2_PLACEMENT_3D('',#616,#508,#509);
#418=AXIS2_PLACEMENT_3D('',#618,#510,#511);
#419=AXIS2_PLACEMENT_3D('',#620,#513,#514);
#420=DIRECTION('axis',(0.,0.,1.));
#421=DIRECTION('refdir',(1.,0.,0.));
#422=DIRECTION('center_axis',(0.707106781186548,0.707106781186548,4.09345533871127E-16));
#423=DIRECTION('ref_axis',(5.78902005697403E-16,0.,-1.));
#424=DIRECTION('',(-0.707106781186548,0.707106781186548,-1.57009245868377E-16));
#425=DIRECTION('',(-5.78902005697403E-16,0.,1.));
#426=DIRECTION('',(0.707106781186548,-0.707106781186548,1.57009245868377E-16));
#427=DIRECTION('',(5.78902005697403E-16,0.,-1.));
#428=DIRECTION('center_axis',(1.,0.,5.78902005697403E-16));
#429=DIRECTION('ref_axis',(5.78902005697403E-16,0.,-1.));
#430=DIRECTION('',(0.,1.,0.));
#431=DIRECTION('',(-4.09345533871127E-16,0.707106781186548,0.707106781186547));
#432=DIRECTION('',(5.78902005697403E-16,0.,-1.));
#433=DIRECTION('',(-4.09345533871127E-16,-0.707106781186548,0.707106781186548));
#434=DIRECTION('',(0.,1.,0.));
#435=DIRECTION('center_axis',(-2.22044604925031E-16,0.,1.));
#436=DIRECTION('ref_axis',(1.,0.,2.22044604925031E-16));
#437=DIRECTION('',(1.,0.,2.22044604925031E-16));
#438=DIRECTION('',(0.,-1.,0.));
#439=DIRECTION('',(-0.707106781186548,-0.707106781186547,-1.57009245868378E-16));
#440=DIRECTION('',(-1.,0.,-2.22044604925031E-16));
#441=DIRECTION('center_axis',(-0.707106781186548,0.707106781186548,-1.57009245868377E-16));
#442=DIRECTION('ref_axis',(-2.22044604925031E-16,0.,1.));
#443=DIRECTION('',(0.707106781186548,0.707106781186548,1.57009245868377E-16));
#444=DIRECTION('',(2.22044604925031E-16,0.,-1.));
#445=DIRECTION('',(-0.707106781186548,-0.707106781186548,-1.57009245868377E-16));
#446=DIRECTION('',(-2.22044604925031E-16,0.,1.));
#447=DIRECTION('center_axis',(-2.22044604925031E-16,0.,1.));
#448=DIRECTION('ref_axis',(1.,0.,2.22044604925031E-16));
#449=DIRECTION('',(0.,1.,0.));
#450=DIRECTION('',(-1.,0.,-2.22044604925031E-16));
#451=DIRECTION('',(-0.707106781186548,0.707106781186547,-1.57009245868378E-16));
#452=DIRECTION('',(0.640184404356033,0.768221275687748,1.42149493144402E-16));
#453=DIRECTION('',(0.,1.,0.));
#454=DIRECTION('',(1.,0.,2.22044604925031E-16));
#455=DIRECTION('center_axis',(-1.,0.,-2.22044604925031E-16));
#456=DIRECTION('ref_axis',(-2.22044604925031E-16,0.,1.));
#457=DIRECTION('',(0.,1.,0.));
#458=DIRECTION('',(1.57009245868377E-16,0.707106781186548,-0.707106781186548));
#459=DIRECTION('',(-2.22044604925031E-16,0.,1.));
#460=DIRECTION('',(1.57009245868377E-16,-0.707106781186548,-0.707106781186547));
#461=DIRECTION('center_axis',(-1.57009245868378E-16,-0.707106781186547, 0.707106781186548));
#462=DIRECTION('ref_axis',(1.,0.,2.22044604925031E-16));
#463=DIRECTION('',(-0.577350269189626,0.577350269189626,0.577350269189625));
#464=DIRECTION('',(1.,0.,2.22044604925031E-16));
#465=DIRECTION('',(-0.577350269189626,-0.577350269189626,-0.577350269189625));
#466=DIRECTION('center_axis',(-0.707106781186547,-0.707106781186548,-1.57009245868377E-16));
#467=DIRECTION('ref_axis',(0.707106781186548,-0.707106781186547,1.57009245868378E-16));
#468=DIRECTION('',(-2.22044604925031E-16,0.,1.));
#469=DIRECTION('',(0.577350269189626,-0.577350269189626,0.577350269189626));
#470=DIRECTION('',(0.707106781186548,-0.707106781186547,1.57009245868378E-16));
#471=DIRECTION('',(-2.22044604925031E-16,0.,1.));
#472=DIRECTION('center_axis',(0.707106781186547,-0.707106781186548,1.57009245868377E-16));
#473=DIRECTION('ref_axis',(0.707106781186548,0.707106781186547,1.57009245868378E-16));
#474=DIRECTION('',(-2.22044604925031E-16,0.,1.));
#475=DIRECTION('',(0.707106781186548,0.707106781186547,1.57009245868378E-16));
#476=DIRECTION('',(0.577350269189627,0.577350269189626,-0.577350269189625));
#477=DIRECTION('center_axis',(1.57009245868377E-16,-0.707106781186548,-0.707106781186548));
#478=DIRECTION('ref_axis',(-1.,0.,-2.22044604925031E-16));
#479=DIRECTION('',(1.,0.,2.22044604925031E-16));
#480=DIRECTION('',(-1.,0.,-2.22044604925031E-16));
#481=DIRECTION('',(1.,0.,2.22044604925031E-16));
#482=DIRECTION('center_axis',(0.,1.,0.));
#483=DIRECTION('ref_axis',(-2.22044604925031E-16,0.,1.));
#484=DIRECTION('center_axis',(0.,1.,0.));
#485=DIRECTION('ref_axis',(-2.22044604925031E-16,0.,1.));
#486=DIRECTION('center_axis',(2.22044604925031E-16,0.,-1.));
#487=DIRECTION('ref_axis',(-1.,0.,-2.22044604925031E-16));
#488=DIRECTION('',(0.,1.,0.));
#489=DIRECTION('',(-1.,0.,-2.22044604925031E-16));
#490=DIRECTION('center_axis',(1.,0.,2.22044604925031E-16));
#491=DIRECTION('ref_axis',(0.,1.,0.));
#492=DIRECTION('',(-2.22044604925031E-16,0.,1.));
#493=DIRECTION('center_axis',(-0.768221275687748,0.640184404356033,-1.7057938965509E-16));
#494=DIRECTION('ref_axis',(-0.640184404356033,-0.768221275687748,-1.42149493144402E-16));
#495=DIRECTION('',(-0.640184404356033,-0.768221275687748,-1.42149493144402E-16));
#496=DIRECTION('',(-2.22044604925031E-16,0.,1.));
#497=DIRECTION('center_axis',(-1.,0.,-2.22044604925031E-16));
#498=DIRECTION('ref_axis',(0.,-1.,0.));
#499=DIRECTION('',(0.,-1.,0.));
#500=DIRECTION('',(2.22044604925031E-16,0.,-1.));
#501=DIRECTION('center_axis',(0.,1.,0.));
#502=DIRECTION('ref_axis',(-1.,0.,-2.22044604925031E-16));
#503=DIRECTION('center_axis',(0.,1.,0.));
#504=DIRECTION('ref_axis',(-1.,0.,-2.22044604925031E-16));
#505=DIRECTION('',(-1.,0.,-2.22044604925031E-16));
#506=DIRECTION('center_axis',(2.22044604925031E-16,0.,-1.));
#507=DIRECTION('ref_axis',(-1.,0.,-2.22044604925031E-16));
#508=DIRECTION('center_axis',(0.,-1.,0.));
#509=DIRECTION('ref_axis',(-2.22044604925031E-16,0.,1.));
#510=DIRECTION('center_axis',(0.,-1.,0.));
#511=DIRECTION('ref_axis',(-2.22044604925031E-16,0.,1.));
#512=DIRECTION('',(0.,1.,0.));
#513=DIRECTION('center_axis',(0.,1.,0.));
#514=DIRECTION('ref_axis',(-2.22044604925031E-16,0.,1.));
#515=CARTESIAN_POINT('',(0.0,0.0,0.0));
#516=CARTESIAN_POINT('Origin',(116.1,16.5,20.99999999999994));
#517=CARTESIAN_POINT('',(117.6,15.0,-42.00000000000006));
#518=CARTESIAN_POINT('',(114.6,18.0,-42.00000000000006));
#519=CARTESIAN_POINT('',(120.6,12.0,-42.00000000000006));
#520=CARTESIAN_POINT('',(114.6,18.0,41.99999999999994));
#521=CARTESIAN_POINT('',(114.6,18.0,20.99999999999994));
#522=CARTESIAN_POINT('',(117.6,15.0,41.99999999999994));
#523=CARTESIAN_POINT('',(112.8,19.8,41.99999999999994));
#524=CARTESIAN_POINT('',(117.6,15.0,20.99999999999994));
#525=CARTESIAN_POINT('Origin',(117.6,0.0,41.99999999999994));
#526=CARTESIAN_POINT('',(117.6,9.0,41.99999999999994));
#527=CARTESIAN_POINT('',(117.6,0.0,41.99999999999994));
#528=CARTESIAN_POINT('',(117.6,0.0,32.99999999999994));
#529=CARTESIAN_POINT('',(117.6,4.500000000000006,37.49999999999994));
#530=CARTESIAN_POINT('',(117.6,0.0,-33.00000000000006));
#531=CARTESIAN_POINT('',(117.6,0.0,41.99999999999994));
#532=CARTESIAN_POINT('',(117.6,9.0,-42.00000000000006));
#533=CARTESIAN_POINT('',(117.6,-16.5,-16.50000000000006));
#534=CARTESIAN_POINT('',(117.6,0.0,-42.00000000000006));
#535=CARTESIAN_POINT('Origin',(86.4,0.0,41.99999999999994));
#536=CARTESIAN_POINT('',(103.8,18.0,41.99999999999994));
#537=CARTESIAN_POINT('',(86.4,18.0,41.99999999999994));
#538=CARTESIAN_POINT('',(103.8,10.55147195198316,41.99999999999994));
#539=CARTESIAN_POINT('',(103.8,5.275735975991569,41.99999999999994));
#540=CARTESIAN_POINT('',(102.2485280480166,9.0,41.99999999999994));
#541=CARTESIAN_POINT('',(93.962132012004,0.713603963987358,41.99999999999994));
#542=CARTESIAN_POINT('',(94.2,9.0,41.99999999999994));
#543=CARTESIAN_POINT('Origin',(87.9,16.5,-21.00000000000006));
#544=CARTESIAN_POINT('',(86.4,15.0,41.99999999999994));
#545=CARTESIAN_POINT('',(89.4,18.0,41.99999999999994));
#546=CARTESIAN_POINT('',(83.4,12.0,41.99999999999994));
#547=CARTESIAN_POINT('',(89.4,18.0,-42.00000000000006));
#548=CARTESIAN_POINT('',(89.4,18.0,-21.00000000000006));
#549=CARTESIAN_POINT('',(86.4,15.0,-42.00000000000006));
#550=CARTESIAN_POINT('',(91.2,19.8,-42.00000000000006));
#551=CARTESIAN_POINT('',(86.4,15.0,-21.00000000000006));
#552=CARTESIAN_POINT('Origin',(86.4,0.0,41.99999999999994));
#553=CARTESIAN_POINT('',(86.4,9.0,41.99999999999994));
#554=CARTESIAN_POINT('',(86.4,0.0,41.99999999999994));
#555=CARTESIAN_POINT('',(93.9514719519834,9.0,41.99999999999994));
#556=CARTESIAN_POINT('',(94.2,9.0,41.99999999999994));
#557=CARTESIAN_POINT('',(92.1882917710182,10.76318018096478,41.99999999999994));
#558=CARTESIAN_POINT('',(93.4320138735048,9.51945807847818,41.99999999999994));
#559=CARTESIAN_POINT('',(95.4,14.61723000788454,41.99999999999994));
#560=CARTESIAN_POINT('',(89.9613368482272,8.0908343067996,41.99999999999994));
#561=CARTESIAN_POINT('',(95.4,18.00000008940696,41.99999999999994));
#562=CARTESIAN_POINT('',(95.4,9.00000004470348,41.99999999999994));
#563=CARTESIAN_POINT('',(86.4,18.0,41.99999999999994));
#564=CARTESIAN_POINT('Origin',(86.4,0.0,-42.00000000000006));
#565=CARTESIAN_POINT('',(86.4,9.0,-42.00000000000006));
#566=CARTESIAN_POINT('',(86.4,0.0,-42.00000000000006));
#567=CARTESIAN_POINT('',(86.4,0.0,-33.00000000000006));
#568=CARTESIAN_POINT('',(86.4,4.5,-37.50000000000006));
#569=CARTESIAN_POINT('',(86.4,0.0,32.99999999999994));
#570=CARTESIAN_POINT('',(86.4,0.0,-42.00000000000006));
#571=CARTESIAN_POINT('',(86.4,-16.5,16.49999999999994));
#572=CARTESIAN_POINT('Origin',(94.2,4.5,37.49999999999994));
#573=CARTESIAN_POINT('',(98.1,4.851471951983136,37.8514719519831));
#574=CARTESIAN_POINT('',(108.905166566331,-5.953694614347876,27.04630538565204));
#575=CARTESIAN_POINT('',(94.2,0.0,32.99999999999994));
#576=CARTESIAN_POINT('',(84.0242640240084,-9.22426402400844,23.7757359759915));
#577=CARTESIAN_POINT('Origin',(92.1882917710182,10.76318018096478,-42.00000000000006));
#578=CARTESIAN_POINT('',(98.1,4.851471951983136,-37.85147195198316));
#579=CARTESIAN_POINT('',(98.1,4.851471951983136,-42.00000000000006));
#580=CARTESIAN_POINT('',(93.9514719519834,9.0,-42.00000000000006));
#581=CARTESIAN_POINT('',(97.505166566331,5.446305385652112,-38.44630538565216));
#582=CARTESIAN_POINT('',(92.1882917710182,10.76318018096478,-42.00000000000006));
#583=CARTESIAN_POINT('',(101.2320138735048,1.719458078478168,-42.00000000000006));
#584=CARTESIAN_POINT('',(92.1882917710182,10.76318018096478,-42.00000000000006));
#585=CARTESIAN_POINT('Origin',(98.1,4.851471951983136,-42.00000000000006));
#586=CARTESIAN_POINT('',(103.8,10.55147195198316,-42.00000000000006));
#587=CARTESIAN_POINT('',(103.8,10.55147195198316,-42.00000000000006));
#588=CARTESIAN_POINT('',(102.2485280480166,9.0,-42.00000000000006));
#589=CARTESIAN_POINT('',(101.762132012004,8.51360396398734,-42.00000000000006));
#590=CARTESIAN_POINT('',(100.6242640240086,7.37573597599158,-40.37573597599164));
#591=CARTESIAN_POINT('Origin',(109.8,4.5,-37.50000000000006));
#592=CARTESIAN_POINT('',(109.8,9.0,-42.00000000000006));
#593=CARTESIAN_POINT('',(109.8,0.0,-33.00000000000006));
#594=CARTESIAN_POINT('',(109.8,9.0,-42.00000000000006));
#595=CARTESIAN_POINT('Origin',(102.0,0.0,-6.661338147750959E-14));
#596=CARTESIAN_POINT('',(102.0,0.0,-9.9));
#597=CARTESIAN_POINT('Origin',(102.0,0.0,-2.664535259100378E-14));
#598=CARTESIAN_POINT('Origin',(117.6,0.0,-42.00000000000006));
#599=CARTESIAN_POINT('',(103.8,18.0,-42.00000000000006));
#600=CARTESIAN_POINT('',(103.8,5.275735975991569,-42.00000000000006));
#601=CARTESIAN_POINT('',(117.6,18.0,-42.00000000000006));
#602=CARTESIAN_POINT('Origin',(103.8,10.55147195198316,-42.00000000000006));
#603=CARTESIAN_POINT('',(103.8,18.0,-21.00000000000006));
#604=CARTESIAN_POINT('Origin',(95.4,14.61723000788454,-42.00000000000006));
#605=CARTESIAN_POINT('',(95.4,14.61723000788454,-42.00000000000006));
#606=CARTESIAN_POINT('',(96.354779564886,15.76296547152036,-42.00000000000006));
#607=CARTESIAN_POINT('',(95.4,14.61723000788454,-42.00000000000006));
#608=CARTESIAN_POINT('Origin',(95.4,18.00000008940696,-42.00000000000006));
#609=CARTESIAN_POINT('',(95.4,18.00000008940696,-42.00000000000006));
#610=CARTESIAN_POINT('',(95.4,9.00000004470348,-42.00000000000006));
#611=CARTESIAN_POINT('',(95.4,18.0,-21.00000000000006));
#612=CARTESIAN_POINT('Origin',(102.0,18.0,-6.661338147750959E-14));
#613=CARTESIAN_POINT('Origin',(102.0,18.0,-6.661338147750959E-14));
#614=CARTESIAN_POINT('',(117.6,18.0,-42.00000000000006));
#615=CARTESIAN_POINT('Origin',(117.6,0.0,-42.00000000000006));
#616=CARTESIAN_POINT('Origin',(102.0,0.0,-2.664535259100378E-14));
#617=CARTESIAN_POINT('',(102.0,-9.0,-9.9));
#618=CARTESIAN_POINT('Origin',(102.0,-9.0,-2.664535259100378E-14));
#619=CARTESIAN_POINT('',(102.0,0.0,-9.9));
#620=CARTESIAN_POINT('Origin',(102.0,-9.0,-2.664535259100378E-14));
#621=UNCERTAINTY_MEASURE_WITH_UNIT(LENGTH_MEASURE(0.06),#625, 'DISTANCE_ACCURACY_VALUE', 'Maximum model space distance between geometric entities at asserted c onnectivities');
#622=UNCERTAINTY_MEASURE_WITH_UNIT(LENGTH_MEASURE(0.06),#625, 'DISTANCE_ACCURACY_VALUE', 'Maximum model space distance between geometric entities at asserted c onnectivities');
#623=( GEOMETRIC_REPRESENTATION_CONTEXT(3) GLOBAL_UNCERTAINTY_ASSIGNED_CONTEXT((#621)) GLOBAL_UNIT_ASSIGNED_CONTEXT((#625,#627,#628)) REPRESENTATION_CONTEXT('','3D') );
#624=( GEOMETRIC_REPRESENTATION_CONTEXT(3) GLOBAL_UNCERTAINTY_ASSIGNED_CONTEXT((#622)) GLOBAL_UNIT_ASSIGNED_CONTEXT((#625,#627,#628)) REPRESENTATION_CONTEXT('','3D') );
#625=( LENGTH_UNIT() NAMED_UNIT(*) SI_UNIT(.MILLI.,.METRE.) );
#626=( LENGTH_UNIT() NAMED_UNIT(*) SI_UNIT($,.METRE.) );
#627=( NAMED_UNIT(*) PLANE_ANGLE_UNIT() SI_UNIT($,.RADIAN.) );
#628=( NAMED_UNIT(*) SI_UNIT($,.STERADIAN.) SOLID_ANGLE_UNIT() );
#629=SHAPE_DEFINITION_REPRESENTATION(#630,#631);
#630=PRODUCT_DEFINITION_SHAPE('',$,#633);
#631=SHAPE_REPRESENTATION('',(#397),#623);
#632=PRODUCT_DEFINITION_CONTEXT('part definition',#637,'design');
#633=PRODUCT_DEFINITION('Radiators-base','Radiators-base',#634,#632);
#634=PRODUCT_DEFINITION_FORMATION('',$,#639);
#635=PRODUCT_RELATED_PRODUCT_CATEGORY('Radiators-base','Radiators-base', (#639));
#636=APPLICATION_PROTOCOL_DEFINITION('international standard', 'automotive_design',2009,#637);
#637=APPLICATION_CONTEXT( 'Core Data for Automotive Mechanical Design Process');
#638=PRODUCT_CONTEXT('part definition',#637,'mechanical');
#639=PRODUCT('Radiators-base','Radiators-base',$,(#638));
#640=PRESENTATION_STYLE_ASSIGNMENT((#642));
#641=PRESENTATION_STYLE_ASSIGNMENT((#643));
#642=SURFACE_STYLE_USAGE(.BOTH.,#644);
#643=SURFACE_STYLE_USAGE(.BOTH.,#645);
#644=SURFACE_SIDE_STYLE('',(#646));
#645=SURFACE_SIDE_STYLE('',(#647));
#646=SURFACE_STYLE_FILL_AREA(#648);
#647=SURFACE_STYLE_FILL_AREA(#649);
#648=FILL_AREA_STYLE('Steel - Satin',(#650));
#649=FILL_AREA_STYLE('ABS (White)',(#651));
#650=FILL_AREA_STYLE_COLOUR('Steel - Satin',#652);
#651=FILL_AREA_STYLE_COLOUR('ABS (White)',#653);
#652=COLOUR_RGB('Steel - Satin',0.627450980392157,0.627450980392157,0.627450980392157);
#653=COLOUR_RGB('ABS (White)',0.964705882352941,0.964705882352941,0.952941176470588);
ENDSEC;
END-ISO-10303-21;
