ISO-10303-21;
HEADER;
/* Generated by software containing ST-Developer
 * from STEP Tools, Inc. (www.steptools.com) 
 */

FILE_DESCRIPTION(
/* description */ (''),
/* implementation_level */ '2;1');

FILE_NAME(
/* name */ 'Robotic arm.step',
/* time_stamp */ '2024-11-15T18:01:41+01:00',
/* author */ (''),
/* organization */ (''),
/* preprocessor_version */ 'ST-DEVELOPER v20',
/* originating_system */ 'Autodesk Translation Framework v13.20.0.188',

/* authorisation */ '');

FILE_SCHEMA (('AUTOMOTIVE_DESIGN { 1 0 10303 214 3 1 1 }'));
ENDSEC;

DATA;
#10=MECHANICAL_DESIGN_GEOMETRIC_PRESENTATION_REPRESENTATION('',(#13),#972);
#11=SHAPE_REPRESENTATION_RELATIONSHIP('SRR','None',#979,#12);
#12=ADVANCED_BREP_SHAPE_REPRESENTATION('',(#14),#971);
#13=STYLED_ITEM('',(#989),#14);
#14=MANIFOLD_SOLID_BREP('Body1',#608);
#15=FACE_OUTER_BOUND('',#46,.T.);
#16=FACE_OUTER_BOUND('',#47,.T.);
#17=FACE_OUTER_BOUND('',#48,.T.);
#18=FACE_OUTER_BOUND('',#49,.T.);
#19=FACE_OUTER_BOUND('',#50,.T.);
#20=FACE_OUTER_BOUND('',#51,.T.);
#21=FACE_OUTER_BOUND('',#52,.T.);
#22=FACE_OUTER_BOUND('',#53,.T.);
#23=FACE_OUTER_BOUND('',#54,.T.);
#24=FACE_OUTER_BOUND('',#55,.T.);
#25=FACE_OUTER_BOUND('',#56,.T.);
#26=FACE_OUTER_BOUND('',#57,.T.);
#27=FACE_OUTER_BOUND('',#58,.T.);
#28=FACE_OUTER_BOUND('',#59,.T.);
#29=FACE_OUTER_BOUND('',#60,.T.);
#30=FACE_OUTER_BOUND('',#61,.T.);
#31=FACE_OUTER_BOUND('',#62,.T.);
#32=FACE_OUTER_BOUND('',#63,.T.);
#33=FACE_OUTER_BOUND('',#64,.T.);
#34=FACE_OUTER_BOUND('',#65,.T.);
#35=FACE_OUTER_BOUND('',#66,.T.);
#36=FACE_OUTER_BOUND('',#67,.T.);
#37=FACE_OUTER_BOUND('',#68,.T.);
#38=FACE_OUTER_BOUND('',#69,.T.);
#39=FACE_OUTER_BOUND('',#70,.T.);
#40=FACE_OUTER_BOUND('',#71,.T.);
#41=FACE_OUTER_BOUND('',#72,.T.);
#42=FACE_OUTER_BOUND('',#73,.T.);
#43=FACE_OUTER_BOUND('',#74,.T.);
#44=FACE_OUTER_BOUND('',#75,.T.);
#45=FACE_OUTER_BOUND('',#76,.T.);
#46=EDGE_LOOP('',(#380,#381,#382,#383));
#47=EDGE_LOOP('',(#384,#385,#386,#387));
#48=EDGE_LOOP('',(#388,#389,#390,#391));
#49=EDGE_LOOP('',(#392,#393,#394,#395));
#50=EDGE_LOOP('',(#396,#397,#398,#399));
#51=EDGE_LOOP('',(#400,#401,#402,#403));
#52=EDGE_LOOP('',(#404,#405,#406,#407,#408));
#53=EDGE_LOOP('',(#409,#410,#411,#412));
#54=EDGE_LOOP('',(#413,#414,#415,#416));
#55=EDGE_LOOP('',(#417,#418,#419,#420,#421,#422));
#56=EDGE_LOOP('',(#423,#424,#425,#426));
#57=EDGE_LOOP('',(#427,#428,#429,#430));
#58=EDGE_LOOP('',(#431,#432,#433,#434,#435,#436,#437,#438,#439,#440,#441, #442,#443,#444,#445,#446,#447,#448,#449,#450,#451,#452,#453));
#59=EDGE_LOOP('',(#454,#455,#456,#457));
#60=EDGE_LOOP('',(#458,#459,#460,#461));
#61=EDGE_LOOP('',(#462,#463,#464,#465));
#62=EDGE_LOOP('',(#466,#467,#468,#469));
#63=EDGE_LOOP('',(#470,#471,#472,#473));
#64=EDGE_LOOP('',(#474,#475,#476,#477));
#65=EDGE_LOOP('',(#478,#479,#480,#481));
#66=EDGE_LOOP('',(#482,#483,#484,#485));
#67=EDGE_LOOP('',(#486,#487,#488,#489));
#68=EDGE_LOOP('',(#490,#491,#492,#493));
#69=EDGE_LOOP('',(#494,#495,#496,#497));
#70=EDGE_LOOP('',(#498,#499,#500,#501));
#71=EDGE_LOOP('',(#502,#503,#504,#505));
#72=EDGE_LOOP('',(#506,#507,#508,#509));
#73=EDGE_LOOP('',(#510,#511,#512,#513));
#74=EDGE_LOOP('',(#514,#515,#516,#517,#518,#519,#520,#521,#522,#523,#524, #525,#526,#527,#528,#529,#530,#531,#532));
#75=EDGE_LOOP('',(#533,#534,#535,#536,#537,#538));
#76=EDGE_LOOP('',(#539,#540,#541,#542,#543,#544,#545));
#77=LINE('',#804,#160);
#78=LINE('',#806,#161);
#79=LINE('',#808,#162);
#80=LINE('',#809,#163);
#81=LINE('',#812,#164);
#82=LINE('',#814,#165);
#83=LINE('',#815,#166);
#84=LINE('',#818,#167);
#85=LINE('',#820,#168);
#86=LINE('',#821,#169);
#87=LINE('',#823,#170);
#88=LINE('',#824,#171);
#89=LINE('',#829,#172);
#90=LINE('',#831,#173);
#91=LINE('',#833,#174);
#92=LINE('',#834,#175);
#93=LINE('',#837,#176);
#94=LINE('',#839,#177);
#95=LINE('',#841,#178);
#96=LINE('',#842,#179);
#97=LINE('',#844,#180);
#98=LINE('',#845,#181);
#99=LINE('',#848,#182);
#100=LINE('',#850,#183);
#101=LINE('',#851,#184);
#102=LINE('',#853,#185);
#103=LINE('',#857,#186);
#104=LINE('',#859,#187);
#105=LINE('',#861,#188);
#106=LINE('',#862,#189);
#107=LINE('',#865,#190);
#108=LINE('',#867,#191);
#109=LINE('',#868,#192);
#110=LINE('',#871,#193);
#111=LINE('',#873,#194);
#112=LINE('',#874,#195);
#113=LINE('',#876,#196);
#114=LINE('',#878,#197);
#115=LINE('',#880,#198);
#116=LINE('',#882,#199);
#117=LINE('',#884,#200);
#118=LINE('',#886,#201);
#119=LINE('',#888,#202);
#120=LINE('',#890,#203);
#121=LINE('',#892,#204);
#122=LINE('',#894,#205);
#123=LINE('',#896,#206);
#124=LINE('',#898,#207);
#125=LINE('',#900,#208);
#126=LINE('',#901,#209);
#127=LINE('',#904,#210);
#128=LINE('',#906,#211);
#129=LINE('',#907,#212);
#130=LINE('',#910,#213);
#131=LINE('',#911,#214);
#132=LINE('',#914,#215);
#133=LINE('',#915,#216);
#134=LINE('',#918,#217);
#135=LINE('',#919,#218);
#136=LINE('',#922,#219);
#137=LINE('',#924,#220);
#138=LINE('',#925,#221);
#139=LINE('',#928,#222);
#140=LINE('',#929,#223);
#141=LINE('',#932,#224);
#142=LINE('',#933,#225);
#143=LINE('',#936,#226);
#144=LINE('',#937,#227);
#145=LINE('',#940,#228);
#146=LINE('',#941,#229);
#147=LINE('',#944,#230);
#148=LINE('',#945,#231);
#149=LINE('',#948,#232);
#150=LINE('',#949,#233);
#151=LINE('',#951,#234);
#152=LINE('',#953,#235);
#153=LINE('',#956,#236);
#154=LINE('',#957,#237);
#155=LINE('',#960,#238);
#156=LINE('',#961,#239);
#157=LINE('',#964,#240);
#158=LINE('',#965,#241);
#159=LINE('',#967,#242);
#160=VECTOR('',#657,60.0);
#161=VECTOR('',#658,60.0);
#162=VECTOR('',#659,60.0);
#163=VECTOR('',#660,60.0);
#164=VECTOR('',#663,60.0);
#165=VECTOR('',#664,60.0);
#166=VECTOR('',#665,60.0);
#167=VECTOR('',#668,60.0);
#168=VECTOR('',#669,60.0);
#169=VECTOR('',#670,60.0);
#170=VECTOR('',#673,60.0);
#171=VECTOR('',#674,60.0);
#172=VECTOR('',#679,60.0);
#173=VECTOR('',#680,60.0);
#174=VECTOR('',#681,60.0);
#175=VECTOR('',#682,60.0);
#176=VECTOR('',#685,60.0);
#177=VECTOR('',#686,60.0);
#178=VECTOR('',#687,60.0);
#179=VECTOR('',#688,60.0);
#180=VECTOR('',#691,60.0);
#181=VECTOR('',#692,60.0);
#182=VECTOR('',#695,60.0);
#183=VECTOR('',#696,60.0);
#184=VECTOR('',#697,60.0);
#185=VECTOR('',#700,60.0);
#186=VECTOR('',#703,60.0);
#187=VECTOR('',#704,60.0);
#188=VECTOR('',#705,60.0);
#189=VECTOR('',#706,60.0);
#190=VECTOR('',#709,60.0);
#191=VECTOR('',#710,60.0);
#192=VECTOR('',#711,60.0);
#193=VECTOR('',#714,60.0);
#194=VECTOR('',#715,60.0);
#195=VECTOR('',#716,60.0);
#196=VECTOR('',#717,60.0);
#197=VECTOR('',#718,60.0);
#198=VECTOR('',#719,60.0);
#199=VECTOR('',#720,60.0);
#200=VECTOR('',#721,60.0);
#201=VECTOR('',#722,60.0);
#202=VECTOR('',#723,60.0);
#203=VECTOR('',#724,60.0);
#204=VECTOR('',#725,60.0);
#205=VECTOR('',#726,60.0);
#206=VECTOR('',#727,60.0);
#207=VECTOR('',#728,60.0);
#208=VECTOR('',#729,60.0);
#209=VECTOR('',#730,60.0);
#210=VECTOR('',#733,60.0);
#211=VECTOR('',#734,60.0);
#212=VECTOR('',#735,60.0);
#213=VECTOR('',#738,60.0);
#214=VECTOR('',#739,60.0);
#215=VECTOR('',#742,60.0);
#216=VECTOR('',#743,60.0);
#217=VECTOR('',#746,60.0);
#218=VECTOR('',#747,60.0);
#219=VECTOR('',#750,60.0);
#220=VECTOR('',#751,60.0);
#221=VECTOR('',#752,60.0);
#222=VECTOR('',#755,60.0);
#223=VECTOR('',#756,60.0);
#224=VECTOR('',#759,60.0);
#225=VECTOR('',#760,60.0);
#226=VECTOR('',#763,60.0);
#227=VECTOR('',#764,60.0);
#228=VECTOR('',#767,60.0);
#229=VECTOR('',#768,60.0);
#230=VECTOR('',#771,60.0);
#231=VECTOR('',#772,60.0);
#232=VECTOR('',#775,60.0);
#233=VECTOR('',#776,60.0);
#234=VECTOR('',#779,60.0);
#235=VECTOR('',#782,60.0);
#236=VECTOR('',#785,60.0);
#237=VECTOR('',#786,60.0);
#238=VECTOR('',#789,60.0);
#239=VECTOR('',#790,60.0);
#240=VECTOR('',#793,60.0);
#241=VECTOR('',#794,60.0);
#242=VECTOR('',#797,60.0);
#243=VERTEX_POINT('',#802);
#244=VERTEX_POINT('',#803);
#245=VERTEX_POINT('',#805);
#246=VERTEX_POINT('',#807);
#247=VERTEX_POINT('',#811);
#248=VERTEX_POINT('',#813);
#249=VERTEX_POINT('',#817);
#250=VERTEX_POINT('',#819);
#251=VERTEX_POINT('',#827);
#252=VERTEX_POINT('',#828);
#253=VERTEX_POINT('',#830);
#254=VERTEX_POINT('',#832);
#255=VERTEX_POINT('',#836);
#256=VERTEX_POINT('',#838);
#257=VERTEX_POINT('',#840);
#258=VERTEX_POINT('',#847);
#259=VERTEX_POINT('',#849);
#260=VERTEX_POINT('',#855);
#261=VERTEX_POINT('',#856);
#262=VERTEX_POINT('',#858);
#263=VERTEX_POINT('',#860);
#264=VERTEX_POINT('',#864);
#265=VERTEX_POINT('',#866);
#266=VERTEX_POINT('',#870);
#267=VERTEX_POINT('',#872);
#268=VERTEX_POINT('',#875);
#269=VERTEX_POINT('',#877);
#270=VERTEX_POINT('',#879);
#271=VERTEX_POINT('',#881);
#272=VERTEX_POINT('',#883);
#273=VERTEX_POINT('',#885);
#274=VERTEX_POINT('',#887);
#275=VERTEX_POINT('',#889);
#276=VERTEX_POINT('',#891);
#277=VERTEX_POINT('',#893);
#278=VERTEX_POINT('',#895);
#279=VERTEX_POINT('',#897);
#280=VERTEX_POINT('',#899);
#281=VERTEX_POINT('',#903);
#282=VERTEX_POINT('',#905);
#283=VERTEX_POINT('',#909);
#284=VERTEX_POINT('',#913);
#285=VERTEX_POINT('',#917);
#286=VERTEX_POINT('',#921);
#287=VERTEX_POINT('',#923);
#288=VERTEX_POINT('',#927);
#289=VERTEX_POINT('',#931);
#290=VERTEX_POINT('',#935);
#291=VERTEX_POINT('',#939);
#292=VERTEX_POINT('',#943);
#293=VERTEX_POINT('',#947);
#294=VERTEX_POINT('',#955);
#295=VERTEX_POINT('',#959);
#296=VERTEX_POINT('',#963);
#297=EDGE_CURVE('',#243,#244,#77,.T.);
#298=EDGE_CURVE('',#245,#244,#78,.T.);
#299=EDGE_CURVE('',#245,#246,#79,.T.);
#300=EDGE_CURVE('',#246,#243,#80,.T.);
#301=EDGE_CURVE('',#244,#247,#81,.T.);
#302=EDGE_CURVE('',#248,#247,#82,.T.);
#303=EDGE_CURVE('',#248,#245,#83,.T.);
#304=EDGE_CURVE('',#247,#249,#84,.T.);
#305=EDGE_CURVE('',#250,#249,#85,.T.);
#306=EDGE_CURVE('',#248,#250,#86,.T.);
#307=EDGE_CURVE('',#249,#243,#87,.T.);
#308=EDGE_CURVE('',#246,#250,#88,.T.);
#309=EDGE_CURVE('',#251,#252,#89,.T.);
#310=EDGE_CURVE('',#251,#253,#90,.T.);
#311=EDGE_CURVE('',#254,#253,#91,.T.);
#312=EDGE_CURVE('',#252,#254,#92,.T.);
#313=EDGE_CURVE('',#253,#255,#93,.T.);
#314=EDGE_CURVE('',#255,#256,#94,.T.);
#315=EDGE_CURVE('',#256,#257,#95,.T.);
#316=EDGE_CURVE('',#257,#254,#96,.T.);
#317=EDGE_CURVE('',#250,#252,#97,.T.);
#318=EDGE_CURVE('',#251,#246,#98,.T.);
#319=EDGE_CURVE('',#258,#255,#99,.T.);
#320=EDGE_CURVE('',#258,#259,#100,.T.);
#321=EDGE_CURVE('',#259,#256,#101,.T.);
#322=EDGE_CURVE('',#245,#258,#102,.T.);
#323=EDGE_CURVE('',#260,#261,#103,.T.);
#324=EDGE_CURVE('',#261,#262,#104,.T.);
#325=EDGE_CURVE('',#262,#263,#105,.T.);
#326=EDGE_CURVE('',#263,#260,#106,.T.);
#327=EDGE_CURVE('',#264,#263,#107,.T.);
#328=EDGE_CURVE('',#265,#264,#108,.T.);
#329=EDGE_CURVE('',#265,#260,#109,.T.);
#330=EDGE_CURVE('',#266,#262,#110,.T.);
#331=EDGE_CURVE('',#267,#266,#111,.T.);
#332=EDGE_CURVE('',#267,#248,#112,.T.);
#333=EDGE_CURVE('',#268,#257,#113,.T.);
#334=EDGE_CURVE('',#269,#268,#114,.T.);
#335=EDGE_CURVE('',#269,#270,#115,.T.);
#336=EDGE_CURVE('',#271,#270,#116,.T.);
#337=EDGE_CURVE('',#272,#271,#117,.T.);
#338=EDGE_CURVE('',#273,#272,#118,.T.);
#339=EDGE_CURVE('',#274,#273,#119,.T.);
#340=EDGE_CURVE('',#275,#274,#120,.T.);
#341=EDGE_CURVE('',#275,#276,#121,.T.);
#342=EDGE_CURVE('',#277,#276,#122,.T.);
#343=EDGE_CURVE('',#278,#277,#123,.T.);
#344=EDGE_CURVE('',#279,#278,#124,.T.);
#345=EDGE_CURVE('',#280,#279,#125,.T.);
#346=EDGE_CURVE('',#264,#280,#126,.T.);
#347=EDGE_CURVE('',#278,#281,#127,.T.);
#348=EDGE_CURVE('',#281,#282,#128,.T.);
#349=EDGE_CURVE('',#282,#279,#129,.T.);
#350=EDGE_CURVE('',#283,#277,#130,.T.);
#351=EDGE_CURVE('',#283,#281,#131,.T.);
#352=EDGE_CURVE('',#284,#283,#132,.T.);
#353=EDGE_CURVE('',#276,#284,#133,.T.);
#354=EDGE_CURVE('',#285,#275,#134,.T.);
#355=EDGE_CURVE('',#285,#284,#135,.T.);
#356=EDGE_CURVE('',#272,#286,#136,.T.);
#357=EDGE_CURVE('',#286,#287,#137,.T.);
#358=EDGE_CURVE('',#287,#273,#138,.T.);
#359=EDGE_CURVE('',#288,#271,#139,.T.);
#360=EDGE_CURVE('',#288,#286,#140,.T.);
#361=EDGE_CURVE('',#289,#288,#141,.T.);
#362=EDGE_CURVE('',#270,#289,#142,.T.);
#363=EDGE_CURVE('',#290,#287,#143,.T.);
#364=EDGE_CURVE('',#274,#290,#144,.T.);
#365=EDGE_CURVE('',#291,#269,#145,.T.);
#366=EDGE_CURVE('',#291,#289,#146,.T.);
#367=EDGE_CURVE('',#292,#282,#147,.T.);
#368=EDGE_CURVE('',#280,#292,#148,.T.);
#369=EDGE_CURVE('',#261,#293,#149,.T.);
#370=EDGE_CURVE('',#293,#266,#150,.T.);
#371=EDGE_CURVE('',#292,#265,#151,.F.);
#372=EDGE_CURVE('',#290,#285,#152,.F.);
#373=EDGE_CURVE('',#294,#268,#153,.T.);
#374=EDGE_CURVE('',#294,#291,#154,.F.);
#375=EDGE_CURVE('',#295,#267,#155,.T.);
#376=EDGE_CURVE('',#295,#293,#156,.T.);
#377=EDGE_CURVE('',#296,#294,#157,.T.);
#378=EDGE_CURVE('',#296,#295,#158,.F.);
#379=EDGE_CURVE('',#259,#296,#159,.T.);
#380=ORIENTED_EDGE('',*,*,#297,.T.);
#381=ORIENTED_EDGE('',*,*,#298,.F.);
#382=ORIENTED_EDGE('',*,*,#299,.T.);
#383=ORIENTED_EDGE('',*,*,#300,.T.);
#384=ORIENTED_EDGE('',*,*,#301,.T.);
#385=ORIENTED_EDGE('',*,*,#302,.F.);
#386=ORIENTED_EDGE('',*,*,#303,.T.);
#387=ORIENTED_EDGE('',*,*,#298,.T.);
#388=ORIENTED_EDGE('',*,*,#304,.T.);
#389=ORIENTED_EDGE('',*,*,#305,.F.);
#390=ORIENTED_EDGE('',*,*,#306,.F.);
#391=ORIENTED_EDGE('',*,*,#302,.T.);
#392=ORIENTED_EDGE('',*,*,#307,.T.);
#393=ORIENTED_EDGE('',*,*,#300,.F.);
#394=ORIENTED_EDGE('',*,*,#308,.T.);
#395=ORIENTED_EDGE('',*,*,#305,.T.);
#396=ORIENTED_EDGE('',*,*,#297,.F.);
#397=ORIENTED_EDGE('',*,*,#307,.F.);
#398=ORIENTED_EDGE('',*,*,#304,.F.);
#399=ORIENTED_EDGE('',*,*,#301,.F.);
#400=ORIENTED_EDGE('',*,*,#309,.F.);
#401=ORIENTED_EDGE('',*,*,#310,.T.);
#402=ORIENTED_EDGE('',*,*,#311,.F.);
#403=ORIENTED_EDGE('',*,*,#312,.F.);
#404=ORIENTED_EDGE('',*,*,#311,.T.);
#405=ORIENTED_EDGE('',*,*,#313,.T.);
#406=ORIENTED_EDGE('',*,*,#314,.T.);
#407=ORIENTED_EDGE('',*,*,#315,.T.);
#408=ORIENTED_EDGE('',*,*,#316,.T.);
#409=ORIENTED_EDGE('',*,*,#309,.T.);
#410=ORIENTED_EDGE('',*,*,#317,.F.);
#411=ORIENTED_EDGE('',*,*,#308,.F.);
#412=ORIENTED_EDGE('',*,*,#318,.F.);
#413=ORIENTED_EDGE('',*,*,#319,.F.);
#414=ORIENTED_EDGE('',*,*,#320,.T.);
#415=ORIENTED_EDGE('',*,*,#321,.T.);
#416=ORIENTED_EDGE('',*,*,#314,.F.);
#417=ORIENTED_EDGE('',*,*,#319,.T.);
#418=ORIENTED_EDGE('',*,*,#313,.F.);
#419=ORIENTED_EDGE('',*,*,#310,.F.);
#420=ORIENTED_EDGE('',*,*,#318,.T.);
#421=ORIENTED_EDGE('',*,*,#299,.F.);
#422=ORIENTED_EDGE('',*,*,#322,.T.);
#423=ORIENTED_EDGE('',*,*,#323,.T.);
#424=ORIENTED_EDGE('',*,*,#324,.T.);
#425=ORIENTED_EDGE('',*,*,#325,.T.);
#426=ORIENTED_EDGE('',*,*,#326,.T.);
#427=ORIENTED_EDGE('',*,*,#326,.F.);
#428=ORIENTED_EDGE('',*,*,#327,.F.);
#429=ORIENTED_EDGE('',*,*,#328,.F.);
#430=ORIENTED_EDGE('',*,*,#329,.T.);
#431=ORIENTED_EDGE('',*,*,#325,.F.);
#432=ORIENTED_EDGE('',*,*,#330,.F.);
#433=ORIENTED_EDGE('',*,*,#331,.F.);
#434=ORIENTED_EDGE('',*,*,#332,.T.);
#435=ORIENTED_EDGE('',*,*,#306,.T.);
#436=ORIENTED_EDGE('',*,*,#317,.T.);
#437=ORIENTED_EDGE('',*,*,#312,.T.);
#438=ORIENTED_EDGE('',*,*,#316,.F.);
#439=ORIENTED_EDGE('',*,*,#333,.F.);
#440=ORIENTED_EDGE('',*,*,#334,.F.);
#441=ORIENTED_EDGE('',*,*,#335,.T.);
#442=ORIENTED_EDGE('',*,*,#336,.F.);
#443=ORIENTED_EDGE('',*,*,#337,.F.);
#444=ORIENTED_EDGE('',*,*,#338,.F.);
#445=ORIENTED_EDGE('',*,*,#339,.F.);
#446=ORIENTED_EDGE('',*,*,#340,.F.);
#447=ORIENTED_EDGE('',*,*,#341,.T.);
#448=ORIENTED_EDGE('',*,*,#342,.F.);
#449=ORIENTED_EDGE('',*,*,#343,.F.);
#450=ORIENTED_EDGE('',*,*,#344,.F.);
#451=ORIENTED_EDGE('',*,*,#345,.F.);
#452=ORIENTED_EDGE('',*,*,#346,.F.);
#453=ORIENTED_EDGE('',*,*,#327,.T.);
#454=ORIENTED_EDGE('',*,*,#344,.T.);
#455=ORIENTED_EDGE('',*,*,#347,.T.);
#456=ORIENTED_EDGE('',*,*,#348,.T.);
#457=ORIENTED_EDGE('',*,*,#349,.T.);
#458=ORIENTED_EDGE('',*,*,#347,.F.);
#459=ORIENTED_EDGE('',*,*,#343,.T.);
#460=ORIENTED_EDGE('',*,*,#350,.F.);
#461=ORIENTED_EDGE('',*,*,#351,.T.);
#462=ORIENTED_EDGE('',*,*,#352,.T.);
#463=ORIENTED_EDGE('',*,*,#350,.T.);
#464=ORIENTED_EDGE('',*,*,#342,.T.);
#465=ORIENTED_EDGE('',*,*,#353,.T.);
#466=ORIENTED_EDGE('',*,*,#353,.F.);
#467=ORIENTED_EDGE('',*,*,#341,.F.);
#468=ORIENTED_EDGE('',*,*,#354,.F.);
#469=ORIENTED_EDGE('',*,*,#355,.T.);
#470=ORIENTED_EDGE('',*,*,#338,.T.);
#471=ORIENTED_EDGE('',*,*,#356,.T.);
#472=ORIENTED_EDGE('',*,*,#357,.T.);
#473=ORIENTED_EDGE('',*,*,#358,.T.);
#474=ORIENTED_EDGE('',*,*,#356,.F.);
#475=ORIENTED_EDGE('',*,*,#337,.T.);
#476=ORIENTED_EDGE('',*,*,#359,.F.);
#477=ORIENTED_EDGE('',*,*,#360,.T.);
#478=ORIENTED_EDGE('',*,*,#361,.T.);
#479=ORIENTED_EDGE('',*,*,#359,.T.);
#480=ORIENTED_EDGE('',*,*,#336,.T.);
#481=ORIENTED_EDGE('',*,*,#362,.T.);
#482=ORIENTED_EDGE('',*,*,#358,.F.);
#483=ORIENTED_EDGE('',*,*,#363,.F.);
#484=ORIENTED_EDGE('',*,*,#364,.F.);
#485=ORIENTED_EDGE('',*,*,#339,.T.);
#486=ORIENTED_EDGE('',*,*,#362,.F.);
#487=ORIENTED_EDGE('',*,*,#335,.F.);
#488=ORIENTED_EDGE('',*,*,#365,.F.);
#489=ORIENTED_EDGE('',*,*,#366,.T.);
#490=ORIENTED_EDGE('',*,*,#349,.F.);
#491=ORIENTED_EDGE('',*,*,#367,.F.);
#492=ORIENTED_EDGE('',*,*,#368,.F.);
#493=ORIENTED_EDGE('',*,*,#345,.T.);
#494=ORIENTED_EDGE('',*,*,#324,.F.);
#495=ORIENTED_EDGE('',*,*,#369,.T.);
#496=ORIENTED_EDGE('',*,*,#370,.T.);
#497=ORIENTED_EDGE('',*,*,#330,.T.);
#498=ORIENTED_EDGE('',*,*,#368,.T.);
#499=ORIENTED_EDGE('',*,*,#371,.T.);
#500=ORIENTED_EDGE('',*,*,#328,.T.);
#501=ORIENTED_EDGE('',*,*,#346,.T.);
#502=ORIENTED_EDGE('',*,*,#364,.T.);
#503=ORIENTED_EDGE('',*,*,#372,.T.);
#504=ORIENTED_EDGE('',*,*,#354,.T.);
#505=ORIENTED_EDGE('',*,*,#340,.T.);
#506=ORIENTED_EDGE('',*,*,#365,.T.);
#507=ORIENTED_EDGE('',*,*,#334,.T.);
#508=ORIENTED_EDGE('',*,*,#373,.F.);
#509=ORIENTED_EDGE('',*,*,#374,.T.);
#510=ORIENTED_EDGE('',*,*,#375,.T.);
#511=ORIENTED_EDGE('',*,*,#331,.T.);
#512=ORIENTED_EDGE('',*,*,#370,.F.);
#513=ORIENTED_EDGE('',*,*,#376,.F.);
#514=ORIENTED_EDGE('',*,*,#323,.F.);
#515=ORIENTED_EDGE('',*,*,#329,.F.);
#516=ORIENTED_EDGE('',*,*,#371,.F.);
#517=ORIENTED_EDGE('',*,*,#367,.T.);
#518=ORIENTED_EDGE('',*,*,#348,.F.);
#519=ORIENTED_EDGE('',*,*,#351,.F.);
#520=ORIENTED_EDGE('',*,*,#352,.F.);
#521=ORIENTED_EDGE('',*,*,#355,.F.);
#522=ORIENTED_EDGE('',*,*,#372,.F.);
#523=ORIENTED_EDGE('',*,*,#363,.T.);
#524=ORIENTED_EDGE('',*,*,#357,.F.);
#525=ORIENTED_EDGE('',*,*,#360,.F.);
#526=ORIENTED_EDGE('',*,*,#361,.F.);
#527=ORIENTED_EDGE('',*,*,#366,.F.);
#528=ORIENTED_EDGE('',*,*,#374,.F.);
#529=ORIENTED_EDGE('',*,*,#377,.F.);
#530=ORIENTED_EDGE('',*,*,#378,.T.);
#531=ORIENTED_EDGE('',*,*,#376,.T.);
#532=ORIENTED_EDGE('',*,*,#369,.F.);
#533=ORIENTED_EDGE('',*,*,#321,.F.);
#534=ORIENTED_EDGE('',*,*,#379,.T.);
#535=ORIENTED_EDGE('',*,*,#377,.T.);
#536=ORIENTED_EDGE('',*,*,#373,.T.);
#537=ORIENTED_EDGE('',*,*,#333,.T.);
#538=ORIENTED_EDGE('',*,*,#315,.F.);
#539=ORIENTED_EDGE('',*,*,#320,.F.);
#540=ORIENTED_EDGE('',*,*,#322,.F.);
#541=ORIENTED_EDGE('',*,*,#303,.F.);
#542=ORIENTED_EDGE('',*,*,#332,.F.);
#543=ORIENTED_EDGE('',*,*,#375,.F.);
#544=ORIENTED_EDGE('',*,*,#378,.F.);
#545=ORIENTED_EDGE('',*,*,#379,.F.);
#546=PLANE('',#622);
#547=PLANE('',#623);
#548=PLANE('',#624);
#549=PLANE('',#625);
#550=PLANE('',#626);
#551=PLANE('',#627);
#552=PLANE('',#628);
#553=PLANE('',#629);
#554=PLANE('',#630);
#555=PLANE('',#631);
#556=PLANE('',#632);
#557=PLANE('',#633);
#558=PLANE('',#634);
#559=PLANE('',#635);
#560=PLANE('',#636);
#561=PLANE('',#637);
#562=PLANE('',#638);
#563=PLANE('',#639);
#564=PLANE('',#640);
#565=PLANE('',#641);
#566=PLANE('',#642);
#567=PLANE('',#643);
#568=PLANE('',#644);
#569=PLANE('',#645);
#570=PLANE('',#646);
#571=PLANE('',#647);
#572=PLANE('',#648);
#573=PLANE('',#649);
#574=PLANE('',#650);
#575=PLANE('',#651);
#576=PLANE('',#652);
#577=ADVANCED_FACE('',(#15),#546,.T.);
#578=ADVANCED_FACE('',(#16),#547,.T.);
#579=ADVANCED_FACE('',(#17),#548,.T.);
#580=ADVANCED_FACE('',(#18),#549,.T.);
#581=ADVANCED_FACE('',(#19),#550,.T.);
#582=ADVANCED_FACE('',(#20),#551,.T.);
#583=ADVANCED_FACE('',(#21),#552,.T.);
#584=ADVANCED_FACE('',(#22),#553,.F.);
#585=ADVANCED_FACE('',(#23),#554,.T.);
#586=ADVANCED_FACE('',(#24),#555,.T.);
#587=ADVANCED_FACE('',(#25),#556,.T.);
#588=ADVANCED_FACE('',(#26),#557,.T.);
#589=ADVANCED_FACE('',(#27),#558,.T.);
#590=ADVANCED_FACE('',(#28),#559,.T.);
#591=ADVANCED_FACE('',(#29),#560,.T.);
#592=ADVANCED_FACE('',(#30),#561,.T.);
#593=ADVANCED_FACE('',(#31),#562,.T.);
#594=ADVANCED_FACE('',(#32),#563,.T.);
#595=ADVANCED_FACE('',(#33),#564,.T.);
#596=ADVANCED_FACE('',(#34),#565,.T.);
#597=ADVANCED_FACE('',(#35),#566,.T.);
#598=ADVANCED_FACE('',(#36),#567,.T.);
#599=ADVANCED_FACE('',(#37),#568,.T.);
#600=ADVANCED_FACE('',(#38),#569,.T.);
#601=ADVANCED_FACE('',(#39),#570,.T.);
#602=ADVANCED_FACE('',(#40),#571,.T.);
#603=ADVANCED_FACE('',(#41),#572,.T.);
#604=ADVANCED_FACE('',(#42),#573,.T.);
#605=ADVANCED_FACE('',(#43),#574,.T.);
#606=ADVANCED_FACE('',(#44),#575,.T.);
#607=ADVANCED_FACE('',(#45),#576,.F.);
#608=CLOSED_SHELL('',(#577,#578,#579,#580,#581,#582,#583,#584,#585,#586, #587,#588,#589,#590,#591,#592,#593,#594,#595,#596,#597,#598,#599,#600,#601, #602,#603,#604,#605,#606,#607));
#609=DERIVED_UNIT_ELEMENT(#611,1.);
#610=DERIVED_UNIT_ELEMENT(#974,-3.);
#611=( MASS_UNIT() NAMED_UNIT(*) SI_UNIT(.KILO.,.GRAM.) );
#612=DERIVED_UNIT((#609,#610));
#613=MEASURE_REPRESENTATION_ITEM('density measure', POSITIVE_RATIO_MEASURE(7850.),#612);
#614=PROPERTY_DEFINITION_REPRESENTATION(#619,#616);
#615=PROPERTY_DEFINITION_REPRESENTATION(#620,#617);
#616=REPRESENTATION('material name',(#618),#971);
#617=REPRESENTATION('density',(#613),#971);
#618=DESCRIPTIVE_REPRESENTATION_ITEM('Steel','Steel');
#619=PROPERTY_DEFINITION('material property','material name',#981);
#620=PROPERTY_DEFINITION('material property','density of part',#981);
#621=AXIS2_PLACEMENT_3D('',#800,#653,#654);
#622=AXIS2_PLACEMENT_3D('',#801,#655,#656);
#623=AXIS2_PLACEMENT_3D('',#810,#661,#662);
#624=AXIS2_PLACEMENT_3D('',#816,#666,#667);
#625=AXIS2_PLACEMENT_3D('',#822,#671,#672);
#626=AXIS2_PLACEMENT_3D('',#825,#675,#676);
#627=AXIS2_PLACEMENT_3D('',#826,#677,#678);
#628=AXIS2_PLACEMENT_3D('',#835,#683,#684);
#629=AXIS2_PLACEMENT_3D('',#843,#689,#690);
#630=AXIS2_PLACEMENT_3D('',#846,#693,#694);
#631=AXIS2_PLACEMENT_3D('',#852,#698,#699);
#632=AXIS2_PLACEMENT_3D('',#854,#701,#702);
#633=AXIS2_PLACEMENT_3D('',#863,#707,#708);
#634=AXIS2_PLACEMENT_3D('',#869,#712,#713);
#635=AXIS2_PLACEMENT_3D('',#902,#731,#732);
#636=AXIS2_PLACEMENT_3D('',#908,#736,#737);
#637=AXIS2_PLACEMENT_3D('',#912,#740,#741);
#638=AXIS2_PLACEMENT_3D('',#916,#744,#745);
#639=AXIS2_PLACEMENT_3D('',#920,#748,#749);
#640=AXIS2_PLACEMENT_3D('',#926,#753,#754);
#641=AXIS2_PLACEMENT_3D('',#930,#757,#758);
#642=AXIS2_PLACEMENT_3D('',#934,#761,#762);
#643=AXIS2_PLACEMENT_3D('',#938,#765,#766);
#644=AXIS2_PLACEMENT_3D('',#942,#769,#770);
#645=AXIS2_PLACEMENT_3D('',#946,#773,#774);
#646=AXIS2_PLACEMENT_3D('',#950,#777,#778);
#647=AXIS2_PLACEMENT_3D('',#952,#780,#781);
#648=AXIS2_PLACEMENT_3D('',#954,#783,#784);
#649=AXIS2_PLACEMENT_3D('',#958,#787,#788);
#650=AXIS2_PLACEMENT_3D('',#962,#791,#792);
#651=AXIS2_PLACEMENT_3D('',#966,#795,#796);
#652=AXIS2_PLACEMENT_3D('',#968,#798,#799);
#653=DIRECTION('axis',(0.,0.,1.));
#654=DIRECTION('refdir',(1.,0.,0.));
#655=DIRECTION('center_axis',(-0.5,0.866025403784439,0.));
#656=DIRECTION('ref_axis',(0.,0.,1.));
#657=DIRECTION('',(0.,0.,-1.));
#658=DIRECTION('',(0.654653670707977,0.377964473009227,0.654653670707977));
#659=DIRECTION('',(0.,0.,1.));
#660=DIRECTION('',(0.654653670707977,0.377964473009227,-0.654653670707978));
#661=DIRECTION('center_axis',(1.00461342579511E-33,0.866025403784438,-0.5));
#662=DIRECTION('ref_axis',(-1.,1.16002766362863E-33,0.));
#663=DIRECTION('',(1.,-1.16002766362863E-33,0.));
#664=DIRECTION('',(-0.654653670707977,0.377964473009227,0.654653670707977));
#665=DIRECTION('',(-1.,1.16002766362863E-33,0.));
#666=DIRECTION('center_axis',(0.5,0.866025403784439,0.));
#667=DIRECTION('ref_axis',(0.,0.,-1.));
#668=DIRECTION('',(0.,0.,1.));
#669=DIRECTION('',(-0.654653670707977,0.377964473009227,-0.654653670707978));
#670=DIRECTION('',(0.,0.,1.));
#671=DIRECTION('center_axis',(1.00461342579511E-33,0.866025403784439,0.5));
#672=DIRECTION('ref_axis',(1.,-1.16002766362863E-33,0.));
#673=DIRECTION('',(-1.,1.16002766362863E-33,0.));
#674=DIRECTION('',(1.,-1.16002766362863E-33,0.));
#675=DIRECTION('center_axis',(1.16002766362863E-33,1.,0.));
#676=DIRECTION('ref_axis',(-1.,1.16002766362863E-33,-8.72391479070012E-17));
#677=DIRECTION('center_axis',(0.,1.,0.));
#678=DIRECTION('ref_axis',(-1.,0.,0.));
#679=DIRECTION('',(1.,0.,0.));
#680=DIRECTION('',(0.,0.,1.));
#681=DIRECTION('',(-1.,0.,0.));
#682=DIRECTION('',(0.,0.,1.));
#683=DIRECTION('center_axis',(0.,0.,1.));
#684=DIRECTION('ref_axis',(1.,0.,0.));
#685=DIRECTION('',(0.,-1.,0.));
#686=DIRECTION('',(0.707106781186547,-0.707106781186548,-4.9065389333868E-17));
#687=DIRECTION('',(1.,1.3754719342187E-16,1.20353794244136E-16));
#688=DIRECTION('',(0.,1.,4.95635278850516E-17));
#689=DIRECTION('center_axis',(0.,0.,-1.));
#690=DIRECTION('ref_axis',(-1.,0.,0.));
#691=DIRECTION('',(0.,-1.,0.));
#692=DIRECTION('',(3.68558454726374E-33,1.,0.));
#693=DIRECTION('center_axis',(-0.707106781186548,-0.707106781186547,0.));
#694=DIRECTION('ref_axis',(0.,0.,1.));
#695=DIRECTION('',(0.,0.,1.));
#696=DIRECTION('',(0.707106781186547,-0.707106781186548,0.));
#697=DIRECTION('',(0.,0.,1.));
#698=DIRECTION('center_axis',(-1.,3.68558454726374E-33,0.));
#699=DIRECTION('ref_axis',(-3.68558454726374E-33,-1.,2.89498114576658E-17));
#700=DIRECTION('',(-3.68558454726374E-33,-1.,0.));
#701=DIRECTION('center_axis',(0.,0.707106781186547,0.707106781186548));
#702=DIRECTION('ref_axis',(1.,0.,0.));
#703=DIRECTION('',(-3.06658683336675E-18,-0.707106781186548,0.707106781186547));
#704=DIRECTION('',(1.,0.,0.));
#705=DIRECTION('',(0.,0.707106781186548,-0.707106781186547));
#706=DIRECTION('',(-1.,0.,0.));
#707=DIRECTION('center_axis',(0.,1.,0.));
#708=DIRECTION('ref_axis',(-1.,0.,0.));
#709=DIRECTION('',(0.,0.,1.));
#710=DIRECTION('',(1.,0.,0.));
#711=DIRECTION('',(0.,0.,1.));
#712=DIRECTION('center_axis',(1.,0.,0.));
#713=DIRECTION('ref_axis',(0.,1.,1.32970998853089E-17));
#714=DIRECTION('',(0.,1.,0.));
#715=DIRECTION('',(0.,0.,1.));
#716=DIRECTION('',(0.,1.,0.));
#717=DIRECTION('',(0.,0.,1.));
#718=DIRECTION('',(0.,1.,0.));
#719=DIRECTION('',(0.,0.,1.));
#720=DIRECTION('',(0.,0.707106781186547,-0.707106781186548));
#721=DIRECTION('',(0.,1.,0.));
#722=DIRECTION('',(0.,0.707106781186548,0.707106781186547));
#723=DIRECTION('',(0.,0.,1.));
#724=DIRECTION('',(0.,1.,0.));
#725=DIRECTION('',(0.,0.,1.));
#726=DIRECTION('',(0.,0.707106781186548,-0.707106781186547));
#727=DIRECTION('',(0.,1.,0.));
#728=DIRECTION('',(0.,0.707106781186548,0.707106781186547));
#729=DIRECTION('',(0.,0.,1.));
#730=DIRECTION('',(0.,1.,0.));
#731=DIRECTION('center_axis',(0.,-0.707106781186547,0.707106781186548));
#732=DIRECTION('ref_axis',(1.,0.,0.));
#733=DIRECTION('',(-1.,0.,0.));
#734=DIRECTION('',(-3.06658683336675E-18,-0.707106781186548,-0.707106781186547));
#735=DIRECTION('',(1.,0.,0.));
#736=DIRECTION('center_axis',(0.,0.,1.));
#737=DIRECTION('ref_axis',(1.,0.,0.));
#738=DIRECTION('',(1.,0.,0.));
#739=DIRECTION('',(0.,-1.,0.));
#740=DIRECTION('center_axis',(0.,0.707106781186547,0.707106781186548));
#741=DIRECTION('ref_axis',(1.,0.,0.));
#742=DIRECTION('',(-3.06658683336675E-18,-0.707106781186548,0.707106781186547));
#743=DIRECTION('',(-1.,0.,0.));
#744=DIRECTION('center_axis',(0.,1.,0.));
#745=DIRECTION('ref_axis',(-1.,0.,0.));
#746=DIRECTION('',(1.,0.,0.));
#747=DIRECTION('',(0.,0.,1.));
#748=DIRECTION('center_axis',(0.,-0.707106781186547,0.707106781186548));
#749=DIRECTION('ref_axis',(1.,0.,0.));
#750=DIRECTION('',(-1.,0.,0.));
#751=DIRECTION('',(-3.06658683336675E-18,-0.707106781186548,-0.707106781186547));
#752=DIRECTION('',(1.,0.,0.));
#753=DIRECTION('center_axis',(0.,0.,1.));
#754=DIRECTION('ref_axis',(1.,0.,0.));
#755=DIRECTION('',(1.,0.,0.));
#756=DIRECTION('',(0.,-1.,0.));
#757=DIRECTION('center_axis',(0.,0.707106781186548,0.707106781186547));
#758=DIRECTION('ref_axis',(1.,0.,0.));
#759=DIRECTION('',(-3.06658683336675E-18,-0.707106781186547,0.707106781186548));
#760=DIRECTION('',(-1.,0.,0.));
#761=DIRECTION('center_axis',(0.,-1.,0.));
#762=DIRECTION('ref_axis',(1.,0.,0.));
#763=DIRECTION('',(0.,0.,1.));
#764=DIRECTION('',(-1.,0.,0.));
#765=DIRECTION('center_axis',(0.,1.,0.));
#766=DIRECTION('ref_axis',(-1.,0.,0.));
#767=DIRECTION('',(1.,0.,0.));
#768=DIRECTION('',(0.,0.,1.));
#769=DIRECTION('center_axis',(0.,-1.,0.));
#770=DIRECTION('ref_axis',(1.,0.,0.));
#771=DIRECTION('',(0.,0.,1.));
#772=DIRECTION('',(-1.,0.,0.));
#773=DIRECTION('center_axis',(0.,0.,1.));
#774=DIRECTION('ref_axis',(1.,0.,0.));
#775=DIRECTION('',(0.,-1.,0.));
#776=DIRECTION('',(1.,0.,0.));
#777=DIRECTION('center_axis',(0.,0.,1.));
#778=DIRECTION('ref_axis',(1.,0.,0.));
#779=DIRECTION('',(4.33680868994202E-18,1.,0.));
#780=DIRECTION('center_axis',(0.,0.,1.));
#781=DIRECTION('ref_axis',(1.,0.,0.));
#782=DIRECTION('',(4.33680868994202E-18,1.,0.));
#783=DIRECTION('center_axis',(0.,0.,1.));
#784=DIRECTION('ref_axis',(1.,0.,0.));
#785=DIRECTION('',(1.,1.1023326484261E-16,0.));
#786=DIRECTION('',(4.33680868994202E-18,1.,0.));
#787=DIRECTION('center_axis',(0.,-1.,0.));
#788=DIRECTION('ref_axis',(1.,0.,0.));
#789=DIRECTION('',(1.,0.,0.));
#790=DIRECTION('',(0.,0.,1.));
#791=DIRECTION('center_axis',(-1.,4.33680868994202E-18,0.));
#792=DIRECTION('ref_axis',(-4.33680868994202E-18,-1.,0.));
#793=DIRECTION('',(0.,0.,1.));
#794=DIRECTION('',(4.33680868994202E-18,1.,0.));
#795=DIRECTION('center_axis',(1.1023326484261E-16,-1.,0.));
#796=DIRECTION('ref_axis',(1.,1.1023326484261E-16,6.37490173333008E-17));
#797=DIRECTION('',(1.,1.1023326484261E-16,0.));
#798=DIRECTION('center_axis',(0.,0.,1.));
#799=DIRECTION('ref_axis',(1.,0.,0.));
#800=CARTESIAN_POINT('',(0.0,0.0,0.0));
#801=CARTESIAN_POINT('Origin',(-15.11097785195748,-2.486891937265854,3.737001472318986));
#802=CARTESIAN_POINT('',(-11.99328639833346,-0.686891937265854,0.619310018695008));
#803=CARTESIAN_POINT('',(-11.99328639833346,-0.686891937265854,-0.94530707405703));
#804=CARTESIAN_POINT('',(-11.99328639833346,-0.686891937265854,-4.662998527681014));
#805=CARTESIAN_POINT('',(-15.11097785195748,-2.486891937265854,-4.062998527681009));
#806=CARTESIAN_POINT('',(-13.4395492805289,-1.521892201620336,-2.39156995625244));
#807=CARTESIAN_POINT('',(-15.11097785195748,-2.486891937265854,3.737001472318986));
#808=CARTESIAN_POINT('',(-15.11097785195748,-2.486891937265854,-4.662998527681014));
#809=CARTESIAN_POINT('',(-8.63639141415414,1.25121228549138,-2.737584965484324));
#810=CARTESIAN_POINT('Origin',(-15.11097785195748,-2.486891937265854,-4.062998527681009));
#811=CARTESIAN_POINT('',(11.98606740416736,-0.686891937265854,-0.945307074057036));
#812=CARTESIAN_POINT('',(7.55007468035412,-0.686891937265854,-0.94530707405703));
#813=CARTESIAN_POINT('',(15.10375885779132,-2.486891937265854,-4.062998527681009));
#814=CARTESIAN_POINT('',(8.62917241998804,1.251212285491392,2.411587910122302));
#815=CARTESIAN_POINT('',(7.55007468035412,-2.486891937265854,-4.062998527681009));
#816=CARTESIAN_POINT('Origin',(15.10375885779132,-2.486891937265854,-4.062998527681009));
#817=CARTESIAN_POINT('',(11.98606740416736,-0.686891937265854,0.619310018695008));
#818=CARTESIAN_POINT('',(11.98606740416736,-0.686891937265854,-4.662998527681008));
#819=CARTESIAN_POINT('',(15.10375885779132,-2.486891937265854,3.737001472318992));
#820=CARTESIAN_POINT('',(13.43233028636274,-1.521892201620336,2.065572900890418));
#821=CARTESIAN_POINT('',(15.10375885779132,-2.486891937265854,-4.662998527681008));
#822=CARTESIAN_POINT('Origin',(15.10375885779132,-2.486891937265854,3.737001472318992));
#823=CARTESIAN_POINT('',(7.55007468035412,-0.686891937265854,0.619310018695008));
#824=CARTESIAN_POINT('',(7.55007468035412,-2.486891937265854,3.737001472318986));
#825=CARTESIAN_POINT('Origin',(15.10375885779132,-0.686891937265854,-4.662998527681008));
#826=CARTESIAN_POINT('Origin',(15.10375885779132,-11.48689193726586,3.737001472318986));
#827=CARTESIAN_POINT('',(-15.11097785195748,-11.48689193726586,3.737001472318986));
#828=CARTESIAN_POINT('',(15.10375885779132,-11.48689193726586,3.737001472318986));
#829=CARTESIAN_POINT('',(7.55007468035412,-11.48689193726586,3.737001472318986));
#830=CARTESIAN_POINT('',(-15.11097785195748,-11.48689193726586,9.13700147231898));
#831=CARTESIAN_POINT('',(-15.11097785195748,-11.48689193726586,3.737001472318986));
#832=CARTESIAN_POINT('',(15.10375885779132,-11.48689193726586,9.13700147231898));
#833=CARTESIAN_POINT('',(-15.11097785195748,-11.48689193726586,9.13700147231898));
#834=CARTESIAN_POINT('',(15.10375885779132,-11.48689193726586,3.737001472318986));
#835=CARTESIAN_POINT('Origin',(-0.003609497083060242,-10.88689193726586,9.13700147231898));
#836=CARTESIAN_POINT('',(-15.11097785195748,-13.28689193726586,9.13700147231898));
#837=CARTESIAN_POINT('',(-15.11097785195748,-2.486891937265854,9.13700147231898));
#838=CARTESIAN_POINT('',(-9.11097785195748,-19.28689193726586,9.13700147231898));
#839=CARTESIAN_POINT('',(-15.11097785195748,-13.28689193726586,9.13700147231898));
#840=CARTESIAN_POINT('',(15.10375885779132,-19.28689193726586,9.13700147231898));
#841=CARTESIAN_POINT('',(-9.11097785195748,-19.28689193726586,9.13700147231898));
#842=CARTESIAN_POINT('',(15.10375885779132,-19.28689193726586,9.13700147231898));
#843=CARTESIAN_POINT('Origin',(-0.003609497083060242,-10.58689193726586,3.737001472318986));
#844=CARTESIAN_POINT('',(15.10375885779132,-14.93689193726586,3.737001472318986));
#845=CARTESIAN_POINT('',(-15.11097785195748,-6.53689193726586,3.737001472318986));
#846=CARTESIAN_POINT('Origin',(-12.11097785195748,-16.28689193726586,-4.662998527681014));
#847=CARTESIAN_POINT('',(-15.11097785195748,-13.28689193726586,-4.062998527681009));
#848=CARTESIAN_POINT('',(-15.11097785195748,-13.28689193726586,3.737001472318986));
#849=CARTESIAN_POINT('',(-9.11097785195748,-19.28689193726586,-4.062998527681009));
#850=CARTESIAN_POINT('',(-10.50913576323888,-17.88873402598446,-4.062998527681009));
#851=CARTESIAN_POINT('',(-9.11097785195748,-19.28689193726586,3.737001472318986));
#852=CARTESIAN_POINT('Origin',(-15.11097785195748,-2.486891937265854,-4.662998527681014));
#853=CARTESIAN_POINT('',(-15.11097785195748,-6.53689193726586,-4.062998527681009));
#854=CARTESIAN_POINT('Origin',(12.85375885779132,-99.4017343359072,-0.4629985276810104));
#855=CARTESIAN_POINT('',(6.10375885779132,-98.2017343359072,-1.662998527681008));
#856=CARTESIAN_POINT('',(6.10375885779132,-100.6017343359072,0.737001472318992));
#857=CARTESIAN_POINT('',(6.10375885779132,-78.473023736247,-21.3917091273414));
#858=CARTESIAN_POINT('',(15.10375885779132,-100.6017343359072,0.737001472318992));
#859=CARTESIAN_POINT('',(12.85375885779132,-100.6017343359072,0.737001472318992));
#860=CARTESIAN_POINT('',(15.10375885779132,-98.2017343359072,-1.662998527681008));
#861=CARTESIAN_POINT('',(15.10375885779132,-78.323023736247,-21.5417091273414));
#862=CARTESIAN_POINT('',(12.85375885779132,-98.2017343359072,-1.662998527681008));
#863=CARTESIAN_POINT('Origin',(15.10375885779132,-98.2017343359072,-2.862998527681008));
#864=CARTESIAN_POINT('',(15.10375885779132,-98.2017343359072,-2.862998527681008));
#865=CARTESIAN_POINT('',(15.10375885779132,-98.2017343359072,-2.862998527681008));
#866=CARTESIAN_POINT('',(6.10375885779132,-98.2017343359072,-2.862998527681008));
#867=CARTESIAN_POINT('',(7.55007468035412,-98.2017343359072,-2.862998527681008));
#868=CARTESIAN_POINT('',(6.10375885779132,-98.2017343359072,-2.862998527681008));
#869=CARTESIAN_POINT('Origin',(15.10375885779132,-19.28689193726586,-4.662998527681008));
#870=CARTESIAN_POINT('',(15.10375885779132,-115.2868919372658,0.737001472318992));
#871=CARTESIAN_POINT('',(15.10375885779132,-98.2017343359072,0.737001472318992));
#872=CARTESIAN_POINT('',(15.10375885779132,-115.2868919372658,-4.062998527681009));
#873=CARTESIAN_POINT('',(15.10375885779132,-115.2868919372658,-4.062998527681009));
#874=CARTESIAN_POINT('',(15.10375885779132,-14.93689193726586,-4.062998527681009));
#875=CARTESIAN_POINT('',(15.10375885779132,-19.28689193726586,-2.862998527681008));
#876=CARTESIAN_POINT('',(15.10375885779132,-19.28689193726586,3.737001472318992));
#877=CARTESIAN_POINT('',(15.10375885779132,-22.28689193726586,-2.862998527681008));
#878=CARTESIAN_POINT('',(15.10375885779132,-115.2868919372658,-2.862998527681008));
#879=CARTESIAN_POINT('',(15.10375885779132,-22.28689193726586,-1.662998527681008));
#880=CARTESIAN_POINT('',(15.10375885779132,-22.28689193726586,-2.862998527681008));
#881=CARTESIAN_POINT('',(15.10375885779132,-24.68689193726586,0.737001472318992));
#882=CARTESIAN_POINT('',(15.10375885779132,-21.38689193726586,-2.562998527681008));
#883=CARTESIAN_POINT('',(15.10375885779132,-54.84431313658662,0.737001472318992));
#884=CARTESIAN_POINT('',(15.10375885779132,-22.28689193726586,0.737001472318992));
#885=CARTESIAN_POINT('',(15.10375885779132,-57.24431313658663,-1.662998527681008));
#886=CARTESIAN_POINT('',(15.10375885779132,-47.9049578367564,7.6763567721492));
#887=CARTESIAN_POINT('',(15.10375885779132,-57.24431313658663,-2.862998527681008));
#888=CARTESIAN_POINT('',(15.10375885779132,-57.24431313658663,-2.862998527681008));
#889=CARTESIAN_POINT('',(15.10375885779132,-60.2443131365868,-2.862998527681008));
#890=CARTESIAN_POINT('',(15.10375885779132,-115.2868919372658,-2.862998527681008));
#891=CARTESIAN_POINT('',(15.10375885779132,-60.2443131365868,-1.662998527681008));
#892=CARTESIAN_POINT('',(15.10375885779132,-60.2443131365868,-2.862998527681008));
#893=CARTESIAN_POINT('',(15.10375885779132,-62.6443131365868,0.737001472318992));
#894=CARTESIAN_POINT('',(15.10375885779132,-49.8549578367564,-12.05235382751118));
#895=CARTESIAN_POINT('',(15.10375885779132,-92.8017343359072,0.737001472318992));
#896=CARTESIAN_POINT('',(15.10375885779132,-60.2443131365868,0.737001472318992));
#897=CARTESIAN_POINT('',(15.10375885779132,-95.2017343359072,-1.662998527681008));
#898=CARTESIAN_POINT('',(15.10375885779132,-76.373023736247,17.16571207197936));
#899=CARTESIAN_POINT('',(15.10375885779132,-95.2017343359072,-2.862998527681008));
#900=CARTESIAN_POINT('',(15.10375885779132,-95.2017343359072,-2.862998527681008));
#901=CARTESIAN_POINT('',(15.10375885779132,-115.2868919372658,-2.862998527681008));
#902=CARTESIAN_POINT('Origin',(8.35375885779132,-94.0017343359072,-0.4629985276810104));
#903=CARTESIAN_POINT('',(6.10375885779132,-92.8017343359072,0.737001472318992));
#904=CARTESIAN_POINT('',(8.35375885779132,-92.8017343359072,0.737001472318992));
#905=CARTESIAN_POINT('',(6.10375885779132,-95.2017343359072,-1.662998527681008));
#906=CARTESIAN_POINT('',(6.10375885779132,-76.223023736247,17.31571207197936));
#907=CARTESIAN_POINT('',(8.35375885779132,-95.2017343359072,-1.662998527681008));
#908=CARTESIAN_POINT('Origin',(10.60375885779132,-68.7868919372658,0.737001472318992));
#909=CARTESIAN_POINT('',(6.10375885779132,-62.6443131365868,0.737001472318992));
#910=CARTESIAN_POINT('',(12.85375885779132,-62.6443131365868,0.737001472318992));
#911=CARTESIAN_POINT('',(6.10375885779132,-95.2017343359072,0.737001472318992));
#912=CARTESIAN_POINT('Origin',(12.85375885779132,-61.4443131365868,-0.4629985276810104));
#913=CARTESIAN_POINT('',(6.10375885779132,-60.2443131365868,-1.662998527681008));
#914=CARTESIAN_POINT('',(6.10375885779132,-50.0049578367564,-11.90235382751118));
#915=CARTESIAN_POINT('',(12.85375885779132,-60.2443131365868,-1.662998527681008));
#916=CARTESIAN_POINT('Origin',(15.10375885779132,-60.2443131365868,-2.862998527681008));
#917=CARTESIAN_POINT('',(6.10375885779132,-60.2443131365868,-2.862998527681008));
#918=CARTESIAN_POINT('',(7.55007468035412,-60.2443131365868,-2.862998527681008));
#919=CARTESIAN_POINT('',(6.10375885779132,-60.2443131365868,-2.862998527681008));
#920=CARTESIAN_POINT('Origin',(8.35375885779132,-56.04431313658662,-0.4629985276810104));
#921=CARTESIAN_POINT('',(6.10375885779132,-54.84431313658662,0.737001472318992));
#922=CARTESIAN_POINT('',(8.35375885779132,-54.84431313658662,0.737001472318992));
#923=CARTESIAN_POINT('',(6.10375885779132,-57.24431313658663,-1.662998527681008));
#924=CARTESIAN_POINT('',(6.10375885779132,-47.7549578367564,7.8263567721492));
#925=CARTESIAN_POINT('',(8.35375885779132,-57.24431313658663,-1.662998527681008));
#926=CARTESIAN_POINT('Origin',(10.60375885779132,-68.7868919372658,0.737001472318992));
#927=CARTESIAN_POINT('',(6.10375885779132,-24.68689193726586,0.737001472318992));
#928=CARTESIAN_POINT('',(12.85375885779132,-24.68689193726586,0.737001472318992));
#929=CARTESIAN_POINT('',(6.10375885779132,-57.24431313658663,0.737001472318992));
#930=CARTESIAN_POINT('Origin',(12.85375885779132,-23.48689193726586,-0.4629985276810104));
#931=CARTESIAN_POINT('',(6.10375885779132,-22.28689193726586,-1.662998527681008));
#932=CARTESIAN_POINT('',(6.10375885779132,-21.53689193726586,-2.412998527681014));
#933=CARTESIAN_POINT('',(12.85375885779132,-22.28689193726586,-1.662998527681008));
#934=CARTESIAN_POINT('Origin',(6.10375885779132,-57.24431313658663,-2.862998527681008));
#935=CARTESIAN_POINT('',(6.10375885779132,-57.24431313658663,-2.862998527681008));
#936=CARTESIAN_POINT('',(6.10375885779132,-57.24431313658663,-2.862998527681008));
#937=CARTESIAN_POINT('',(3.050074680354138,-57.24431313658663,-2.862998527681008));
#938=CARTESIAN_POINT('Origin',(15.10375885779132,-22.28689193726586,-2.862998527681008));
#939=CARTESIAN_POINT('',(6.10375885779132,-22.28689193726586,-2.862998527681008));
#940=CARTESIAN_POINT('',(7.55007468035412,-22.28689193726586,-2.862998527681008));
#941=CARTESIAN_POINT('',(6.10375885779132,-22.28689193726586,-2.862998527681008));
#942=CARTESIAN_POINT('Origin',(6.10375885779132,-95.2017343359072,-2.862998527681008));
#943=CARTESIAN_POINT('',(6.10375885779132,-95.2017343359072,-2.862998527681008));
#944=CARTESIAN_POINT('',(6.10375885779132,-95.2017343359072,-2.862998527681008));
#945=CARTESIAN_POINT('',(3.050074680354138,-95.2017343359072,-2.862998527681008));
#946=CARTESIAN_POINT('Origin',(10.60375885779132,-68.7868919372658,0.737001472318992));
#947=CARTESIAN_POINT('',(6.10375885779132,-115.2868919372658,0.737001472318992));
#948=CARTESIAN_POINT('',(6.10375885779132,-115.2868919372658,0.737001472318992));
#949=CARTESIAN_POINT('',(15.10375885779132,-115.2868919372658,0.737001472318992));
#950=CARTESIAN_POINT('Origin',(-0.003609497083060242,-58.88689193726586,-2.862998527681008));
#951=CARTESIAN_POINT('',(6.10375885779132,-39.08689193726586,-2.862998527681008));
#952=CARTESIAN_POINT('Origin',(-0.003609497083060242,-58.88689193726586,-2.862998527681008));
#953=CARTESIAN_POINT('',(6.10375885779132,-39.08689193726586,-2.862998527681008));
#954=CARTESIAN_POINT('Origin',(-0.003609497083060242,-58.88689193726586,-2.862998527681008));
#955=CARTESIAN_POINT('',(6.10375885779132,-19.28689193726586,-2.862998527681008));
#956=CARTESIAN_POINT('',(-7.55729367452028,-19.28689193726586,-2.862998527681008));
#957=CARTESIAN_POINT('',(6.10375885779132,-39.08689193726586,-2.862998527681008));
#958=CARTESIAN_POINT('Origin',(3.103758857791332,-115.2868919372658,-4.062998527681009));
#959=CARTESIAN_POINT('',(6.10375885779132,-115.2868919372658,-4.062998527681009));
#960=CARTESIAN_POINT('',(3.103758857791332,-115.2868919372658,-4.062998527681009));
#961=CARTESIAN_POINT('',(6.10375885779132,-115.2868919372658,-4.062998527681009));
#962=CARTESIAN_POINT('Origin',(6.10375885779132,-19.28689193726586,-4.062998527681009));
#963=CARTESIAN_POINT('',(6.10375885779132,-19.28689193726586,-4.062998527681009));
#964=CARTESIAN_POINT('',(6.10375885779132,-19.28689193726586,-4.362998527681014));
#965=CARTESIAN_POINT('',(6.10375885779132,-14.93689193726586,-4.062998527681009));
#966=CARTESIAN_POINT('Origin',(-15.11097785195748,-19.28689193726586,-4.662998527681008));
#967=CARTESIAN_POINT('',(-7.55729367452028,-19.28689193726586,-4.062998527681009));
#968=CARTESIAN_POINT('Origin',(-0.003609497083060242,-10.58689193726586,-4.062998527681009));
#969=UNCERTAINTY_MEASURE_WITH_UNIT(LENGTH_MEASURE(0.06),#973, 'DISTANCE_ACCURACY_VALUE', 'Maximum model space distance between geometric entities at asserted c onnectivities');
#970=UNCERTAINTY_MEASURE_WITH_UNIT(LENGTH_MEASURE(0.06),#973, 'DISTANCE_ACCURACY_VALUE', 'Maximum model space distance between geometric entities at asserted c onnectivities');
#971=( GEOMETRIC_REPRESENTATION_CONTEXT(3) GLOBAL_UNCERTAINTY_ASSIGNED_CONTEXT((#969)) GLOBAL_UNIT_ASSIGNED_CONTEXT((#973,#975,#976)) REPRESENTATION_CONTEXT('','3D') );
#972=( GEOMETRIC_REPRESENTATION_CONTEXT(3) GLOBAL_UNCERTAINTY_ASSIGNED_CONTEXT((#970)) GLOBAL_UNIT_ASSIGNED_CONTEXT((#973,#975,#976)) REPRESENTATION_CONTEXT('','3D') );
#973=( LENGTH_UNIT() NAMED_UNIT(*) SI_UNIT(.MILLI.,.METRE.) );
#974=( LENGTH_UNIT() NAMED_UNIT(*) SI_UNIT($,.METRE.) );
#975=( NAMED_UNIT(*) PLANE_ANGLE_UNIT() SI_UNIT($,.RADIAN.) );
#976=( NAMED_UNIT(*) SI_UNIT($,.STERADIAN.) SOLID_ANGLE_UNIT() );
#977=SHAPE_DEFINITION_REPRESENTATION(#978,#979);
#978=PRODUCT_DEFINITION_SHAPE('',$,#981);
#979=SHAPE_REPRESENTATION('',(#621),#971);
#980=PRODUCT_DEFINITION_CONTEXT('part definition',#985,'design');
#981=PRODUCT_DEFINITION('Robotic arm','Robotic arm',#982,#980);
#982=PRODUCT_DEFINITION_FORMATION('',$,#987);
#983=PRODUCT_RELATED_PRODUCT_CATEGORY('Robotic arm','Robotic arm',(#987));
#984=APPLICATION_PROTOCOL_DEFINITION('international standard', 'automotive_design',2009,#985);
#985=APPLICATION_CONTEXT( 'Core Data for Automotive Mechanical Design Process');
#986=PRODUCT_CONTEXT('part definition',#985,'mechanical');
#987=PRODUCT('Robotic arm','Robotic arm',$,(#986));
#988=PRESENTATION_STYLE_ASSIGNMENT((#990));
#989=PRESENTATION_STYLE_ASSIGNMENT((#991));
#990=SURFACE_STYLE_USAGE(.BOTH.,#992);
#991=SURFACE_STYLE_USAGE(.BOTH.,#993);
#992=SURFACE_SIDE_STYLE('',(#994));
#993=SURFACE_SIDE_STYLE('',(#995));
#994=SURFACE_STYLE_FILL_AREA(#996);
#995=SURFACE_STYLE_FILL_AREA(#997);
#996=FILL_AREA_STYLE('Steel - Satin',(#998));
#997=FILL_AREA_STYLE('ABS (White)',(#999));
#998=FILL_AREA_STYLE_COLOUR('Steel - Satin',#1000);
#999=FILL_AREA_STYLE_COLOUR('ABS (White)',#1001);
#1000=COLOUR_RGB('Steel - Satin',0.627450980392157,0.627450980392157,0.627450980392157);
#1001=COLOUR_RGB('ABS (White)',0.964705882352941,0.964705882352941,0.952941176470588);
ENDSEC;
END-ISO-10303-21;
