ISO-10303-21;
HEADER;
/* Generated by software containing ST-Developer
 * from STEP Tools, Inc. (www.steptools.com) 
 */

FILE_DESCRIPTION(
/* description */ (''),
/* implementation_level */ '2;1');

FILE_NAME(
/* name */ 'Solar arrays - Zaria.step',
/* time_stamp */ '2024-11-15T18:01:07+01:00',
/* author */ (''),
/* organization */ (''),
/* preprocessor_version */ 'ST-DEVELOPER v20',
/* originating_system */ 'Autodesk Translation Framework v13.20.0.188',

/* authorisation */ '');

FILE_SCHEMA (('AUTOMOTIVE_DESIGN { 1 0 10303 214 3 1 1 }'));
ENDSEC;

DATA;
#10=MECHANICAL_DESIGN_GEOMETRIC_PRESENTATION_REPRESENTATION('',(#13),#2033);
#11=SHAPE_REPRESENTATION_RELATIONSHIP('SRR','None',#2040,#12);
#12=ADVANCED_BREP_SHAPE_REPRESENTATION('',(#14),#2032);
#13=STYLED_ITEM('',(#2050),#14);
#14=MANIFOLD_SOLID_BREP('Body1',#1281);
#15=CYLINDRICAL_SURFACE('',#1351,13.4279758152186);
#16=CIRCLE('',#1349,13.4279758152186);
#17=CIRCLE('',#1352,13.4279758152186);
#18=FACE_OUTER_BOUND('',#80,.T.);
#19=FACE_OUTER_BOUND('',#81,.T.);
#20=FACE_OUTER_BOUND('',#82,.T.);
#21=FACE_OUTER_BOUND('',#83,.T.);
#22=FACE_OUTER_BOUND('',#84,.T.);
#23=FACE_OUTER_BOUND('',#85,.T.);
#24=FACE_OUTER_BOUND('',#86,.T.);
#25=FACE_OUTER_BOUND('',#87,.T.);
#26=FACE_OUTER_BOUND('',#88,.T.);
#27=FACE_OUTER_BOUND('',#89,.T.);
#28=FACE_OUTER_BOUND('',#90,.T.);
#29=FACE_OUTER_BOUND('',#91,.T.);
#30=FACE_OUTER_BOUND('',#92,.T.);
#31=FACE_OUTER_BOUND('',#93,.T.);
#32=FACE_OUTER_BOUND('',#94,.T.);
#33=FACE_OUTER_BOUND('',#95,.T.);
#34=FACE_OUTER_BOUND('',#96,.T.);
#35=FACE_OUTER_BOUND('',#97,.T.);
#36=FACE_OUTER_BOUND('',#98,.T.);
#37=FACE_OUTER_BOUND('',#99,.T.);
#38=FACE_OUTER_BOUND('',#100,.T.);
#39=FACE_OUTER_BOUND('',#101,.T.);
#40=FACE_OUTER_BOUND('',#102,.T.);
#41=FACE_OUTER_BOUND('',#103,.T.);
#42=FACE_OUTER_BOUND('',#104,.T.);
#43=FACE_OUTER_BOUND('',#105,.T.);
#44=FACE_OUTER_BOUND('',#106,.T.);
#45=FACE_OUTER_BOUND('',#107,.T.);
#46=FACE_OUTER_BOUND('',#108,.T.);
#47=FACE_OUTER_BOUND('',#109,.T.);
#48=FACE_OUTER_BOUND('',#110,.T.);
#49=FACE_OUTER_BOUND('',#111,.T.);
#50=FACE_OUTER_BOUND('',#112,.T.);
#51=FACE_OUTER_BOUND('',#113,.T.);
#52=FACE_OUTER_BOUND('',#114,.T.);
#53=FACE_OUTER_BOUND('',#115,.T.);
#54=FACE_OUTER_BOUND('',#116,.T.);
#55=FACE_OUTER_BOUND('',#117,.T.);
#56=FACE_OUTER_BOUND('',#118,.T.);
#57=FACE_OUTER_BOUND('',#119,.T.);
#58=FACE_OUTER_BOUND('',#120,.T.);
#59=FACE_OUTER_BOUND('',#121,.T.);
#60=FACE_OUTER_BOUND('',#122,.T.);
#61=FACE_OUTER_BOUND('',#123,.T.);
#62=FACE_OUTER_BOUND('',#124,.T.);
#63=FACE_OUTER_BOUND('',#125,.T.);
#64=FACE_OUTER_BOUND('',#126,.T.);
#65=FACE_OUTER_BOUND('',#127,.T.);
#66=FACE_OUTER_BOUND('',#128,.T.);
#67=FACE_OUTER_BOUND('',#129,.T.);
#68=FACE_OUTER_BOUND('',#130,.T.);
#69=FACE_OUTER_BOUND('',#131,.T.);
#70=FACE_OUTER_BOUND('',#132,.T.);
#71=FACE_OUTER_BOUND('',#133,.T.);
#72=FACE_OUTER_BOUND('',#134,.T.);
#73=FACE_OUTER_BOUND('',#135,.T.);
#74=FACE_OUTER_BOUND('',#136,.T.);
#75=FACE_OUTER_BOUND('',#137,.T.);
#76=FACE_OUTER_BOUND('',#138,.T.);
#77=FACE_OUTER_BOUND('',#139,.T.);
#78=FACE_OUTER_BOUND('',#140,.T.);
#79=FACE_OUTER_BOUND('',#141,.T.);
#80=EDGE_LOOP('',(#798,#799,#800,#801));
#81=EDGE_LOOP('',(#802,#803,#804,#805,#806,#807,#808,#809));
#82=EDGE_LOOP('',(#810,#811,#812,#813));
#83=EDGE_LOOP('',(#814,#815,#816,#817));
#84=EDGE_LOOP('',(#818,#819,#820,#821));
#85=EDGE_LOOP('',(#822,#823,#824,#825));
#86=EDGE_LOOP('',(#826,#827,#828,#829));
#87=EDGE_LOOP('',(#830,#831,#832,#833));
#88=EDGE_LOOP('',(#834,#835,#836,#837));
#89=EDGE_LOOP('',(#838,#839,#840,#841));
#90=EDGE_LOOP('',(#842,#843,#844,#845,#846,#847,#848,#849));
#91=EDGE_LOOP('',(#850,#851,#852,#853));
#92=EDGE_LOOP('',(#854,#855,#856,#857));
#93=EDGE_LOOP('',(#858,#859,#860,#861));
#94=EDGE_LOOP('',(#862,#863,#864,#865,#866,#867,#868,#869));
#95=EDGE_LOOP('',(#870,#871,#872,#873));
#96=EDGE_LOOP('',(#874,#875,#876,#877));
#97=EDGE_LOOP('',(#878,#879,#880,#881));
#98=EDGE_LOOP('',(#882,#883,#884,#885,#886,#887,#888,#889,#890,#891,#892, #893,#894,#895,#896,#897,#898,#899,#900,#901,#902,#903,#904,#905));
#99=EDGE_LOOP('',(#906,#907,#908,#909,#910,#911,#912,#913));
#100=EDGE_LOOP('',(#914,#915,#916,#917));
#101=EDGE_LOOP('',(#918,#919,#920,#921,#922,#923,#924,#925));
#102=EDGE_LOOP('',(#926,#927,#928,#929));
#103=EDGE_LOOP('',(#930,#931,#932,#933));
#104=EDGE_LOOP('',(#934,#935,#936,#937));
#105=EDGE_LOOP('',(#938,#939,#940,#941));
#106=EDGE_LOOP('',(#942,#943,#944,#945));
#107=EDGE_LOOP('',(#946,#947,#948,#949));
#108=EDGE_LOOP('',(#950,#951,#952,#953));
#109=EDGE_LOOP('',(#954,#955,#956,#957));
#110=EDGE_LOOP('',(#958,#959,#960,#961,#962,#963,#964,#965));
#111=EDGE_LOOP('',(#966,#967,#968,#969));
#112=EDGE_LOOP('',(#970,#971,#972,#973));
#113=EDGE_LOOP('',(#974,#975,#976,#977));
#114=EDGE_LOOP('',(#978,#979,#980,#981));
#115=EDGE_LOOP('',(#982,#983,#984,#985));
#116=EDGE_LOOP('',(#986,#987,#988,#989));
#117=EDGE_LOOP('',(#990,#991,#992,#993));
#118=EDGE_LOOP('',(#994,#995,#996,#997));
#119=EDGE_LOOP('',(#998,#999,#1000,#1001,#1002,#1003,#1004,#1005));
#120=EDGE_LOOP('',(#1006,#1007,#1008,#1009));
#121=EDGE_LOOP('',(#1010,#1011,#1012,#1013));
#122=EDGE_LOOP('',(#1014,#1015,#1016,#1017));
#123=EDGE_LOOP('',(#1018,#1019,#1020,#1021,#1022,#1023,#1024,#1025));
#124=EDGE_LOOP('',(#1026,#1027,#1028,#1029));
#125=EDGE_LOOP('',(#1030,#1031,#1032,#1033));
#126=EDGE_LOOP('',(#1034,#1035,#1036,#1037));
#127=EDGE_LOOP('',(#1038,#1039,#1040,#1041,#1042,#1043,#1044,#1045,#1046, #1047,#1048,#1049,#1050,#1051,#1052,#1053,#1054,#1055,#1056,#1057,#1058, #1059,#1060,#1061));
#128=EDGE_LOOP('',(#1062,#1063,#1064,#1065,#1066,#1067,#1068,#1069));
#129=EDGE_LOOP('',(#1070,#1071,#1072,#1073));
#130=EDGE_LOOP('',(#1074,#1075,#1076,#1077,#1078,#1079,#1080,#1081));
#131=EDGE_LOOP('',(#1082,#1083,#1084,#1085));
#132=EDGE_LOOP('',(#1086,#1087,#1088,#1089));
#133=EDGE_LOOP('',(#1090,#1091,#1092,#1093,#1094,#1095,#1096,#1097,#1098, #1099,#1100,#1101,#1102,#1103,#1104,#1105,#1106,#1107,#1108,#1109));
#134=EDGE_LOOP('',(#1110,#1111,#1112,#1113));
#135=EDGE_LOOP('',(#1114,#1115,#1116,#1117));
#136=EDGE_LOOP('',(#1118,#1119,#1120,#1121));
#137=EDGE_LOOP('',(#1122,#1123,#1124,#1125));
#138=EDGE_LOOP('',(#1126,#1127,#1128,#1129));
#139=EDGE_LOOP('',(#1130,#1131,#1132,#1133));
#140=EDGE_LOOP('',(#1134,#1135,#1136,#1137));
#141=EDGE_LOOP('',(#1138,#1139,#1140,#1141,#1142,#1143,#1144,#1145,#1146, #1147,#1148,#1149,#1150,#1151,#1152,#1153,#1154,#1155,#1156,#1157));
#142=LINE('',#1671,#320);
#143=LINE('',#1673,#321);
#144=LINE('',#1675,#322);
#145=LINE('',#1676,#323);
#146=LINE('',#1679,#324);
#147=LINE('',#1681,#325);
#148=LINE('',#1683,#326);
#149=LINE('',#1685,#327);
#150=LINE('',#1687,#328);
#151=LINE('',#1689,#329);
#152=LINE('',#1690,#330);
#153=LINE('',#1694,#331);
#154=LINE('',#1696,#332);
#155=LINE('',#1698,#333);
#156=LINE('',#1699,#334);
#157=LINE('',#1702,#335);
#158=LINE('',#1704,#336);
#159=LINE('',#1705,#337);
#160=LINE('',#1709,#338);
#161=LINE('',#1711,#339);
#162=LINE('',#1713,#340);
#163=LINE('',#1714,#341);
#164=LINE('',#1717,#342);
#165=LINE('',#1719,#343);
#166=LINE('',#1720,#344);
#167=LINE('',#1723,#345);
#168=LINE('',#1725,#346);
#169=LINE('',#1726,#347);
#170=LINE('',#1729,#348);
#171=LINE('',#1731,#349);
#172=LINE('',#1732,#350);
#173=LINE('',#1736,#351);
#174=LINE('',#1738,#352);
#175=LINE('',#1740,#353);
#176=LINE('',#1741,#354);
#177=LINE('',#1745,#355);
#178=LINE('',#1747,#356);
#179=LINE('',#1749,#357);
#180=LINE('',#1750,#358);
#181=LINE('',#1753,#359);
#182=LINE('',#1755,#360);
#183=LINE('',#1756,#361);
#184=LINE('',#1757,#362);
#185=LINE('',#1760,#363);
#186=LINE('',#1762,#364);
#187=LINE('',#1763,#365);
#188=LINE('',#1765,#366);
#189=LINE('',#1766,#367);
#190=LINE('',#1770,#368);
#191=LINE('',#1772,#369);
#192=LINE('',#1774,#370);
#193=LINE('',#1776,#371);
#194=LINE('',#1777,#372);
#195=LINE('',#1779,#373);
#196=LINE('',#1780,#374);
#197=LINE('',#1782,#375);
#198=LINE('',#1783,#376);
#199=LINE('',#1787,#377);
#200=LINE('',#1789,#378);
#201=LINE('',#1791,#379);
#202=LINE('',#1792,#380);
#203=LINE('',#1793,#381);
#204=LINE('',#1794,#382);
#205=LINE('',#1796,#383);
#206=LINE('',#1797,#384);
#207=LINE('',#1800,#385);
#208=LINE('',#1802,#386);
#209=LINE('',#1803,#387);
#210=LINE('',#1806,#388);
#211=LINE('',#1807,#389);
#212=LINE('',#1810,#390);
#213=LINE('',#1811,#391);
#214=LINE('',#1813,#392);
#215=LINE('',#1817,#393);
#216=LINE('',#1819,#394);
#217=LINE('',#1820,#395);
#218=LINE('',#1824,#396);
#219=LINE('',#1826,#397);
#220=LINE('',#1828,#398);
#221=LINE('',#1829,#399);
#222=LINE('',#1832,#400);
#223=LINE('',#1834,#401);
#224=LINE('',#1835,#402);
#225=LINE('',#1838,#403);
#226=LINE('',#1840,#404);
#227=LINE('',#1841,#405);
#228=LINE('',#1843,#406);
#229=LINE('',#1844,#407);
#230=LINE('',#1848,#408);
#231=LINE('',#1850,#409);
#232=LINE('',#1852,#410);
#233=LINE('',#1853,#411);
#234=LINE('',#1856,#412);
#235=LINE('',#1858,#413);
#236=LINE('',#1860,#414);
#237=LINE('',#1862,#415);
#238=LINE('',#1864,#416);
#239=LINE('',#1866,#417);
#240=LINE('',#1867,#418);
#241=LINE('',#1871,#419);
#242=LINE('',#1873,#420);
#243=LINE('',#1875,#421);
#244=LINE('',#1876,#422);
#245=LINE('',#1879,#423);
#246=LINE('',#1881,#424);
#247=LINE('',#1882,#425);
#248=LINE('',#1886,#426);
#249=LINE('',#1888,#427);
#250=LINE('',#1890,#428);
#251=LINE('',#1891,#429);
#252=LINE('',#1894,#430);
#253=LINE('',#1896,#431);
#254=LINE('',#1897,#432);
#255=LINE('',#1900,#433);
#256=LINE('',#1902,#434);
#257=LINE('',#1903,#435);
#258=LINE('',#1906,#436);
#259=LINE('',#1908,#437);
#260=LINE('',#1909,#438);
#261=LINE('',#1913,#439);
#262=LINE('',#1915,#440);
#263=LINE('',#1917,#441);
#264=LINE('',#1918,#442);
#265=LINE('',#1922,#443);
#266=LINE('',#1924,#444);
#267=LINE('',#1926,#445);
#268=LINE('',#1927,#446);
#269=LINE('',#1929,#447);
#270=LINE('',#1931,#448);
#271=LINE('',#1933,#449);
#272=LINE('',#1934,#450);
#273=LINE('',#1937,#451);
#274=LINE('',#1939,#452);
#275=LINE('',#1940,#453);
#276=LINE('',#1942,#454);
#277=LINE('',#1943,#455);
#278=LINE('',#1947,#456);
#279=LINE('',#1949,#457);
#280=LINE('',#1951,#458);
#281=LINE('',#1953,#459);
#282=LINE('',#1954,#460);
#283=LINE('',#1956,#461);
#284=LINE('',#1957,#462);
#285=LINE('',#1959,#463);
#286=LINE('',#1960,#464);
#287=LINE('',#1964,#465);
#288=LINE('',#1966,#466);
#289=LINE('',#1967,#467);
#290=LINE('',#1968,#468);
#291=LINE('',#1969,#469);
#292=LINE('',#1971,#470);
#293=LINE('',#1973,#471);
#294=LINE('',#1974,#472);
#295=LINE('',#1977,#473);
#296=LINE('',#1979,#474);
#297=LINE('',#1980,#475);
#298=LINE('',#1983,#476);
#299=LINE('',#1984,#477);
#300=LINE('',#1987,#478);
#301=LINE('',#1988,#479);
#302=LINE('',#1990,#480);
#303=LINE('',#1994,#481);
#304=LINE('',#1996,#482);
#305=LINE('',#1998,#483);
#306=LINE('',#2000,#484);
#307=LINE('',#2001,#485);
#308=LINE('',#2004,#486);
#309=LINE('',#2007,#487);
#310=LINE('',#2008,#488);
#311=LINE('',#2013,#489);
#312=LINE('',#2014,#490);
#313=LINE('',#2017,#491);
#314=LINE('',#2018,#492);
#315=LINE('',#2021,#493);
#316=LINE('',#2022,#494);
#317=LINE('',#2025,#495);
#318=LINE('',#2026,#496);
#319=LINE('',#2028,#497);
#320=VECTOR('',#1363,60.0);
#321=VECTOR('',#1364,60.0);
#322=VECTOR('',#1365,60.0);
#323=VECTOR('',#1366,60.0);
#324=VECTOR('',#1369,60.0);
#325=VECTOR('',#1370,60.0);
#326=VECTOR('',#1371,60.0);
#327=VECTOR('',#1372,60.0);
#328=VECTOR('',#1373,60.0);
#329=VECTOR('',#1374,60.0);
#330=VECTOR('',#1375,60.0);
#331=VECTOR('',#1378,60.0);
#332=VECTOR('',#1379,60.0);
#333=VECTOR('',#1380,60.0);
#334=VECTOR('',#1381,60.0);
#335=VECTOR('',#1384,60.0);
#336=VECTOR('',#1385,60.0);
#337=VECTOR('',#1386,60.0);
#338=VECTOR('',#1389,60.0);
#339=VECTOR('',#1390,60.0);
#340=VECTOR('',#1391,60.0);
#341=VECTOR('',#1392,60.0);
#342=VECTOR('',#1395,60.0);
#343=VECTOR('',#1396,60.0);
#344=VECTOR('',#1397,60.0);
#345=VECTOR('',#1400,60.0);
#346=VECTOR('',#1401,60.0);
#347=VECTOR('',#1402,60.0);
#348=VECTOR('',#1405,60.0);
#349=VECTOR('',#1406,60.0);
#350=VECTOR('',#1407,60.0);
#351=VECTOR('',#1410,60.0);
#352=VECTOR('',#1411,60.0);
#353=VECTOR('',#1412,60.0);
#354=VECTOR('',#1413,60.0);
#355=VECTOR('',#1416,60.0);
#356=VECTOR('',#1417,60.0);
#357=VECTOR('',#1418,60.0);
#358=VECTOR('',#1419,60.0);
#359=VECTOR('',#1422,60.0);
#360=VECTOR('',#1423,60.0);
#361=VECTOR('',#1424,60.0);
#362=VECTOR('',#1425,60.0);
#363=VECTOR('',#1428,60.0);
#364=VECTOR('',#1429,60.0);
#365=VECTOR('',#1430,60.0);
#366=VECTOR('',#1433,60.0);
#367=VECTOR('',#1434,60.0);
#368=VECTOR('',#1439,60.0);
#369=VECTOR('',#1440,60.0);
#370=VECTOR('',#1441,60.0);
#371=VECTOR('',#1442,60.0);
#372=VECTOR('',#1443,60.0);
#373=VECTOR('',#1446,60.0);
#374=VECTOR('',#1447,60.0);
#375=VECTOR('',#1450,60.0);
#376=VECTOR('',#1451,60.0);
#377=VECTOR('',#1456,60.0);
#378=VECTOR('',#1457,60.0);
#379=VECTOR('',#1458,60.0);
#380=VECTOR('',#1459,60.0);
#381=VECTOR('',#1460,60.0);
#382=VECTOR('',#1461,60.0);
#383=VECTOR('',#1462,60.0);
#384=VECTOR('',#1463,60.0);
#385=VECTOR('',#1466,60.0);
#386=VECTOR('',#1467,60.0);
#387=VECTOR('',#1468,60.0);
#388=VECTOR('',#1471,60.0);
#389=VECTOR('',#1472,60.0);
#390=VECTOR('',#1475,60.0);
#391=VECTOR('',#1476,60.0);
#392=VECTOR('',#1479,60.0);
#393=VECTOR('',#1484,60.0);
#394=VECTOR('',#1485,60.0);
#395=VECTOR('',#1486,60.0);
#396=VECTOR('',#1489,60.0);
#397=VECTOR('',#1490,60.0);
#398=VECTOR('',#1491,60.0);
#399=VECTOR('',#1492,60.0);
#400=VECTOR('',#1495,60.0);
#401=VECTOR('',#1496,60.0);
#402=VECTOR('',#1497,60.0);
#403=VECTOR('',#1500,60.0);
#404=VECTOR('',#1501,60.0);
#405=VECTOR('',#1502,60.0);
#406=VECTOR('',#1505,60.0);
#407=VECTOR('',#1506,60.0);
#408=VECTOR('',#1509,60.0);
#409=VECTOR('',#1510,60.0);
#410=VECTOR('',#1511,60.0);
#411=VECTOR('',#1512,60.0);
#412=VECTOR('',#1515,60.0);
#413=VECTOR('',#1516,60.0);
#414=VECTOR('',#1517,60.0);
#415=VECTOR('',#1518,60.0);
#416=VECTOR('',#1519,60.0);
#417=VECTOR('',#1520,60.0);
#418=VECTOR('',#1521,60.0);
#419=VECTOR('',#1524,60.0);
#420=VECTOR('',#1525,60.0);
#421=VECTOR('',#1526,60.0);
#422=VECTOR('',#1527,60.0);
#423=VECTOR('',#1530,60.0);
#424=VECTOR('',#1531,60.0);
#425=VECTOR('',#1532,60.0);
#426=VECTOR('',#1535,60.0);
#427=VECTOR('',#1536,60.0);
#428=VECTOR('',#1537,60.0);
#429=VECTOR('',#1538,60.0);
#430=VECTOR('',#1541,60.0);
#431=VECTOR('',#1542,60.0);
#432=VECTOR('',#1543,60.0);
#433=VECTOR('',#1546,60.0);
#434=VECTOR('',#1547,60.0);
#435=VECTOR('',#1548,60.0);
#436=VECTOR('',#1551,60.0);
#437=VECTOR('',#1552,60.0);
#438=VECTOR('',#1553,60.0);
#439=VECTOR('',#1556,60.0);
#440=VECTOR('',#1557,60.0);
#441=VECTOR('',#1558,60.0);
#442=VECTOR('',#1559,60.0);
#443=VECTOR('',#1562,60.0);
#444=VECTOR('',#1563,60.0);
#445=VECTOR('',#1564,60.0);
#446=VECTOR('',#1565,60.0);
#447=VECTOR('',#1568,60.0);
#448=VECTOR('',#1569,60.0);
#449=VECTOR('',#1570,60.0);
#450=VECTOR('',#1571,60.0);
#451=VECTOR('',#1574,60.0);
#452=VECTOR('',#1575,60.0);
#453=VECTOR('',#1576,60.0);
#454=VECTOR('',#1579,60.0);
#455=VECTOR('',#1580,60.0);
#456=VECTOR('',#1585,60.0);
#457=VECTOR('',#1586,60.0);
#458=VECTOR('',#1587,60.0);
#459=VECTOR('',#1588,60.0);
#460=VECTOR('',#1589,60.0);
#461=VECTOR('',#1592,60.0);
#462=VECTOR('',#1593,60.0);
#463=VECTOR('',#1596,60.0);
#464=VECTOR('',#1597,60.0);
#465=VECTOR('',#1602,60.0);
#466=VECTOR('',#1603,60.0);
#467=VECTOR('',#1604,60.0);
#468=VECTOR('',#1605,60.0);
#469=VECTOR('',#1606,60.0);
#470=VECTOR('',#1607,60.0);
#471=VECTOR('',#1608,60.0);
#472=VECTOR('',#1609,60.0);
#473=VECTOR('',#1612,60.0);
#474=VECTOR('',#1613,60.0);
#475=VECTOR('',#1614,60.0);
#476=VECTOR('',#1617,60.0);
#477=VECTOR('',#1618,60.0);
#478=VECTOR('',#1621,60.0);
#479=VECTOR('',#1622,60.0);
#480=VECTOR('',#1625,60.0);
#481=VECTOR('',#1630,60.0);
#482=VECTOR('',#1631,60.0);
#483=VECTOR('',#1632,60.0);
#484=VECTOR('',#1633,60.0);
#485=VECTOR('',#1634,60.0);
#486=VECTOR('',#1637,60.0);
#487=VECTOR('',#1640,60.0);
#488=VECTOR('',#1641,60.0);
#489=VECTOR('',#1648,60.0);
#490=VECTOR('',#1649,60.0);
#491=VECTOR('',#1652,60.0);
#492=VECTOR('',#1653,60.0);
#493=VECTOR('',#1656,60.0);
#494=VECTOR('',#1657,60.0);
#495=VECTOR('',#1660,60.0);
#496=VECTOR('',#1661,60.0);
#497=VECTOR('',#1664,60.0);
#498=VERTEX_POINT('',#1669);
#499=VERTEX_POINT('',#1670);
#500=VERTEX_POINT('',#1672);
#501=VERTEX_POINT('',#1674);
#502=VERTEX_POINT('',#1678);
#503=VERTEX_POINT('',#1680);
#504=VERTEX_POINT('',#1682);
#505=VERTEX_POINT('',#1684);
#506=VERTEX_POINT('',#1686);
#507=VERTEX_POINT('',#1688);
#508=VERTEX_POINT('',#1692);
#509=VERTEX_POINT('',#1693);
#510=VERTEX_POINT('',#1695);
#511=VERTEX_POINT('',#1697);
#512=VERTEX_POINT('',#1701);
#513=VERTEX_POINT('',#1703);
#514=VERTEX_POINT('',#1707);
#515=VERTEX_POINT('',#1708);
#516=VERTEX_POINT('',#1710);
#517=VERTEX_POINT('',#1712);
#518=VERTEX_POINT('',#1716);
#519=VERTEX_POINT('',#1718);
#520=VERTEX_POINT('',#1722);
#521=VERTEX_POINT('',#1724);
#522=VERTEX_POINT('',#1728);
#523=VERTEX_POINT('',#1730);
#524=VERTEX_POINT('',#1734);
#525=VERTEX_POINT('',#1735);
#526=VERTEX_POINT('',#1737);
#527=VERTEX_POINT('',#1739);
#528=VERTEX_POINT('',#1743);
#529=VERTEX_POINT('',#1744);
#530=VERTEX_POINT('',#1746);
#531=VERTEX_POINT('',#1748);
#532=VERTEX_POINT('',#1752);
#533=VERTEX_POINT('',#1754);
#534=VERTEX_POINT('',#1759);
#535=VERTEX_POINT('',#1761);
#536=VERTEX_POINT('',#1769);
#537=VERTEX_POINT('',#1771);
#538=VERTEX_POINT('',#1773);
#539=VERTEX_POINT('',#1775);
#540=VERTEX_POINT('',#1786);
#541=VERTEX_POINT('',#1788);
#542=VERTEX_POINT('',#1790);
#543=VERTEX_POINT('',#1795);
#544=VERTEX_POINT('',#1799);
#545=VERTEX_POINT('',#1801);
#546=VERTEX_POINT('',#1805);
#547=VERTEX_POINT('',#1809);
#548=VERTEX_POINT('',#1816);
#549=VERTEX_POINT('',#1818);
#550=VERTEX_POINT('',#1822);
#551=VERTEX_POINT('',#1823);
#552=VERTEX_POINT('',#1825);
#553=VERTEX_POINT('',#1827);
#554=VERTEX_POINT('',#1831);
#555=VERTEX_POINT('',#1833);
#556=VERTEX_POINT('',#1837);
#557=VERTEX_POINT('',#1839);
#558=VERTEX_POINT('',#1846);
#559=VERTEX_POINT('',#1847);
#560=VERTEX_POINT('',#1849);
#561=VERTEX_POINT('',#1851);
#562=VERTEX_POINT('',#1855);
#563=VERTEX_POINT('',#1857);
#564=VERTEX_POINT('',#1859);
#565=VERTEX_POINT('',#1861);
#566=VERTEX_POINT('',#1863);
#567=VERTEX_POINT('',#1865);
#568=VERTEX_POINT('',#1869);
#569=VERTEX_POINT('',#1870);
#570=VERTEX_POINT('',#1872);
#571=VERTEX_POINT('',#1874);
#572=VERTEX_POINT('',#1878);
#573=VERTEX_POINT('',#1880);
#574=VERTEX_POINT('',#1884);
#575=VERTEX_POINT('',#1885);
#576=VERTEX_POINT('',#1887);
#577=VERTEX_POINT('',#1889);
#578=VERTEX_POINT('',#1893);
#579=VERTEX_POINT('',#1895);
#580=VERTEX_POINT('',#1899);
#581=VERTEX_POINT('',#1901);
#582=VERTEX_POINT('',#1905);
#583=VERTEX_POINT('',#1907);
#584=VERTEX_POINT('',#1911);
#585=VERTEX_POINT('',#1912);
#586=VERTEX_POINT('',#1914);
#587=VERTEX_POINT('',#1916);
#588=VERTEX_POINT('',#1920);
#589=VERTEX_POINT('',#1921);
#590=VERTEX_POINT('',#1923);
#591=VERTEX_POINT('',#1925);
#592=VERTEX_POINT('',#1930);
#593=VERTEX_POINT('',#1932);
#594=VERTEX_POINT('',#1936);
#595=VERTEX_POINT('',#1938);
#596=VERTEX_POINT('',#1946);
#597=VERTEX_POINT('',#1948);
#598=VERTEX_POINT('',#1950);
#599=VERTEX_POINT('',#1952);
#600=VERTEX_POINT('',#1963);
#601=VERTEX_POINT('',#1965);
#602=VERTEX_POINT('',#1970);
#603=VERTEX_POINT('',#1972);
#604=VERTEX_POINT('',#1976);
#605=VERTEX_POINT('',#1978);
#606=VERTEX_POINT('',#1982);
#607=VERTEX_POINT('',#1986);
#608=VERTEX_POINT('',#1993);
#609=VERTEX_POINT('',#1995);
#610=VERTEX_POINT('',#1997);
#611=VERTEX_POINT('',#1999);
#612=VERTEX_POINT('',#2002);
#613=VERTEX_POINT('',#2006);
#614=VERTEX_POINT('',#2012);
#615=VERTEX_POINT('',#2016);
#616=VERTEX_POINT('',#2020);
#617=VERTEX_POINT('',#2024);
#618=EDGE_CURVE('',#498,#499,#142,.T.);
#619=EDGE_CURVE('',#500,#499,#143,.T.);
#620=EDGE_CURVE('',#500,#501,#144,.T.);
#621=EDGE_CURVE('',#498,#501,#145,.T.);
#622=EDGE_CURVE('',#502,#500,#146,.T.);
#623=EDGE_CURVE('',#502,#503,#147,.T.);
#624=EDGE_CURVE('',#503,#504,#148,.T.);
#625=EDGE_CURVE('',#504,#505,#149,.T.);
#626=EDGE_CURVE('',#506,#505,#150,.T.);
#627=EDGE_CURVE('',#506,#507,#151,.T.);
#628=EDGE_CURVE('',#501,#507,#152,.T.);
#629=EDGE_CURVE('',#508,#509,#153,.T.);
#630=EDGE_CURVE('',#509,#510,#154,.T.);
#631=EDGE_CURVE('',#510,#511,#155,.T.);
#632=EDGE_CURVE('',#511,#508,#156,.T.);
#633=EDGE_CURVE('',#509,#512,#157,.T.);
#634=EDGE_CURVE('',#513,#512,#158,.T.);
#635=EDGE_CURVE('',#513,#510,#159,.T.);
#636=EDGE_CURVE('',#514,#515,#160,.T.);
#637=EDGE_CURVE('',#516,#515,#161,.T.);
#638=EDGE_CURVE('',#516,#517,#162,.T.);
#639=EDGE_CURVE('',#514,#517,#163,.T.);
#640=EDGE_CURVE('',#512,#518,#164,.T.);
#641=EDGE_CURVE('',#518,#519,#165,.T.);
#642=EDGE_CURVE('',#519,#513,#166,.T.);
#643=EDGE_CURVE('',#520,#514,#167,.T.);
#644=EDGE_CURVE('',#517,#521,#168,.T.);
#645=EDGE_CURVE('',#521,#520,#169,.T.);
#646=EDGE_CURVE('',#515,#522,#170,.T.);
#647=EDGE_CURVE('',#522,#523,#171,.T.);
#648=EDGE_CURVE('',#523,#516,#172,.T.);
#649=EDGE_CURVE('',#524,#525,#173,.T.);
#650=EDGE_CURVE('',#525,#526,#174,.T.);
#651=EDGE_CURVE('',#526,#527,#175,.T.);
#652=EDGE_CURVE('',#524,#527,#176,.T.);
#653=EDGE_CURVE('',#528,#529,#177,.T.);
#654=EDGE_CURVE('',#529,#530,#178,.T.);
#655=EDGE_CURVE('',#530,#531,#179,.T.);
#656=EDGE_CURVE('',#528,#531,#180,.T.);
#657=EDGE_CURVE('',#519,#532,#181,.T.);
#658=EDGE_CURVE('',#532,#533,#182,.T.);
#659=EDGE_CURVE('',#533,#530,#183,.T.);
#660=EDGE_CURVE('',#529,#511,#184,.T.);
#661=EDGE_CURVE('',#532,#534,#185,.T.);
#662=EDGE_CURVE('',#534,#535,#186,.T.);
#663=EDGE_CURVE('',#535,#533,#187,.T.);
#664=EDGE_CURVE('',#534,#528,#188,.T.);
#665=EDGE_CURVE('',#531,#535,#189,.T.);
#666=EDGE_CURVE('',#523,#536,#190,.T.);
#667=EDGE_CURVE('',#536,#537,#191,.T.);
#668=EDGE_CURVE('',#537,#538,#192,.T.);
#669=EDGE_CURVE('',#539,#538,#193,.T.);
#670=EDGE_CURVE('',#539,#521,#194,.T.);
#671=EDGE_CURVE('',#536,#506,#195,.T.);
#672=EDGE_CURVE('',#505,#537,#196,.T.);
#673=EDGE_CURVE('',#503,#539,#197,.T.);
#674=EDGE_CURVE('',#538,#504,#198,.T.);
#675=EDGE_CURVE('',#508,#540,#199,.T.);
#676=EDGE_CURVE('',#541,#518,#200,.T.);
#677=EDGE_CURVE('',#542,#541,#201,.T.);
#678=EDGE_CURVE('',#520,#542,#202,.T.);
#679=EDGE_CURVE('',#525,#502,#203,.T.);
#680=EDGE_CURVE('',#507,#524,#204,.T.);
#681=EDGE_CURVE('',#543,#522,#205,.T.);
#682=EDGE_CURVE('',#540,#543,#206,.T.);
#683=EDGE_CURVE('',#540,#544,#207,.T.);
#684=EDGE_CURVE('',#544,#545,#208,.T.);
#685=EDGE_CURVE('',#541,#545,#209,.T.);
#686=EDGE_CURVE('',#543,#546,#210,.T.);
#687=EDGE_CURVE('',#546,#544,#211,.T.);
#688=EDGE_CURVE('',#542,#547,#212,.T.);
#689=EDGE_CURVE('',#547,#546,#213,.T.);
#690=EDGE_CURVE('',#545,#547,#214,.T.);
#691=EDGE_CURVE('',#498,#548,#215,.T.);
#692=EDGE_CURVE('',#548,#549,#216,.T.);
#693=EDGE_CURVE('',#549,#499,#217,.T.);
#694=EDGE_CURVE('',#550,#551,#218,.T.);
#695=EDGE_CURVE('',#550,#552,#219,.T.);
#696=EDGE_CURVE('',#552,#553,#220,.T.);
#697=EDGE_CURVE('',#551,#553,#221,.T.);
#698=EDGE_CURVE('',#554,#550,#222,.T.);
#699=EDGE_CURVE('',#554,#555,#223,.T.);
#700=EDGE_CURVE('',#555,#552,#224,.T.);
#701=EDGE_CURVE('',#556,#554,#225,.T.);
#702=EDGE_CURVE('',#556,#557,#226,.T.);
#703=EDGE_CURVE('',#557,#555,#227,.T.);
#704=EDGE_CURVE('',#526,#557,#228,.T.);
#705=EDGE_CURVE('',#527,#556,#229,.T.);
#706=EDGE_CURVE('',#558,#559,#230,.T.);
#707=EDGE_CURVE('',#558,#560,#231,.T.);
#708=EDGE_CURVE('',#561,#560,#232,.T.);
#709=EDGE_CURVE('',#561,#559,#233,.T.);
#710=EDGE_CURVE('',#562,#561,#234,.T.);
#711=EDGE_CURVE('',#560,#563,#235,.T.);
#712=EDGE_CURVE('',#564,#563,#236,.T.);
#713=EDGE_CURVE('',#564,#565,#237,.T.);
#714=EDGE_CURVE('',#566,#565,#238,.T.);
#715=EDGE_CURVE('',#567,#566,#239,.T.);
#716=EDGE_CURVE('',#562,#567,#240,.T.);
#717=EDGE_CURVE('',#568,#569,#241,.T.);
#718=EDGE_CURVE('',#570,#568,#242,.T.);
#719=EDGE_CURVE('',#571,#570,#243,.T.);
#720=EDGE_CURVE('',#569,#571,#244,.T.);
#721=EDGE_CURVE('',#569,#572,#245,.T.);
#722=EDGE_CURVE('',#573,#571,#246,.T.);
#723=EDGE_CURVE('',#573,#572,#247,.T.);
#724=EDGE_CURVE('',#574,#575,#248,.T.);
#725=EDGE_CURVE('',#574,#576,#249,.T.);
#726=EDGE_CURVE('',#577,#576,#250,.T.);
#727=EDGE_CURVE('',#577,#575,#251,.T.);
#728=EDGE_CURVE('',#572,#578,#252,.T.);
#729=EDGE_CURVE('',#579,#573,#253,.T.);
#730=EDGE_CURVE('',#578,#579,#254,.T.);
#731=EDGE_CURVE('',#580,#574,#255,.T.);
#732=EDGE_CURVE('',#581,#580,#256,.T.);
#733=EDGE_CURVE('',#576,#581,#257,.T.);
#734=EDGE_CURVE('',#575,#582,#258,.T.);
#735=EDGE_CURVE('',#583,#577,#259,.T.);
#736=EDGE_CURVE('',#582,#583,#260,.T.);
#737=EDGE_CURVE('',#584,#585,#261,.T.);
#738=EDGE_CURVE('',#584,#586,#262,.T.);
#739=EDGE_CURVE('',#587,#586,#263,.T.);
#740=EDGE_CURVE('',#585,#587,#264,.T.);
#741=EDGE_CURVE('',#588,#589,#265,.T.);
#742=EDGE_CURVE('',#588,#590,#266,.T.);
#743=EDGE_CURVE('',#591,#590,#267,.T.);
#744=EDGE_CURVE('',#589,#591,#268,.T.);
#745=EDGE_CURVE('',#589,#570,#269,.T.);
#746=EDGE_CURVE('',#592,#591,#270,.T.);
#747=EDGE_CURVE('',#593,#592,#271,.T.);
#748=EDGE_CURVE('',#579,#593,#272,.T.);
#749=EDGE_CURVE('',#593,#594,#273,.T.);
#750=EDGE_CURVE('',#595,#592,#274,.T.);
#751=EDGE_CURVE('',#594,#595,#275,.T.);
#752=EDGE_CURVE('',#594,#588,#276,.T.);
#753=EDGE_CURVE('',#590,#595,#277,.T.);
#754=EDGE_CURVE('',#596,#581,#278,.T.);
#755=EDGE_CURVE('',#596,#597,#279,.T.);
#756=EDGE_CURVE('',#598,#597,#280,.T.);
#757=EDGE_CURVE('',#599,#598,#281,.T.);
#758=EDGE_CURVE('',#583,#599,#282,.T.);
#759=EDGE_CURVE('',#599,#564,#283,.T.);
#760=EDGE_CURVE('',#565,#598,#284,.T.);
#761=EDGE_CURVE('',#567,#596,#285,.T.);
#762=EDGE_CURVE('',#597,#566,#286,.T.);
#763=EDGE_CURVE('',#568,#600,#287,.T.);
#764=EDGE_CURVE('',#600,#601,#288,.T.);
#765=EDGE_CURVE('',#601,#582,#289,.T.);
#766=EDGE_CURVE('',#563,#584,#290,.T.);
#767=EDGE_CURVE('',#585,#562,#291,.T.);
#768=EDGE_CURVE('',#580,#602,#292,.T.);
#769=EDGE_CURVE('',#602,#603,#293,.T.);
#770=EDGE_CURVE('',#603,#578,#294,.T.);
#771=EDGE_CURVE('',#603,#604,#295,.T.);
#772=EDGE_CURVE('',#605,#604,#296,.T.);
#773=EDGE_CURVE('',#600,#605,#297,.T.);
#774=EDGE_CURVE('',#606,#605,#298,.T.);
#775=EDGE_CURVE('',#601,#606,#299,.T.);
#776=EDGE_CURVE('',#607,#606,#300,.T.);
#777=EDGE_CURVE('',#602,#607,#301,.T.);
#778=EDGE_CURVE('',#604,#607,#302,.T.);
#779=EDGE_CURVE('',#587,#608,#303,.T.);
#780=EDGE_CURVE('',#608,#609,#304,.T.);
#781=EDGE_CURVE('',#609,#610,#305,.T.);
#782=EDGE_CURVE('',#610,#611,#306,.T.);
#783=EDGE_CURVE('',#611,#553,#307,.T.);
#784=EDGE_CURVE('',#612,#549,#16,.T.);
#785=EDGE_CURVE('',#612,#559,#308,.T.);
#786=EDGE_CURVE('',#558,#613,#309,.T.);
#787=EDGE_CURVE('',#613,#612,#310,.T.);
#788=EDGE_CURVE('',#613,#548,#17,.T.);
#789=EDGE_CURVE('',#614,#551,#311,.T.);
#790=EDGE_CURVE('',#614,#611,#312,.T.);
#791=EDGE_CURVE('',#615,#614,#313,.T.);
#792=EDGE_CURVE('',#615,#610,#314,.T.);
#793=EDGE_CURVE('',#616,#615,#315,.T.);
#794=EDGE_CURVE('',#616,#609,#316,.T.);
#795=EDGE_CURVE('',#617,#616,#317,.T.);
#796=EDGE_CURVE('',#617,#608,#318,.T.);
#797=EDGE_CURVE('',#586,#617,#319,.T.);
#798=ORIENTED_EDGE('',*,*,#618,.T.);
#799=ORIENTED_EDGE('',*,*,#619,.F.);
#800=ORIENTED_EDGE('',*,*,#620,.T.);
#801=ORIENTED_EDGE('',*,*,#621,.F.);
#802=ORIENTED_EDGE('',*,*,#622,.F.);
#803=ORIENTED_EDGE('',*,*,#623,.T.);
#804=ORIENTED_EDGE('',*,*,#624,.T.);
#805=ORIENTED_EDGE('',*,*,#625,.T.);
#806=ORIENTED_EDGE('',*,*,#626,.F.);
#807=ORIENTED_EDGE('',*,*,#627,.T.);
#808=ORIENTED_EDGE('',*,*,#628,.F.);
#809=ORIENTED_EDGE('',*,*,#620,.F.);
#810=ORIENTED_EDGE('',*,*,#629,.T.);
#811=ORIENTED_EDGE('',*,*,#630,.T.);
#812=ORIENTED_EDGE('',*,*,#631,.T.);
#813=ORIENTED_EDGE('',*,*,#632,.T.);
#814=ORIENTED_EDGE('',*,*,#633,.T.);
#815=ORIENTED_EDGE('',*,*,#634,.F.);
#816=ORIENTED_EDGE('',*,*,#635,.T.);
#817=ORIENTED_EDGE('',*,*,#630,.F.);
#818=ORIENTED_EDGE('',*,*,#636,.T.);
#819=ORIENTED_EDGE('',*,*,#637,.F.);
#820=ORIENTED_EDGE('',*,*,#638,.T.);
#821=ORIENTED_EDGE('',*,*,#639,.F.);
#822=ORIENTED_EDGE('',*,*,#640,.T.);
#823=ORIENTED_EDGE('',*,*,#641,.T.);
#824=ORIENTED_EDGE('',*,*,#642,.T.);
#825=ORIENTED_EDGE('',*,*,#634,.T.);
#826=ORIENTED_EDGE('',*,*,#643,.T.);
#827=ORIENTED_EDGE('',*,*,#639,.T.);
#828=ORIENTED_EDGE('',*,*,#644,.T.);
#829=ORIENTED_EDGE('',*,*,#645,.T.);
#830=ORIENTED_EDGE('',*,*,#646,.T.);
#831=ORIENTED_EDGE('',*,*,#647,.T.);
#832=ORIENTED_EDGE('',*,*,#648,.T.);
#833=ORIENTED_EDGE('',*,*,#637,.T.);
#834=ORIENTED_EDGE('',*,*,#649,.T.);
#835=ORIENTED_EDGE('',*,*,#650,.T.);
#836=ORIENTED_EDGE('',*,*,#651,.T.);
#837=ORIENTED_EDGE('',*,*,#652,.F.);
#838=ORIENTED_EDGE('',*,*,#653,.T.);
#839=ORIENTED_EDGE('',*,*,#654,.T.);
#840=ORIENTED_EDGE('',*,*,#655,.T.);
#841=ORIENTED_EDGE('',*,*,#656,.F.);
#842=ORIENTED_EDGE('',*,*,#631,.F.);
#843=ORIENTED_EDGE('',*,*,#635,.F.);
#844=ORIENTED_EDGE('',*,*,#642,.F.);
#845=ORIENTED_EDGE('',*,*,#657,.T.);
#846=ORIENTED_EDGE('',*,*,#658,.T.);
#847=ORIENTED_EDGE('',*,*,#659,.T.);
#848=ORIENTED_EDGE('',*,*,#654,.F.);
#849=ORIENTED_EDGE('',*,*,#660,.T.);
#850=ORIENTED_EDGE('',*,*,#661,.T.);
#851=ORIENTED_EDGE('',*,*,#662,.T.);
#852=ORIENTED_EDGE('',*,*,#663,.T.);
#853=ORIENTED_EDGE('',*,*,#658,.F.);
#854=ORIENTED_EDGE('',*,*,#664,.T.);
#855=ORIENTED_EDGE('',*,*,#656,.T.);
#856=ORIENTED_EDGE('',*,*,#665,.T.);
#857=ORIENTED_EDGE('',*,*,#662,.F.);
#858=ORIENTED_EDGE('',*,*,#665,.F.);
#859=ORIENTED_EDGE('',*,*,#655,.F.);
#860=ORIENTED_EDGE('',*,*,#659,.F.);
#861=ORIENTED_EDGE('',*,*,#663,.F.);
#862=ORIENTED_EDGE('',*,*,#648,.F.);
#863=ORIENTED_EDGE('',*,*,#666,.T.);
#864=ORIENTED_EDGE('',*,*,#667,.T.);
#865=ORIENTED_EDGE('',*,*,#668,.T.);
#866=ORIENTED_EDGE('',*,*,#669,.F.);
#867=ORIENTED_EDGE('',*,*,#670,.T.);
#868=ORIENTED_EDGE('',*,*,#644,.F.);
#869=ORIENTED_EDGE('',*,*,#638,.F.);
#870=ORIENTED_EDGE('',*,*,#671,.T.);
#871=ORIENTED_EDGE('',*,*,#626,.T.);
#872=ORIENTED_EDGE('',*,*,#672,.T.);
#873=ORIENTED_EDGE('',*,*,#667,.F.);
#874=ORIENTED_EDGE('',*,*,#673,.T.);
#875=ORIENTED_EDGE('',*,*,#669,.T.);
#876=ORIENTED_EDGE('',*,*,#674,.T.);
#877=ORIENTED_EDGE('',*,*,#624,.F.);
#878=ORIENTED_EDGE('',*,*,#668,.F.);
#879=ORIENTED_EDGE('',*,*,#672,.F.);
#880=ORIENTED_EDGE('',*,*,#625,.F.);
#881=ORIENTED_EDGE('',*,*,#674,.F.);
#882=ORIENTED_EDGE('',*,*,#675,.F.);
#883=ORIENTED_EDGE('',*,*,#632,.F.);
#884=ORIENTED_EDGE('',*,*,#660,.F.);
#885=ORIENTED_EDGE('',*,*,#653,.F.);
#886=ORIENTED_EDGE('',*,*,#664,.F.);
#887=ORIENTED_EDGE('',*,*,#661,.F.);
#888=ORIENTED_EDGE('',*,*,#657,.F.);
#889=ORIENTED_EDGE('',*,*,#641,.F.);
#890=ORIENTED_EDGE('',*,*,#676,.F.);
#891=ORIENTED_EDGE('',*,*,#677,.F.);
#892=ORIENTED_EDGE('',*,*,#678,.F.);
#893=ORIENTED_EDGE('',*,*,#645,.F.);
#894=ORIENTED_EDGE('',*,*,#670,.F.);
#895=ORIENTED_EDGE('',*,*,#673,.F.);
#896=ORIENTED_EDGE('',*,*,#623,.F.);
#897=ORIENTED_EDGE('',*,*,#679,.F.);
#898=ORIENTED_EDGE('',*,*,#649,.F.);
#899=ORIENTED_EDGE('',*,*,#680,.F.);
#900=ORIENTED_EDGE('',*,*,#627,.F.);
#901=ORIENTED_EDGE('',*,*,#671,.F.);
#902=ORIENTED_EDGE('',*,*,#666,.F.);
#903=ORIENTED_EDGE('',*,*,#647,.F.);
#904=ORIENTED_EDGE('',*,*,#681,.F.);
#905=ORIENTED_EDGE('',*,*,#682,.F.);
#906=ORIENTED_EDGE('',*,*,#629,.F.);
#907=ORIENTED_EDGE('',*,*,#675,.T.);
#908=ORIENTED_EDGE('',*,*,#683,.T.);
#909=ORIENTED_EDGE('',*,*,#684,.T.);
#910=ORIENTED_EDGE('',*,*,#685,.F.);
#911=ORIENTED_EDGE('',*,*,#676,.T.);
#912=ORIENTED_EDGE('',*,*,#640,.F.);
#913=ORIENTED_EDGE('',*,*,#633,.F.);
#914=ORIENTED_EDGE('',*,*,#682,.T.);
#915=ORIENTED_EDGE('',*,*,#686,.T.);
#916=ORIENTED_EDGE('',*,*,#687,.T.);
#917=ORIENTED_EDGE('',*,*,#683,.F.);
#918=ORIENTED_EDGE('',*,*,#646,.F.);
#919=ORIENTED_EDGE('',*,*,#636,.F.);
#920=ORIENTED_EDGE('',*,*,#643,.F.);
#921=ORIENTED_EDGE('',*,*,#678,.T.);
#922=ORIENTED_EDGE('',*,*,#688,.T.);
#923=ORIENTED_EDGE('',*,*,#689,.T.);
#924=ORIENTED_EDGE('',*,*,#686,.F.);
#925=ORIENTED_EDGE('',*,*,#681,.T.);
#926=ORIENTED_EDGE('',*,*,#677,.T.);
#927=ORIENTED_EDGE('',*,*,#685,.T.);
#928=ORIENTED_EDGE('',*,*,#690,.T.);
#929=ORIENTED_EDGE('',*,*,#688,.F.);
#930=ORIENTED_EDGE('',*,*,#684,.F.);
#931=ORIENTED_EDGE('',*,*,#687,.F.);
#932=ORIENTED_EDGE('',*,*,#689,.F.);
#933=ORIENTED_EDGE('',*,*,#690,.F.);
#934=ORIENTED_EDGE('',*,*,#691,.T.);
#935=ORIENTED_EDGE('',*,*,#692,.T.);
#936=ORIENTED_EDGE('',*,*,#693,.T.);
#937=ORIENTED_EDGE('',*,*,#618,.F.);
#938=ORIENTED_EDGE('',*,*,#694,.F.);
#939=ORIENTED_EDGE('',*,*,#695,.T.);
#940=ORIENTED_EDGE('',*,*,#696,.T.);
#941=ORIENTED_EDGE('',*,*,#697,.F.);
#942=ORIENTED_EDGE('',*,*,#698,.F.);
#943=ORIENTED_EDGE('',*,*,#699,.T.);
#944=ORIENTED_EDGE('',*,*,#700,.T.);
#945=ORIENTED_EDGE('',*,*,#695,.F.);
#946=ORIENTED_EDGE('',*,*,#701,.F.);
#947=ORIENTED_EDGE('',*,*,#702,.T.);
#948=ORIENTED_EDGE('',*,*,#703,.T.);
#949=ORIENTED_EDGE('',*,*,#699,.F.);
#950=ORIENTED_EDGE('',*,*,#651,.F.);
#951=ORIENTED_EDGE('',*,*,#704,.T.);
#952=ORIENTED_EDGE('',*,*,#702,.F.);
#953=ORIENTED_EDGE('',*,*,#705,.F.);
#954=ORIENTED_EDGE('',*,*,#706,.F.);
#955=ORIENTED_EDGE('',*,*,#707,.T.);
#956=ORIENTED_EDGE('',*,*,#708,.F.);
#957=ORIENTED_EDGE('',*,*,#709,.T.);
#958=ORIENTED_EDGE('',*,*,#710,.T.);
#959=ORIENTED_EDGE('',*,*,#708,.T.);
#960=ORIENTED_EDGE('',*,*,#711,.T.);
#961=ORIENTED_EDGE('',*,*,#712,.F.);
#962=ORIENTED_EDGE('',*,*,#713,.T.);
#963=ORIENTED_EDGE('',*,*,#714,.F.);
#964=ORIENTED_EDGE('',*,*,#715,.F.);
#965=ORIENTED_EDGE('',*,*,#716,.F.);
#966=ORIENTED_EDGE('',*,*,#717,.F.);
#967=ORIENTED_EDGE('',*,*,#718,.F.);
#968=ORIENTED_EDGE('',*,*,#719,.F.);
#969=ORIENTED_EDGE('',*,*,#720,.F.);
#970=ORIENTED_EDGE('',*,*,#721,.F.);
#971=ORIENTED_EDGE('',*,*,#720,.T.);
#972=ORIENTED_EDGE('',*,*,#722,.F.);
#973=ORIENTED_EDGE('',*,*,#723,.T.);
#974=ORIENTED_EDGE('',*,*,#724,.F.);
#975=ORIENTED_EDGE('',*,*,#725,.T.);
#976=ORIENTED_EDGE('',*,*,#726,.F.);
#977=ORIENTED_EDGE('',*,*,#727,.T.);
#978=ORIENTED_EDGE('',*,*,#728,.F.);
#979=ORIENTED_EDGE('',*,*,#723,.F.);
#980=ORIENTED_EDGE('',*,*,#729,.F.);
#981=ORIENTED_EDGE('',*,*,#730,.F.);
#982=ORIENTED_EDGE('',*,*,#731,.F.);
#983=ORIENTED_EDGE('',*,*,#732,.F.);
#984=ORIENTED_EDGE('',*,*,#733,.F.);
#985=ORIENTED_EDGE('',*,*,#725,.F.);
#986=ORIENTED_EDGE('',*,*,#734,.F.);
#987=ORIENTED_EDGE('',*,*,#727,.F.);
#988=ORIENTED_EDGE('',*,*,#735,.F.);
#989=ORIENTED_EDGE('',*,*,#736,.F.);
#990=ORIENTED_EDGE('',*,*,#737,.F.);
#991=ORIENTED_EDGE('',*,*,#738,.T.);
#992=ORIENTED_EDGE('',*,*,#739,.F.);
#993=ORIENTED_EDGE('',*,*,#740,.F.);
#994=ORIENTED_EDGE('',*,*,#741,.F.);
#995=ORIENTED_EDGE('',*,*,#742,.T.);
#996=ORIENTED_EDGE('',*,*,#743,.F.);
#997=ORIENTED_EDGE('',*,*,#744,.F.);
#998=ORIENTED_EDGE('',*,*,#719,.T.);
#999=ORIENTED_EDGE('',*,*,#745,.F.);
#1000=ORIENTED_EDGE('',*,*,#744,.T.);
#1001=ORIENTED_EDGE('',*,*,#746,.F.);
#1002=ORIENTED_EDGE('',*,*,#747,.F.);
#1003=ORIENTED_EDGE('',*,*,#748,.F.);
#1004=ORIENTED_EDGE('',*,*,#729,.T.);
#1005=ORIENTED_EDGE('',*,*,#722,.T.);
#1006=ORIENTED_EDGE('',*,*,#749,.F.);
#1007=ORIENTED_EDGE('',*,*,#747,.T.);
#1008=ORIENTED_EDGE('',*,*,#750,.F.);
#1009=ORIENTED_EDGE('',*,*,#751,.F.);
#1010=ORIENTED_EDGE('',*,*,#752,.F.);
#1011=ORIENTED_EDGE('',*,*,#751,.T.);
#1012=ORIENTED_EDGE('',*,*,#753,.F.);
#1013=ORIENTED_EDGE('',*,*,#742,.F.);
#1014=ORIENTED_EDGE('',*,*,#753,.T.);
#1015=ORIENTED_EDGE('',*,*,#750,.T.);
#1016=ORIENTED_EDGE('',*,*,#746,.T.);
#1017=ORIENTED_EDGE('',*,*,#743,.T.);
#1018=ORIENTED_EDGE('',*,*,#735,.T.);
#1019=ORIENTED_EDGE('',*,*,#726,.T.);
#1020=ORIENTED_EDGE('',*,*,#733,.T.);
#1021=ORIENTED_EDGE('',*,*,#754,.F.);
#1022=ORIENTED_EDGE('',*,*,#755,.T.);
#1023=ORIENTED_EDGE('',*,*,#756,.F.);
#1024=ORIENTED_EDGE('',*,*,#757,.F.);
#1025=ORIENTED_EDGE('',*,*,#758,.F.);
#1026=ORIENTED_EDGE('',*,*,#759,.F.);
#1027=ORIENTED_EDGE('',*,*,#757,.T.);
#1028=ORIENTED_EDGE('',*,*,#760,.F.);
#1029=ORIENTED_EDGE('',*,*,#713,.F.);
#1030=ORIENTED_EDGE('',*,*,#761,.F.);
#1031=ORIENTED_EDGE('',*,*,#715,.T.);
#1032=ORIENTED_EDGE('',*,*,#762,.F.);
#1033=ORIENTED_EDGE('',*,*,#755,.F.);
#1034=ORIENTED_EDGE('',*,*,#756,.T.);
#1035=ORIENTED_EDGE('',*,*,#762,.T.);
#1036=ORIENTED_EDGE('',*,*,#714,.T.);
#1037=ORIENTED_EDGE('',*,*,#760,.T.);
#1038=ORIENTED_EDGE('',*,*,#763,.T.);
#1039=ORIENTED_EDGE('',*,*,#764,.T.);
#1040=ORIENTED_EDGE('',*,*,#765,.T.);
#1041=ORIENTED_EDGE('',*,*,#736,.T.);
#1042=ORIENTED_EDGE('',*,*,#758,.T.);
#1043=ORIENTED_EDGE('',*,*,#759,.T.);
#1044=ORIENTED_EDGE('',*,*,#712,.T.);
#1045=ORIENTED_EDGE('',*,*,#766,.T.);
#1046=ORIENTED_EDGE('',*,*,#737,.T.);
#1047=ORIENTED_EDGE('',*,*,#767,.T.);
#1048=ORIENTED_EDGE('',*,*,#716,.T.);
#1049=ORIENTED_EDGE('',*,*,#761,.T.);
#1050=ORIENTED_EDGE('',*,*,#754,.T.);
#1051=ORIENTED_EDGE('',*,*,#732,.T.);
#1052=ORIENTED_EDGE('',*,*,#768,.T.);
#1053=ORIENTED_EDGE('',*,*,#769,.T.);
#1054=ORIENTED_EDGE('',*,*,#770,.T.);
#1055=ORIENTED_EDGE('',*,*,#730,.T.);
#1056=ORIENTED_EDGE('',*,*,#748,.T.);
#1057=ORIENTED_EDGE('',*,*,#749,.T.);
#1058=ORIENTED_EDGE('',*,*,#752,.T.);
#1059=ORIENTED_EDGE('',*,*,#741,.T.);
#1060=ORIENTED_EDGE('',*,*,#745,.T.);
#1061=ORIENTED_EDGE('',*,*,#718,.T.);
#1062=ORIENTED_EDGE('',*,*,#717,.T.);
#1063=ORIENTED_EDGE('',*,*,#721,.T.);
#1064=ORIENTED_EDGE('',*,*,#728,.T.);
#1065=ORIENTED_EDGE('',*,*,#770,.F.);
#1066=ORIENTED_EDGE('',*,*,#771,.T.);
#1067=ORIENTED_EDGE('',*,*,#772,.F.);
#1068=ORIENTED_EDGE('',*,*,#773,.F.);
#1069=ORIENTED_EDGE('',*,*,#763,.F.);
#1070=ORIENTED_EDGE('',*,*,#764,.F.);
#1071=ORIENTED_EDGE('',*,*,#773,.T.);
#1072=ORIENTED_EDGE('',*,*,#774,.F.);
#1073=ORIENTED_EDGE('',*,*,#775,.F.);
#1074=ORIENTED_EDGE('',*,*,#734,.T.);
#1075=ORIENTED_EDGE('',*,*,#765,.F.);
#1076=ORIENTED_EDGE('',*,*,#775,.T.);
#1077=ORIENTED_EDGE('',*,*,#776,.F.);
#1078=ORIENTED_EDGE('',*,*,#777,.F.);
#1079=ORIENTED_EDGE('',*,*,#768,.F.);
#1080=ORIENTED_EDGE('',*,*,#731,.T.);
#1081=ORIENTED_EDGE('',*,*,#724,.T.);
#1082=ORIENTED_EDGE('',*,*,#769,.F.);
#1083=ORIENTED_EDGE('',*,*,#777,.T.);
#1084=ORIENTED_EDGE('',*,*,#778,.F.);
#1085=ORIENTED_EDGE('',*,*,#771,.F.);
#1086=ORIENTED_EDGE('',*,*,#772,.T.);
#1087=ORIENTED_EDGE('',*,*,#778,.T.);
#1088=ORIENTED_EDGE('',*,*,#776,.T.);
#1089=ORIENTED_EDGE('',*,*,#774,.T.);
#1090=ORIENTED_EDGE('',*,*,#709,.F.);
#1091=ORIENTED_EDGE('',*,*,#710,.F.);
#1092=ORIENTED_EDGE('',*,*,#767,.F.);
#1093=ORIENTED_EDGE('',*,*,#740,.T.);
#1094=ORIENTED_EDGE('',*,*,#779,.T.);
#1095=ORIENTED_EDGE('',*,*,#780,.T.);
#1096=ORIENTED_EDGE('',*,*,#781,.T.);
#1097=ORIENTED_EDGE('',*,*,#782,.T.);
#1098=ORIENTED_EDGE('',*,*,#783,.T.);
#1099=ORIENTED_EDGE('',*,*,#696,.F.);
#1100=ORIENTED_EDGE('',*,*,#700,.F.);
#1101=ORIENTED_EDGE('',*,*,#703,.F.);
#1102=ORIENTED_EDGE('',*,*,#704,.F.);
#1103=ORIENTED_EDGE('',*,*,#650,.F.);
#1104=ORIENTED_EDGE('',*,*,#679,.T.);
#1105=ORIENTED_EDGE('',*,*,#622,.T.);
#1106=ORIENTED_EDGE('',*,*,#619,.T.);
#1107=ORIENTED_EDGE('',*,*,#693,.F.);
#1108=ORIENTED_EDGE('',*,*,#784,.F.);
#1109=ORIENTED_EDGE('',*,*,#785,.T.);
#1110=ORIENTED_EDGE('',*,*,#786,.F.);
#1111=ORIENTED_EDGE('',*,*,#706,.T.);
#1112=ORIENTED_EDGE('',*,*,#785,.F.);
#1113=ORIENTED_EDGE('',*,*,#787,.F.);
#1114=ORIENTED_EDGE('',*,*,#788,.F.);
#1115=ORIENTED_EDGE('',*,*,#787,.T.);
#1116=ORIENTED_EDGE('',*,*,#784,.T.);
#1117=ORIENTED_EDGE('',*,*,#692,.F.);
#1118=ORIENTED_EDGE('',*,*,#789,.T.);
#1119=ORIENTED_EDGE('',*,*,#697,.T.);
#1120=ORIENTED_EDGE('',*,*,#783,.F.);
#1121=ORIENTED_EDGE('',*,*,#790,.F.);
#1122=ORIENTED_EDGE('',*,*,#791,.T.);
#1123=ORIENTED_EDGE('',*,*,#790,.T.);
#1124=ORIENTED_EDGE('',*,*,#782,.F.);
#1125=ORIENTED_EDGE('',*,*,#792,.F.);
#1126=ORIENTED_EDGE('',*,*,#793,.T.);
#1127=ORIENTED_EDGE('',*,*,#792,.T.);
#1128=ORIENTED_EDGE('',*,*,#781,.F.);
#1129=ORIENTED_EDGE('',*,*,#794,.F.);
#1130=ORIENTED_EDGE('',*,*,#795,.T.);
#1131=ORIENTED_EDGE('',*,*,#794,.T.);
#1132=ORIENTED_EDGE('',*,*,#780,.F.);
#1133=ORIENTED_EDGE('',*,*,#796,.F.);
#1134=ORIENTED_EDGE('',*,*,#739,.T.);
#1135=ORIENTED_EDGE('',*,*,#797,.T.);
#1136=ORIENTED_EDGE('',*,*,#796,.T.);
#1137=ORIENTED_EDGE('',*,*,#779,.F.);
#1138=ORIENTED_EDGE('',*,*,#786,.T.);
#1139=ORIENTED_EDGE('',*,*,#788,.T.);
#1140=ORIENTED_EDGE('',*,*,#691,.F.);
#1141=ORIENTED_EDGE('',*,*,#621,.T.);
#1142=ORIENTED_EDGE('',*,*,#628,.T.);
#1143=ORIENTED_EDGE('',*,*,#680,.T.);
#1144=ORIENTED_EDGE('',*,*,#652,.T.);
#1145=ORIENTED_EDGE('',*,*,#705,.T.);
#1146=ORIENTED_EDGE('',*,*,#701,.T.);
#1147=ORIENTED_EDGE('',*,*,#698,.T.);
#1148=ORIENTED_EDGE('',*,*,#694,.T.);
#1149=ORIENTED_EDGE('',*,*,#789,.F.);
#1150=ORIENTED_EDGE('',*,*,#791,.F.);
#1151=ORIENTED_EDGE('',*,*,#793,.F.);
#1152=ORIENTED_EDGE('',*,*,#795,.F.);
#1153=ORIENTED_EDGE('',*,*,#797,.F.);
#1154=ORIENTED_EDGE('',*,*,#738,.F.);
#1155=ORIENTED_EDGE('',*,*,#766,.F.);
#1156=ORIENTED_EDGE('',*,*,#711,.F.);
#1157=ORIENTED_EDGE('',*,*,#707,.F.);
#1158=PLANE('',#1295);
#1159=PLANE('',#1296);
#1160=PLANE('',#1297);
#1161=PLANE('',#1298);
#1162=PLANE('',#1299);
#1163=PLANE('',#1300);
#1164=PLANE('',#1301);
#1165=PLANE('',#1302);
#1166=PLANE('',#1303);
#1167=PLANE('',#1304);
#1168=PLANE('',#1305);
#1169=PLANE('',#1306);
#1170=PLANE('',#1307);
#1171=PLANE('',#1308);
#1172=PLANE('',#1309);
#1173=PLANE('',#1310);
#1174=PLANE('',#1311);
#1175=PLANE('',#1312);
#1176=PLANE('',#1313);
#1177=PLANE('',#1314);
#1178=PLANE('',#1315);
#1179=PLANE('',#1316);
#1180=PLANE('',#1317);
#1181=PLANE('',#1318);
#1182=PLANE('',#1319);
#1183=PLANE('',#1320);
#1184=PLANE('',#1321);
#1185=PLANE('',#1322);
#1186=PLANE('',#1323);
#1187=PLANE('',#1324);
#1188=PLANE('',#1325);
#1189=PLANE('',#1326);
#1190=PLANE('',#1327);
#1191=PLANE('',#1328);
#1192=PLANE('',#1329);
#1193=PLANE('',#1330);
#1194=PLANE('',#1331);
#1195=PLANE('',#1332);
#1196=PLANE('',#1333);
#1197=PLANE('',#1334);
#1198=PLANE('',#1335);
#1199=PLANE('',#1336);
#1200=PLANE('',#1337);
#1201=PLANE('',#1338);
#1202=PLANE('',#1339);
#1203=PLANE('',#1340);
#1204=PLANE('',#1341);
#1205=PLANE('',#1342);
#1206=PLANE('',#1343);
#1207=PLANE('',#1344);
#1208=PLANE('',#1345);
#1209=PLANE('',#1346);
#1210=PLANE('',#1347);
#1211=PLANE('',#1348);
#1212=PLANE('',#1350);
#1213=PLANE('',#1353);
#1214=PLANE('',#1354);
#1215=PLANE('',#1355);
#1216=PLANE('',#1356);
#1217=PLANE('',#1357);
#1218=PLANE('',#1358);
#1219=ADVANCED_FACE('',(#18),#1158,.F.);
#1220=ADVANCED_FACE('',(#19),#1159,.F.);
#1221=ADVANCED_FACE('',(#20),#1160,.F.);
#1222=ADVANCED_FACE('',(#21),#1161,.F.);
#1223=ADVANCED_FACE('',(#22),#1162,.F.);
#1224=ADVANCED_FACE('',(#23),#1163,.F.);
#1225=ADVANCED_FACE('',(#24),#1164,.F.);
#1226=ADVANCED_FACE('',(#25),#1165,.F.);
#1227=ADVANCED_FACE('',(#26),#1166,.F.);
#1228=ADVANCED_FACE('',(#27),#1167,.F.);
#1229=ADVANCED_FACE('',(#28),#1168,.F.);
#1230=ADVANCED_FACE('',(#29),#1169,.F.);
#1231=ADVANCED_FACE('',(#30),#1170,.F.);
#1232=ADVANCED_FACE('',(#31),#1171,.F.);
#1233=ADVANCED_FACE('',(#32),#1172,.F.);
#1234=ADVANCED_FACE('',(#33),#1173,.F.);
#1235=ADVANCED_FACE('',(#34),#1174,.F.);
#1236=ADVANCED_FACE('',(#35),#1175,.F.);
#1237=ADVANCED_FACE('',(#36),#1176,.F.);
#1238=ADVANCED_FACE('',(#37),#1177,.F.);
#1239=ADVANCED_FACE('',(#38),#1178,.F.);
#1240=ADVANCED_FACE('',(#39),#1179,.F.);
#1241=ADVANCED_FACE('',(#40),#1180,.F.);
#1242=ADVANCED_FACE('',(#41),#1181,.F.);
#1243=ADVANCED_FACE('',(#42),#1182,.F.);
#1244=ADVANCED_FACE('',(#43),#1183,.F.);
#1245=ADVANCED_FACE('',(#44),#1184,.F.);
#1246=ADVANCED_FACE('',(#45),#1185,.F.);
#1247=ADVANCED_FACE('',(#46),#1186,.F.);
#1248=ADVANCED_FACE('',(#47),#1187,.T.);
#1249=ADVANCED_FACE('',(#48),#1188,.T.);
#1250=ADVANCED_FACE('',(#49),#1189,.T.);
#1251=ADVANCED_FACE('',(#50),#1190,.T.);
#1252=ADVANCED_FACE('',(#51),#1191,.T.);
#1253=ADVANCED_FACE('',(#52),#1192,.T.);
#1254=ADVANCED_FACE('',(#53),#1193,.T.);
#1255=ADVANCED_FACE('',(#54),#1194,.T.);
#1256=ADVANCED_FACE('',(#55),#1195,.T.);
#1257=ADVANCED_FACE('',(#56),#1196,.T.);
#1258=ADVANCED_FACE('',(#57),#1197,.T.);
#1259=ADVANCED_FACE('',(#58),#1198,.T.);
#1260=ADVANCED_FACE('',(#59),#1199,.T.);
#1261=ADVANCED_FACE('',(#60),#1200,.T.);
#1262=ADVANCED_FACE('',(#61),#1201,.T.);
#1263=ADVANCED_FACE('',(#62),#1202,.T.);
#1264=ADVANCED_FACE('',(#63),#1203,.T.);
#1265=ADVANCED_FACE('',(#64),#1204,.T.);
#1266=ADVANCED_FACE('',(#65),#1205,.T.);
#1267=ADVANCED_FACE('',(#66),#1206,.T.);
#1268=ADVANCED_FACE('',(#67),#1207,.T.);
#1269=ADVANCED_FACE('',(#68),#1208,.T.);
#1270=ADVANCED_FACE('',(#69),#1209,.T.);
#1271=ADVANCED_FACE('',(#70),#1210,.T.);
#1272=ADVANCED_FACE('',(#71),#1211,.T.);
#1273=ADVANCED_FACE('',(#72),#1212,.T.);
#1274=ADVANCED_FACE('',(#73),#15,.T.);
#1275=ADVANCED_FACE('',(#74),#1213,.T.);
#1276=ADVANCED_FACE('',(#75),#1214,.T.);
#1277=ADVANCED_FACE('',(#76),#1215,.T.);
#1278=ADVANCED_FACE('',(#77),#1216,.T.);
#1279=ADVANCED_FACE('',(#78),#1217,.T.);
#1280=ADVANCED_FACE('',(#79),#1218,.F.);
#1281=CLOSED_SHELL('',(#1219,#1220,#1221,#1222,#1223,#1224,#1225,#1226, #1227,#1228,#1229,#1230,#1231,#1232,#1233,#1234,#1235,#1236,#1237,#1238, #1239,#1240,#1241,#1242,#1243,#1244,#1245,#1246,#1247,#1248,#1249,#1250, #1251,#1252,#1253,#1254,#1255,#1256,#1257,#1258,#1259,#1260,#1261,#1262, #1263,#1264,#1265,#1266,#1267,#1268,#1269,#1270,#1271,#1272,#1273,#1274, #1275,#1276,#1277,#1278,#1279,#1280));
#1282=DERIVED_UNIT_ELEMENT(#1284,1.);
#1283=DERIVED_UNIT_ELEMENT(#2035,-3.);
#1284=( MASS_UNIT() NAMED_UNIT(*) SI_UNIT(.KILO.,.GRAM.) );
#1285=DERIVED_UNIT((#1282,#1283));
#1286=MEASURE_REPRESENTATION_ITEM('density measure', POSITIVE_RATIO_MEASURE(7850.),#1285);
#1287=PROPERTY_DEFINITION_REPRESENTATION(#1292,#1289);
#1288=PROPERTY_DEFINITION_REPRESENTATION(#1293,#1290);
#1289=REPRESENTATION('material name',(#1291),#2032);
#1290=REPRESENTATION('density',(#1286),#2032);
#1291=DESCRIPTIVE_REPRESENTATION_ITEM('Steel','Steel');
#1292=PROPERTY_DEFINITION('material property','material name',#2042);
#1293=PROPERTY_DEFINITION('material property','density of part',#2042);
#1294=AXIS2_PLACEMENT_3D('',#1667,#1359,#1360);
#1295=AXIS2_PLACEMENT_3D('',#1668,#1361,#1362);
#1296=AXIS2_PLACEMENT_3D('',#1677,#1367,#1368);
#1297=AXIS2_PLACEMENT_3D('',#1691,#1376,#1377);
#1298=AXIS2_PLACEMENT_3D('',#1700,#1382,#1383);
#1299=AXIS2_PLACEMENT_3D('',#1706,#1387,#1388);
#1300=AXIS2_PLACEMENT_3D('',#1715,#1393,#1394);
#1301=AXIS2_PLACEMENT_3D('',#1721,#1398,#1399);
#1302=AXIS2_PLACEMENT_3D('',#1727,#1403,#1404);
#1303=AXIS2_PLACEMENT_3D('',#1733,#1408,#1409);
#1304=AXIS2_PLACEMENT_3D('',#1742,#1414,#1415);
#1305=AXIS2_PLACEMENT_3D('',#1751,#1420,#1421);
#1306=AXIS2_PLACEMENT_3D('',#1758,#1426,#1427);
#1307=AXIS2_PLACEMENT_3D('',#1764,#1431,#1432);
#1308=AXIS2_PLACEMENT_3D('',#1767,#1435,#1436);
#1309=AXIS2_PLACEMENT_3D('',#1768,#1437,#1438);
#1310=AXIS2_PLACEMENT_3D('',#1778,#1444,#1445);
#1311=AXIS2_PLACEMENT_3D('',#1781,#1448,#1449);
#1312=AXIS2_PLACEMENT_3D('',#1784,#1452,#1453);
#1313=AXIS2_PLACEMENT_3D('',#1785,#1454,#1455);
#1314=AXIS2_PLACEMENT_3D('',#1798,#1464,#1465);
#1315=AXIS2_PLACEMENT_3D('',#1804,#1469,#1470);
#1316=AXIS2_PLACEMENT_3D('',#1808,#1473,#1474);
#1317=AXIS2_PLACEMENT_3D('',#1812,#1477,#1478);
#1318=AXIS2_PLACEMENT_3D('',#1814,#1480,#1481);
#1319=AXIS2_PLACEMENT_3D('',#1815,#1482,#1483);
#1320=AXIS2_PLACEMENT_3D('',#1821,#1487,#1488);
#1321=AXIS2_PLACEMENT_3D('',#1830,#1493,#1494);
#1322=AXIS2_PLACEMENT_3D('',#1836,#1498,#1499);
#1323=AXIS2_PLACEMENT_3D('',#1842,#1503,#1504);
#1324=AXIS2_PLACEMENT_3D('',#1845,#1507,#1508);
#1325=AXIS2_PLACEMENT_3D('',#1854,#1513,#1514);
#1326=AXIS2_PLACEMENT_3D('',#1868,#1522,#1523);
#1327=AXIS2_PLACEMENT_3D('',#1877,#1528,#1529);
#1328=AXIS2_PLACEMENT_3D('',#1883,#1533,#1534);
#1329=AXIS2_PLACEMENT_3D('',#1892,#1539,#1540);
#1330=AXIS2_PLACEMENT_3D('',#1898,#1544,#1545);
#1331=AXIS2_PLACEMENT_3D('',#1904,#1549,#1550);
#1332=AXIS2_PLACEMENT_3D('',#1910,#1554,#1555);
#1333=AXIS2_PLACEMENT_3D('',#1919,#1560,#1561);
#1334=AXIS2_PLACEMENT_3D('',#1928,#1566,#1567);
#1335=AXIS2_PLACEMENT_3D('',#1935,#1572,#1573);
#1336=AXIS2_PLACEMENT_3D('',#1941,#1577,#1578);
#1337=AXIS2_PLACEMENT_3D('',#1944,#1581,#1582);
#1338=AXIS2_PLACEMENT_3D('',#1945,#1583,#1584);
#1339=AXIS2_PLACEMENT_3D('',#1955,#1590,#1591);
#1340=AXIS2_PLACEMENT_3D('',#1958,#1594,#1595);
#1341=AXIS2_PLACEMENT_3D('',#1961,#1598,#1599);
#1342=AXIS2_PLACEMENT_3D('',#1962,#1600,#1601);
#1343=AXIS2_PLACEMENT_3D('',#1975,#1610,#1611);
#1344=AXIS2_PLACEMENT_3D('',#1981,#1615,#1616);
#1345=AXIS2_PLACEMENT_3D('',#1985,#1619,#1620);
#1346=AXIS2_PLACEMENT_3D('',#1989,#1623,#1624);
#1347=AXIS2_PLACEMENT_3D('',#1991,#1626,#1627);
#1348=AXIS2_PLACEMENT_3D('',#1992,#1628,#1629);
#1349=AXIS2_PLACEMENT_3D('',#2003,#1635,#1636);
#1350=AXIS2_PLACEMENT_3D('',#2005,#1638,#1639);
#1351=AXIS2_PLACEMENT_3D('',#2009,#1642,#1643);
#1352=AXIS2_PLACEMENT_3D('',#2010,#1644,#1645);
#1353=AXIS2_PLACEMENT_3D('',#2011,#1646,#1647);
#1354=AXIS2_PLACEMENT_3D('',#2015,#1650,#1651);
#1355=AXIS2_PLACEMENT_3D('',#2019,#1654,#1655);
#1356=AXIS2_PLACEMENT_3D('',#2023,#1658,#1659);
#1357=AXIS2_PLACEMENT_3D('',#2027,#1662,#1663);
#1358=AXIS2_PLACEMENT_3D('',#2029,#1665,#1666);
#1359=DIRECTION('axis',(0.,0.,1.));
#1360=DIRECTION('refdir',(1.,0.,0.));
#1361=DIRECTION('center_axis',(0.,0.,-1.));
#1362=DIRECTION('ref_axis',(-1.,0.,0.));
#1363=DIRECTION('',(0.,-1.,0.));
#1364=DIRECTION('',(-1.,0.,0.));
#1365=DIRECTION('',(0.302623696415704,0.953110118699668,0.));
#1366=DIRECTION('',(1.,0.,0.));
#1367=DIRECTION('center_axis',(0.953110118699668,-0.302623696415704,0.));
#1368=DIRECTION('ref_axis',(0.302623696415704,0.953110118699668,0.));
#1369=DIRECTION('',(0.,0.,1.));
#1370=DIRECTION('',(-0.302623696415704,-0.953110118699668,0.));
#1371=DIRECTION('',(0.,0.,1.));
#1372=DIRECTION('',(0.302623696415704,0.953110118699668,0.));
#1373=DIRECTION('',(0.,0.,1.));
#1374=DIRECTION('',(-0.302623696415704,-0.953110118699668,0.));
#1375=DIRECTION('',(0.,0.,-1.));
#1376=DIRECTION('center_axis',(0.,-1.,0.));
#1377=DIRECTION('ref_axis',(1.,0.,0.));
#1378=DIRECTION('',(0.,0.,1.));
#1379=DIRECTION('',(1.,0.,0.));
#1380=DIRECTION('',(0.,0.,-1.));
#1381=DIRECTION('',(-1.,0.,0.));
#1382=DIRECTION('center_axis',(0.,0.,-1.));
#1383=DIRECTION('ref_axis',(-1.,0.,0.));
#1384=DIRECTION('',(-0.302623696415704,-0.953110118699668,0.));
#1385=DIRECTION('',(-1.,0.,0.));
#1386=DIRECTION('',(0.302623696415704,0.953110118699668,0.));
#1387=DIRECTION('center_axis',(0.,0.,-1.));
#1388=DIRECTION('ref_axis',(-1.,0.,0.));
#1389=DIRECTION('',(0.302623696415704,0.953110118699668,0.));
#1390=DIRECTION('',(1.,0.,0.));
#1391=DIRECTION('',(-0.302623696415704,-0.953110118699668,0.));
#1392=DIRECTION('',(-1.,0.,0.));
#1393=DIRECTION('center_axis',(0.,1.,0.));
#1394=DIRECTION('ref_axis',(-1.,0.,0.));
#1395=DIRECTION('',(0.,0.,-1.));
#1396=DIRECTION('',(1.,0.,0.));
#1397=DIRECTION('',(0.,0.,1.));
#1398=DIRECTION('center_axis',(0.,1.,0.));
#1399=DIRECTION('ref_axis',(-1.,0.,0.));
#1400=DIRECTION('',(0.,0.,1.));
#1401=DIRECTION('',(0.,0.,-1.));
#1402=DIRECTION('',(1.,0.,0.));
#1403=DIRECTION('center_axis',(0.,-1.,0.));
#1404=DIRECTION('ref_axis',(1.,0.,0.));
#1405=DIRECTION('',(0.,0.,-1.));
#1406=DIRECTION('',(-1.,0.,0.));
#1407=DIRECTION('',(0.,0.,1.));
#1408=DIRECTION('center_axis',(1.,0.,0.));
#1409=DIRECTION('ref_axis',(0.,1.,0.));
#1410=DIRECTION('',(0.,-1.,0.));
#1411=DIRECTION('',(0.,0.,1.));
#1412=DIRECTION('',(0.,1.,0.));
#1413=DIRECTION('',(0.,0.,1.));
#1414=DIRECTION('center_axis',(-0.302623696415702,-0.953110118699669,0.));
#1415=DIRECTION('ref_axis',(0.953110118699669,-0.302623696415702,0.));
#1416=DIRECTION('',(-0.953110118699669,0.302623696415702,0.));
#1417=DIRECTION('',(0.,0.,1.));
#1418=DIRECTION('',(0.953110118699669,-0.302623696415702,0.));
#1419=DIRECTION('',(0.,0.,1.));
#1420=DIRECTION('center_axis',(0.953110118699668,-0.302623696415704,0.));
#1421=DIRECTION('ref_axis',(0.302623696415704,0.953110118699668,0.));
#1422=DIRECTION('',(-0.302623696415704,-0.953110118699668,0.));
#1423=DIRECTION('',(0.,0.,1.));
#1424=DIRECTION('',(0.302623696415704,0.953110118699668,0.));
#1425=DIRECTION('',(-0.302623696415704,-0.953110118699668,0.));
#1426=DIRECTION('center_axis',(0.302623696415707,0.953110118699667,0.));
#1427=DIRECTION('ref_axis',(-0.953110118699667,0.302623696415707,0.));
#1428=DIRECTION('',(0.953110118699667,-0.302623696415707,0.));
#1429=DIRECTION('',(0.,0.,1.));
#1430=DIRECTION('',(-0.953110118699667,0.302623696415707,0.));
#1431=DIRECTION('center_axis',(-0.953110118699668,0.302623696415704,0.));
#1432=DIRECTION('ref_axis',(-0.302623696415704,-0.953110118699668,0.));
#1433=DIRECTION('',(0.302623696415704,0.953110118699668,0.));
#1434=DIRECTION('',(-0.302623696415704,-0.953110118699668,0.));
#1435=DIRECTION('center_axis',(0.,0.,-1.));
#1436=DIRECTION('ref_axis',(-1.,0.,0.));
#1437=DIRECTION('center_axis',(-0.953110118699668,0.302623696415704,0.));
#1438=DIRECTION('ref_axis',(-0.302623696415704,-0.953110118699668,0.));
#1439=DIRECTION('',(0.302623696415704,0.953110118699668,0.));
#1440=DIRECTION('',(0.,0.,1.));
#1441=DIRECTION('',(-0.302623696415704,-0.953110118699668,0.));
#1442=DIRECTION('',(0.,0.,1.));
#1443=DIRECTION('',(0.302623696415704,0.953110118699668,0.));
#1444=DIRECTION('center_axis',(-0.302623696415702,-0.953110118699669,0.));
#1445=DIRECTION('ref_axis',(0.953110118699669,-0.302623696415702,0.));
#1446=DIRECTION('',(-0.953110118699669,0.302623696415702,0.));
#1447=DIRECTION('',(0.953110118699669,-0.302623696415702,0.));
#1448=DIRECTION('center_axis',(0.302623696415707,0.953110118699667,0.));
#1449=DIRECTION('ref_axis',(-0.953110118699667,0.302623696415707,0.));
#1450=DIRECTION('',(0.953110118699667,-0.302623696415707,0.));
#1451=DIRECTION('',(-0.953110118699667,0.302623696415707,0.));
#1452=DIRECTION('center_axis',(0.,0.,-1.));
#1453=DIRECTION('ref_axis',(-1.,0.,0.));
#1454=DIRECTION('center_axis',(0.,0.,1.));
#1455=DIRECTION('ref_axis',(-1.,0.,0.));
#1456=DIRECTION('',(0.302623696415704,0.953110118699668,0.));
#1457=DIRECTION('',(0.302623696415704,0.953110118699668,0.));
#1458=DIRECTION('',(0.953110118699667,-0.302623696415707,0.));
#1459=DIRECTION('',(-0.302623696415704,-0.953110118699668,0.));
#1460=DIRECTION('',(1.,0.,0.));
#1461=DIRECTION('',(-1.,0.,0.));
#1462=DIRECTION('',(-0.302623696415704,-0.953110118699668,0.));
#1463=DIRECTION('',(-0.953110118699669,0.302623696415702,0.));
#1464=DIRECTION('center_axis',(-0.953110118699668,0.302623696415704,0.));
#1465=DIRECTION('ref_axis',(-0.302623696415704,-0.953110118699668,0.));
#1466=DIRECTION('',(0.,0.,1.));
#1467=DIRECTION('',(-0.302623696415704,-0.953110118699668,0.));
#1468=DIRECTION('',(0.,0.,1.));
#1469=DIRECTION('center_axis',(-0.302623696415702,-0.953110118699669,0.));
#1470=DIRECTION('ref_axis',(0.953110118699669,-0.302623696415702,0.));
#1471=DIRECTION('',(0.,0.,1.));
#1472=DIRECTION('',(0.953110118699669,-0.302623696415702,0.));
#1473=DIRECTION('center_axis',(0.953110118699668,-0.302623696415704,0.));
#1474=DIRECTION('ref_axis',(0.302623696415704,0.953110118699668,0.));
#1475=DIRECTION('',(0.,0.,1.));
#1476=DIRECTION('',(0.302623696415704,0.953110118699668,0.));
#1477=DIRECTION('center_axis',(0.302623696415707,0.953110118699667,0.));
#1478=DIRECTION('ref_axis',(-0.953110118699667,0.302623696415707,0.));
#1479=DIRECTION('',(-0.953110118699667,0.302623696415707,0.));
#1480=DIRECTION('center_axis',(0.,0.,-1.));
#1481=DIRECTION('ref_axis',(-1.,0.,0.));
#1482=DIRECTION('center_axis',(-0.407404797318935,0.,-0.913247683337613));
#1483=DIRECTION('ref_axis',(0.913247683337613,0.,-0.407404797318935));
#1484=DIRECTION('',(-0.913247683337613,0.,0.407404797318935));
#1485=DIRECTION('',(0.,-1.,0.));
#1486=DIRECTION('',(0.913247683337613,0.,-0.407404797318935));
#1487=DIRECTION('center_axis',(-0.707106970847296,0.,0.707106591525748));
#1488=DIRECTION('ref_axis',(-0.707106591525748,0.,-0.707106970847296));
#1489=DIRECTION('',(-0.707106591525748,0.,-0.707106970847296));
#1490=DIRECTION('',(0.,-1.,0.));
#1491=DIRECTION('',(-0.707106591525748,0.,-0.707106970847296));
#1492=DIRECTION('',(0.,-1.,0.));
#1493=DIRECTION('center_axis',(-1.,0.,9.65411918037185E-16));
#1494=DIRECTION('ref_axis',(-9.65411918037185E-16,0.,-1.));
#1495=DIRECTION('',(-9.65411918037185E-16,0.,-1.));
#1496=DIRECTION('',(0.,-1.,0.));
#1497=DIRECTION('',(-9.65411918037185E-16,0.,-1.));
#1498=DIRECTION('center_axis',(-0.500000512178424,0.,0.866025108077886));
#1499=DIRECTION('ref_axis',(-0.866025108077886,0.,-0.500000512178424));
#1500=DIRECTION('',(-0.866025108077886,0.,-0.500000512178424));
#1501=DIRECTION('',(0.,-1.,0.));
#1502=DIRECTION('',(-0.866025108077886,0.,-0.500000512178424));
#1503=DIRECTION('center_axis',(0.499999707463993,0.,0.866025572680115));
#1504=DIRECTION('ref_axis',(-0.866025572680115,0.,0.499999707463992));
#1505=DIRECTION('',(-0.866025572680115,0.,0.499999707463992));
#1506=DIRECTION('',(-0.866025572680115,0.,0.499999707463992));
#1507=DIRECTION('center_axis',(0.,0.,1.));
#1508=DIRECTION('ref_axis',(1.,0.,0.));
#1509=DIRECTION('',(0.,-1.,0.));
#1510=DIRECTION('',(-1.,0.,0.));
#1511=DIRECTION('',(-0.302623696415704,0.953110118699668,0.));
#1512=DIRECTION('',(1.,0.,0.));
#1513=DIRECTION('center_axis',(0.953110118699668,0.302623696415704,0.));
#1514=DIRECTION('ref_axis',(-0.302623696415704,0.953110118699668,0.));
#1515=DIRECTION('',(0.,0.,1.));
#1516=DIRECTION('',(0.,0.,-1.));
#1517=DIRECTION('',(0.302623696415704,-0.953110118699668,0.));
#1518=DIRECTION('',(0.,0.,1.));
#1519=DIRECTION('',(-0.302623696415704,0.953110118699668,0.));
#1520=DIRECTION('',(0.,0.,1.));
#1521=DIRECTION('',(0.302623696415704,-0.953110118699668,0.));
#1522=DIRECTION('center_axis',(0.,1.,0.));
#1523=DIRECTION('ref_axis',(-1.,0.,0.));
#1524=DIRECTION('',(0.,0.,1.));
#1525=DIRECTION('',(1.,0.,0.));
#1526=DIRECTION('',(0.,0.,-1.));
#1527=DIRECTION('',(-1.,0.,0.));
#1528=DIRECTION('center_axis',(0.,0.,1.));
#1529=DIRECTION('ref_axis',(1.,0.,0.));
#1530=DIRECTION('',(0.302623696415704,-0.953110118699668,0.));
#1531=DIRECTION('',(-0.302623696415704,0.953110118699668,0.));
#1532=DIRECTION('',(1.,0.,0.));
#1533=DIRECTION('center_axis',(0.,0.,1.));
#1534=DIRECTION('ref_axis',(1.,0.,0.));
#1535=DIRECTION('',(-0.302623696415704,0.953110118699668,0.));
#1536=DIRECTION('',(1.,0.,0.));
#1537=DIRECTION('',(0.302623696415704,-0.953110118699668,0.));
#1538=DIRECTION('',(-1.,0.,0.));
#1539=DIRECTION('center_axis',(0.,-1.,0.));
#1540=DIRECTION('ref_axis',(1.,0.,0.));
#1541=DIRECTION('',(0.,0.,-1.));
#1542=DIRECTION('',(0.,0.,1.));
#1543=DIRECTION('',(-1.,0.,0.));
#1544=DIRECTION('center_axis',(0.,-1.,0.));
#1545=DIRECTION('ref_axis',(1.,0.,0.));
#1546=DIRECTION('',(0.,0.,1.));
#1547=DIRECTION('',(-1.,0.,0.));
#1548=DIRECTION('',(0.,0.,-1.));
#1549=DIRECTION('center_axis',(0.,1.,0.));
#1550=DIRECTION('ref_axis',(-1.,0.,0.));
#1551=DIRECTION('',(0.,0.,-1.));
#1552=DIRECTION('',(0.,0.,1.));
#1553=DIRECTION('',(1.,0.,0.));
#1554=DIRECTION('center_axis',(1.,0.,0.));
#1555=DIRECTION('ref_axis',(0.,1.,0.));
#1556=DIRECTION('',(0.,-1.,0.));
#1557=DIRECTION('',(0.,0.,1.));
#1558=DIRECTION('',(0.,1.,0.));
#1559=DIRECTION('',(0.,0.,1.));
#1560=DIRECTION('center_axis',(-0.302623696415702,0.953110118699669,0.));
#1561=DIRECTION('ref_axis',(-0.953110118699669,-0.302623696415702,0.));
#1562=DIRECTION('',(0.953110118699669,0.302623696415702,0.));
#1563=DIRECTION('',(0.,0.,1.));
#1564=DIRECTION('',(-0.953110118699669,-0.302623696415702,0.));
#1565=DIRECTION('',(0.,0.,1.));
#1566=DIRECTION('center_axis',(0.953110118699668,0.302623696415704,0.));
#1567=DIRECTION('ref_axis',(-0.302623696415704,0.953110118699668,0.));
#1568=DIRECTION('',(0.302623696415704,-0.953110118699668,0.));
#1569=DIRECTION('',(-0.302623696415704,0.953110118699668,0.));
#1570=DIRECTION('',(0.,0.,1.));
#1571=DIRECTION('',(0.302623696415704,-0.953110118699668,0.));
#1572=DIRECTION('center_axis',(0.302623696415707,-0.953110118699667,0.));
#1573=DIRECTION('ref_axis',(0.953110118699667,0.302623696415707,0.));
#1574=DIRECTION('',(-0.953110118699667,-0.302623696415707,0.));
#1575=DIRECTION('',(0.953110118699667,0.302623696415707,0.));
#1576=DIRECTION('',(0.,0.,1.));
#1577=DIRECTION('center_axis',(-0.953110118699668,-0.302623696415704,0.));
#1578=DIRECTION('ref_axis',(0.302623696415704,-0.953110118699668,0.));
#1579=DIRECTION('',(-0.302623696415704,0.953110118699668,0.));
#1580=DIRECTION('',(0.302623696415704,-0.953110118699668,0.));
#1581=DIRECTION('center_axis',(0.,0.,1.));
#1582=DIRECTION('ref_axis',(1.,0.,0.));
#1583=DIRECTION('center_axis',(-0.953110118699668,-0.302623696415704,0.));
#1584=DIRECTION('ref_axis',(0.302623696415704,-0.953110118699668,0.));
#1585=DIRECTION('',(-0.302623696415704,0.953110118699668,0.));
#1586=DIRECTION('',(0.,0.,1.));
#1587=DIRECTION('',(0.302623696415704,-0.953110118699668,0.));
#1588=DIRECTION('',(0.,0.,1.));
#1589=DIRECTION('',(-0.302623696415704,0.953110118699668,0.));
#1590=DIRECTION('center_axis',(-0.302623696415702,0.953110118699669,0.));
#1591=DIRECTION('ref_axis',(-0.953110118699669,-0.302623696415702,0.));
#1592=DIRECTION('',(0.953110118699669,0.302623696415702,0.));
#1593=DIRECTION('',(-0.953110118699669,-0.302623696415702,0.));
#1594=DIRECTION('center_axis',(0.302623696415707,-0.953110118699667,0.));
#1595=DIRECTION('ref_axis',(0.953110118699667,0.302623696415707,0.));
#1596=DIRECTION('',(-0.953110118699667,-0.302623696415707,0.));
#1597=DIRECTION('',(0.953110118699667,0.302623696415707,0.));
#1598=DIRECTION('center_axis',(0.,0.,1.));
#1599=DIRECTION('ref_axis',(1.,0.,0.));
#1600=DIRECTION('center_axis',(0.,0.,-1.));
#1601=DIRECTION('ref_axis',(1.,0.,0.));
#1602=DIRECTION('',(-0.302623696415704,0.953110118699668,0.));
#1603=DIRECTION('',(0.953110118699669,0.302623696415702,0.));
#1604=DIRECTION('',(0.302623696415704,-0.953110118699668,0.));
#1605=DIRECTION('',(1.,0.,0.));
#1606=DIRECTION('',(-1.,0.,0.));
#1607=DIRECTION('',(0.302623696415704,-0.953110118699668,0.));
#1608=DIRECTION('',(-0.953110118699667,-0.302623696415707,0.));
#1609=DIRECTION('',(-0.302623696415704,0.953110118699668,0.));
#1610=DIRECTION('center_axis',(-0.953110118699668,-0.302623696415704,0.));
#1611=DIRECTION('ref_axis',(0.302623696415704,-0.953110118699668,0.));
#1612=DIRECTION('',(0.,0.,1.));
#1613=DIRECTION('',(0.302623696415704,-0.953110118699668,0.));
#1614=DIRECTION('',(0.,0.,1.));
#1615=DIRECTION('center_axis',(-0.302623696415702,0.953110118699669,0.));
#1616=DIRECTION('ref_axis',(-0.953110118699669,-0.302623696415702,0.));
#1617=DIRECTION('',(-0.953110118699669,-0.302623696415702,0.));
#1618=DIRECTION('',(0.,0.,1.));
#1619=DIRECTION('center_axis',(0.953110118699668,0.302623696415704,0.));
#1620=DIRECTION('ref_axis',(-0.302623696415704,0.953110118699668,0.));
#1621=DIRECTION('',(-0.302623696415704,0.953110118699668,0.));
#1622=DIRECTION('',(0.,0.,1.));
#1623=DIRECTION('center_axis',(0.302623696415707,-0.953110118699667,0.));
#1624=DIRECTION('ref_axis',(0.953110118699667,0.302623696415707,0.));
#1625=DIRECTION('',(0.953110118699667,0.302623696415707,0.));
#1626=DIRECTION('center_axis',(0.,0.,1.));
#1627=DIRECTION('ref_axis',(1.,0.,0.));
#1628=DIRECTION('center_axis',(0.,-1.,0.));
#1629=DIRECTION('ref_axis',(1.,0.,0.));
#1630=DIRECTION('',(0.866025572680115,0.,0.499999707463992));
#1631=DIRECTION('',(0.866025108077886,0.,-0.500000512178424));
#1632=DIRECTION('',(9.65411918037185E-16,0.,-1.));
#1633=DIRECTION('',(0.707106591525748,0.,-0.707106970847296));
#1634=DIRECTION('',(1.,0.,0.));
#1635=DIRECTION('center_axis',(0.,1.,0.));
#1636=DIRECTION('ref_axis',(-1.,0.,4.96079099293678E-16));
#1637=DIRECTION('',(-0.913247683337613,0.,-0.407404797318935));
#1638=DIRECTION('center_axis',(-0.407404797318935,0.,0.913247683337613));
#1639=DIRECTION('ref_axis',(-0.913247683337613,0.,-0.407404797318935));
#1640=DIRECTION('',(0.913247683337613,0.,0.407404797318935));
#1641=DIRECTION('',(0.,-1.,0.));
#1642=DIRECTION('center_axis',(0.,-1.,0.));
#1643=DIRECTION('ref_axis',(1.,0.,4.96079099293678E-16));
#1644=DIRECTION('center_axis',(0.,1.,0.));
#1645=DIRECTION('ref_axis',(-1.,0.,4.96079099293678E-16));
#1646=DIRECTION('center_axis',(0.,0.,-1.));
#1647=DIRECTION('ref_axis',(1.,0.,0.));
#1648=DIRECTION('',(1.,0.,0.));
#1649=DIRECTION('',(0.,-1.,0.));
#1650=DIRECTION('center_axis',(-0.707106970847296,0.,-0.707106591525748));
#1651=DIRECTION('ref_axis',(0.707106591525748,0.,-0.707106970847296));
#1652=DIRECTION('',(0.707106591525748,0.,-0.707106970847296));
#1653=DIRECTION('',(0.,-1.,0.));
#1654=DIRECTION('center_axis',(-1.,0.,-9.65411918037185E-16));
#1655=DIRECTION('ref_axis',(9.65411918037185E-16,0.,-1.));
#1656=DIRECTION('',(9.65411918037185E-16,0.,-1.));
#1657=DIRECTION('',(0.,-1.,0.));
#1658=DIRECTION('center_axis',(-0.500000512178424,0.,-0.866025108077886));
#1659=DIRECTION('ref_axis',(0.866025108077886,0.,-0.500000512178424));
#1660=DIRECTION('',(0.866025108077886,0.,-0.500000512178424));
#1661=DIRECTION('',(0.,-1.,0.));
#1662=DIRECTION('center_axis',(0.499999707463993,0.,-0.866025572680115));
#1663=DIRECTION('ref_axis',(0.866025572680115,0.,0.499999707463992));
#1664=DIRECTION('',(0.866025572680115,0.,0.499999707463992));
#1665=DIRECTION('center_axis',(0.,-1.,0.));
#1666=DIRECTION('ref_axis',(1.,0.,0.));
#1667=CARTESIAN_POINT('',(0.0,0.0,0.0));
#1668=CARTESIAN_POINT('Origin',(37.71456419610042,103.0422167836902,-31.2));
#1669=CARTESIAN_POINT('',(22.19999950379136,108.7422167836902,-31.19999930262564));
#1670=CARTESIAN_POINT('',(22.19999950379136,97.3422167836902,-31.19999930262564));
#1671=CARTESIAN_POINT('',(22.19999950379136,108.7422167836902,-31.19999930262564));
#1672=CARTESIAN_POINT('',(25.62835206442878,97.3422167836902,-31.2));
#1673=CARTESIAN_POINT('',(14.01456419610042,97.3422167836902,-31.2));
#1674=CARTESIAN_POINT('',(29.24798642928654,108.7422167836902,-31.2));
#1675=CARTESIAN_POINT('',(24.6402496161381,94.2301986141546,-31.2));
#1676=CARTESIAN_POINT('',(61.4145641961006,108.7422167836902,-31.2));
#1677=CARTESIAN_POINT('Origin',(20.90120641515828,82.4541217526328,-43.2));
#1678=CARTESIAN_POINT('',(25.62835206442878,97.3422167836902,-43.2));
#1679=CARTESIAN_POINT('',(25.62835206442878,97.3422167836902,-43.2));
#1680=CARTESIAN_POINT('',(20.90120641515828,82.4541217526328,-43.2));
#1681=CARTESIAN_POINT('',(33.61140166461786,122.484746738019,-43.2));
#1682=CARTESIAN_POINT('',(20.90120641515828,82.4541217526328,-22.2));
#1683=CARTESIAN_POINT('',(20.90120641515828,82.4541217526328,-43.2));
#1684=CARTESIAN_POINT('',(33.61140166461786,122.484746738019,-22.2));
#1685=CARTESIAN_POINT('',(33.61140166461786,122.484746738019,-22.2));
#1686=CARTESIAN_POINT('',(33.61140166461786,122.484746738019,-43.2));
#1687=CARTESIAN_POINT('',(33.61140166461786,122.484746738019,-43.2));
#1688=CARTESIAN_POINT('',(29.24798642928654,108.7422167836902,-43.2));
#1689=CARTESIAN_POINT('',(33.61140166461786,122.484746738019,-43.2));
#1690=CARTESIAN_POINT('',(29.24798642928654,108.7422167836902,-43.2));
#1691=CARTESIAN_POINT('Origin',(14.01456419610042,108.7422167836902,-43.2));
#1692=CARTESIAN_POINT('',(50.54316668420383,108.7422167836902,-43.2));
#1693=CARTESIAN_POINT('',(50.54316668420383,108.7422167836902,-37.2));
#1694=CARTESIAN_POINT('',(50.54316668420383,108.7422167836902,-43.2));
#1695=CARTESIAN_POINT('',(59.24798642928654,108.7422167836902,-37.2));
#1696=CARTESIAN_POINT('',(61.4145641961006,108.7422167836902,-37.2));
#1697=CARTESIAN_POINT('',(59.24798642928654,108.7422167836902,-43.2));
#1698=CARTESIAN_POINT('',(59.24798642928654,108.7422167836902,-43.2));
#1699=CARTESIAN_POINT('',(61.4145641961006,108.7422167836902,-43.2));
#1700=CARTESIAN_POINT('Origin',(37.71456419610042,103.0422167836902,-37.2));
#1701=CARTESIAN_POINT('',(46.923532319346,97.3422167836902,-37.2));
#1702=CARTESIAN_POINT('',(51.02714969082366,110.2665161242626,-37.2));
#1703=CARTESIAN_POINT('',(55.62835206442877,97.3422167836902,-37.2));
#1704=CARTESIAN_POINT('',(14.01456419610042,97.3422167836902,-37.2));
#1705=CARTESIAN_POINT('',(53.26653309165354,89.9036930059728,-37.2));
#1706=CARTESIAN_POINT('Origin',(37.71456419610042,103.0422167836902,-37.2));
#1707=CARTESIAN_POINT('',(40.62835206442878,97.3422167836902,-37.2));
#1708=CARTESIAN_POINT('',(44.24798642928654,108.7422167836902,-37.2));
#1709=CARTESIAN_POINT('',(38.95339135389588,92.066945810064,-37.2));
#1710=CARTESIAN_POINT('',(35.54316668420383,108.7422167836902,-37.2));
#1711=CARTESIAN_POINT('',(61.4145641961006,108.7422167836902,-37.2));
#1712=CARTESIAN_POINT('',(31.923532319346,97.3422167836902,-37.2));
#1713=CARTESIAN_POINT('',(36.71400795306594,112.4297689283532,-37.2));
#1714=CARTESIAN_POINT('',(14.01456419610042,97.3422167836902,-37.2));
#1715=CARTESIAN_POINT('Origin',(61.4145641961006,97.3422167836902,-43.2));
#1716=CARTESIAN_POINT('',(46.923532319346,97.3422167836902,-43.2));
#1717=CARTESIAN_POINT('',(46.923532319346,97.3422167836902,-43.2));
#1718=CARTESIAN_POINT('',(55.62835206442877,97.3422167836902,-43.2));
#1719=CARTESIAN_POINT('',(14.01456419610042,97.3422167836902,-43.2));
#1720=CARTESIAN_POINT('',(55.62835206442877,97.3422167836902,-43.2));
#1721=CARTESIAN_POINT('Origin',(61.4145641961006,97.3422167836902,-43.2));
#1722=CARTESIAN_POINT('',(40.62835206442878,97.3422167836902,-43.2));
#1723=CARTESIAN_POINT('',(40.62835206442878,97.3422167836902,-43.2));
#1724=CARTESIAN_POINT('',(31.923532319346,97.3422167836902,-43.2));
#1725=CARTESIAN_POINT('',(31.923532319346,97.3422167836902,-43.2));
#1726=CARTESIAN_POINT('',(14.01456419610042,97.3422167836902,-43.2));
#1727=CARTESIAN_POINT('Origin',(14.01456419610042,108.7422167836902,-43.2));
#1728=CARTESIAN_POINT('',(44.24798642928654,108.7422167836902,-43.2));
#1729=CARTESIAN_POINT('',(44.24798642928654,108.7422167836902,-43.2));
#1730=CARTESIAN_POINT('',(35.54316668420383,108.7422167836902,-43.2));
#1731=CARTESIAN_POINT('',(61.4145641961006,108.7422167836902,-43.2));
#1732=CARTESIAN_POINT('',(35.54316668420383,108.7422167836902,-43.2));
#1733=CARTESIAN_POINT('Origin',(14.01456419610042,97.3422167836902,-43.2));
#1734=CARTESIAN_POINT('',(14.01456419610042,108.7422167836902,-43.2));
#1735=CARTESIAN_POINT('',(14.01456419610042,97.3422167836902,-43.2));
#1736=CARTESIAN_POINT('',(14.01456419610042,108.7422167836902,-43.2));
#1737=CARTESIAN_POINT('',(14.01456419610042,97.3422167836902,-35.3922560472717));
#1738=CARTESIAN_POINT('',(14.01456419610042,97.3422167836902,-43.2));
#1739=CARTESIAN_POINT('',(14.01456419610042,108.7422167836902,-35.3922560472717));
#1740=CARTESIAN_POINT('',(14.01456419610042,103.0422167836902,-35.3922560472717));
#1741=CARTESIAN_POINT('',(14.01456419610042,108.7422167836902,-43.2));
#1742=CARTESIAN_POINT('Origin',(63.6114016646178,122.484746738019,-43.2));
#1743=CARTESIAN_POINT('',(69.330062376816,120.6690045595248,-43.2));
#1744=CARTESIAN_POINT('',(63.6114016646178,122.484746738019,-43.2));
#1745=CARTESIAN_POINT('',(69.330062376816,120.6690045595248,-43.2));
#1746=CARTESIAN_POINT('',(63.6114016646178,122.484746738019,-22.2));
#1747=CARTESIAN_POINT('',(63.6114016646178,122.484746738019,-43.2));
#1748=CARTESIAN_POINT('',(69.330062376816,120.6690045595248,-22.2));
#1749=CARTESIAN_POINT('',(69.330062376816,120.6690045595248,-22.2));
#1750=CARTESIAN_POINT('',(69.330062376816,120.6690045595248,-43.2));
#1751=CARTESIAN_POINT('Origin',(50.90120641515828,82.4541217526328,-43.2));
#1752=CARTESIAN_POINT('',(50.90120641515828,82.4541217526328,-43.2));
#1753=CARTESIAN_POINT('',(63.6114016646178,122.484746738019,-43.2));
#1754=CARTESIAN_POINT('',(50.90120641515828,82.4541217526328,-22.2));
#1755=CARTESIAN_POINT('',(50.90120641515828,82.4541217526328,-43.2));
#1756=CARTESIAN_POINT('',(63.6114016646178,122.484746738019,-22.2));
#1757=CARTESIAN_POINT('',(63.6114016646178,122.484746738019,-43.2));
#1758=CARTESIAN_POINT('Origin',(56.6198671273563,80.6383795741386,-43.2));
#1759=CARTESIAN_POINT('',(56.6198671273563,80.6383795741386,-43.2));
#1760=CARTESIAN_POINT('',(50.90120641515828,82.4541217526328,-43.2));
#1761=CARTESIAN_POINT('',(56.6198671273563,80.6383795741386,-22.2));
#1762=CARTESIAN_POINT('',(56.6198671273563,80.6383795741386,-43.2));
#1763=CARTESIAN_POINT('',(50.90120641515828,82.4541217526328,-22.2));
#1764=CARTESIAN_POINT('Origin',(69.330062376816,120.6690045595248,-43.2));
#1765=CARTESIAN_POINT('',(56.6198671273563,80.6383795741386,-43.2));
#1766=CARTESIAN_POINT('',(56.6198671273563,80.6383795741386,-22.2));
#1767=CARTESIAN_POINT('Origin',(60.1156343959872,101.5615631560788,-22.2));
#1768=CARTESIAN_POINT('Origin',(39.33006237681588,120.6690045595248,-43.2));
#1769=CARTESIAN_POINT('',(39.33006237681588,120.6690045595248,-43.2));
#1770=CARTESIAN_POINT('',(26.6198671273563,80.6383795741386,-43.2));
#1771=CARTESIAN_POINT('',(39.33006237681588,120.6690045595248,-22.2));
#1772=CARTESIAN_POINT('',(39.33006237681588,120.6690045595248,-43.2));
#1773=CARTESIAN_POINT('',(26.6198671273563,80.6383795741386,-22.2));
#1774=CARTESIAN_POINT('',(26.6198671273563,80.6383795741386,-22.2));
#1775=CARTESIAN_POINT('',(26.6198671273563,80.6383795741386,-43.2));
#1776=CARTESIAN_POINT('',(26.6198671273563,80.6383795741386,-43.2));
#1777=CARTESIAN_POINT('',(26.6198671273563,80.6383795741386,-43.2));
#1778=CARTESIAN_POINT('Origin',(33.61140166461786,122.484746738019,-43.2));
#1779=CARTESIAN_POINT('',(39.33006237681588,120.6690045595248,-43.2));
#1780=CARTESIAN_POINT('',(39.33006237681588,120.6690045595248,-22.2));
#1781=CARTESIAN_POINT('Origin',(26.6198671273563,80.6383795741386,-43.2));
#1782=CARTESIAN_POINT('',(20.90120641515828,82.4541217526328,-43.2));
#1783=CARTESIAN_POINT('',(20.90120641515828,82.4541217526328,-22.2));
#1784=CARTESIAN_POINT('Origin',(30.11563439598708,101.5615631560788,-22.2));
#1785=CARTESIAN_POINT('Origin',(45.11563439598708,101.5615631560788,-43.2));
#1786=CARTESIAN_POINT('',(54.33006237681588,120.6690045595248,-43.2));
#1787=CARTESIAN_POINT('',(41.6198671273563,80.6383795741386,-43.2));
#1788=CARTESIAN_POINT('',(41.6198671273563,80.6383795741386,-43.2));
#1789=CARTESIAN_POINT('',(41.6198671273563,80.6383795741386,-43.2));
#1790=CARTESIAN_POINT('',(35.90120641515828,82.4541217526328,-43.2));
#1791=CARTESIAN_POINT('',(35.90120641515828,82.4541217526328,-43.2));
#1792=CARTESIAN_POINT('',(48.61140166461786,122.484746738019,-43.2));
#1793=CARTESIAN_POINT('',(14.01456419610042,97.3422167836902,-43.2));
#1794=CARTESIAN_POINT('',(61.4145641961006,108.7422167836902,-43.2));
#1795=CARTESIAN_POINT('',(48.61140166461786,122.484746738019,-43.2));
#1796=CARTESIAN_POINT('',(48.61140166461786,122.484746738019,-43.2));
#1797=CARTESIAN_POINT('',(54.33006237681588,120.6690045595248,-43.2));
#1798=CARTESIAN_POINT('Origin',(54.33006237681588,120.6690045595248,-43.2));
#1799=CARTESIAN_POINT('',(54.33006237681588,120.6690045595248,-22.2));
#1800=CARTESIAN_POINT('',(54.33006237681588,120.6690045595248,-43.2));
#1801=CARTESIAN_POINT('',(41.6198671273563,80.6383795741386,-22.2));
#1802=CARTESIAN_POINT('',(41.6198671273563,80.6383795741386,-22.2));
#1803=CARTESIAN_POINT('',(41.6198671273563,80.6383795741386,-43.2));
#1804=CARTESIAN_POINT('Origin',(48.61140166461786,122.484746738019,-43.2));
#1805=CARTESIAN_POINT('',(48.61140166461786,122.484746738019,-22.2));
#1806=CARTESIAN_POINT('',(48.61140166461786,122.484746738019,-43.2));
#1807=CARTESIAN_POINT('',(54.33006237681588,120.6690045595248,-22.2));
#1808=CARTESIAN_POINT('Origin',(35.90120641515828,82.4541217526328,-43.2));
#1809=CARTESIAN_POINT('',(35.90120641515828,82.4541217526328,-22.2));
#1810=CARTESIAN_POINT('',(35.90120641515828,82.4541217526328,-43.2));
#1811=CARTESIAN_POINT('',(48.61140166461786,122.484746738019,-22.2));
#1812=CARTESIAN_POINT('Origin',(41.6198671273563,80.6383795741386,-43.2));
#1813=CARTESIAN_POINT('',(35.90120641515828,82.4541217526328,-22.2));
#1814=CARTESIAN_POINT('Origin',(45.11563439598708,101.5615631560788,-22.2));
#1815=CARTESIAN_POINT('Origin',(5.470621765402686,108.7422167836902,-23.7369321948381));
#1816=CARTESIAN_POINT('',(5.470621765402686,108.7422167836902,-23.7369321948381));
#1817=CARTESIAN_POINT('',(22.19999950379136,108.7422167836902,-31.19999930262564));
#1818=CARTESIAN_POINT('',(5.470621765402686,97.3422167836902,-23.7369321948381));
#1819=CARTESIAN_POINT('',(5.470621765402686,108.7422167836902,-23.7369321948381));
#1820=CARTESIAN_POINT('',(22.19999950379136,97.3422167836902,-31.19999930262564));
#1821=CARTESIAN_POINT('Origin',(4.5,108.7422167836902,-42.29999943673608));
#1822=CARTESIAN_POINT('',(4.5,108.7422167836902,-42.29999943673608));
#1823=CARTESIAN_POINT('',(3.59999991953373,108.7422167836902,-43.2));
#1824=CARTESIAN_POINT('',(4.5,108.7422167836902,-42.29999943673608));
#1825=CARTESIAN_POINT('',(4.5,97.3422167836902,-42.29999943673608));
#1826=CARTESIAN_POINT('',(4.5,108.7422167836902,-42.29999943673608));
#1827=CARTESIAN_POINT('',(3.59999991953373,97.3422167836902,-43.2));
#1828=CARTESIAN_POINT('',(4.5,97.3422167836902,-42.29999943673608));
#1829=CARTESIAN_POINT('',(3.59999991953373,108.7422167836902,-43.2));
#1830=CARTESIAN_POINT('Origin',(4.500000000000006,108.7422167836902,-35.40000366985722));
#1831=CARTESIAN_POINT('',(4.500000000000006,108.7422167836902,-35.40000366985722));
#1832=CARTESIAN_POINT('',(4.500000000000006,108.7422167836902,-35.40000366985722));
#1833=CARTESIAN_POINT('',(4.500000000000006,97.3422167836902,-35.40000366985722));
#1834=CARTESIAN_POINT('',(4.500000000000006,108.7422167836902,-35.40000366985722));
#1835=CARTESIAN_POINT('',(4.500000000000006,97.3422167836902,-35.40000366985722));
#1836=CARTESIAN_POINT('Origin',(9.26398662972558,108.7422167836902,-32.64951095012454));
#1837=CARTESIAN_POINT('',(9.26398662972558,108.7422167836902,-32.64951095012454));
#1838=CARTESIAN_POINT('',(9.26398662972558,108.7422167836902,-32.64951095012454));
#1839=CARTESIAN_POINT('',(9.26398662972558,97.3422167836902,-32.64951095012454));
#1840=CARTESIAN_POINT('',(9.26398662972558,108.7422167836902,-32.64951095012454));
#1841=CARTESIAN_POINT('',(9.26398662972558,97.3422167836902,-32.64951095012454));
#1842=CARTESIAN_POINT('Origin',(14.0279758152186,108.7422167836902,-35.39999924313942));
#1843=CARTESIAN_POINT('',(14.0279758152186,97.3422167836902,-35.39999924313942));
#1844=CARTESIAN_POINT('',(14.0279758152186,108.7422167836902,-35.39999924313942));
#1845=CARTESIAN_POINT('Origin',(-37.71456419610042,103.0422167836902,-31.2));
#1846=CARTESIAN_POINT('',(-22.19999950379136,108.7422167836902,-31.19999930262564));
#1847=CARTESIAN_POINT('',(-22.19999950379136,97.3422167836902,-31.19999930262564));
#1848=CARTESIAN_POINT('',(-22.19999950379136,108.7422167836902,-31.19999930262564));
#1849=CARTESIAN_POINT('',(-29.24798642928654,108.7422167836902,-31.2));
#1850=CARTESIAN_POINT('',(-61.4145641961006,108.7422167836902,-31.2));
#1851=CARTESIAN_POINT('',(-25.62835206442878,97.3422167836902,-31.2));
#1852=CARTESIAN_POINT('',(-24.6402496161381,94.2301986141546,-31.2));
#1853=CARTESIAN_POINT('',(-14.01456419610042,97.3422167836902,-31.2));
#1854=CARTESIAN_POINT('Origin',(-20.90120641515828,82.4541217526328,-43.2));
#1855=CARTESIAN_POINT('',(-25.62835206442878,97.3422167836902,-43.2));
#1856=CARTESIAN_POINT('',(-25.62835206442878,97.3422167836902,-43.2));
#1857=CARTESIAN_POINT('',(-29.24798642928654,108.7422167836902,-43.2));
#1858=CARTESIAN_POINT('',(-29.24798642928654,108.7422167836902,-43.2));
#1859=CARTESIAN_POINT('',(-33.61140166461786,122.484746738019,-43.2));
#1860=CARTESIAN_POINT('',(-33.61140166461786,122.484746738019,-43.2));
#1861=CARTESIAN_POINT('',(-33.61140166461786,122.484746738019,-22.2));
#1862=CARTESIAN_POINT('',(-33.61140166461786,122.484746738019,-43.2));
#1863=CARTESIAN_POINT('',(-20.90120641515828,82.4541217526328,-22.2));
#1864=CARTESIAN_POINT('',(-33.61140166461786,122.484746738019,-22.2));
#1865=CARTESIAN_POINT('',(-20.90120641515828,82.4541217526328,-43.2));
#1866=CARTESIAN_POINT('',(-20.90120641515828,82.4541217526328,-43.2));
#1867=CARTESIAN_POINT('',(-33.61140166461786,122.484746738019,-43.2));
#1868=CARTESIAN_POINT('Origin',(-14.01456419610042,108.7422167836902,-43.2));
#1869=CARTESIAN_POINT('',(-50.54316668420383,108.7422167836902,-43.2));
#1870=CARTESIAN_POINT('',(-50.54316668420383,108.7422167836902,-37.2));
#1871=CARTESIAN_POINT('',(-50.54316668420383,108.7422167836902,-43.2));
#1872=CARTESIAN_POINT('',(-59.24798642928654,108.7422167836902,-43.2));
#1873=CARTESIAN_POINT('',(-61.4145641961006,108.7422167836902,-43.2));
#1874=CARTESIAN_POINT('',(-59.24798642928654,108.7422167836902,-37.2));
#1875=CARTESIAN_POINT('',(-59.24798642928654,108.7422167836902,-43.2));
#1876=CARTESIAN_POINT('',(-61.4145641961006,108.7422167836902,-37.2));
#1877=CARTESIAN_POINT('Origin',(-37.71456419610042,103.0422167836902,-37.2));
#1878=CARTESIAN_POINT('',(-46.923532319346,97.3422167836902,-37.2));
#1879=CARTESIAN_POINT('',(-51.02714969082366,110.2665161242626,-37.2));
#1880=CARTESIAN_POINT('',(-55.62835206442877,97.3422167836902,-37.2));
#1881=CARTESIAN_POINT('',(-53.26653309165354,89.9036930059728,-37.2));
#1882=CARTESIAN_POINT('',(-14.01456419610042,97.3422167836902,-37.2));
#1883=CARTESIAN_POINT('Origin',(-37.71456419610042,103.0422167836902,-37.2));
#1884=CARTESIAN_POINT('',(-40.62835206442878,97.3422167836902,-37.2));
#1885=CARTESIAN_POINT('',(-44.24798642928654,108.7422167836902,-37.2));
#1886=CARTESIAN_POINT('',(-38.95339135389588,92.066945810064,-37.2));
#1887=CARTESIAN_POINT('',(-31.923532319346,97.3422167836902,-37.2));
#1888=CARTESIAN_POINT('',(-14.01456419610042,97.3422167836902,-37.2));
#1889=CARTESIAN_POINT('',(-35.54316668420383,108.7422167836902,-37.2));
#1890=CARTESIAN_POINT('',(-36.71400795306594,112.4297689283532,-37.2));
#1891=CARTESIAN_POINT('',(-61.4145641961006,108.7422167836902,-37.2));
#1892=CARTESIAN_POINT('Origin',(-61.4145641961006,97.3422167836902,-43.2));
#1893=CARTESIAN_POINT('',(-46.923532319346,97.3422167836902,-43.2));
#1894=CARTESIAN_POINT('',(-46.923532319346,97.3422167836902,-43.2));
#1895=CARTESIAN_POINT('',(-55.62835206442877,97.3422167836902,-43.2));
#1896=CARTESIAN_POINT('',(-55.62835206442877,97.3422167836902,-43.2));
#1897=CARTESIAN_POINT('',(-14.01456419610042,97.3422167836902,-43.2));
#1898=CARTESIAN_POINT('Origin',(-61.4145641961006,97.3422167836902,-43.2));
#1899=CARTESIAN_POINT('',(-40.62835206442878,97.3422167836902,-43.2));
#1900=CARTESIAN_POINT('',(-40.62835206442878,97.3422167836902,-43.2));
#1901=CARTESIAN_POINT('',(-31.923532319346,97.3422167836902,-43.2));
#1902=CARTESIAN_POINT('',(-14.01456419610042,97.3422167836902,-43.2));
#1903=CARTESIAN_POINT('',(-31.923532319346,97.3422167836902,-43.2));
#1904=CARTESIAN_POINT('Origin',(-14.01456419610042,108.7422167836902,-43.2));
#1905=CARTESIAN_POINT('',(-44.24798642928654,108.7422167836902,-43.2));
#1906=CARTESIAN_POINT('',(-44.24798642928654,108.7422167836902,-43.2));
#1907=CARTESIAN_POINT('',(-35.54316668420383,108.7422167836902,-43.2));
#1908=CARTESIAN_POINT('',(-35.54316668420383,108.7422167836902,-43.2));
#1909=CARTESIAN_POINT('',(-61.4145641961006,108.7422167836902,-43.2));
#1910=CARTESIAN_POINT('Origin',(-14.01456419610042,97.3422167836902,-43.2));
#1911=CARTESIAN_POINT('',(-14.01456419610042,108.7422167836902,-43.2));
#1912=CARTESIAN_POINT('',(-14.01456419610042,97.3422167836902,-43.2));
#1913=CARTESIAN_POINT('',(-14.01456419610042,108.7422167836902,-43.2));
#1914=CARTESIAN_POINT('',(-14.01456419610042,108.7422167836902,-35.3922560472717));
#1915=CARTESIAN_POINT('',(-14.01456419610042,108.7422167836902,-43.2));
#1916=CARTESIAN_POINT('',(-14.01456419610042,97.3422167836902,-35.3922560472717));
#1917=CARTESIAN_POINT('',(-14.01456419610042,103.0422167836902,-35.3922560472717));
#1918=CARTESIAN_POINT('',(-14.01456419610042,97.3422167836902,-43.2));
#1919=CARTESIAN_POINT('Origin',(-63.6114016646178,122.484746738019,-43.2));
#1920=CARTESIAN_POINT('',(-69.330062376816,120.6690045595248,-43.2));
#1921=CARTESIAN_POINT('',(-63.6114016646178,122.484746738019,-43.2));
#1922=CARTESIAN_POINT('',(-69.330062376816,120.6690045595248,-43.2));
#1923=CARTESIAN_POINT('',(-69.330062376816,120.6690045595248,-22.2));
#1924=CARTESIAN_POINT('',(-69.330062376816,120.6690045595248,-43.2));
#1925=CARTESIAN_POINT('',(-63.6114016646178,122.484746738019,-22.2));
#1926=CARTESIAN_POINT('',(-69.330062376816,120.6690045595248,-22.2));
#1927=CARTESIAN_POINT('',(-63.6114016646178,122.484746738019,-43.2));
#1928=CARTESIAN_POINT('Origin',(-50.90120641515828,82.4541217526328,-43.2));
#1929=CARTESIAN_POINT('',(-63.6114016646178,122.484746738019,-43.2));
#1930=CARTESIAN_POINT('',(-50.90120641515828,82.4541217526328,-22.2));
#1931=CARTESIAN_POINT('',(-63.6114016646178,122.484746738019,-22.2));
#1932=CARTESIAN_POINT('',(-50.90120641515828,82.4541217526328,-43.2));
#1933=CARTESIAN_POINT('',(-50.90120641515828,82.4541217526328,-43.2));
#1934=CARTESIAN_POINT('',(-63.6114016646178,122.484746738019,-43.2));
#1935=CARTESIAN_POINT('Origin',(-56.6198671273563,80.6383795741386,-43.2));
#1936=CARTESIAN_POINT('',(-56.6198671273563,80.6383795741386,-43.2));
#1937=CARTESIAN_POINT('',(-50.90120641515828,82.4541217526328,-43.2));
#1938=CARTESIAN_POINT('',(-56.6198671273563,80.6383795741386,-22.2));
#1939=CARTESIAN_POINT('',(-50.90120641515828,82.4541217526328,-22.2));
#1940=CARTESIAN_POINT('',(-56.6198671273563,80.6383795741386,-43.2));
#1941=CARTESIAN_POINT('Origin',(-69.330062376816,120.6690045595248,-43.2));
#1942=CARTESIAN_POINT('',(-56.6198671273563,80.6383795741386,-43.2));
#1943=CARTESIAN_POINT('',(-56.6198671273563,80.6383795741386,-22.2));
#1944=CARTESIAN_POINT('Origin',(-60.1156343959872,101.5615631560788,-22.2));
#1945=CARTESIAN_POINT('Origin',(-39.33006237681588,120.6690045595248,-43.2));
#1946=CARTESIAN_POINT('',(-26.6198671273563,80.6383795741386,-43.2));
#1947=CARTESIAN_POINT('',(-26.6198671273563,80.6383795741386,-43.2));
#1948=CARTESIAN_POINT('',(-26.6198671273563,80.6383795741386,-22.2));
#1949=CARTESIAN_POINT('',(-26.6198671273563,80.6383795741386,-43.2));
#1950=CARTESIAN_POINT('',(-39.33006237681588,120.6690045595248,-22.2));
#1951=CARTESIAN_POINT('',(-26.6198671273563,80.6383795741386,-22.2));
#1952=CARTESIAN_POINT('',(-39.33006237681588,120.6690045595248,-43.2));
#1953=CARTESIAN_POINT('',(-39.33006237681588,120.6690045595248,-43.2));
#1954=CARTESIAN_POINT('',(-26.6198671273563,80.6383795741386,-43.2));
#1955=CARTESIAN_POINT('Origin',(-33.61140166461786,122.484746738019,-43.2));
#1956=CARTESIAN_POINT('',(-39.33006237681588,120.6690045595248,-43.2));
#1957=CARTESIAN_POINT('',(-39.33006237681588,120.6690045595248,-22.2));
#1958=CARTESIAN_POINT('Origin',(-26.6198671273563,80.6383795741386,-43.2));
#1959=CARTESIAN_POINT('',(-20.90120641515828,82.4541217526328,-43.2));
#1960=CARTESIAN_POINT('',(-20.90120641515828,82.4541217526328,-22.2));
#1961=CARTESIAN_POINT('Origin',(-30.11563439598708,101.5615631560788,-22.2));
#1962=CARTESIAN_POINT('Origin',(-45.11563439598708,101.5615631560788,-43.2));
#1963=CARTESIAN_POINT('',(-54.33006237681588,120.6690045595248,-43.2));
#1964=CARTESIAN_POINT('',(-41.6198671273563,80.6383795741386,-43.2));
#1965=CARTESIAN_POINT('',(-48.61140166461786,122.484746738019,-43.2));
#1966=CARTESIAN_POINT('',(-54.33006237681588,120.6690045595248,-43.2));
#1967=CARTESIAN_POINT('',(-48.61140166461786,122.484746738019,-43.2));
#1968=CARTESIAN_POINT('',(-61.4145641961006,108.7422167836902,-43.2));
#1969=CARTESIAN_POINT('',(-14.01456419610042,97.3422167836902,-43.2));
#1970=CARTESIAN_POINT('',(-35.90120641515828,82.4541217526328,-43.2));
#1971=CARTESIAN_POINT('',(-48.61140166461786,122.484746738019,-43.2));
#1972=CARTESIAN_POINT('',(-41.6198671273563,80.6383795741386,-43.2));
#1973=CARTESIAN_POINT('',(-35.90120641515828,82.4541217526328,-43.2));
#1974=CARTESIAN_POINT('',(-41.6198671273563,80.6383795741386,-43.2));
#1975=CARTESIAN_POINT('Origin',(-54.33006237681588,120.6690045595248,-43.2));
#1976=CARTESIAN_POINT('',(-41.6198671273563,80.6383795741386,-22.2));
#1977=CARTESIAN_POINT('',(-41.6198671273563,80.6383795741386,-43.2));
#1978=CARTESIAN_POINT('',(-54.33006237681588,120.6690045595248,-22.2));
#1979=CARTESIAN_POINT('',(-41.6198671273563,80.6383795741386,-22.2));
#1980=CARTESIAN_POINT('',(-54.33006237681588,120.6690045595248,-43.2));
#1981=CARTESIAN_POINT('Origin',(-48.61140166461786,122.484746738019,-43.2));
#1982=CARTESIAN_POINT('',(-48.61140166461786,122.484746738019,-22.2));
#1983=CARTESIAN_POINT('',(-54.33006237681588,120.6690045595248,-22.2));
#1984=CARTESIAN_POINT('',(-48.61140166461786,122.484746738019,-43.2));
#1985=CARTESIAN_POINT('Origin',(-35.90120641515828,82.4541217526328,-43.2));
#1986=CARTESIAN_POINT('',(-35.90120641515828,82.4541217526328,-22.2));
#1987=CARTESIAN_POINT('',(-48.61140166461786,122.484746738019,-22.2));
#1988=CARTESIAN_POINT('',(-35.90120641515828,82.4541217526328,-43.2));
#1989=CARTESIAN_POINT('Origin',(-41.6198671273563,80.6383795741386,-43.2));
#1990=CARTESIAN_POINT('',(-35.90120641515828,82.4541217526328,-22.2));
#1991=CARTESIAN_POINT('Origin',(-45.11563439598708,101.5615631560788,-22.2));
#1992=CARTESIAN_POINT('Origin',(-11.09999975189568,97.3422167836902,-32.8860120923907));
#1993=CARTESIAN_POINT('',(-9.26398662972558,97.3422167836902,-32.64951095012454));
#1994=CARTESIAN_POINT('',(-14.0279758152186,97.3422167836902,-35.39999924313942));
#1995=CARTESIAN_POINT('',(-4.500000000000006,97.3422167836902,-35.40000366985722));
#1996=CARTESIAN_POINT('',(-9.26398662972558,97.3422167836902,-32.64951095012454));
#1997=CARTESIAN_POINT('',(-4.5,97.3422167836902,-42.29999943673608));
#1998=CARTESIAN_POINT('',(-4.500000000000006,97.3422167836902,-35.40000366985722));
#1999=CARTESIAN_POINT('',(-3.59999991953373,97.3422167836902,-43.2));
#2000=CARTESIAN_POINT('',(-4.5,97.3422167836902,-42.29999943673608));
#2001=CARTESIAN_POINT('',(-3.59999991953373,97.3422167836902,-43.2));
#2002=CARTESIAN_POINT('',(-5.470621765402686,97.3422167836902,-23.7369321948381));
#2003=CARTESIAN_POINT('Origin',(-8.326672684688701E-16,97.3422167836902,-36.0));
#2004=CARTESIAN_POINT('',(-22.19999950379136,97.3422167836902,-31.19999930262564));
#2005=CARTESIAN_POINT('Origin',(-5.470621765402686,108.7422167836902,-23.7369321948381));
#2006=CARTESIAN_POINT('',(-5.470621765402686,108.7422167836902,-23.7369321948381));
#2007=CARTESIAN_POINT('',(-22.19999950379136,108.7422167836902,-31.19999930262564));
#2008=CARTESIAN_POINT('',(-5.470621765402686,108.7422167836902,-23.7369321948381));
#2009=CARTESIAN_POINT('Origin',(8.326672684688701E-16,108.7422167836902,-36.0));
#2010=CARTESIAN_POINT('Origin',(-8.326672684688701E-16,108.7422167836902,-36.0));
#2011=CARTESIAN_POINT('Origin',(-3.59999991953373,108.7422167836902,-43.2));
#2012=CARTESIAN_POINT('',(-3.59999991953373,108.7422167836902,-43.2));
#2013=CARTESIAN_POINT('',(-3.59999991953373,108.7422167836902,-43.2));
#2014=CARTESIAN_POINT('',(-3.59999991953373,108.7422167836902,-43.2));
#2015=CARTESIAN_POINT('Origin',(-4.5,108.7422167836902,-42.29999943673608));
#2016=CARTESIAN_POINT('',(-4.5,108.7422167836902,-42.29999943673608));
#2017=CARTESIAN_POINT('',(-4.5,108.7422167836902,-42.29999943673608));
#2018=CARTESIAN_POINT('',(-4.5,108.7422167836902,-42.29999943673608));
#2019=CARTESIAN_POINT('Origin',(-4.500000000000006,108.7422167836902,-35.40000366985722));
#2020=CARTESIAN_POINT('',(-4.500000000000006,108.7422167836902,-35.40000366985722));
#2021=CARTESIAN_POINT('',(-4.500000000000006,108.7422167836902,-35.40000366985722));
#2022=CARTESIAN_POINT('',(-4.500000000000006,108.7422167836902,-35.40000366985722));
#2023=CARTESIAN_POINT('Origin',(-9.26398662972558,108.7422167836902,-32.64951095012454));
#2024=CARTESIAN_POINT('',(-9.26398662972558,108.7422167836902,-32.64951095012454));
#2025=CARTESIAN_POINT('',(-9.26398662972558,108.7422167836902,-32.64951095012454));
#2026=CARTESIAN_POINT('',(-9.26398662972558,108.7422167836902,-32.64951095012454));
#2027=CARTESIAN_POINT('Origin',(-14.0279758152186,108.7422167836902,-35.39999924313942));
#2028=CARTESIAN_POINT('',(-14.0279758152186,108.7422167836902,-35.39999924313942));
#2029=CARTESIAN_POINT('Origin',(-11.09999975189568,108.7422167836902,-32.8860120923907));
#2030=UNCERTAINTY_MEASURE_WITH_UNIT(LENGTH_MEASURE(0.06),#2034, 'DISTANCE_ACCURACY_VALUE', 'Maximum model space distance between geometric entities at asserted c onnectivities');
#2031=UNCERTAINTY_MEASURE_WITH_UNIT(LENGTH_MEASURE(0.06),#2034, 'DISTANCE_ACCURACY_VALUE', 'Maximum model space distance between geometric entities at asserted c onnectivities');
#2032=( GEOMETRIC_REPRESENTATION_CONTEXT(3) GLOBAL_UNCERTAINTY_ASSIGNED_CONTEXT((#2030)) GLOBAL_UNIT_ASSIGNED_CONTEXT((#2034,#2036,#2037)) REPRESENTATION_CONTEXT('','3D') );
#2033=( GEOMETRIC_REPRESENTATION_CONTEXT(3) GLOBAL_UNCERTAINTY_ASSIGNED_CONTEXT((#2031)) GLOBAL_UNIT_ASSIGNED_CONTEXT((#2034,#2036,#2037)) REPRESENTATION_CONTEXT('','3D') );
#2034=( LENGTH_UNIT() NAMED_UNIT(*) SI_UNIT(.MILLI.,.METRE.) );
#2035=( LENGTH_UNIT() NAMED_UNIT(*) SI_UNIT($,.METRE.) );
#2036=( NAMED_UNIT(*) PLANE_ANGLE_UNIT() SI_UNIT($,.RADIAN.) );
#2037=( NAMED_UNIT(*) SI_UNIT($,.STERADIAN.) SOLID_ANGLE_UNIT() );
#2038=SHAPE_DEFINITION_REPRESENTATION(#2039,#2040);
#2039=PRODUCT_DEFINITION_SHAPE('',$,#2042);
#2040=SHAPE_REPRESENTATION('',(#1294),#2032);
#2041=PRODUCT_DEFINITION_CONTEXT('part definition',#2046,'design');
#2042=PRODUCT_DEFINITION('Solar arrays - Zaria','Solar arrays - Zaria', #2043,#2041);
#2043=PRODUCT_DEFINITION_FORMATION('',$,#2048);
#2044=PRODUCT_RELATED_PRODUCT_CATEGORY('Solar arrays - Zaria', 'Solar arrays - Zaria',(#2048));
#2045=APPLICATION_PROTOCOL_DEFINITION('international standard', 'automotive_design',2009,#2046);
#2046=APPLICATION_CONTEXT( 'Core Data for Automotive Mechanical Design Process');
#2047=PRODUCT_CONTEXT('part definition',#2046,'mechanical');
#2048=PRODUCT('Solar arrays - Zaria','Solar arrays - Zaria',$,(#2047));
#2049=PRESENTATION_STYLE_ASSIGNMENT((#2051));
#2050=PRESENTATION_STYLE_ASSIGNMENT((#2052));
#2051=SURFACE_STYLE_USAGE(.BOTH.,#2053);
#2052=SURFACE_STYLE_USAGE(.BOTH.,#2054);
#2053=SURFACE_SIDE_STYLE('',(#2055));
#2054=SURFACE_SIDE_STYLE('',(#2056));
#2055=SURFACE_STYLE_FILL_AREA(#2057);
#2056=SURFACE_STYLE_FILL_AREA(#2058);
#2057=FILL_AREA_STYLE('Steel - Satin',(#2059));
#2058=FILL_AREA_STYLE('ABS (White)',(#2060));
#2059=FILL_AREA_STYLE_COLOUR('Steel - Satin',#2061);
#2060=FILL_AREA_STYLE_COLOUR('ABS (White)',#2062);
#2061=COLOUR_RGB('Steel - Satin',0.627450980392157,0.627450980392157,0.627450980392157);
#2062=COLOUR_RGB('ABS (White)',0.964705882352941,0.964705882352941,0.952941176470588);
ENDSEC;
END-ISO-10303-21;
