ISO-10303-21;
HEADER;
/* Generated by software containing ST-Developer
 * from STEP Tools, Inc. (www.steptools.com) 
 */

FILE_DESCRIPTION(
/* description */ (''),
/* implementation_level */ '2;1');

FILE_NAME(
/* name */ 'Solar array radiator.step',
/* time_stamp */ '2024-11-15T18:03:48+01:00',
/* author */ (''),
/* organization */ (''),
/* preprocessor_version */ 'ST-DEVELOPER v20',
/* originating_system */ 'Autodesk Translation Framework v13.20.0.188',

/* authorisation */ '');

FILE_SCHEMA (('AUTOMOTIVE_DESIGN { 1 0 10303 214 3 1 1 }'));
ENDSEC;

DATA;
#10=MECHANICAL_DESIGN_GEOMETRIC_PRESENTATION_REPRESENTATION('',(#13),#1137);
#11=SHAPE_REPRESENTATION_RELATIONSHIP('SRR','None',#1144,#12);
#12=ADVANCED_BREP_SHAPE_REPRESENTATION('',(#14),#1136);
#13=STYLED_ITEM('',(#1154),#14);
#14=MANIFOLD_SOLID_BREP('Body1',#713);
#15=FACE_OUTER_BOUND('',#51,.T.);
#16=FACE_OUTER_BOUND('',#52,.T.);
#17=FACE_OUTER_BOUND('',#53,.T.);
#18=FACE_OUTER_BOUND('',#54,.T.);
#19=FACE_OUTER_BOUND('',#55,.T.);
#20=FACE_OUTER_BOUND('',#56,.T.);
#21=FACE_OUTER_BOUND('',#57,.T.);
#22=FACE_OUTER_BOUND('',#58,.T.);
#23=FACE_OUTER_BOUND('',#59,.T.);
#24=FACE_OUTER_BOUND('',#60,.T.);
#25=FACE_OUTER_BOUND('',#61,.T.);
#26=FACE_OUTER_BOUND('',#62,.T.);
#27=FACE_OUTER_BOUND('',#63,.T.);
#28=FACE_OUTER_BOUND('',#64,.T.);
#29=FACE_OUTER_BOUND('',#65,.T.);
#30=FACE_OUTER_BOUND('',#66,.T.);
#31=FACE_OUTER_BOUND('',#67,.T.);
#32=FACE_OUTER_BOUND('',#68,.T.);
#33=FACE_OUTER_BOUND('',#69,.T.);
#34=FACE_OUTER_BOUND('',#70,.T.);
#35=FACE_OUTER_BOUND('',#71,.T.);
#36=FACE_OUTER_BOUND('',#72,.T.);
#37=FACE_OUTER_BOUND('',#73,.T.);
#38=FACE_OUTER_BOUND('',#74,.T.);
#39=FACE_OUTER_BOUND('',#75,.T.);
#40=FACE_OUTER_BOUND('',#76,.T.);
#41=FACE_OUTER_BOUND('',#77,.T.);
#42=FACE_OUTER_BOUND('',#78,.T.);
#43=FACE_OUTER_BOUND('',#79,.T.);
#44=FACE_OUTER_BOUND('',#80,.T.);
#45=FACE_OUTER_BOUND('',#81,.T.);
#46=FACE_OUTER_BOUND('',#82,.T.);
#47=FACE_OUTER_BOUND('',#83,.T.);
#48=FACE_OUTER_BOUND('',#84,.T.);
#49=FACE_OUTER_BOUND('',#85,.T.);
#50=FACE_OUTER_BOUND('',#86,.T.);
#51=EDGE_LOOP('',(#445,#446,#447,#448));
#52=EDGE_LOOP('',(#449,#450,#451,#452));
#53=EDGE_LOOP('',(#453,#454,#455,#456));
#54=EDGE_LOOP('',(#457,#458,#459,#460));
#55=EDGE_LOOP('',(#461,#462,#463,#464));
#56=EDGE_LOOP('',(#465,#466,#467,#468));
#57=EDGE_LOOP('',(#469,#470,#471,#472));
#58=EDGE_LOOP('',(#473,#474,#475,#476));
#59=EDGE_LOOP('',(#477,#478,#479,#480));
#60=EDGE_LOOP('',(#481,#482,#483,#484));
#61=EDGE_LOOP('',(#485,#486,#487,#488));
#62=EDGE_LOOP('',(#489,#490,#491,#492));
#63=EDGE_LOOP('',(#493,#494,#495,#496));
#64=EDGE_LOOP('',(#497,#498,#499,#500));
#65=EDGE_LOOP('',(#501,#502,#503,#504));
#66=EDGE_LOOP('',(#505,#506,#507,#508));
#67=EDGE_LOOP('',(#509,#510,#511,#512));
#68=EDGE_LOOP('',(#513,#514,#515,#516));
#69=EDGE_LOOP('',(#517,#518,#519,#520));
#70=EDGE_LOOP('',(#521,#522,#523,#524));
#71=EDGE_LOOP('',(#525,#526,#527,#528));
#72=EDGE_LOOP('',(#529,#530,#531,#532));
#73=EDGE_LOOP('',(#533,#534,#535,#536));
#74=EDGE_LOOP('',(#537,#538,#539,#540,#541,#542,#543,#544,#545,#546,#547, #548,#549,#550,#551,#552,#553,#554,#555,#556,#557,#558,#559,#560,#561,#562, #563,#564,#565,#566));
#75=EDGE_LOOP('',(#567,#568,#569,#570));
#76=EDGE_LOOP('',(#571,#572,#573,#574));
#77=EDGE_LOOP('',(#575,#576,#577,#578));
#78=EDGE_LOOP('',(#579,#580,#581,#582));
#79=EDGE_LOOP('',(#583,#584,#585,#586));
#80=EDGE_LOOP('',(#587,#588,#589,#590));
#81=EDGE_LOOP('',(#591,#592,#593,#594));
#82=EDGE_LOOP('',(#595,#596,#597,#598));
#83=EDGE_LOOP('',(#599,#600,#601,#602));
#84=EDGE_LOOP('',(#603,#604,#605,#606));
#85=EDGE_LOOP('',(#607,#608,#609,#610));
#86=EDGE_LOOP('',(#611,#612,#613,#614,#615,#616,#617,#618,#619,#620,#621, #622,#623,#624,#625,#626,#627,#628,#629,#630,#631,#632,#633,#634,#635,#636, #637,#638,#639,#640));
#87=LINE('',#939,#185);
#88=LINE('',#941,#186);
#89=LINE('',#943,#187);
#90=LINE('',#944,#188);
#91=LINE('',#947,#189);
#92=LINE('',#949,#190);
#93=LINE('',#950,#191);
#94=LINE('',#953,#192);
#95=LINE('',#955,#193);
#96=LINE('',#956,#194);
#97=LINE('',#958,#195);
#98=LINE('',#959,#196);
#99=LINE('',#964,#197);
#100=LINE('',#966,#198);
#101=LINE('',#968,#199);
#102=LINE('',#969,#200);
#103=LINE('',#973,#201);
#104=LINE('',#975,#202);
#105=LINE('',#977,#203);
#106=LINE('',#978,#204);
#107=LINE('',#980,#205);
#108=LINE('',#981,#206);
#109=LINE('',#985,#207);
#110=LINE('',#987,#208);
#111=LINE('',#989,#209);
#112=LINE('',#990,#210);
#113=LINE('',#994,#211);
#114=LINE('',#996,#212);
#115=LINE('',#998,#213);
#116=LINE('',#999,#214);
#117=LINE('',#1001,#215);
#118=LINE('',#1002,#216);
#119=LINE('',#1006,#217);
#120=LINE('',#1008,#218);
#121=LINE('',#1010,#219);
#122=LINE('',#1011,#220);
#123=LINE('',#1015,#221);
#124=LINE('',#1017,#222);
#125=LINE('',#1019,#223);
#126=LINE('',#1020,#224);
#127=LINE('',#1022,#225);
#128=LINE('',#1023,#226);
#129=LINE('',#1027,#227);
#130=LINE('',#1029,#228);
#131=LINE('',#1031,#229);
#132=LINE('',#1032,#230);
#133=LINE('',#1036,#231);
#134=LINE('',#1038,#232);
#135=LINE('',#1040,#233);
#136=LINE('',#1041,#234);
#137=LINE('',#1043,#235);
#138=LINE('',#1044,#236);
#139=LINE('',#1048,#237);
#140=LINE('',#1050,#238);
#141=LINE('',#1052,#239);
#142=LINE('',#1053,#240);
#143=LINE('',#1057,#241);
#144=LINE('',#1059,#242);
#145=LINE('',#1061,#243);
#146=LINE('',#1062,#244);
#147=LINE('',#1064,#245);
#148=LINE('',#1065,#246);
#149=LINE('',#1069,#247);
#150=LINE('',#1071,#248);
#151=LINE('',#1073,#249);
#152=LINE('',#1074,#250);
#153=LINE('',#1078,#251);
#154=LINE('',#1080,#252);
#155=LINE('',#1082,#253);
#156=LINE('',#1083,#254);
#157=LINE('',#1085,#255);
#158=LINE('',#1086,#256);
#159=LINE('',#1088,#257);
#160=LINE('',#1089,#258);
#161=LINE('',#1091,#259);
#162=LINE('',#1093,#260);
#163=LINE('',#1094,#261);
#164=LINE('',#1096,#262);
#165=LINE('',#1098,#263);
#166=LINE('',#1099,#264);
#167=LINE('',#1100,#265);
#168=LINE('',#1101,#266);
#169=LINE('',#1102,#267);
#170=LINE('',#1105,#268);
#171=LINE('',#1106,#269);
#172=LINE('',#1108,#270);
#173=LINE('',#1110,#271);
#174=LINE('',#1112,#272);
#175=LINE('',#1115,#273);
#176=LINE('',#1116,#274);
#177=LINE('',#1118,#275);
#178=LINE('',#1121,#276);
#179=LINE('',#1122,#277);
#180=LINE('',#1124,#278);
#181=LINE('',#1127,#279);
#182=LINE('',#1128,#280);
#183=LINE('',#1130,#281);
#184=LINE('',#1132,#282);
#185=VECTOR('',#767,60.0);
#186=VECTOR('',#768,60.0);
#187=VECTOR('',#769,60.0);
#188=VECTOR('',#770,60.0);
#189=VECTOR('',#773,60.0);
#190=VECTOR('',#774,60.0);
#191=VECTOR('',#775,60.0);
#192=VECTOR('',#778,60.0);
#193=VECTOR('',#779,60.0);
#194=VECTOR('',#780,60.0);
#195=VECTOR('',#783,60.0);
#196=VECTOR('',#784,60.0);
#197=VECTOR('',#789,60.0);
#198=VECTOR('',#790,60.0);
#199=VECTOR('',#791,60.0);
#200=VECTOR('',#792,60.0);
#201=VECTOR('',#795,60.0);
#202=VECTOR('',#796,60.0);
#203=VECTOR('',#797,60.0);
#204=VECTOR('',#798,60.0);
#205=VECTOR('',#801,60.0);
#206=VECTOR('',#802,60.0);
#207=VECTOR('',#805,60.0);
#208=VECTOR('',#806,60.0);
#209=VECTOR('',#807,60.0);
#210=VECTOR('',#808,60.0);
#211=VECTOR('',#811,60.0);
#212=VECTOR('',#812,60.0);
#213=VECTOR('',#813,60.0);
#214=VECTOR('',#814,60.0);
#215=VECTOR('',#817,60.0);
#216=VECTOR('',#818,60.0);
#217=VECTOR('',#821,60.0);
#218=VECTOR('',#822,60.0);
#219=VECTOR('',#823,60.0);
#220=VECTOR('',#824,60.0);
#221=VECTOR('',#827,60.0);
#222=VECTOR('',#828,60.0);
#223=VECTOR('',#829,60.0);
#224=VECTOR('',#830,60.0);
#225=VECTOR('',#833,60.0);
#226=VECTOR('',#834,60.0);
#227=VECTOR('',#837,60.0);
#228=VECTOR('',#838,60.0);
#229=VECTOR('',#839,60.0);
#230=VECTOR('',#840,60.0);
#231=VECTOR('',#843,60.0);
#232=VECTOR('',#844,60.0);
#233=VECTOR('',#845,60.0);
#234=VECTOR('',#846,60.0);
#235=VECTOR('',#849,60.0);
#236=VECTOR('',#850,60.0);
#237=VECTOR('',#853,60.0);
#238=VECTOR('',#854,60.0);
#239=VECTOR('',#855,60.0);
#240=VECTOR('',#856,60.0);
#241=VECTOR('',#859,60.0);
#242=VECTOR('',#860,60.0);
#243=VECTOR('',#861,60.0);
#244=VECTOR('',#862,60.0);
#245=VECTOR('',#865,60.0);
#246=VECTOR('',#866,60.0);
#247=VECTOR('',#869,60.0);
#248=VECTOR('',#870,60.0);
#249=VECTOR('',#871,60.0);
#250=VECTOR('',#872,60.0);
#251=VECTOR('',#875,60.0);
#252=VECTOR('',#876,60.0);
#253=VECTOR('',#877,60.0);
#254=VECTOR('',#878,60.0);
#255=VECTOR('',#881,60.0);
#256=VECTOR('',#882,60.0);
#257=VECTOR('',#885,60.0);
#258=VECTOR('',#886,60.0);
#259=VECTOR('',#887,60.0);
#260=VECTOR('',#888,60.0);
#261=VECTOR('',#889,60.0);
#262=VECTOR('',#890,60.0);
#263=VECTOR('',#891,60.0);
#264=VECTOR('',#892,60.0);
#265=VECTOR('',#893,60.0);
#266=VECTOR('',#894,60.0);
#267=VECTOR('',#895,60.0);
#268=VECTOR('',#898,60.0);
#269=VECTOR('',#899,60.0);
#270=VECTOR('',#902,60.0);
#271=VECTOR('',#905,60.0);
#272=VECTOR('',#908,60.0);
#273=VECTOR('',#911,60.0);
#274=VECTOR('',#912,60.0);
#275=VECTOR('',#915,60.0);
#276=VECTOR('',#918,60.0);
#277=VECTOR('',#919,60.0);
#278=VECTOR('',#922,60.0);
#279=VECTOR('',#925,60.0);
#280=VECTOR('',#926,60.0);
#281=VECTOR('',#929,60.0);
#282=VECTOR('',#932,60.0);
#283=VERTEX_POINT('',#937);
#284=VERTEX_POINT('',#938);
#285=VERTEX_POINT('',#940);
#286=VERTEX_POINT('',#942);
#287=VERTEX_POINT('',#946);
#288=VERTEX_POINT('',#948);
#289=VERTEX_POINT('',#952);
#290=VERTEX_POINT('',#954);
#291=VERTEX_POINT('',#962);
#292=VERTEX_POINT('',#963);
#293=VERTEX_POINT('',#965);
#294=VERTEX_POINT('',#967);
#295=VERTEX_POINT('',#971);
#296=VERTEX_POINT('',#972);
#297=VERTEX_POINT('',#974);
#298=VERTEX_POINT('',#976);
#299=VERTEX_POINT('',#983);
#300=VERTEX_POINT('',#984);
#301=VERTEX_POINT('',#986);
#302=VERTEX_POINT('',#988);
#303=VERTEX_POINT('',#992);
#304=VERTEX_POINT('',#993);
#305=VERTEX_POINT('',#995);
#306=VERTEX_POINT('',#997);
#307=VERTEX_POINT('',#1004);
#308=VERTEX_POINT('',#1005);
#309=VERTEX_POINT('',#1007);
#310=VERTEX_POINT('',#1009);
#311=VERTEX_POINT('',#1013);
#312=VERTEX_POINT('',#1014);
#313=VERTEX_POINT('',#1016);
#314=VERTEX_POINT('',#1018);
#315=VERTEX_POINT('',#1025);
#316=VERTEX_POINT('',#1026);
#317=VERTEX_POINT('',#1028);
#318=VERTEX_POINT('',#1030);
#319=VERTEX_POINT('',#1034);
#320=VERTEX_POINT('',#1035);
#321=VERTEX_POINT('',#1037);
#322=VERTEX_POINT('',#1039);
#323=VERTEX_POINT('',#1046);
#324=VERTEX_POINT('',#1047);
#325=VERTEX_POINT('',#1049);
#326=VERTEX_POINT('',#1051);
#327=VERTEX_POINT('',#1055);
#328=VERTEX_POINT('',#1056);
#329=VERTEX_POINT('',#1058);
#330=VERTEX_POINT('',#1060);
#331=VERTEX_POINT('',#1067);
#332=VERTEX_POINT('',#1068);
#333=VERTEX_POINT('',#1070);
#334=VERTEX_POINT('',#1072);
#335=VERTEX_POINT('',#1076);
#336=VERTEX_POINT('',#1077);
#337=VERTEX_POINT('',#1079);
#338=VERTEX_POINT('',#1081);
#339=VERTEX_POINT('',#1090);
#340=VERTEX_POINT('',#1092);
#341=VERTEX_POINT('',#1095);
#342=VERTEX_POINT('',#1097);
#343=VERTEX_POINT('',#1104);
#344=VERTEX_POINT('',#1114);
#345=VERTEX_POINT('',#1120);
#346=VERTEX_POINT('',#1126);
#347=EDGE_CURVE('',#283,#284,#87,.T.);
#348=EDGE_CURVE('',#285,#284,#88,.T.);
#349=EDGE_CURVE('',#286,#285,#89,.T.);
#350=EDGE_CURVE('',#286,#283,#90,.T.);
#351=EDGE_CURVE('',#284,#287,#91,.T.);
#352=EDGE_CURVE('',#288,#287,#92,.T.);
#353=EDGE_CURVE('',#285,#288,#93,.T.);
#354=EDGE_CURVE('',#287,#289,#94,.T.);
#355=EDGE_CURVE('',#290,#289,#95,.T.);
#356=EDGE_CURVE('',#290,#288,#96,.T.);
#357=EDGE_CURVE('',#289,#283,#97,.T.);
#358=EDGE_CURVE('',#286,#290,#98,.T.);
#359=EDGE_CURVE('',#291,#292,#99,.T.);
#360=EDGE_CURVE('',#293,#291,#100,.T.);
#361=EDGE_CURVE('',#293,#294,#101,.T.);
#362=EDGE_CURVE('',#292,#294,#102,.T.);
#363=EDGE_CURVE('',#295,#296,#103,.T.);
#364=EDGE_CURVE('',#297,#295,#104,.T.);
#365=EDGE_CURVE('',#297,#298,#105,.T.);
#366=EDGE_CURVE('',#296,#298,#106,.T.);
#367=EDGE_CURVE('',#294,#297,#107,.T.);
#368=EDGE_CURVE('',#298,#293,#108,.T.);
#369=EDGE_CURVE('',#299,#300,#109,.T.);
#370=EDGE_CURVE('',#301,#299,#110,.T.);
#371=EDGE_CURVE('',#301,#302,#111,.T.);
#372=EDGE_CURVE('',#300,#302,#112,.T.);
#373=EDGE_CURVE('',#303,#304,#113,.T.);
#374=EDGE_CURVE('',#305,#303,#114,.T.);
#375=EDGE_CURVE('',#305,#306,#115,.T.);
#376=EDGE_CURVE('',#304,#306,#116,.T.);
#377=EDGE_CURVE('',#302,#305,#117,.T.);
#378=EDGE_CURVE('',#306,#301,#118,.T.);
#379=EDGE_CURVE('',#307,#308,#119,.T.);
#380=EDGE_CURVE('',#309,#307,#120,.T.);
#381=EDGE_CURVE('',#309,#310,#121,.T.);
#382=EDGE_CURVE('',#308,#310,#122,.T.);
#383=EDGE_CURVE('',#311,#312,#123,.T.);
#384=EDGE_CURVE('',#313,#311,#124,.T.);
#385=EDGE_CURVE('',#313,#314,#125,.T.);
#386=EDGE_CURVE('',#312,#314,#126,.T.);
#387=EDGE_CURVE('',#310,#313,#127,.T.);
#388=EDGE_CURVE('',#314,#309,#128,.T.);
#389=EDGE_CURVE('',#315,#316,#129,.T.);
#390=EDGE_CURVE('',#317,#315,#130,.T.);
#391=EDGE_CURVE('',#317,#318,#131,.T.);
#392=EDGE_CURVE('',#316,#318,#132,.T.);
#393=EDGE_CURVE('',#319,#320,#133,.T.);
#394=EDGE_CURVE('',#321,#319,#134,.T.);
#395=EDGE_CURVE('',#321,#322,#135,.T.);
#396=EDGE_CURVE('',#320,#322,#136,.T.);
#397=EDGE_CURVE('',#318,#321,#137,.T.);
#398=EDGE_CURVE('',#322,#317,#138,.T.);
#399=EDGE_CURVE('',#323,#324,#139,.T.);
#400=EDGE_CURVE('',#325,#323,#140,.T.);
#401=EDGE_CURVE('',#325,#326,#141,.T.);
#402=EDGE_CURVE('',#324,#326,#142,.T.);
#403=EDGE_CURVE('',#327,#328,#143,.T.);
#404=EDGE_CURVE('',#329,#327,#144,.T.);
#405=EDGE_CURVE('',#329,#330,#145,.T.);
#406=EDGE_CURVE('',#328,#330,#146,.T.);
#407=EDGE_CURVE('',#326,#329,#147,.T.);
#408=EDGE_CURVE('',#330,#325,#148,.T.);
#409=EDGE_CURVE('',#331,#332,#149,.T.);
#410=EDGE_CURVE('',#333,#331,#150,.T.);
#411=EDGE_CURVE('',#333,#334,#151,.T.);
#412=EDGE_CURVE('',#332,#334,#152,.T.);
#413=EDGE_CURVE('',#335,#336,#153,.T.);
#414=EDGE_CURVE('',#337,#335,#154,.T.);
#415=EDGE_CURVE('',#337,#338,#155,.T.);
#416=EDGE_CURVE('',#336,#338,#156,.T.);
#417=EDGE_CURVE('',#334,#337,#157,.T.);
#418=EDGE_CURVE('',#338,#333,#158,.T.);
#419=EDGE_CURVE('',#291,#312,#159,.T.);
#420=EDGE_CURVE('',#307,#336,#160,.T.);
#421=EDGE_CURVE('',#331,#339,#161,.T.);
#422=EDGE_CURVE('',#339,#340,#162,.T.);
#423=EDGE_CURVE('',#340,#285,#163,.T.);
#424=EDGE_CURVE('',#288,#341,#164,.T.);
#425=EDGE_CURVE('',#341,#342,#165,.T.);
#426=EDGE_CURVE('',#342,#300,#166,.T.);
#427=EDGE_CURVE('',#303,#328,#167,.T.);
#428=EDGE_CURVE('',#323,#320,#168,.T.);
#429=EDGE_CURVE('',#315,#296,#169,.T.);
#430=EDGE_CURVE('',#332,#343,#170,.T.);
#431=EDGE_CURVE('',#343,#339,#171,.T.);
#432=EDGE_CURVE('',#324,#319,#172,.T.);
#433=EDGE_CURVE('',#308,#335,#173,.T.);
#434=EDGE_CURVE('',#304,#327,#174,.T.);
#435=EDGE_CURVE('',#344,#342,#175,.T.);
#436=EDGE_CURVE('',#344,#299,#176,.T.);
#437=EDGE_CURVE('',#292,#311,#177,.T.);
#438=EDGE_CURVE('',#343,#345,#178,.T.);
#439=EDGE_CURVE('',#345,#340,#179,.T.);
#440=EDGE_CURVE('',#316,#295,#180,.T.);
#441=EDGE_CURVE('',#346,#344,#181,.T.);
#442=EDGE_CURVE('',#346,#341,#182,.T.);
#443=EDGE_CURVE('',#290,#346,#183,.T.);
#444=EDGE_CURVE('',#345,#286,#184,.T.);
#445=ORIENTED_EDGE('',*,*,#347,.T.);
#446=ORIENTED_EDGE('',*,*,#348,.F.);
#447=ORIENTED_EDGE('',*,*,#349,.F.);
#448=ORIENTED_EDGE('',*,*,#350,.T.);
#449=ORIENTED_EDGE('',*,*,#351,.T.);
#450=ORIENTED_EDGE('',*,*,#352,.F.);
#451=ORIENTED_EDGE('',*,*,#353,.F.);
#452=ORIENTED_EDGE('',*,*,#348,.T.);
#453=ORIENTED_EDGE('',*,*,#354,.T.);
#454=ORIENTED_EDGE('',*,*,#355,.F.);
#455=ORIENTED_EDGE('',*,*,#356,.T.);
#456=ORIENTED_EDGE('',*,*,#352,.T.);
#457=ORIENTED_EDGE('',*,*,#357,.T.);
#458=ORIENTED_EDGE('',*,*,#350,.F.);
#459=ORIENTED_EDGE('',*,*,#358,.T.);
#460=ORIENTED_EDGE('',*,*,#355,.T.);
#461=ORIENTED_EDGE('',*,*,#347,.F.);
#462=ORIENTED_EDGE('',*,*,#357,.F.);
#463=ORIENTED_EDGE('',*,*,#354,.F.);
#464=ORIENTED_EDGE('',*,*,#351,.F.);
#465=ORIENTED_EDGE('',*,*,#359,.F.);
#466=ORIENTED_EDGE('',*,*,#360,.F.);
#467=ORIENTED_EDGE('',*,*,#361,.T.);
#468=ORIENTED_EDGE('',*,*,#362,.F.);
#469=ORIENTED_EDGE('',*,*,#363,.F.);
#470=ORIENTED_EDGE('',*,*,#364,.F.);
#471=ORIENTED_EDGE('',*,*,#365,.T.);
#472=ORIENTED_EDGE('',*,*,#366,.F.);
#473=ORIENTED_EDGE('',*,*,#367,.F.);
#474=ORIENTED_EDGE('',*,*,#361,.F.);
#475=ORIENTED_EDGE('',*,*,#368,.F.);
#476=ORIENTED_EDGE('',*,*,#365,.F.);
#477=ORIENTED_EDGE('',*,*,#369,.F.);
#478=ORIENTED_EDGE('',*,*,#370,.F.);
#479=ORIENTED_EDGE('',*,*,#371,.T.);
#480=ORIENTED_EDGE('',*,*,#372,.F.);
#481=ORIENTED_EDGE('',*,*,#373,.F.);
#482=ORIENTED_EDGE('',*,*,#374,.F.);
#483=ORIENTED_EDGE('',*,*,#375,.T.);
#484=ORIENTED_EDGE('',*,*,#376,.F.);
#485=ORIENTED_EDGE('',*,*,#375,.F.);
#486=ORIENTED_EDGE('',*,*,#377,.F.);
#487=ORIENTED_EDGE('',*,*,#371,.F.);
#488=ORIENTED_EDGE('',*,*,#378,.F.);
#489=ORIENTED_EDGE('',*,*,#379,.F.);
#490=ORIENTED_EDGE('',*,*,#380,.F.);
#491=ORIENTED_EDGE('',*,*,#381,.T.);
#492=ORIENTED_EDGE('',*,*,#382,.F.);
#493=ORIENTED_EDGE('',*,*,#383,.F.);
#494=ORIENTED_EDGE('',*,*,#384,.F.);
#495=ORIENTED_EDGE('',*,*,#385,.T.);
#496=ORIENTED_EDGE('',*,*,#386,.F.);
#497=ORIENTED_EDGE('',*,*,#387,.F.);
#498=ORIENTED_EDGE('',*,*,#381,.F.);
#499=ORIENTED_EDGE('',*,*,#388,.F.);
#500=ORIENTED_EDGE('',*,*,#385,.F.);
#501=ORIENTED_EDGE('',*,*,#389,.F.);
#502=ORIENTED_EDGE('',*,*,#390,.F.);
#503=ORIENTED_EDGE('',*,*,#391,.T.);
#504=ORIENTED_EDGE('',*,*,#392,.F.);
#505=ORIENTED_EDGE('',*,*,#393,.F.);
#506=ORIENTED_EDGE('',*,*,#394,.F.);
#507=ORIENTED_EDGE('',*,*,#395,.T.);
#508=ORIENTED_EDGE('',*,*,#396,.F.);
#509=ORIENTED_EDGE('',*,*,#397,.F.);
#510=ORIENTED_EDGE('',*,*,#391,.F.);
#511=ORIENTED_EDGE('',*,*,#398,.F.);
#512=ORIENTED_EDGE('',*,*,#395,.F.);
#513=ORIENTED_EDGE('',*,*,#399,.F.);
#514=ORIENTED_EDGE('',*,*,#400,.F.);
#515=ORIENTED_EDGE('',*,*,#401,.T.);
#516=ORIENTED_EDGE('',*,*,#402,.F.);
#517=ORIENTED_EDGE('',*,*,#403,.F.);
#518=ORIENTED_EDGE('',*,*,#404,.F.);
#519=ORIENTED_EDGE('',*,*,#405,.T.);
#520=ORIENTED_EDGE('',*,*,#406,.F.);
#521=ORIENTED_EDGE('',*,*,#407,.F.);
#522=ORIENTED_EDGE('',*,*,#401,.F.);
#523=ORIENTED_EDGE('',*,*,#408,.F.);
#524=ORIENTED_EDGE('',*,*,#405,.F.);
#525=ORIENTED_EDGE('',*,*,#409,.F.);
#526=ORIENTED_EDGE('',*,*,#410,.F.);
#527=ORIENTED_EDGE('',*,*,#411,.T.);
#528=ORIENTED_EDGE('',*,*,#412,.F.);
#529=ORIENTED_EDGE('',*,*,#413,.F.);
#530=ORIENTED_EDGE('',*,*,#414,.F.);
#531=ORIENTED_EDGE('',*,*,#415,.T.);
#532=ORIENTED_EDGE('',*,*,#416,.F.);
#533=ORIENTED_EDGE('',*,*,#417,.F.);
#534=ORIENTED_EDGE('',*,*,#411,.F.);
#535=ORIENTED_EDGE('',*,*,#418,.F.);
#536=ORIENTED_EDGE('',*,*,#415,.F.);
#537=ORIENTED_EDGE('',*,*,#366,.T.);
#538=ORIENTED_EDGE('',*,*,#368,.T.);
#539=ORIENTED_EDGE('',*,*,#360,.T.);
#540=ORIENTED_EDGE('',*,*,#419,.T.);
#541=ORIENTED_EDGE('',*,*,#386,.T.);
#542=ORIENTED_EDGE('',*,*,#388,.T.);
#543=ORIENTED_EDGE('',*,*,#380,.T.);
#544=ORIENTED_EDGE('',*,*,#420,.T.);
#545=ORIENTED_EDGE('',*,*,#416,.T.);
#546=ORIENTED_EDGE('',*,*,#418,.T.);
#547=ORIENTED_EDGE('',*,*,#410,.T.);
#548=ORIENTED_EDGE('',*,*,#421,.T.);
#549=ORIENTED_EDGE('',*,*,#422,.T.);
#550=ORIENTED_EDGE('',*,*,#423,.T.);
#551=ORIENTED_EDGE('',*,*,#353,.T.);
#552=ORIENTED_EDGE('',*,*,#424,.T.);
#553=ORIENTED_EDGE('',*,*,#425,.T.);
#554=ORIENTED_EDGE('',*,*,#426,.T.);
#555=ORIENTED_EDGE('',*,*,#372,.T.);
#556=ORIENTED_EDGE('',*,*,#377,.T.);
#557=ORIENTED_EDGE('',*,*,#374,.T.);
#558=ORIENTED_EDGE('',*,*,#427,.T.);
#559=ORIENTED_EDGE('',*,*,#406,.T.);
#560=ORIENTED_EDGE('',*,*,#408,.T.);
#561=ORIENTED_EDGE('',*,*,#400,.T.);
#562=ORIENTED_EDGE('',*,*,#428,.T.);
#563=ORIENTED_EDGE('',*,*,#396,.T.);
#564=ORIENTED_EDGE('',*,*,#398,.T.);
#565=ORIENTED_EDGE('',*,*,#390,.T.);
#566=ORIENTED_EDGE('',*,*,#429,.T.);
#567=ORIENTED_EDGE('',*,*,#409,.T.);
#568=ORIENTED_EDGE('',*,*,#430,.T.);
#569=ORIENTED_EDGE('',*,*,#431,.T.);
#570=ORIENTED_EDGE('',*,*,#421,.F.);
#571=ORIENTED_EDGE('',*,*,#393,.T.);
#572=ORIENTED_EDGE('',*,*,#428,.F.);
#573=ORIENTED_EDGE('',*,*,#399,.T.);
#574=ORIENTED_EDGE('',*,*,#432,.T.);
#575=ORIENTED_EDGE('',*,*,#379,.T.);
#576=ORIENTED_EDGE('',*,*,#433,.T.);
#577=ORIENTED_EDGE('',*,*,#413,.T.);
#578=ORIENTED_EDGE('',*,*,#420,.F.);
#579=ORIENTED_EDGE('',*,*,#373,.T.);
#580=ORIENTED_EDGE('',*,*,#434,.T.);
#581=ORIENTED_EDGE('',*,*,#403,.T.);
#582=ORIENTED_EDGE('',*,*,#427,.F.);
#583=ORIENTED_EDGE('',*,*,#369,.T.);
#584=ORIENTED_EDGE('',*,*,#426,.F.);
#585=ORIENTED_EDGE('',*,*,#435,.F.);
#586=ORIENTED_EDGE('',*,*,#436,.T.);
#587=ORIENTED_EDGE('',*,*,#359,.T.);
#588=ORIENTED_EDGE('',*,*,#437,.T.);
#589=ORIENTED_EDGE('',*,*,#383,.T.);
#590=ORIENTED_EDGE('',*,*,#419,.F.);
#591=ORIENTED_EDGE('',*,*,#438,.T.);
#592=ORIENTED_EDGE('',*,*,#439,.T.);
#593=ORIENTED_EDGE('',*,*,#422,.F.);
#594=ORIENTED_EDGE('',*,*,#431,.F.);
#595=ORIENTED_EDGE('',*,*,#363,.T.);
#596=ORIENTED_EDGE('',*,*,#429,.F.);
#597=ORIENTED_EDGE('',*,*,#389,.T.);
#598=ORIENTED_EDGE('',*,*,#440,.T.);
#599=ORIENTED_EDGE('',*,*,#441,.T.);
#600=ORIENTED_EDGE('',*,*,#435,.T.);
#601=ORIENTED_EDGE('',*,*,#425,.F.);
#602=ORIENTED_EDGE('',*,*,#442,.F.);
#603=ORIENTED_EDGE('',*,*,#443,.T.);
#604=ORIENTED_EDGE('',*,*,#442,.T.);
#605=ORIENTED_EDGE('',*,*,#424,.F.);
#606=ORIENTED_EDGE('',*,*,#356,.F.);
#607=ORIENTED_EDGE('',*,*,#444,.T.);
#608=ORIENTED_EDGE('',*,*,#349,.T.);
#609=ORIENTED_EDGE('',*,*,#423,.F.);
#610=ORIENTED_EDGE('',*,*,#439,.F.);
#611=ORIENTED_EDGE('',*,*,#364,.T.);
#612=ORIENTED_EDGE('',*,*,#440,.F.);
#613=ORIENTED_EDGE('',*,*,#392,.T.);
#614=ORIENTED_EDGE('',*,*,#397,.T.);
#615=ORIENTED_EDGE('',*,*,#394,.T.);
#616=ORIENTED_EDGE('',*,*,#432,.F.);
#617=ORIENTED_EDGE('',*,*,#402,.T.);
#618=ORIENTED_EDGE('',*,*,#407,.T.);
#619=ORIENTED_EDGE('',*,*,#404,.T.);
#620=ORIENTED_EDGE('',*,*,#434,.F.);
#621=ORIENTED_EDGE('',*,*,#376,.T.);
#622=ORIENTED_EDGE('',*,*,#378,.T.);
#623=ORIENTED_EDGE('',*,*,#370,.T.);
#624=ORIENTED_EDGE('',*,*,#436,.F.);
#625=ORIENTED_EDGE('',*,*,#441,.F.);
#626=ORIENTED_EDGE('',*,*,#443,.F.);
#627=ORIENTED_EDGE('',*,*,#358,.F.);
#628=ORIENTED_EDGE('',*,*,#444,.F.);
#629=ORIENTED_EDGE('',*,*,#438,.F.);
#630=ORIENTED_EDGE('',*,*,#430,.F.);
#631=ORIENTED_EDGE('',*,*,#412,.T.);
#632=ORIENTED_EDGE('',*,*,#417,.T.);
#633=ORIENTED_EDGE('',*,*,#414,.T.);
#634=ORIENTED_EDGE('',*,*,#433,.F.);
#635=ORIENTED_EDGE('',*,*,#382,.T.);
#636=ORIENTED_EDGE('',*,*,#387,.T.);
#637=ORIENTED_EDGE('',*,*,#384,.T.);
#638=ORIENTED_EDGE('',*,*,#437,.F.);
#639=ORIENTED_EDGE('',*,*,#362,.T.);
#640=ORIENTED_EDGE('',*,*,#367,.T.);
#641=PLANE('',#727);
#642=PLANE('',#728);
#643=PLANE('',#729);
#644=PLANE('',#730);
#645=PLANE('',#731);
#646=PLANE('',#732);
#647=PLANE('',#733);
#648=PLANE('',#734);
#649=PLANE('',#735);
#650=PLANE('',#736);
#651=PLANE('',#737);
#652=PLANE('',#738);
#653=PLANE('',#739);
#654=PLANE('',#740);
#655=PLANE('',#741);
#656=PLANE('',#742);
#657=PLANE('',#743);
#658=PLANE('',#744);
#659=PLANE('',#745);
#660=PLANE('',#746);
#661=PLANE('',#747);
#662=PLANE('',#748);
#663=PLANE('',#749);
#664=PLANE('',#750);
#665=PLANE('',#751);
#666=PLANE('',#752);
#667=PLANE('',#753);
#668=PLANE('',#754);
#669=PLANE('',#755);
#670=PLANE('',#756);
#671=PLANE('',#757);
#672=PLANE('',#758);
#673=PLANE('',#759);
#674=PLANE('',#760);
#675=PLANE('',#761);
#676=PLANE('',#762);
#677=ADVANCED_FACE('',(#15),#641,.T.);
#678=ADVANCED_FACE('',(#16),#642,.T.);
#679=ADVANCED_FACE('',(#17),#643,.T.);
#680=ADVANCED_FACE('',(#18),#644,.T.);
#681=ADVANCED_FACE('',(#19),#645,.T.);
#682=ADVANCED_FACE('',(#20),#646,.F.);
#683=ADVANCED_FACE('',(#21),#647,.F.);
#684=ADVANCED_FACE('',(#22),#648,.F.);
#685=ADVANCED_FACE('',(#23),#649,.F.);
#686=ADVANCED_FACE('',(#24),#650,.F.);
#687=ADVANCED_FACE('',(#25),#651,.F.);
#688=ADVANCED_FACE('',(#26),#652,.F.);
#689=ADVANCED_FACE('',(#27),#653,.F.);
#690=ADVANCED_FACE('',(#28),#654,.F.);
#691=ADVANCED_FACE('',(#29),#655,.F.);
#692=ADVANCED_FACE('',(#30),#656,.F.);
#693=ADVANCED_FACE('',(#31),#657,.F.);
#694=ADVANCED_FACE('',(#32),#658,.F.);
#695=ADVANCED_FACE('',(#33),#659,.F.);
#696=ADVANCED_FACE('',(#34),#660,.F.);
#697=ADVANCED_FACE('',(#35),#661,.F.);
#698=ADVANCED_FACE('',(#36),#662,.F.);
#699=ADVANCED_FACE('',(#37),#663,.F.);
#700=ADVANCED_FACE('',(#38),#664,.T.);
#701=ADVANCED_FACE('',(#39),#665,.T.);
#702=ADVANCED_FACE('',(#40),#666,.T.);
#703=ADVANCED_FACE('',(#41),#667,.T.);
#704=ADVANCED_FACE('',(#42),#668,.T.);
#705=ADVANCED_FACE('',(#43),#669,.T.);
#706=ADVANCED_FACE('',(#44),#670,.T.);
#707=ADVANCED_FACE('',(#45),#671,.T.);
#708=ADVANCED_FACE('',(#46),#672,.T.);
#709=ADVANCED_FACE('',(#47),#673,.T.);
#710=ADVANCED_FACE('',(#48),#674,.T.);
#711=ADVANCED_FACE('',(#49),#675,.T.);
#712=ADVANCED_FACE('',(#50),#676,.F.);
#713=CLOSED_SHELL('',(#677,#678,#679,#680,#681,#682,#683,#684,#685,#686, #687,#688,#689,#690,#691,#692,#693,#694,#695,#696,#697,#698,#699,#700,#701, #702,#703,#704,#705,#706,#707,#708,#709,#710,#711,#712));
#714=DERIVED_UNIT_ELEMENT(#716,1.);
#715=DERIVED_UNIT_ELEMENT(#1139,-3.);
#716=( MASS_UNIT() NAMED_UNIT(*) SI_UNIT(.KILO.,.GRAM.) );
#717=DERIVED_UNIT((#714,#715));
#718=MEASURE_REPRESENTATION_ITEM('density measure', POSITIVE_RATIO_MEASURE(7850.),#717);
#719=PROPERTY_DEFINITION_REPRESENTATION(#724,#721);
#720=PROPERTY_DEFINITION_REPRESENTATION(#725,#722);
#721=REPRESENTATION('material name',(#723),#1136);
#722=REPRESENTATION('density',(#718),#1136);
#723=DESCRIPTIVE_REPRESENTATION_ITEM('Steel','Steel');
#724=PROPERTY_DEFINITION('material property','material name',#1146);
#725=PROPERTY_DEFINITION('material property','density of part',#1146);
#726=AXIS2_PLACEMENT_3D('',#935,#763,#764);
#727=AXIS2_PLACEMENT_3D('',#936,#765,#766);
#728=AXIS2_PLACEMENT_3D('',#945,#771,#772);
#729=AXIS2_PLACEMENT_3D('',#951,#776,#777);
#730=AXIS2_PLACEMENT_3D('',#957,#781,#782);
#731=AXIS2_PLACEMENT_3D('',#960,#785,#786);
#732=AXIS2_PLACEMENT_3D('',#961,#787,#788);
#733=AXIS2_PLACEMENT_3D('',#970,#793,#794);
#734=AXIS2_PLACEMENT_3D('',#979,#799,#800);
#735=AXIS2_PLACEMENT_3D('',#982,#803,#804);
#736=AXIS2_PLACEMENT_3D('',#991,#809,#810);
#737=AXIS2_PLACEMENT_3D('',#1000,#815,#816);
#738=AXIS2_PLACEMENT_3D('',#1003,#819,#820);
#739=AXIS2_PLACEMENT_3D('',#1012,#825,#826);
#740=AXIS2_PLACEMENT_3D('',#1021,#831,#832);
#741=AXIS2_PLACEMENT_3D('',#1024,#835,#836);
#742=AXIS2_PLACEMENT_3D('',#1033,#841,#842);
#743=AXIS2_PLACEMENT_3D('',#1042,#847,#848);
#744=AXIS2_PLACEMENT_3D('',#1045,#851,#852);
#745=AXIS2_PLACEMENT_3D('',#1054,#857,#858);
#746=AXIS2_PLACEMENT_3D('',#1063,#863,#864);
#747=AXIS2_PLACEMENT_3D('',#1066,#867,#868);
#748=AXIS2_PLACEMENT_3D('',#1075,#873,#874);
#749=AXIS2_PLACEMENT_3D('',#1084,#879,#880);
#750=AXIS2_PLACEMENT_3D('',#1087,#883,#884);
#751=AXIS2_PLACEMENT_3D('',#1103,#896,#897);
#752=AXIS2_PLACEMENT_3D('',#1107,#900,#901);
#753=AXIS2_PLACEMENT_3D('',#1109,#903,#904);
#754=AXIS2_PLACEMENT_3D('',#1111,#906,#907);
#755=AXIS2_PLACEMENT_3D('',#1113,#909,#910);
#756=AXIS2_PLACEMENT_3D('',#1117,#913,#914);
#757=AXIS2_PLACEMENT_3D('',#1119,#916,#917);
#758=AXIS2_PLACEMENT_3D('',#1123,#920,#921);
#759=AXIS2_PLACEMENT_3D('',#1125,#923,#924);
#760=AXIS2_PLACEMENT_3D('',#1129,#927,#928);
#761=AXIS2_PLACEMENT_3D('',#1131,#930,#931);
#762=AXIS2_PLACEMENT_3D('',#1133,#933,#934);
#763=DIRECTION('axis',(0.,0.,1.));
#764=DIRECTION('refdir',(1.,0.,0.));
#765=DIRECTION('center_axis',(0.,0.866025403784439,0.5));
#766=DIRECTION('ref_axis',(-1.,0.,0.));
#767=DIRECTION('',(1.,0.,0.));
#768=DIRECTION('',(-0.447213595499957,-0.447213595499958,0.774596669241484));
#769=DIRECTION('',(1.,0.,0.));
#770=DIRECTION('',(0.447213595499957,-0.447213595499958,0.774596669241484));
#771=DIRECTION('center_axis',(0.866025403784439,-7.33921470605571E-17,0.499999999999999));
#772=DIRECTION('ref_axis',(-6.47582105635384E-47,1.,1.46784294121115E-16));
#773=DIRECTION('',(6.47582105635384E-47,-1.,-1.46784294121115E-16));
#774=DIRECTION('',(-0.447213595499957,0.447213595499958,0.774596669241484));
#775=DIRECTION('',(6.47582105635384E-47,-1.,-1.46784294121115E-16));
#776=DIRECTION('center_axis',(0.,-0.866025403784439,0.499999999999999));
#777=DIRECTION('ref_axis',(1.,0.,0.));
#778=DIRECTION('',(-1.,0.,0.));
#779=DIRECTION('',(0.447213595499957,0.447213595499958,0.774596669241484));
#780=DIRECTION('',(1.,0.,0.));
#781=DIRECTION('center_axis',(-0.866025403784439,-7.33921470605572E-17, 0.499999999999999));
#782=DIRECTION('ref_axis',(6.47582105635384E-47,-1.,-1.46784294121115E-16));
#783=DIRECTION('',(-6.47582105635384E-47,1.,1.46784294121115E-16));
#784=DIRECTION('',(6.47582105635384E-47,-1.,-1.46784294121115E-16));
#785=DIRECTION('center_axis',(0.,-1.46784294121115E-16,1.));
#786=DIRECTION('ref_axis',(6.47582105635384E-47,-1.,-1.46784294121115E-16));
#787=DIRECTION('center_axis',(0.,0.,-1.));
#788=DIRECTION('ref_axis',(-1.,0.,0.));
#789=DIRECTION('',(-1.,0.,0.));
#790=DIRECTION('',(0.,-1.,0.));
#791=DIRECTION('',(-1.,0.,0.));
#792=DIRECTION('',(-6.29489544520914E-47,1.,0.));
#793=DIRECTION('center_axis',(0.,0.,1.));
#794=DIRECTION('ref_axis',(1.,0.,0.));
#795=DIRECTION('',(1.,0.,0.));
#796=DIRECTION('',(6.29489544520914E-47,-1.,0.));
#797=DIRECTION('',(1.,0.,0.));
#798=DIRECTION('',(0.,1.,0.));
#799=DIRECTION('center_axis',(0.,1.,0.));
#800=DIRECTION('ref_axis',(0.,0.,1.));
#801=DIRECTION('',(-1.23259516440783E-32,0.,1.));
#802=DIRECTION('',(0.,0.,-1.));
#803=DIRECTION('center_axis',(0.,0.,1.));
#804=DIRECTION('ref_axis',(1.,0.,0.));
#805=DIRECTION('',(1.,0.,0.));
#806=DIRECTION('',(6.29489544520914E-47,-1.,0.));
#807=DIRECTION('',(1.,0.,0.));
#808=DIRECTION('',(0.,1.,0.));
#809=DIRECTION('center_axis',(0.,0.,-1.));
#810=DIRECTION('ref_axis',(-1.,0.,0.));
#811=DIRECTION('',(-1.,0.,0.));
#812=DIRECTION('',(0.,-1.,0.));
#813=DIRECTION('',(-1.,0.,0.));
#814=DIRECTION('',(-6.29489544520914E-47,1.,0.));
#815=DIRECTION('center_axis',(0.,1.,0.));
#816=DIRECTION('ref_axis',(0.,0.,1.));
#817=DIRECTION('',(0.,0.,-1.));
#818=DIRECTION('',(-1.23259516440783E-32,0.,1.));
#819=DIRECTION('center_axis',(0.,0.,-1.));
#820=DIRECTION('ref_axis',(-1.,0.,0.));
#821=DIRECTION('',(-1.,0.,0.));
#822=DIRECTION('',(0.,-1.,0.));
#823=DIRECTION('',(-1.,0.,0.));
#824=DIRECTION('',(-6.29489544520914E-47,1.,0.));
#825=DIRECTION('center_axis',(0.,0.,1.));
#826=DIRECTION('ref_axis',(1.,0.,0.));
#827=DIRECTION('',(1.,0.,0.));
#828=DIRECTION('',(6.29489544520914E-47,-1.,0.));
#829=DIRECTION('',(1.,0.,0.));
#830=DIRECTION('',(0.,1.,0.));
#831=DIRECTION('center_axis',(0.,1.,0.));
#832=DIRECTION('ref_axis',(0.,0.,1.));
#833=DIRECTION('',(-1.23259516440783E-32,0.,1.));
#834=DIRECTION('',(0.,0.,-1.));
#835=DIRECTION('center_axis',(0.,0.,-1.));
#836=DIRECTION('ref_axis',(-1.,0.,0.));
#837=DIRECTION('',(-1.,0.,0.));
#838=DIRECTION('',(0.,-1.,0.));
#839=DIRECTION('',(-1.,0.,0.));
#840=DIRECTION('',(-6.29489544520914E-47,1.,0.));
#841=DIRECTION('center_axis',(0.,0.,1.));
#842=DIRECTION('ref_axis',(1.,0.,0.));
#843=DIRECTION('',(1.,0.,0.));
#844=DIRECTION('',(6.29489544520914E-47,-1.,0.));
#845=DIRECTION('',(1.,0.,0.));
#846=DIRECTION('',(0.,1.,0.));
#847=DIRECTION('center_axis',(0.,1.,0.));
#848=DIRECTION('ref_axis',(0.,0.,1.));
#849=DIRECTION('',(-1.23259516440783E-32,0.,1.));
#850=DIRECTION('',(0.,0.,-1.));
#851=DIRECTION('center_axis',(0.,0.,-1.));
#852=DIRECTION('ref_axis',(-1.,0.,0.));
#853=DIRECTION('',(-1.,0.,0.));
#854=DIRECTION('',(0.,-1.,0.));
#855=DIRECTION('',(-1.,0.,0.));
#856=DIRECTION('',(-6.29489544520914E-47,1.,0.));
#857=DIRECTION('center_axis',(0.,0.,1.));
#858=DIRECTION('ref_axis',(1.,0.,0.));
#859=DIRECTION('',(1.,0.,0.));
#860=DIRECTION('',(6.29489544520914E-47,-1.,0.));
#861=DIRECTION('',(1.,0.,0.));
#862=DIRECTION('',(0.,1.,0.));
#863=DIRECTION('center_axis',(0.,1.,0.));
#864=DIRECTION('ref_axis',(0.,0.,1.));
#865=DIRECTION('',(-1.23259516440783E-32,0.,1.));
#866=DIRECTION('',(0.,0.,-1.));
#867=DIRECTION('center_axis',(0.,0.,-1.));
#868=DIRECTION('ref_axis',(-1.,0.,0.));
#869=DIRECTION('',(-1.,0.,0.));
#870=DIRECTION('',(0.,-1.,0.));
#871=DIRECTION('',(-1.,0.,0.));
#872=DIRECTION('',(-6.29489544520914E-47,1.,0.));
#873=DIRECTION('center_axis',(0.,0.,1.));
#874=DIRECTION('ref_axis',(1.,0.,0.));
#875=DIRECTION('',(1.,0.,0.));
#876=DIRECTION('',(6.29489544520914E-47,-1.,0.));
#877=DIRECTION('',(1.,0.,0.));
#878=DIRECTION('',(0.,1.,0.));
#879=DIRECTION('center_axis',(0.,1.,0.));
#880=DIRECTION('ref_axis',(0.,0.,1.));
#881=DIRECTION('',(-1.23259516440783E-32,0.,1.));
#882=DIRECTION('',(0.,0.,-1.));
#883=DIRECTION('center_axis',(1.,0.,0.));
#884=DIRECTION('ref_axis',(0.,0.,-1.));
#885=DIRECTION('',(1.23259516440783E-32,2.54282447410265E-16,-1.));
#886=DIRECTION('',(1.23259516440783E-32,2.54282447410265E-16,-1.));
#887=DIRECTION('',(1.23259516440783E-32,2.54282447410265E-16,-1.));
#888=DIRECTION('',(-6.29489544520914E-47,1.,2.46519032881566E-32));
#889=DIRECTION('',(-1.23259516440783E-32,8.16340459283201E-18,1.));
#890=DIRECTION('',(1.23259516440783E-32,9.91270557701034E-17,-1.));
#891=DIRECTION('',(8.71576399210517E-33,0.707106781186548,-0.707106781186547));
#892=DIRECTION('',(1.23259516440783E-32,2.54282447410265E-16,-1.));
#893=DIRECTION('',(1.23259516440783E-32,2.54282447410265E-16,-1.));
#894=DIRECTION('',(1.23259516440783E-32,2.54282447410265E-16,-1.));
#895=DIRECTION('',(1.23259516440783E-32,2.54282447410265E-16,-1.));
#896=DIRECTION('center_axis',(0.,-1.,-2.54282447410265E-16));
#897=DIRECTION('ref_axis',(1.23259516440783E-32,2.54282447410265E-16,-1.));
#898=DIRECTION('',(1.23259516440783E-32,2.54282447410265E-16,-1.));
#899=DIRECTION('',(1.,0.,0.));
#900=DIRECTION('center_axis',(0.,-1.,-2.54282447410265E-16));
#901=DIRECTION('ref_axis',(1.23259516440783E-32,2.54282447410265E-16,-1.));
#902=DIRECTION('',(1.23259516440783E-32,2.54282447410265E-16,-1.));
#903=DIRECTION('center_axis',(0.,-1.,-2.54282447410265E-16));
#904=DIRECTION('ref_axis',(1.23259516440783E-32,2.54282447410265E-16,-1.));
#905=DIRECTION('',(1.23259516440783E-32,2.54282447410265E-16,-1.));
#906=DIRECTION('center_axis',(0.,-1.,-2.54282447410265E-16));
#907=DIRECTION('ref_axis',(1.23259516440783E-32,2.54282447410265E-16,-1.));
#908=DIRECTION('',(1.23259516440783E-32,2.54282447410265E-16,-1.));
#909=DIRECTION('center_axis',(0.,-1.,-2.54282447410265E-16));
#910=DIRECTION('ref_axis',(1.23259516440783E-32,2.54282447410265E-16,-1.));
#911=DIRECTION('',(1.,0.,0.));
#912=DIRECTION('',(1.23259516440783E-32,2.54282447410265E-16,-1.));
#913=DIRECTION('center_axis',(0.,-1.,-2.54282447410265E-16));
#914=DIRECTION('ref_axis',(1.23259516440783E-32,2.54282447410265E-16,-1.));
#915=DIRECTION('',(1.23259516440783E-32,2.54282447410265E-16,-1.));
#916=DIRECTION('center_axis',(0.,2.46519032881566E-32,-1.));
#917=DIRECTION('ref_axis',(-6.29489544520914E-47,1.,2.46519032881566E-32));
#918=DIRECTION('',(-6.29489544520914E-47,1.,2.46519032881566E-32));
#919=DIRECTION('',(1.,0.,0.));
#920=DIRECTION('center_axis',(0.,-1.,-2.54282447410265E-16));
#921=DIRECTION('ref_axis',(1.23259516440783E-32,2.54282447410265E-16,-1.));
#922=DIRECTION('',(1.23259516440783E-32,2.54282447410265E-16,-1.));
#923=DIRECTION('center_axis',(0.,-0.707106781186547,-0.707106781186548));
#924=DIRECTION('ref_axis',(8.71576399210518E-33,0.707106781186548,-0.707106781186547));
#925=DIRECTION('',(8.71576399210517E-33,0.707106781186548,-0.707106781186547));
#926=DIRECTION('',(1.,0.,0.));
#927=DIRECTION('center_axis',(0.,-1.,-9.91270557701034E-17));
#928=DIRECTION('ref_axis',(1.23259516440783E-32,9.91270557701034E-17,-1.));
#929=DIRECTION('',(1.23259516440783E-32,9.91270557701034E-17,-1.));
#930=DIRECTION('center_axis',(0.,1.,-8.16340459283201E-18));
#931=DIRECTION('ref_axis',(-1.23259516440783E-32,8.16340459283201E-18,1.));
#932=DIRECTION('',(-1.23259516440783E-32,8.16340459283201E-18,1.));
#933=DIRECTION('center_axis',(1.,6.29489544520914E-47,1.23259516440783E-32));
#934=DIRECTION('ref_axis',(-6.29489544520914E-47,1.,2.46519032881566E-32));
#935=CARTESIAN_POINT('',(0.0,0.0,0.0));
#936=CARTESIAN_POINT('Origin',(212.9999993741514,3.900000000000036,0.900000000000012));
#937=CARTESIAN_POINT('',(215.7712806662616,1.12871870788983,5.700000000000012));
#938=CARTESIAN_POINT('',(233.6287180820412,1.12871870788983,5.700000000000012));
#939=CARTESIAN_POINT('',(212.9999993741514,1.12871870788983,5.700000000000012));
#940=CARTESIAN_POINT('',(236.3999993741514,3.900000000000036,0.900000000000006));
#941=CARTESIAN_POINT('',(234.0599993741514,1.560000000000036,4.952998889711178));
#942=CARTESIAN_POINT('',(212.9999993741514,3.900000000000036,0.900000000000012));
#943=CARTESIAN_POINT('',(212.9999993741514,3.900000000000036,0.900000000000012));
#944=CARTESIAN_POINT('',(213.7799993741514,3.12000000000003,2.250999629903736));
#945=CARTESIAN_POINT('Origin',(236.3999993741514,3.900000000000036,0.900000000000006));
#946=CARTESIAN_POINT('',(233.6287180820412,-1.128718707889758,5.700000000000012));
#947=CARTESIAN_POINT('',(233.6287180820412,3.90000000000003,5.700000000000012));
#948=CARTESIAN_POINT('',(236.3999993741514,-3.899999999999958,0.900000000000006));
#949=CARTESIAN_POINT('',(235.6199993741514,-3.119999999999964,2.25099962990373));
#950=CARTESIAN_POINT('',(236.3999993741514,3.900000000000036,0.900000000000012));
#951=CARTESIAN_POINT('Origin',(236.3999993741514,-3.899999999999958,0.900000000000006));
#952=CARTESIAN_POINT('',(215.7712806662616,-1.128718707889758,5.700000000000012));
#953=CARTESIAN_POINT('',(212.9999993741514,-1.128718707889758,5.700000000000012));
#954=CARTESIAN_POINT('',(212.9999993741514,-3.899999999999958,0.900000000000012));
#955=CARTESIAN_POINT('',(215.3399993741514,-1.559999999999964,4.952998889711184));
#956=CARTESIAN_POINT('',(212.9999993741514,-3.899999999999958,0.900000000000012));
#957=CARTESIAN_POINT('Origin',(212.9999993741514,-3.899999999999958,0.900000000000012));
#958=CARTESIAN_POINT('',(215.7712806662616,3.90000000000003,5.700000000000012));
#959=CARTESIAN_POINT('',(212.9999993741514,3.900000000000036,0.900000000000012));
#960=CARTESIAN_POINT('Origin',(212.9999993741514,3.90000000000003,5.700000000000012));
#961=CARTESIAN_POINT('Origin',(236.3999993741514,1.500000000000018,-70.2000003576276));
#962=CARTESIAN_POINT('',(236.3999993741514,1.500000000000018,-70.2000003576276));
#963=CARTESIAN_POINT('',(212.9999993741514,1.500000000000018,-70.2000003576276));
#964=CARTESIAN_POINT('',(224.6999993741514,1.500000000000024,-70.2000003576276));
#965=CARTESIAN_POINT('',(236.3999993741514,2.700000000000018,-70.2000003576276));
#966=CARTESIAN_POINT('',(236.3999993741514,0.75000000000003,-70.2000003576276));
#967=CARTESIAN_POINT('',(212.9999993741514,2.700000000000018,-70.2000003576276));
#968=CARTESIAN_POINT('',(236.3999993741514,2.700000000000018,-70.2000003576276));
#969=CARTESIAN_POINT('',(212.9999993741514,0.75000000000003,-70.2000003576276));
#970=CARTESIAN_POINT('Origin',(212.9999993741514,1.500000000000018,-67.2000003576276));
#971=CARTESIAN_POINT('',(212.9999993741514,1.500000000000018,-67.2000003576276));
#972=CARTESIAN_POINT('',(236.3999993741514,1.500000000000018,-67.2000003576276));
#973=CARTESIAN_POINT('',(212.9999993741514,1.500000000000024,-67.2000003576276));
#974=CARTESIAN_POINT('',(212.9999993741514,2.700000000000018,-67.2000003576276));
#975=CARTESIAN_POINT('',(212.9999993741514,0.75000000000003,-67.2000003576276));
#976=CARTESIAN_POINT('',(236.3999993741514,2.700000000000018,-67.2000003576276));
#977=CARTESIAN_POINT('',(212.9999993741514,2.700000000000018,-67.2000003576276));
#978=CARTESIAN_POINT('',(236.3999993741514,0.75000000000003,-67.2000003576276));
#979=CARTESIAN_POINT('Origin',(224.6999993741514,2.700000000000018,-68.7000003576276));
#980=CARTESIAN_POINT('',(212.9999993741514,2.700000000000018,-61.5000001788138));
#981=CARTESIAN_POINT('',(236.3999993741514,2.700000000000018,-61.5000001788138));
#982=CARTESIAN_POINT('Origin',(212.9999993741514,1.500000000000012,-24.00000035762784));
#983=CARTESIAN_POINT('',(212.9999993741514,1.500000000000012,-24.00000035762784));
#984=CARTESIAN_POINT('',(236.3999993741514,1.500000000000012,-24.00000035762784));
#985=CARTESIAN_POINT('',(212.9999993741514,1.500000000000012,-24.00000035762784));
#986=CARTESIAN_POINT('',(212.9999993741514,2.700000000000012,-24.00000035762784));
#987=CARTESIAN_POINT('',(212.9999993741514,0.750000000000024,-24.00000035762784));
#988=CARTESIAN_POINT('',(236.3999993741514,2.700000000000012,-24.00000035762784));
#989=CARTESIAN_POINT('',(212.9999993741514,2.700000000000012,-24.00000035762784));
#990=CARTESIAN_POINT('',(236.3999993741514,0.750000000000024,-24.00000035762784));
#991=CARTESIAN_POINT('Origin',(236.3999993741514,1.500000000000012,-27.00000035762784));
#992=CARTESIAN_POINT('',(236.3999993741514,1.500000000000012,-27.00000035762784));
#993=CARTESIAN_POINT('',(212.9999993741514,1.500000000000012,-27.00000035762784));
#994=CARTESIAN_POINT('',(224.6999993741514,1.500000000000012,-27.00000035762784));
#995=CARTESIAN_POINT('',(236.3999993741514,2.700000000000012,-27.00000035762784));
#996=CARTESIAN_POINT('',(236.3999993741514,0.750000000000024,-27.00000035762784));
#997=CARTESIAN_POINT('',(212.9999993741514,2.700000000000012,-27.00000035762784));
#998=CARTESIAN_POINT('',(236.3999993741514,2.700000000000012,-27.00000035762784));
#999=CARTESIAN_POINT('',(212.9999993741514,0.750000000000024,-27.00000035762784));
#1000=CARTESIAN_POINT('Origin',(224.6999993741514,2.700000000000012,-25.50000035762784));
#1001=CARTESIAN_POINT('',(236.3999993741514,2.700000000000012,-39.90000017881392));
#1002=CARTESIAN_POINT('',(212.9999993741514,2.700000000000012,-39.90000017881392));
#1003=CARTESIAN_POINT('Origin',(236.3999993741514,1.500000000000024,-84.6000003576276));
#1004=CARTESIAN_POINT('',(236.3999993741514,1.500000000000024,-84.6000003576276));
#1005=CARTESIAN_POINT('',(212.9999993741514,1.500000000000024,-84.6000003576276));
#1006=CARTESIAN_POINT('',(224.6999993741514,1.500000000000024,-84.6000003576276));
#1007=CARTESIAN_POINT('',(236.3999993741514,2.700000000000024,-84.6000003576276));
#1008=CARTESIAN_POINT('',(236.3999993741514,0.75000000000003,-84.6000003576276));
#1009=CARTESIAN_POINT('',(212.9999993741514,2.700000000000024,-84.6000003576276));
#1010=CARTESIAN_POINT('',(236.3999993741514,2.700000000000024,-84.6000003576276));
#1011=CARTESIAN_POINT('',(212.9999993741514,0.75000000000003,-84.6000003576276));
#1012=CARTESIAN_POINT('Origin',(212.9999993741514,1.500000000000018,-81.6000003576276));
#1013=CARTESIAN_POINT('',(212.9999993741514,1.500000000000018,-81.6000003576276));
#1014=CARTESIAN_POINT('',(236.3999993741514,1.500000000000018,-81.6000003576276));
#1015=CARTESIAN_POINT('',(212.9999993741514,1.500000000000024,-81.6000003576276));
#1016=CARTESIAN_POINT('',(212.9999993741514,2.700000000000018,-81.6000003576276));
#1017=CARTESIAN_POINT('',(212.9999993741514,0.75000000000003,-81.6000003576276));
#1018=CARTESIAN_POINT('',(236.3999993741514,2.700000000000018,-81.6000003576276));
#1019=CARTESIAN_POINT('',(212.9999993741514,2.700000000000018,-81.6000003576276));
#1020=CARTESIAN_POINT('',(236.3999993741514,0.75000000000003,-81.6000003576276));
#1021=CARTESIAN_POINT('Origin',(224.6999993741514,2.700000000000018,-83.1000003576276));
#1022=CARTESIAN_POINT('',(212.9999993741514,2.700000000000018,-68.7000001788138));
#1023=CARTESIAN_POINT('',(236.3999993741514,2.700000000000018,-68.7000001788138));
#1024=CARTESIAN_POINT('Origin',(236.3999993741514,1.500000000000018,-55.80000035762791));
#1025=CARTESIAN_POINT('',(236.3999993741514,1.500000000000018,-55.80000035762791));
#1026=CARTESIAN_POINT('',(212.9999993741514,1.500000000000018,-55.80000035762791));
#1027=CARTESIAN_POINT('',(224.6999993741514,1.500000000000018,-55.80000035762791));
#1028=CARTESIAN_POINT('',(236.3999993741514,2.700000000000018,-55.80000035762791));
#1029=CARTESIAN_POINT('',(236.3999993741514,0.750000000000024,-55.80000035762791));
#1030=CARTESIAN_POINT('',(212.9999993741514,2.700000000000018,-55.80000035762791));
#1031=CARTESIAN_POINT('',(236.3999993741514,2.700000000000018,-55.80000035762791));
#1032=CARTESIAN_POINT('',(212.9999993741514,0.750000000000024,-55.80000035762791));
#1033=CARTESIAN_POINT('Origin',(212.9999993741514,1.500000000000018,-52.80000035762791));
#1034=CARTESIAN_POINT('',(212.9999993741514,1.500000000000018,-52.80000035762791));
#1035=CARTESIAN_POINT('',(236.3999993741514,1.500000000000018,-52.80000035762791));
#1036=CARTESIAN_POINT('',(212.9999993741514,1.500000000000018,-52.80000035762791));
#1037=CARTESIAN_POINT('',(212.9999993741514,2.700000000000018,-52.80000035762791));
#1038=CARTESIAN_POINT('',(212.9999993741514,0.750000000000024,-52.80000035762791));
#1039=CARTESIAN_POINT('',(236.3999993741514,2.700000000000018,-52.80000035762791));
#1040=CARTESIAN_POINT('',(212.9999993741514,2.700000000000018,-52.80000035762791));
#1041=CARTESIAN_POINT('',(236.3999993741514,0.750000000000024,-52.80000035762791));
#1042=CARTESIAN_POINT('Origin',(224.6999993741514,2.700000000000018,-54.30000035762791));
#1043=CARTESIAN_POINT('',(212.9999993741514,2.700000000000018,-54.30000017881392));
#1044=CARTESIAN_POINT('',(236.3999993741514,2.700000000000018,-54.30000017881392));
#1045=CARTESIAN_POINT('Origin',(236.3999993741514,1.500000000000012,-41.4000003576279));
#1046=CARTESIAN_POINT('',(236.3999993741514,1.500000000000012,-41.4000003576279));
#1047=CARTESIAN_POINT('',(212.9999993741514,1.500000000000012,-41.4000003576279));
#1048=CARTESIAN_POINT('',(224.6999993741514,1.500000000000018,-41.4000003576279));
#1049=CARTESIAN_POINT('',(236.3999993741514,2.700000000000012,-41.4000003576279));
#1050=CARTESIAN_POINT('',(236.3999993741514,0.750000000000024,-41.4000003576279));
#1051=CARTESIAN_POINT('',(212.9999993741514,2.700000000000012,-41.4000003576279));
#1052=CARTESIAN_POINT('',(236.3999993741514,2.700000000000012,-41.4000003576279));
#1053=CARTESIAN_POINT('',(212.9999993741514,0.750000000000024,-41.4000003576279));
#1054=CARTESIAN_POINT('Origin',(212.9999993741514,1.500000000000012,-38.4000003576279));
#1055=CARTESIAN_POINT('',(212.9999993741514,1.500000000000012,-38.4000003576279));
#1056=CARTESIAN_POINT('',(236.3999993741514,1.500000000000012,-38.4000003576279));
#1057=CARTESIAN_POINT('',(212.9999993741514,1.500000000000012,-38.4000003576279));
#1058=CARTESIAN_POINT('',(212.9999993741514,2.700000000000012,-38.4000003576279));
#1059=CARTESIAN_POINT('',(212.9999993741514,0.750000000000024,-38.4000003576279));
#1060=CARTESIAN_POINT('',(236.3999993741514,2.700000000000012,-38.4000003576279));
#1061=CARTESIAN_POINT('',(212.9999993741514,2.700000000000012,-38.4000003576279));
#1062=CARTESIAN_POINT('',(236.3999993741514,0.750000000000024,-38.4000003576279));
#1063=CARTESIAN_POINT('Origin',(224.6999993741514,2.700000000000012,-39.9000003576279));
#1064=CARTESIAN_POINT('',(212.9999993741514,2.700000000000012,-47.10000017881392));
#1065=CARTESIAN_POINT('',(236.3999993741514,2.700000000000012,-47.10000017881392));
#1066=CARTESIAN_POINT('Origin',(236.3999993741514,1.500000000000024,-99.0000003576276));
#1067=CARTESIAN_POINT('',(236.3999993741514,1.500000000000024,-99.0000003576276));
#1068=CARTESIAN_POINT('',(212.9999993741514,1.500000000000024,-99.0000003576276));
#1069=CARTESIAN_POINT('',(224.6999993741514,1.50000000000003,-99.0000003576276));
#1070=CARTESIAN_POINT('',(236.3999993741514,2.700000000000024,-99.0000003576276));
#1071=CARTESIAN_POINT('',(236.3999993741514,0.75000000000003,-99.0000003576276));
#1072=CARTESIAN_POINT('',(212.9999993741514,2.700000000000024,-99.0000003576276));
#1073=CARTESIAN_POINT('',(236.3999993741514,2.700000000000024,-99.0000003576276));
#1074=CARTESIAN_POINT('',(212.9999993741514,0.75000000000003,-99.0000003576276));
#1075=CARTESIAN_POINT('Origin',(212.9999993741514,1.500000000000024,-96.0000003576276));
#1076=CARTESIAN_POINT('',(212.9999993741514,1.500000000000024,-96.0000003576276));
#1077=CARTESIAN_POINT('',(236.3999993741514,1.500000000000024,-96.0000003576276));
#1078=CARTESIAN_POINT('',(212.9999993741514,1.50000000000003,-96.0000003576276));
#1079=CARTESIAN_POINT('',(212.9999993741514,2.700000000000024,-96.0000003576276));
#1080=CARTESIAN_POINT('',(212.9999993741514,0.75000000000003,-96.0000003576276));
#1081=CARTESIAN_POINT('',(236.3999993741514,2.700000000000024,-96.0000003576276));
#1082=CARTESIAN_POINT('',(212.9999993741514,2.700000000000024,-96.0000003576276));
#1083=CARTESIAN_POINT('',(236.3999993741514,0.75000000000003,-96.0000003576276));
#1084=CARTESIAN_POINT('Origin',(224.6999993741514,2.700000000000024,-97.5000003576276));
#1085=CARTESIAN_POINT('',(212.9999993741514,2.700000000000024,-75.9000001788138));
#1086=CARTESIAN_POINT('',(236.3999993741514,2.700000000000024,-75.9000001788138));
#1087=CARTESIAN_POINT('Origin',(236.3999993741514,3.663735981263016E-14,-54.3));
#1088=CARTESIAN_POINT('',(236.3999993741514,1.500000000000006,-12.89999999999994));
#1089=CARTESIAN_POINT('',(236.3999993741514,1.500000000000006,-12.89999999999994));
#1090=CARTESIAN_POINT('',(236.3999993741514,1.50000000000003,-109.5));
#1091=CARTESIAN_POINT('',(236.3999993741514,1.500000000000006,-12.89999999999994));
#1092=CARTESIAN_POINT('',(236.3999993741514,3.900000000000036,-109.5));
#1093=CARTESIAN_POINT('',(236.3999993741514,1.50000000000003,-109.5));
#1094=CARTESIAN_POINT('',(236.3999993741514,3.900000000000036,-109.5));
#1095=CARTESIAN_POINT('',(236.3999993741514,-3.899999999999958,-7.5));
#1096=CARTESIAN_POINT('',(236.3999993741514,-3.899999999999958,0.900000000000012));
#1097=CARTESIAN_POINT('',(236.3999993741514,1.500000000000006,-12.89999999999994));
#1098=CARTESIAN_POINT('',(236.3999993741514,-3.899999999999958,-7.5));
#1099=CARTESIAN_POINT('',(236.3999993741514,1.500000000000006,-12.89999999999994));
#1100=CARTESIAN_POINT('',(236.3999993741514,1.500000000000006,-12.89999999999994));
#1101=CARTESIAN_POINT('',(236.3999993741514,1.500000000000006,-12.89999999999994));
#1102=CARTESIAN_POINT('',(236.3999993741514,1.500000000000006,-12.89999999999994));
#1103=CARTESIAN_POINT('Origin',(212.9999993741514,1.500000000000006,-12.89999999999994));
#1104=CARTESIAN_POINT('',(212.9999993741514,1.50000000000003,-109.5));
#1105=CARTESIAN_POINT('',(212.9999993741514,1.500000000000006,-12.89999999999994));
#1106=CARTESIAN_POINT('',(212.9999993741514,1.50000000000003,-109.5));
#1107=CARTESIAN_POINT('Origin',(212.9999993741514,1.500000000000006,-12.89999999999994));
#1108=CARTESIAN_POINT('',(212.9999993741514,1.500000000000006,-12.89999999999994));
#1109=CARTESIAN_POINT('Origin',(212.9999993741514,1.500000000000006,-12.89999999999994));
#1110=CARTESIAN_POINT('',(212.9999993741514,1.500000000000006,-12.89999999999994));
#1111=CARTESIAN_POINT('Origin',(212.9999993741514,1.500000000000006,-12.89999999999994));
#1112=CARTESIAN_POINT('',(212.9999993741514,1.500000000000006,-12.89999999999994));
#1113=CARTESIAN_POINT('Origin',(212.9999993741514,1.500000000000006,-12.89999999999994));
#1114=CARTESIAN_POINT('',(212.9999993741514,1.500000000000006,-12.89999999999994));
#1115=CARTESIAN_POINT('',(212.9999993741514,1.500000000000006,-12.89999999999994));
#1116=CARTESIAN_POINT('',(212.9999993741514,1.500000000000006,-12.89999999999994));
#1117=CARTESIAN_POINT('Origin',(212.9999993741514,1.500000000000006,-12.89999999999994));
#1118=CARTESIAN_POINT('',(212.9999993741514,1.500000000000006,-12.89999999999994));
#1119=CARTESIAN_POINT('Origin',(212.9999993741514,1.50000000000003,-109.5));
#1120=CARTESIAN_POINT('',(212.9999993741514,3.900000000000036,-109.5));
#1121=CARTESIAN_POINT('',(212.9999993741514,1.50000000000003,-109.5));
#1122=CARTESIAN_POINT('',(212.9999993741514,3.900000000000036,-109.5));
#1123=CARTESIAN_POINT('Origin',(212.9999993741514,1.500000000000006,-12.89999999999994));
#1124=CARTESIAN_POINT('',(212.9999993741514,1.500000000000006,-12.89999999999994));
#1125=CARTESIAN_POINT('Origin',(212.9999993741514,-3.899999999999958,-7.5));
#1126=CARTESIAN_POINT('',(212.9999993741514,-3.899999999999958,-7.5));
#1127=CARTESIAN_POINT('',(212.9999993741514,-3.899999999999958,-7.5));
#1128=CARTESIAN_POINT('',(212.9999993741514,-3.899999999999958,-7.5));
#1129=CARTESIAN_POINT('Origin',(212.9999993741514,-3.899999999999958,0.900000000000012));
#1130=CARTESIAN_POINT('',(212.9999993741514,-3.899999999999958,0.900000000000012));
#1131=CARTESIAN_POINT('Origin',(212.9999993741514,3.900000000000036,-109.5));
#1132=CARTESIAN_POINT('',(212.9999993741514,3.900000000000036,-109.5));
#1133=CARTESIAN_POINT('Origin',(212.9999993741514,3.663735981263016E-14,-54.3));
#1134=UNCERTAINTY_MEASURE_WITH_UNIT(LENGTH_MEASURE(0.06),#1138, 'DISTANCE_ACCURACY_VALUE', 'Maximum model space distance between geometric entities at asserted c onnectivities');
#1135=UNCERTAINTY_MEASURE_WITH_UNIT(LENGTH_MEASURE(0.06),#1138, 'DISTANCE_ACCURACY_VALUE', 'Maximum model space distance between geometric entities at asserted c onnectivities');
#1136=( GEOMETRIC_REPRESENTATION_CONTEXT(3) GLOBAL_UNCERTAINTY_ASSIGNED_CONTEXT((#1134)) GLOBAL_UNIT_ASSIGNED_CONTEXT((#1138,#1140,#1141)) REPRESENTATION_CONTEXT('','3D') );
#1137=( GEOMETRIC_REPRESENTATION_CONTEXT(3) GLOBAL_UNCERTAINTY_ASSIGNED_CONTEXT((#1135)) GLOBAL_UNIT_ASSIGNED_CONTEXT((#1138,#1140,#1141)) REPRESENTATION_CONTEXT('','3D') );
#1138=( LENGTH_UNIT() NAMED_UNIT(*) SI_UNIT(.MILLI.,.METRE.) );
#1139=( LENGTH_UNIT() NAMED_UNIT(*) SI_UNIT($,.METRE.) );
#1140=( NAMED_UNIT(*) PLANE_ANGLE_UNIT() SI_UNIT($,.RADIAN.) );
#1141=( NAMED_UNIT(*) SI_UNIT($,.STERADIAN.) SOLID_ANGLE_UNIT() );
#1142=SHAPE_DEFINITION_REPRESENTATION(#1143,#1144);
#1143=PRODUCT_DEFINITION_SHAPE('',$,#1146);
#1144=SHAPE_REPRESENTATION('',(#726),#1136);
#1145=PRODUCT_DEFINITION_CONTEXT('part definition',#1150,'design');
#1146=PRODUCT_DEFINITION('Solar array radiators', 'Solar array radiators',#1147,#1145);
#1147=PRODUCT_DEFINITION_FORMATION('',$,#1152);
#1148=PRODUCT_RELATED_PRODUCT_CATEGORY('Solar array radiators', 'Solar array radiators',(#1152));
#1149=APPLICATION_PROTOCOL_DEFINITION('international standard', 'automotive_design',2009,#1150);
#1150=APPLICATION_CONTEXT( 'Core Data for Automotive Mechanical Design Process');
#1151=PRODUCT_CONTEXT('part definition',#1150,'mechanical');
#1152=PRODUCT('Solar array radiators','Solar array radiators',$,(#1151));
#1153=PRESENTATION_STYLE_ASSIGNMENT((#1155));
#1154=PRESENTATION_STYLE_ASSIGNMENT((#1156));
#1155=SURFACE_STYLE_USAGE(.BOTH.,#1157);
#1156=SURFACE_STYLE_USAGE(.BOTH.,#1158);
#1157=SURFACE_SIDE_STYLE('',(#1159));
#1158=SURFACE_SIDE_STYLE('',(#1160));
#1159=SURFACE_STYLE_FILL_AREA(#1161);
#1160=SURFACE_STYLE_FILL_AREA(#1162);
#1161=FILL_AREA_STYLE('Steel - Satin',(#1163));
#1162=FILL_AREA_STYLE('ABS (White)',(#1164));
#1163=FILL_AREA_STYLE_COLOUR('Steel - Satin',#1165);
#1164=FILL_AREA_STYLE_COLOUR('ABS (White)',#1166);
#1165=COLOUR_RGB('Steel - Satin',0.627450980392157,0.627450980392157,0.627450980392157);
#1166=COLOUR_RGB('ABS (White)',0.964705882352941,0.964705882352941,0.952941176470588);
ENDSEC;
END-ISO-10303-21;
