ISO-10303-21;
HEADER;
/* Generated by software containing ST-Developer
 * from STEP Tools, Inc. (www.steptools.com) 
 */

FILE_DESCRIPTION(
/* description */ (''),
/* implementation_level */ '2;1');

FILE_NAME(
/* name */ 'Soyuz.step',
/* time_stamp */ '2024-11-15T18:00:31+01:00',
/* author */ (''),
/* organization */ (''),
/* preprocessor_version */ 'ST-DEVELOPER v20',
/* originating_system */ 'Autodesk Translation Framework v13.20.0.188',

/* authorisation */ '');

FILE_SCHEMA (('AUTOMOTIVE_DESIGN { 1 0 10303 214 3 1 1 }'));
ENDSEC;

DATA;
#10=MECHANICAL_DESIGN_GEOMETRIC_PRESENTATION_REPRESENTATION('',(#13),#547);
#11=SHAPE_REPRESENTATION_RELATIONSHIP('SRR','None',#554,#12);
#12=ADVANCED_BREP_SHAPE_REPRESENTATION('',(#14),#546);
#13=STYLED_ITEM('',(#563),#14);
#14=MANIFOLD_SOLID_BREP('Body1',#296);
#15=SPHERICAL_SURFACE('',#338,12.0);
#16=( BOUNDED_SURFACE() B_SPLINE_SURFACE(2,2,((#512,#513,#514,#515,#516,#517,#518,#519,#520),(#521, #522,#523,#524,#525,#526,#527,#528,#529),(#530,#531,#532,#533,#534,#535, #536,#537,#538)),.UNSPECIFIED.,.F.,.T.,.F.) B_SPLINE_SURFACE_WITH_KNOTS((3,3),(3,2,2,2,3),(3.24342075316187E-15,0.930028296705492), (-3.14159265358979,-1.5707963267949,0.,1.5707963267949,3.14159265358979),  .UNSPECIFIED.) GEOMETRIC_REPRESENTATION_ITEM() RATIONAL_B_SPLINE_SURFACE(((1.,0.707106781186548,1.,0.707106781186548,1., 0.707106781186548,1.,0.707106781186548,1.),(0.893815221073286,0.632022803948673, 0.893815221073286,0.632022803948673,0.893815221073286,0.632022803948673, 0.893815221073286,0.632022803948673,0.893815221073286),(1.,0.707106781186548, 1.,0.707106781186548,1.,0.707106781186548,1.,0.707106781186548,1.))) REPRESENTATION_ITEM('') SURFACE() );
#17=CONICAL_SURFACE('',#325,12.89987104679058,0.354798739797045);
#18=CONICAL_SURFACE('',#330,4.200000000000006,0.785398163397448);
#19=CONICAL_SURFACE('',#335,12.89987104679058,0.354798739797045);
#20=CYLINDRICAL_SURFACE('',#321,11.99999999999988);
#21=CYLINDRICAL_SURFACE('',#327,5.4);
#22=CIRCLE('',#313,11.99999999999988);
#23=CIRCLE('',#318,11.99999999999988);
#24=CIRCLE('',#319,11.99999999999988);
#25=CIRCLE('',#322,11.99999999999994);
#26=CIRCLE('',#323,11.99999999999988);
#27=CIRCLE('',#324,11.99999999999988);
#28=CIRCLE('',#326,13.79974209358122);
#29=CIRCLE('',#328,5.400000000000006);
#30=CIRCLE('',#329,5.4);
#31=CIRCLE('',#331,3.0);
#32=CIRCLE('',#334,13.79974209358122);
#33=CIRCLE('',#336,5.391878164461264);
#34=CIRCLE('',#337,16.43040149202246);
#35=CIRCLE('',#339,12.0);
#36=FACE_OUTER_BOUND('',#53,.T.);
#37=FACE_OUTER_BOUND('',#54,.T.);
#38=FACE_OUTER_BOUND('',#55,.T.);
#39=FACE_OUTER_BOUND('',#56,.T.);
#40=FACE_OUTER_BOUND('',#57,.T.);
#41=FACE_OUTER_BOUND('',#58,.T.);
#42=FACE_OUTER_BOUND('',#59,.T.);
#43=FACE_OUTER_BOUND('',#60,.T.);
#44=FACE_OUTER_BOUND('',#61,.T.);
#45=FACE_OUTER_BOUND('',#62,.T.);
#46=FACE_OUTER_BOUND('',#63,.T.);
#47=FACE_OUTER_BOUND('',#64,.T.);
#48=FACE_OUTER_BOUND('',#65,.T.);
#49=FACE_OUTER_BOUND('',#66,.T.);
#50=FACE_OUTER_BOUND('',#67,.T.);
#51=FACE_OUTER_BOUND('',#68,.T.);
#52=FACE_OUTER_BOUND('',#69,.T.);
#53=EDGE_LOOP('',(#187,#188,#189,#190,#191));
#54=EDGE_LOOP('',(#192,#193,#194,#195));
#55=EDGE_LOOP('',(#196,#197,#198,#199));
#56=EDGE_LOOP('',(#200,#201,#202,#203,#204));
#57=EDGE_LOOP('',(#205,#206,#207,#208,#209));
#58=EDGE_LOOP('',(#210,#211,#212,#213,#214));
#59=EDGE_LOOP('',(#215,#216,#217,#218,#219));
#60=EDGE_LOOP('',(#220,#221,#222,#223));
#61=EDGE_LOOP('',(#224,#225,#226,#227,#228,#229,#230,#231,#232,#233,#234, #235));
#62=EDGE_LOOP('',(#236,#237,#238,#239));
#63=EDGE_LOOP('',(#240,#241,#242,#243));
#64=EDGE_LOOP('',(#244,#245,#246,#247));
#65=EDGE_LOOP('',(#248));
#66=EDGE_LOOP('',(#249,#250,#251,#252,#253,#254,#255,#256));
#67=EDGE_LOOP('',(#257,#258,#259,#260));
#68=EDGE_LOOP('',(#261,#262,#263,#264));
#69=EDGE_LOOP('',(#265,#266,#267,#268));
#70=( BOUNDED_CURVE() B_SPLINE_CURVE(2,(#431,#432,#433),.UNSPECIFIED.,.F.,.F.) B_SPLINE_CURVE_WITH_KNOTS((3,3),(0.,0.0865306026428558),.UNSPECIFIED.) CURVE() GEOMETRIC_REPRESENTATION_ITEM() RATIONAL_B_SPLINE_CURVE((1.,1.00253036805653,1.)) REPRESENTATION_ITEM('') );
#71=( BOUNDED_CURVE() B_SPLINE_CURVE(2,(#454,#455,#456),.UNSPECIFIED.,.F.,.F.) B_SPLINE_CURVE_WITH_KNOTS((3,3),(0.,0.0865306026428558),.UNSPECIFIED.) CURVE() GEOMETRIC_REPRESENTATION_ITEM() RATIONAL_B_SPLINE_CURVE((1.,1.00253036805653,1.)) REPRESENTATION_ITEM('') );
#72=( BOUNDED_CURVE() B_SPLINE_CURVE(2,(#462,#463,#464),.UNSPECIFIED.,.F.,.F.) B_SPLINE_CURVE_WITH_KNOTS((3,3),(0.,0.0865306026428558),.UNSPECIFIED.) CURVE() GEOMETRIC_REPRESENTATION_ITEM() RATIONAL_B_SPLINE_CURVE((1.,1.00253036805653,1.)) REPRESENTATION_ITEM('') );
#73=( BOUNDED_CURVE() B_SPLINE_CURVE(2,(#480,#481,#482),.UNSPECIFIED.,.F.,.F.) B_SPLINE_CURVE_WITH_KNOTS((3,3),(0.,0.0865306026428558),.UNSPECIFIED.) CURVE() GEOMETRIC_REPRESENTATION_ITEM() RATIONAL_B_SPLINE_CURVE((1.,1.00253036805653,1.)) REPRESENTATION_ITEM('') );
#74=LINE('',#429,#97);
#75=LINE('',#435,#98);
#76=LINE('',#437,#99);
#77=LINE('',#438,#100);
#78=LINE('',#441,#101);
#79=LINE('',#443,#102);
#80=LINE('',#444,#103);
#81=LINE('',#448,#104);
#82=LINE('',#451,#105);
#83=LINE('',#453,#106);
#84=LINE('',#460,#107);
#85=LINE('',#466,#108);
#86=LINE('',#468,#109);
#87=LINE('',#469,#110);
#88=LINE('',#473,#111);
#89=LINE('',#475,#112);
#90=LINE('',#477,#113);
#91=LINE('',#479,#114);
#92=LINE('',#486,#115);
#93=LINE('',#489,#116);
#94=LINE('',#493,#117);
#95=LINE('',#502,#118);
#96=LINE('',#507,#119);
#97=VECTOR('',#344,60.0);
#98=VECTOR('',#345,60.0);
#99=VECTOR('',#346,60.0);
#100=VECTOR('',#347,60.0);
#101=VECTOR('',#350,60.0);
#102=VECTOR('',#351,60.0);
#103=VECTOR('',#352,60.0);
#104=VECTOR('',#357,60.0);
#105=VECTOR('',#360,60.0);
#106=VECTOR('',#361,60.0);
#107=VECTOR('',#364,60.0);
#108=VECTOR('',#365,60.0);
#109=VECTOR('',#366,60.0);
#110=VECTOR('',#367,60.0);
#111=VECTOR('',#370,60.0);
#112=VECTOR('',#371,60.0);
#113=VECTOR('',#372,60.0);
#114=VECTOR('',#373,60.0);
#115=VECTOR('',#378,60.0);
#116=VECTOR('',#383,60.0);
#117=VECTOR('',#388,11.99999999999988);
#118=VECTOR('',#401,5.4);
#119=VECTOR('',#408,4.200000000000006);
#120=VERTEX_POINT('',#427);
#121=VERTEX_POINT('',#428);
#122=VERTEX_POINT('',#430);
#123=VERTEX_POINT('',#434);
#124=VERTEX_POINT('',#436);
#125=VERTEX_POINT('',#440);
#126=VERTEX_POINT('',#442);
#127=VERTEX_POINT('',#446);
#128=VERTEX_POINT('',#450);
#129=VERTEX_POINT('',#452);
#130=VERTEX_POINT('',#458);
#131=VERTEX_POINT('',#459);
#132=VERTEX_POINT('',#461);
#133=VERTEX_POINT('',#465);
#134=VERTEX_POINT('',#467);
#135=VERTEX_POINT('',#471);
#136=VERTEX_POINT('',#472);
#137=VERTEX_POINT('',#474);
#138=VERTEX_POINT('',#476);
#139=VERTEX_POINT('',#478);
#140=VERTEX_POINT('',#484);
#141=VERTEX_POINT('',#491);
#142=VERTEX_POINT('',#499);
#143=VERTEX_POINT('',#501);
#144=VERTEX_POINT('',#505);
#145=VERTEX_POINT('',#539);
#146=EDGE_CURVE('',#120,#121,#74,.T.);
#147=EDGE_CURVE('',#122,#120,#70,.T.);
#148=EDGE_CURVE('',#122,#123,#75,.T.);
#149=EDGE_CURVE('',#123,#124,#76,.T.);
#150=EDGE_CURVE('',#124,#121,#77,.T.);
#151=EDGE_CURVE('',#123,#125,#78,.T.);
#152=EDGE_CURVE('',#126,#125,#79,.T.);
#153=EDGE_CURVE('',#124,#126,#80,.T.);
#154=EDGE_CURVE('',#121,#127,#22,.T.);
#155=EDGE_CURVE('',#127,#126,#81,.T.);
#156=EDGE_CURVE('',#127,#128,#82,.T.);
#157=EDGE_CURVE('',#125,#129,#83,.T.);
#158=EDGE_CURVE('',#128,#129,#71,.T.);
#159=EDGE_CURVE('',#130,#131,#84,.T.);
#160=EDGE_CURVE('',#132,#130,#72,.T.);
#161=EDGE_CURVE('',#132,#133,#85,.T.);
#162=EDGE_CURVE('',#133,#134,#86,.T.);
#163=EDGE_CURVE('',#134,#131,#87,.T.);
#164=EDGE_CURVE('',#135,#136,#88,.T.);
#165=EDGE_CURVE('',#135,#137,#89,.T.);
#166=EDGE_CURVE('',#137,#138,#90,.T.);
#167=EDGE_CURVE('',#138,#139,#91,.T.);
#168=EDGE_CURVE('',#136,#139,#73,.T.);
#169=EDGE_CURVE('',#131,#140,#23,.T.);
#170=EDGE_CURVE('',#137,#134,#92,.T.);
#171=EDGE_CURVE('',#140,#135,#24,.T.);
#172=EDGE_CURVE('',#138,#133,#93,.T.);
#173=EDGE_CURVE('',#141,#141,#25,.T.);
#174=EDGE_CURVE('',#141,#140,#94,.T.);
#175=EDGE_CURVE('',#136,#120,#26,.T.);
#176=EDGE_CURVE('',#128,#130,#27,.T.);
#177=EDGE_CURVE('',#129,#132,#28,.T.);
#178=EDGE_CURVE('',#142,#142,#29,.T.);
#179=EDGE_CURVE('',#142,#143,#95,.T.);
#180=EDGE_CURVE('',#143,#143,#30,.T.);
#181=EDGE_CURVE('',#144,#144,#31,.T.);
#182=EDGE_CURVE('',#144,#142,#96,.T.);
#183=EDGE_CURVE('',#139,#122,#32,.T.);
#184=EDGE_CURVE('',#145,#145,#33,.T.);
#185=EDGE_CURVE('',#145,#141,#34,.T.);
#186=EDGE_CURVE('',#143,#145,#35,.T.);
#187=ORIENTED_EDGE('',*,*,#146,.F.);
#188=ORIENTED_EDGE('',*,*,#147,.F.);
#189=ORIENTED_EDGE('',*,*,#148,.T.);
#190=ORIENTED_EDGE('',*,*,#149,.T.);
#191=ORIENTED_EDGE('',*,*,#150,.T.);
#192=ORIENTED_EDGE('',*,*,#151,.T.);
#193=ORIENTED_EDGE('',*,*,#152,.F.);
#194=ORIENTED_EDGE('',*,*,#153,.F.);
#195=ORIENTED_EDGE('',*,*,#149,.F.);
#196=ORIENTED_EDGE('',*,*,#154,.F.);
#197=ORIENTED_EDGE('',*,*,#150,.F.);
#198=ORIENTED_EDGE('',*,*,#153,.T.);
#199=ORIENTED_EDGE('',*,*,#155,.F.);
#200=ORIENTED_EDGE('',*,*,#156,.F.);
#201=ORIENTED_EDGE('',*,*,#155,.T.);
#202=ORIENTED_EDGE('',*,*,#152,.T.);
#203=ORIENTED_EDGE('',*,*,#157,.T.);
#204=ORIENTED_EDGE('',*,*,#158,.F.);
#205=ORIENTED_EDGE('',*,*,#159,.F.);
#206=ORIENTED_EDGE('',*,*,#160,.F.);
#207=ORIENTED_EDGE('',*,*,#161,.T.);
#208=ORIENTED_EDGE('',*,*,#162,.T.);
#209=ORIENTED_EDGE('',*,*,#163,.T.);
#210=ORIENTED_EDGE('',*,*,#164,.F.);
#211=ORIENTED_EDGE('',*,*,#165,.T.);
#212=ORIENTED_EDGE('',*,*,#166,.T.);
#213=ORIENTED_EDGE('',*,*,#167,.T.);
#214=ORIENTED_EDGE('',*,*,#168,.F.);
#215=ORIENTED_EDGE('',*,*,#169,.F.);
#216=ORIENTED_EDGE('',*,*,#163,.F.);
#217=ORIENTED_EDGE('',*,*,#170,.F.);
#218=ORIENTED_EDGE('',*,*,#165,.F.);
#219=ORIENTED_EDGE('',*,*,#171,.F.);
#220=ORIENTED_EDGE('',*,*,#170,.T.);
#221=ORIENTED_EDGE('',*,*,#162,.F.);
#222=ORIENTED_EDGE('',*,*,#172,.F.);
#223=ORIENTED_EDGE('',*,*,#166,.F.);
#224=ORIENTED_EDGE('',*,*,#173,.F.);
#225=ORIENTED_EDGE('',*,*,#174,.T.);
#226=ORIENTED_EDGE('',*,*,#171,.T.);
#227=ORIENTED_EDGE('',*,*,#164,.T.);
#228=ORIENTED_EDGE('',*,*,#175,.T.);
#229=ORIENTED_EDGE('',*,*,#146,.T.);
#230=ORIENTED_EDGE('',*,*,#154,.T.);
#231=ORIENTED_EDGE('',*,*,#156,.T.);
#232=ORIENTED_EDGE('',*,*,#176,.T.);
#233=ORIENTED_EDGE('',*,*,#159,.T.);
#234=ORIENTED_EDGE('',*,*,#169,.T.);
#235=ORIENTED_EDGE('',*,*,#174,.F.);
#236=ORIENTED_EDGE('',*,*,#158,.T.);
#237=ORIENTED_EDGE('',*,*,#177,.T.);
#238=ORIENTED_EDGE('',*,*,#160,.T.);
#239=ORIENTED_EDGE('',*,*,#176,.F.);
#240=ORIENTED_EDGE('',*,*,#178,.F.);
#241=ORIENTED_EDGE('',*,*,#179,.T.);
#242=ORIENTED_EDGE('',*,*,#180,.T.);
#243=ORIENTED_EDGE('',*,*,#179,.F.);
#244=ORIENTED_EDGE('',*,*,#181,.F.);
#245=ORIENTED_EDGE('',*,*,#182,.T.);
#246=ORIENTED_EDGE('',*,*,#178,.T.);
#247=ORIENTED_EDGE('',*,*,#182,.F.);
#248=ORIENTED_EDGE('',*,*,#181,.T.);
#249=ORIENTED_EDGE('',*,*,#183,.F.);
#250=ORIENTED_EDGE('',*,*,#167,.F.);
#251=ORIENTED_EDGE('',*,*,#172,.T.);
#252=ORIENTED_EDGE('',*,*,#161,.F.);
#253=ORIENTED_EDGE('',*,*,#177,.F.);
#254=ORIENTED_EDGE('',*,*,#157,.F.);
#255=ORIENTED_EDGE('',*,*,#151,.F.);
#256=ORIENTED_EDGE('',*,*,#148,.F.);
#257=ORIENTED_EDGE('',*,*,#147,.T.);
#258=ORIENTED_EDGE('',*,*,#175,.F.);
#259=ORIENTED_EDGE('',*,*,#168,.T.);
#260=ORIENTED_EDGE('',*,*,#183,.T.);
#261=ORIENTED_EDGE('',*,*,#184,.F.);
#262=ORIENTED_EDGE('',*,*,#185,.T.);
#263=ORIENTED_EDGE('',*,*,#173,.T.);
#264=ORIENTED_EDGE('',*,*,#185,.F.);
#265=ORIENTED_EDGE('',*,*,#180,.F.);
#266=ORIENTED_EDGE('',*,*,#186,.T.);
#267=ORIENTED_EDGE('',*,*,#184,.T.);
#268=ORIENTED_EDGE('',*,*,#186,.F.);
#269=PLANE('',#310);
#270=PLANE('',#311);
#271=PLANE('',#312);
#272=PLANE('',#314);
#273=PLANE('',#315);
#274=PLANE('',#316);
#275=PLANE('',#317);
#276=PLANE('',#320);
#277=PLANE('',#332);
#278=PLANE('',#333);
#279=ADVANCED_FACE('',(#36),#269,.T.);
#280=ADVANCED_FACE('',(#37),#270,.T.);
#281=ADVANCED_FACE('',(#38),#271,.T.);
#282=ADVANCED_FACE('',(#39),#272,.T.);
#283=ADVANCED_FACE('',(#40),#273,.T.);
#284=ADVANCED_FACE('',(#41),#274,.T.);
#285=ADVANCED_FACE('',(#42),#275,.T.);
#286=ADVANCED_FACE('',(#43),#276,.T.);
#287=ADVANCED_FACE('',(#44),#20,.T.);
#288=ADVANCED_FACE('',(#45),#17,.T.);
#289=ADVANCED_FACE('',(#46),#21,.T.);
#290=ADVANCED_FACE('',(#47),#18,.T.);
#291=ADVANCED_FACE('',(#48),#277,.T.);
#292=ADVANCED_FACE('',(#49),#278,.T.);
#293=ADVANCED_FACE('',(#50),#19,.T.);
#294=ADVANCED_FACE('',(#51),#16,.F.);
#295=ADVANCED_FACE('',(#52),#15,.T.);
#296=CLOSED_SHELL('',(#279,#280,#281,#282,#283,#284,#285,#286,#287,#288, #289,#290,#291,#292,#293,#294,#295));
#297=DERIVED_UNIT_ELEMENT(#299,1.);
#298=DERIVED_UNIT_ELEMENT(#549,-3.);
#299=( MASS_UNIT() NAMED_UNIT(*) SI_UNIT(.KILO.,.GRAM.) );
#300=DERIVED_UNIT((#297,#298));
#301=MEASURE_REPRESENTATION_ITEM('density measure', POSITIVE_RATIO_MEASURE(1060.),#300);
#302=PROPERTY_DEFINITION_REPRESENTATION(#307,#304);
#303=PROPERTY_DEFINITION_REPRESENTATION(#308,#305);
#304=REPRESENTATION('material name',(#306),#546);
#305=REPRESENTATION('density',(#301),#546);
#306=DESCRIPTIVE_REPRESENTATION_ITEM('ABS Plastic','ABS Plastic');
#307=PROPERTY_DEFINITION('material property','material name',#556);
#308=PROPERTY_DEFINITION('material property','density of part',#556);
#309=AXIS2_PLACEMENT_3D('',#425,#340,#341);
#310=AXIS2_PLACEMENT_3D('',#426,#342,#343);
#311=AXIS2_PLACEMENT_3D('',#439,#348,#349);
#312=AXIS2_PLACEMENT_3D('',#445,#353,#354);
#313=AXIS2_PLACEMENT_3D('',#447,#355,#356);
#314=AXIS2_PLACEMENT_3D('',#449,#358,#359);
#315=AXIS2_PLACEMENT_3D('',#457,#362,#363);
#316=AXIS2_PLACEMENT_3D('',#470,#368,#369);
#317=AXIS2_PLACEMENT_3D('',#483,#374,#375);
#318=AXIS2_PLACEMENT_3D('',#485,#376,#377);
#319=AXIS2_PLACEMENT_3D('',#487,#379,#380);
#320=AXIS2_PLACEMENT_3D('',#488,#381,#382);
#321=AXIS2_PLACEMENT_3D('',#490,#384,#385);
#322=AXIS2_PLACEMENT_3D('',#492,#386,#387);
#323=AXIS2_PLACEMENT_3D('',#494,#389,#390);
#324=AXIS2_PLACEMENT_3D('',#495,#391,#392);
#325=AXIS2_PLACEMENT_3D('',#496,#393,#394);
#326=AXIS2_PLACEMENT_3D('',#497,#395,#396);
#327=AXIS2_PLACEMENT_3D('',#498,#397,#398);
#328=AXIS2_PLACEMENT_3D('',#500,#399,#400);
#329=AXIS2_PLACEMENT_3D('',#503,#402,#403);
#330=AXIS2_PLACEMENT_3D('',#504,#404,#405);
#331=AXIS2_PLACEMENT_3D('',#506,#406,#407);
#332=AXIS2_PLACEMENT_3D('',#508,#409,#410);
#333=AXIS2_PLACEMENT_3D('',#509,#411,#412);
#334=AXIS2_PLACEMENT_3D('',#510,#413,#414);
#335=AXIS2_PLACEMENT_3D('',#511,#415,#416);
#336=AXIS2_PLACEMENT_3D('',#540,#417,#418);
#337=AXIS2_PLACEMENT_3D('',#541,#419,#420);
#338=AXIS2_PLACEMENT_3D('',#542,#421,#422);
#339=AXIS2_PLACEMENT_3D('',#543,#423,#424);
#340=DIRECTION('axis',(0.,0.,1.));
#341=DIRECTION('refdir',(1.,0.,0.));
#342=DIRECTION('center_axis',(0.,-1.,0.));
#343=DIRECTION('ref_axis',(0.,0.,-1.));
#344=DIRECTION('',(0.,0.,1.));
#345=DIRECTION('',(1.,0.,0.));
#346=DIRECTION('',(0.,0.,1.));
#347=DIRECTION('',(-1.,0.,0.));
#348=DIRECTION('center_axis',(1.,0.,0.));
#349=DIRECTION('ref_axis',(0.,0.,-1.));
#350=DIRECTION('',(0.,1.,0.));
#351=DIRECTION('',(0.,0.,-1.));
#352=DIRECTION('',(0.,1.,0.));
#353=DIRECTION('center_axis',(0.,0.,1.));
#354=DIRECTION('ref_axis',(1.,0.,0.));
#355=DIRECTION('center_axis',(0.,0.,1.));
#356=DIRECTION('ref_axis',(1.,0.,0.));
#357=DIRECTION('',(1.,0.,0.));
#358=DIRECTION('center_axis',(0.,1.,0.));
#359=DIRECTION('ref_axis',(0.,0.,1.));
#360=DIRECTION('',(0.,0.,-1.));
#361=DIRECTION('',(-1.,0.,0.));
#362=DIRECTION('center_axis',(0.,1.,0.));
#363=DIRECTION('ref_axis',(0.,0.,1.));
#364=DIRECTION('',(0.,0.,1.));
#365=DIRECTION('',(-1.,0.,0.));
#366=DIRECTION('',(0.,0.,1.));
#367=DIRECTION('',(1.,0.,0.));
#368=DIRECTION('center_axis',(0.,-1.,0.));
#369=DIRECTION('ref_axis',(0.,0.,-1.));
#370=DIRECTION('',(0.,0.,-1.));
#371=DIRECTION('',(-1.,0.,0.));
#372=DIRECTION('',(0.,0.,-1.));
#373=DIRECTION('',(1.,0.,0.));
#374=DIRECTION('center_axis',(0.,0.,1.));
#375=DIRECTION('ref_axis',(1.,0.,0.));
#376=DIRECTION('center_axis',(0.,0.,1.));
#377=DIRECTION('ref_axis',(1.,0.,0.));
#378=DIRECTION('',(0.,1.,0.));
#379=DIRECTION('center_axis',(0.,0.,1.));
#380=DIRECTION('ref_axis',(1.,0.,0.));
#381=DIRECTION('center_axis',(-1.,0.,0.));
#382=DIRECTION('ref_axis',(0.,0.,1.));
#383=DIRECTION('',(0.,1.,0.));
#384=DIRECTION('center_axis',(0.,0.,1.));
#385=DIRECTION('ref_axis',(1.,0.,0.));
#386=DIRECTION('center_axis',(0.,0.,1.));
#387=DIRECTION('ref_axis',(1.,0.,0.));
#388=DIRECTION('',(0.,0.,-1.));
#389=DIRECTION('center_axis',(0.,0.,1.));
#390=DIRECTION('ref_axis',(1.,0.,0.));
#391=DIRECTION('center_axis',(0.,0.,1.));
#392=DIRECTION('ref_axis',(1.,0.,0.));
#393=DIRECTION('center_axis',(0.,0.,-1.));
#394=DIRECTION('ref_axis',(1.,0.,0.));
#395=DIRECTION('center_axis',(0.,0.,1.));
#396=DIRECTION('ref_axis',(1.,0.,0.));
#397=DIRECTION('center_axis',(0.,0.,1.));
#398=DIRECTION('ref_axis',(1.,0.,0.));
#399=DIRECTION('center_axis',(0.,0.,1.));
#400=DIRECTION('ref_axis',(1.,0.,0.));
#401=DIRECTION('',(0.,0.,-1.));
#402=DIRECTION('center_axis',(0.,0.,1.));
#403=DIRECTION('ref_axis',(1.,0.,0.));
#404=DIRECTION('center_axis',(0.,0.,-1.));
#405=DIRECTION('ref_axis',(1.,0.,0.));
#406=DIRECTION('center_axis',(0.,0.,1.));
#407=DIRECTION('ref_axis',(1.,0.,0.));
#408=DIRECTION('',(-0.707106781186547,-8.65956056235493E-17,-0.707106781186548));
#409=DIRECTION('center_axis',(0.,0.,1.));
#410=DIRECTION('ref_axis',(1.,0.,0.));
#411=DIRECTION('center_axis',(0.,0.,-1.));
#412=DIRECTION('ref_axis',(-1.,0.,0.));
#413=DIRECTION('center_axis',(0.,0.,1.));
#414=DIRECTION('ref_axis',(1.,0.,0.));
#415=DIRECTION('center_axis',(0.,0.,-1.));
#416=DIRECTION('ref_axis',(1.,0.,0.));
#417=DIRECTION('center_axis',(0.,0.,1.));
#418=DIRECTION('ref_axis',(1.,0.,0.));
#419=DIRECTION('center_axis',(0.,-1.,0.));
#420=DIRECTION('ref_axis',(-1.,0.,0.));
#421=DIRECTION('center_axis',(6.12323399573678E-17,0.,1.));
#422=DIRECTION('ref_axis',(1.,0.,0.));
#423=DIRECTION('center_axis',(0.,-1.,0.));
#424=DIRECTION('ref_axis',(-1.,0.,0.));
#425=CARTESIAN_POINT('',(0.0,0.0,0.0));
#426=CARTESIAN_POINT('Origin',(0.0,166.2,-102.7423542406728));
#427=CARTESIAN_POINT('',(11.75755076535912,166.2,-104.6267919061032));
#428=CARTESIAN_POINT('',(11.75755076535912,166.2,-96.0000014305116));
#429=CARTESIAN_POINT('',(11.75755076535912,166.2,-97.2944533609938));
#430=CARTESIAN_POINT('',(13.58944008594018,166.2,-109.484707050834));
#431=CARTESIAN_POINT('Ctrl Pts',(13.58944008594018,166.2,-109.484707050834));
#432=CARTESIAN_POINT('Ctrl Pts',(12.60960082723638,166.2,-106.8802027454328));
#433=CARTESIAN_POINT('Ctrl Pts',(11.75755076535912,166.2,-104.6267919061032));
#434=CARTESIAN_POINT('',(45.00000067055226,166.2,-109.484707050834));
#435=CARTESIAN_POINT('',(1.871479590936858,166.2,-109.484707050834));
#436=CARTESIAN_POINT('',(45.00000067055226,166.2,-96.0000014305116));
#437=CARTESIAN_POINT('',(45.00000067055226,166.2,-109.484707050834));
#438=CARTESIAN_POINT('',(45.00000067055226,166.2,-96.0000014305116));
#439=CARTESIAN_POINT('Origin',(45.00000067055226,168.6,-96.0000014305116));
#440=CARTESIAN_POINT('',(45.00000067055226,171.0,-109.484707050834));
#441=CARTESIAN_POINT('',(45.00000067055226,168.6,-109.484707050834));
#442=CARTESIAN_POINT('',(45.00000067055226,171.0,-96.0000014305116));
#443=CARTESIAN_POINT('',(45.00000067055226,171.0,-109.484707050834));
#444=CARTESIAN_POINT('',(45.00000067055226,168.6,-96.0000014305116));
#445=CARTESIAN_POINT('Origin',(1.871479590936858,168.6,-96.0000014305116));
#446=CARTESIAN_POINT('',(11.75755076535912,171.0,-96.0000014305116));
#447=CARTESIAN_POINT('Origin',(-1.498801083243960E-14,168.6,-96.0000014305116));
#448=CARTESIAN_POINT('',(45.00000067055226,171.0,-96.0000014305116));
#449=CARTESIAN_POINT('Origin',(0.0,171.0,-102.7423542406728));
#450=CARTESIAN_POINT('',(11.75755076535912,171.0,-104.6267919061032));
#451=CARTESIAN_POINT('',(11.75755076535912,171.0,-97.2944533609938));
#452=CARTESIAN_POINT('',(13.58944008594018,171.0,-109.484707050834));
#453=CARTESIAN_POINT('',(1.871479590936858,171.0,-109.484707050834));
#454=CARTESIAN_POINT('Ctrl Pts',(11.75755076535912,171.0,-104.6267919061032));
#455=CARTESIAN_POINT('Ctrl Pts',(12.60960082723638,171.0,-106.8802027454328));
#456=CARTESIAN_POINT('Ctrl Pts',(13.58944008594018,171.0,-109.484707050834));
#457=CARTESIAN_POINT('Origin',(0.0,171.0,-102.7423542406728));
#458=CARTESIAN_POINT('',(-11.75755076535918,171.0,-104.6267919061032));
#459=CARTESIAN_POINT('',(-11.75755076535912,171.0,-96.0000014305116));
#460=CARTESIAN_POINT('',(-11.75755076535912,171.0,-97.2944533609938));
#461=CARTESIAN_POINT('',(-13.58944008594018,171.0,-109.484707050834));
#462=CARTESIAN_POINT('Ctrl Pts',(-13.58944008594018,171.0,-109.484707050834));
#463=CARTESIAN_POINT('Ctrl Pts',(-12.60960082723638,171.0,-106.8802027454328));
#464=CARTESIAN_POINT('Ctrl Pts',(-11.75755076535918,171.0,-104.6267919061032));
#465=CARTESIAN_POINT('',(-45.00000067055226,171.0,-109.484707050834));
#466=CARTESIAN_POINT('',(-1.871479590936858,171.0,-109.484707050834));
#467=CARTESIAN_POINT('',(-45.00000067055226,171.0,-96.0000014305116));
#468=CARTESIAN_POINT('',(-45.00000067055226,171.0,-109.484707050834));
#469=CARTESIAN_POINT('',(-45.00000067055226,171.0,-96.0000014305116));
#470=CARTESIAN_POINT('Origin',(0.0,166.2,-102.7423542406728));
#471=CARTESIAN_POINT('',(-11.75755076535912,166.2,-96.0000014305116));
#472=CARTESIAN_POINT('',(-11.75755076535918,166.2,-104.6267919061032));
#473=CARTESIAN_POINT('',(-11.75755076535912,166.2,-97.2944533609938));
#474=CARTESIAN_POINT('',(-45.00000067055226,166.2,-96.0000014305116));
#475=CARTESIAN_POINT('',(-45.00000067055226,166.2,-96.0000014305116));
#476=CARTESIAN_POINT('',(-45.00000067055226,166.2,-109.484707050834));
#477=CARTESIAN_POINT('',(-45.00000067055226,166.2,-109.484707050834));
#478=CARTESIAN_POINT('',(-13.58944008594018,166.2,-109.484707050834));
#479=CARTESIAN_POINT('',(-1.871479590936858,166.2,-109.484707050834));
#480=CARTESIAN_POINT('Ctrl Pts',(-11.75755076535918,166.2,-104.6267919061032));
#481=CARTESIAN_POINT('Ctrl Pts',(-12.60960082723638,166.2,-106.8802027454328));
#482=CARTESIAN_POINT('Ctrl Pts',(-13.58944008594018,166.2,-109.484707050834));
#483=CARTESIAN_POINT('Origin',(-45.00000067055226,168.6,-96.0000014305116));
#484=CARTESIAN_POINT('',(-11.99999999999988,168.6,-96.0000014305116));
#485=CARTESIAN_POINT('Origin',(-1.498801083243960E-14,168.6,-96.0000014305116));
#486=CARTESIAN_POINT('',(-45.00000067055226,168.6,-96.0000014305116));
#487=CARTESIAN_POINT('Origin',(-1.498801083243960E-14,168.6,-96.0000014305116));
#488=CARTESIAN_POINT('Origin',(-45.00000067055226,168.6,-109.484707050834));
#489=CARTESIAN_POINT('',(-45.00000067055226,168.6,-109.484707050834));
#490=CARTESIAN_POINT('Origin',(-1.498801083243960E-14,168.6,-97.2944533609938));
#491=CARTESIAN_POINT('',(-11.99999999999988,168.6,-89.9621148158838));
#492=CARTESIAN_POINT('Origin',(-1.498801083243960E-14,168.6,-89.9621148158838));
#493=CARTESIAN_POINT('',(-11.99999999999988,168.6,-97.2944533609938));
#494=CARTESIAN_POINT('Origin',(-1.498801083243960E-14,168.6,-104.6267919061032));
#495=CARTESIAN_POINT('Origin',(-1.498801083243960E-14,168.6,-104.6267919061032));
#496=CARTESIAN_POINT('Origin',(-1.498801083243960E-14,168.6,-107.0557494784686));
#497=CARTESIAN_POINT('Origin',(-1.498801083243960E-14,168.6,-109.484707050834));
#498=CARTESIAN_POINT('Origin',(-1.498801083243960E-14,168.6,-46.66234403358432));
#499=CARTESIAN_POINT('',(-5.400000000000018,168.6,-37.97056274847714));
#500=CARTESIAN_POINT('Origin',(-1.498801083243960E-14,168.6,-37.97056274847714));
#501=CARTESIAN_POINT('',(-5.400000000000018,168.6,-55.35412531869156));
#502=CARTESIAN_POINT('',(-5.400000000000018,168.6,-46.66234403358432));
#503=CARTESIAN_POINT('Origin',(-1.498801083243960E-14,168.6,-55.35412531869156));
#504=CARTESIAN_POINT('Origin',(-1.498801083243960E-14,168.6,-36.77056274847714));
#505=CARTESIAN_POINT('',(-3.000000000000018,168.6,-35.57056274847714));
#506=CARTESIAN_POINT('Origin',(-1.498801083243960E-14,168.6,-35.57056274847714));
#507=CARTESIAN_POINT('',(-4.200000000000018,168.6,-36.77056274847714));
#508=CARTESIAN_POINT('Origin',(-1.498801083243960E-14,168.6,-35.57056274847714));
#509=CARTESIAN_POINT('Origin',(13.79974209358122,168.6,-109.484707050834));
#510=CARTESIAN_POINT('Origin',(-1.498801083243960E-14,168.6,-109.484707050834));
#511=CARTESIAN_POINT('Origin',(-1.498801083243960E-14,168.6,-107.0557494784686));
#512=CARTESIAN_POINT('Ctrl Pts',(-12.0,168.6,-89.9621148158838));
#513=CARTESIAN_POINT('Ctrl Pts',(-12.0,156.6,-89.9621148158838));
#514=CARTESIAN_POINT('Ctrl Pts',(-1.498801083243960E-14,156.6,-89.9621148158838));
#515=CARTESIAN_POINT('Ctrl Pts',(11.99999999999994,156.6,-89.9621148158838));
#516=CARTESIAN_POINT('Ctrl Pts',(11.99999999999994,168.6,-89.9621148158838));
#517=CARTESIAN_POINT('Ctrl Pts',(11.99999999999994,180.6,-89.9621148158838));
#518=CARTESIAN_POINT('Ctrl Pts',(-1.498801083243960E-14,180.6,-89.9621148158838));
#519=CARTESIAN_POINT('Ctrl Pts',(-12.0,180.6,-89.9621148158838));
#520=CARTESIAN_POINT('Ctrl Pts',(-12.0,168.6,-89.9621148158838));
#521=CARTESIAN_POINT('Ctrl Pts',(-11.99999999999994,168.6,-81.7188288748692));
#522=CARTESIAN_POINT('Ctrl Pts',(-11.99999999999994,156.6,-81.7188288748692));
#523=CARTESIAN_POINT('Ctrl Pts',(-1.498801083243960E-14,156.6,-81.7188288748692));
#524=CARTESIAN_POINT('Ctrl Pts',(11.99999999999994,156.6,-81.7188288748692));
#525=CARTESIAN_POINT('Ctrl Pts',(11.99999999999994,168.6,-81.7188288748692));
#526=CARTESIAN_POINT('Ctrl Pts',(11.99999999999994,180.6,-81.7188288748692));
#527=CARTESIAN_POINT('Ctrl Pts',(-1.498801083243960E-14,180.6,-81.7188288748692));
#528=CARTESIAN_POINT('Ctrl Pts',(-11.99999999999994,180.6,-81.7188288748692));
#529=CARTESIAN_POINT('Ctrl Pts',(-11.99999999999994,168.6,-81.7188288748692));
#530=CARTESIAN_POINT('Ctrl Pts',(-5.391878164461282,168.6,-76.7908993997244));
#531=CARTESIAN_POINT('Ctrl Pts',(-5.391878164461276,163.208121835539,-76.7908993997244));
#532=CARTESIAN_POINT('Ctrl Pts',(-1.498801083243960E-14,163.208121835539,-76.7908993997244));
#533=CARTESIAN_POINT('Ctrl Pts',(5.391878164461246,163.208121835539,-76.7908993997244));
#534=CARTESIAN_POINT('Ctrl Pts',(5.391878164461252,168.6,-76.7908993997244));
#535=CARTESIAN_POINT('Ctrl Pts',(5.391878164461246,173.991878164461,-76.7908993997244));
#536=CARTESIAN_POINT('Ctrl Pts',(-1.498801083243960E-14,173.991878164461,-76.7908993997244));
#537=CARTESIAN_POINT('Ctrl Pts',(-5.391878164461276,173.991878164461,-76.7908993997244));
#538=CARTESIAN_POINT('Ctrl Pts',(-5.391878164461282,168.6,-76.7908993997244));
#539=CARTESIAN_POINT('',(-5.391878164461282,168.6,-76.7908993997244));
#540=CARTESIAN_POINT('Origin',(-1.498801083243960E-14,168.6,-76.7908993997244));
#541=CARTESIAN_POINT('Origin',(4.430401492022495,168.6,-89.9621148158838));
#542=CARTESIAN_POINT('Origin',(-1.498801083243960E-14,168.6,-66.0704679783864));
#543=CARTESIAN_POINT('Origin',(-1.498801083243960E-14,168.6,-66.0704679783864));
#544=UNCERTAINTY_MEASURE_WITH_UNIT(LENGTH_MEASURE(0.06),#548, 'DISTANCE_ACCURACY_VALUE', 'Maximum model space distance between geometric entities at asserted c onnectivities');
#545=UNCERTAINTY_MEASURE_WITH_UNIT(LENGTH_MEASURE(0.06),#548, 'DISTANCE_ACCURACY_VALUE', 'Maximum model space distance between geometric entities at asserted c onnectivities');
#546=( GEOMETRIC_REPRESENTATION_CONTEXT(3) GLOBAL_UNCERTAINTY_ASSIGNED_CONTEXT((#544)) GLOBAL_UNIT_ASSIGNED_CONTEXT((#548,#550,#551)) REPRESENTATION_CONTEXT('','3D') );
#547=( GEOMETRIC_REPRESENTATION_CONTEXT(3) GLOBAL_UNCERTAINTY_ASSIGNED_CONTEXT((#545)) GLOBAL_UNIT_ASSIGNED_CONTEXT((#548,#550,#551)) REPRESENTATION_CONTEXT('','3D') );
#548=( LENGTH_UNIT() NAMED_UNIT(*) SI_UNIT(.MILLI.,.METRE.) );
#549=( LENGTH_UNIT() NAMED_UNIT(*) SI_UNIT($,.METRE.) );
#550=( NAMED_UNIT(*) PLANE_ANGLE_UNIT() SI_UNIT($,.RADIAN.) );
#551=( NAMED_UNIT(*) SI_UNIT($,.STERADIAN.) SOLID_ANGLE_UNIT() );
#552=SHAPE_DEFINITION_REPRESENTATION(#553,#554);
#553=PRODUCT_DEFINITION_SHAPE('',$,#556);
#554=SHAPE_REPRESENTATION('',(#309),#546);
#555=PRODUCT_DEFINITION_CONTEXT('part definition',#560,'design');
#556=PRODUCT_DEFINITION('Soyuz','Soyuz',#557,#555);
#557=PRODUCT_DEFINITION_FORMATION('',$,#562);
#558=PRODUCT_RELATED_PRODUCT_CATEGORY('Soyuz','Soyuz',(#562));
#559=APPLICATION_PROTOCOL_DEFINITION('international standard', 'automotive_design',2009,#560);
#560=APPLICATION_CONTEXT( 'Core Data for Automotive Mechanical Design Process');
#561=PRODUCT_CONTEXT('part definition',#560,'mechanical');
#562=PRODUCT('Soyuz','Soyuz',$,(#561));
#563=PRESENTATION_STYLE_ASSIGNMENT((#564));
#564=SURFACE_STYLE_USAGE(.BOTH.,#565);
#565=SURFACE_SIDE_STYLE('',(#566));
#566=SURFACE_STYLE_FILL_AREA(#567);
#567=FILL_AREA_STYLE('ABS (White)',(#568));
#568=FILL_AREA_STYLE_COLOUR('ABS (White)',#569);
#569=COLOUR_RGB('ABS (White)',0.964705882352941,0.964705882352941,0.952941176470588);
ENDSEC;
END-ISO-10303-21;
