ISO-10303-21;
HEADER;
/* Generated by software containing ST-Developer
 * from STEP Tools, Inc. (www.steptools.com) 
 */

FILE_DESCRIPTION(
/* description */ (''),
/* implementation_level */ '2;1');

FILE_NAME(
/* name */ 'Stand base.step',
/* time_stamp */ '2024-11-15T18:04:32+01:00',
/* author */ (''),
/* organization */ (''),
/* preprocessor_version */ 'ST-DEVELOPER v20',
/* originating_system */ 'Autodesk Translation Framework v13.20.0.188',

/* authorisation */ '');

FILE_SCHEMA (('AUTOMOTIVE_DESIGN { 1 0 10303 214 3 1 1 }'));
ENDSEC;

DATA;
#10=MECHANICAL_DESIGN_GEOMETRIC_PRESENTATION_REPRESENTATION('',(#13),#1450);
#11=SHAPE_REPRESENTATION_RELATIONSHIP('SRR','None',#1457,#12);
#12=ADVANCED_BREP_SHAPE_REPRESENTATION('',(#14),#1449);
#13=STYLED_ITEM('',(#1467),#14);
#14=MANIFOLD_SOLID_BREP('Body1',#918);
#15=FACE_BOUND('',#96,.T.);
#16=FACE_BOUND('',#116,.T.);
#17=FACE_BOUND('',#117,.T.);
#18=FACE_BOUND('',#118,.T.);
#19=FACE_BOUND('',#119,.T.);
#20=FACE_BOUND('',#120,.T.);
#21=FACE_BOUND('',#121,.T.);
#22=FACE_BOUND('',#123,.T.);
#23=FACE_BOUND('',#125,.T.);
#24=FACE_BOUND('',#127,.T.);
#25=FACE_BOUND('',#129,.T.);
#26=FACE_BOUND('',#131,.T.);
#27=FACE_BOUND('',#133,.T.);
#28=FACE_BOUND('',#135,.T.);
#29=CIRCLE('',#950,48.0);
#30=CIRCLE('',#951,48.0);
#31=CYLINDRICAL_SURFACE('',#949,48.0);
#32=FACE_OUTER_BOUND('',#77,.T.);
#33=FACE_OUTER_BOUND('',#78,.T.);
#34=FACE_OUTER_BOUND('',#79,.T.);
#35=FACE_OUTER_BOUND('',#80,.T.);
#36=FACE_OUTER_BOUND('',#81,.T.);
#37=FACE_OUTER_BOUND('',#82,.T.);
#38=FACE_OUTER_BOUND('',#83,.T.);
#39=FACE_OUTER_BOUND('',#84,.T.);
#40=FACE_OUTER_BOUND('',#85,.T.);
#41=FACE_OUTER_BOUND('',#86,.T.);
#42=FACE_OUTER_BOUND('',#87,.T.);
#43=FACE_OUTER_BOUND('',#88,.T.);
#44=FACE_OUTER_BOUND('',#89,.T.);
#45=FACE_OUTER_BOUND('',#90,.T.);
#46=FACE_OUTER_BOUND('',#91,.T.);
#47=FACE_OUTER_BOUND('',#92,.T.);
#48=FACE_OUTER_BOUND('',#93,.T.);
#49=FACE_OUTER_BOUND('',#94,.T.);
#50=FACE_OUTER_BOUND('',#95,.T.);
#51=FACE_OUTER_BOUND('',#97,.T.);
#52=FACE_OUTER_BOUND('',#98,.T.);
#53=FACE_OUTER_BOUND('',#99,.T.);
#54=FACE_OUTER_BOUND('',#100,.T.);
#55=FACE_OUTER_BOUND('',#101,.T.);
#56=FACE_OUTER_BOUND('',#102,.T.);
#57=FACE_OUTER_BOUND('',#103,.T.);
#58=FACE_OUTER_BOUND('',#104,.T.);
#59=FACE_OUTER_BOUND('',#105,.T.);
#60=FACE_OUTER_BOUND('',#106,.T.);
#61=FACE_OUTER_BOUND('',#107,.T.);
#62=FACE_OUTER_BOUND('',#108,.T.);
#63=FACE_OUTER_BOUND('',#109,.T.);
#64=FACE_OUTER_BOUND('',#110,.T.);
#65=FACE_OUTER_BOUND('',#111,.T.);
#66=FACE_OUTER_BOUND('',#112,.T.);
#67=FACE_OUTER_BOUND('',#113,.T.);
#68=FACE_OUTER_BOUND('',#114,.T.);
#69=FACE_OUTER_BOUND('',#115,.T.);
#70=FACE_OUTER_BOUND('',#122,.T.);
#71=FACE_OUTER_BOUND('',#124,.T.);
#72=FACE_OUTER_BOUND('',#126,.T.);
#73=FACE_OUTER_BOUND('',#128,.T.);
#74=FACE_OUTER_BOUND('',#130,.T.);
#75=FACE_OUTER_BOUND('',#132,.T.);
#76=FACE_OUTER_BOUND('',#134,.T.);
#77=EDGE_LOOP('',(#583,#584,#585,#586));
#78=EDGE_LOOP('',(#587,#588,#589,#590));
#79=EDGE_LOOP('',(#591,#592,#593,#594));
#80=EDGE_LOOP('',(#595,#596,#597,#598));
#81=EDGE_LOOP('',(#599,#600,#601,#602));
#82=EDGE_LOOP('',(#603,#604,#605,#606));
#83=EDGE_LOOP('',(#607,#608,#609,#610));
#84=EDGE_LOOP('',(#611,#612,#613,#614));
#85=EDGE_LOOP('',(#615,#616,#617,#618));
#86=EDGE_LOOP('',(#619,#620,#621,#622));
#87=EDGE_LOOP('',(#623,#624,#625,#626));
#88=EDGE_LOOP('',(#627,#628,#629,#630));
#89=EDGE_LOOP('',(#631,#632,#633,#634));
#90=EDGE_LOOP('',(#635,#636,#637,#638));
#91=EDGE_LOOP('',(#639,#640,#641,#642));
#92=EDGE_LOOP('',(#643,#644,#645,#646));
#93=EDGE_LOOP('',(#647,#648,#649,#650));
#94=EDGE_LOOP('',(#651,#652,#653,#654));
#95=EDGE_LOOP('',(#655));
#96=EDGE_LOOP('',(#656,#657,#658,#659));
#97=EDGE_LOOP('',(#660,#661,#662,#663));
#98=EDGE_LOOP('',(#664,#665,#666,#667,#668));
#99=EDGE_LOOP('',(#669,#670,#671,#672,#673));
#100=EDGE_LOOP('',(#674,#675,#676,#677));
#101=EDGE_LOOP('',(#678,#679,#680,#681,#682));
#102=EDGE_LOOP('',(#683,#684,#685,#686,#687));
#103=EDGE_LOOP('',(#688,#689,#690,#691));
#104=EDGE_LOOP('',(#692,#693,#694,#695,#696));
#105=EDGE_LOOP('',(#697,#698,#699,#700,#701));
#106=EDGE_LOOP('',(#702,#703,#704,#705));
#107=EDGE_LOOP('',(#706,#707,#708,#709,#710));
#108=EDGE_LOOP('',(#711,#712,#713,#714,#715));
#109=EDGE_LOOP('',(#716,#717,#718,#719));
#110=EDGE_LOOP('',(#720,#721,#722,#723,#724));
#111=EDGE_LOOP('',(#725,#726,#727,#728,#729));
#112=EDGE_LOOP('',(#730,#731,#732,#733));
#113=EDGE_LOOP('',(#734,#735,#736,#737,#738));
#114=EDGE_LOOP('',(#739,#740,#741,#742,#743));
#115=EDGE_LOOP('',(#744,#745,#746,#747,#748,#749));
#116=EDGE_LOOP('',(#750,#751,#752,#753));
#117=EDGE_LOOP('',(#754,#755,#756,#757));
#118=EDGE_LOOP('',(#758,#759,#760,#761));
#119=EDGE_LOOP('',(#762,#763,#764,#765));
#120=EDGE_LOOP('',(#766,#767,#768,#769));
#121=EDGE_LOOP('',(#770,#771,#772,#773));
#122=EDGE_LOOP('',(#774,#775,#776,#777,#778,#779));
#123=EDGE_LOOP('',(#780));
#124=EDGE_LOOP('',(#781,#782,#783,#784));
#125=EDGE_LOOP('',(#785,#786,#787,#788));
#126=EDGE_LOOP('',(#789,#790,#791,#792));
#127=EDGE_LOOP('',(#793,#794,#795,#796));
#128=EDGE_LOOP('',(#797,#798,#799,#800));
#129=EDGE_LOOP('',(#801,#802,#803,#804));
#130=EDGE_LOOP('',(#805,#806,#807,#808));
#131=EDGE_LOOP('',(#809,#810,#811,#812));
#132=EDGE_LOOP('',(#813,#814,#815,#816));
#133=EDGE_LOOP('',(#817,#818,#819,#820));
#134=EDGE_LOOP('',(#821,#822,#823,#824));
#135=EDGE_LOOP('',(#825,#826,#827,#828));
#136=LINE('',#1200,#257);
#137=LINE('',#1202,#258);
#138=LINE('',#1204,#259);
#139=LINE('',#1205,#260);
#140=LINE('',#1208,#261);
#141=LINE('',#1210,#262);
#142=LINE('',#1211,#263);
#143=LINE('',#1215,#264);
#144=LINE('',#1217,#265);
#145=LINE('',#1219,#266);
#146=LINE('',#1220,#267);
#147=LINE('',#1223,#268);
#148=LINE('',#1225,#269);
#149=LINE('',#1226,#270);
#150=LINE('',#1230,#271);
#151=LINE('',#1232,#272);
#152=LINE('',#1234,#273);
#153=LINE('',#1235,#274);
#154=LINE('',#1238,#275);
#155=LINE('',#1240,#276);
#156=LINE('',#1241,#277);
#157=LINE('',#1245,#278);
#158=LINE('',#1247,#279);
#159=LINE('',#1249,#280);
#160=LINE('',#1250,#281);
#161=LINE('',#1253,#282);
#162=LINE('',#1255,#283);
#163=LINE('',#1256,#284);
#164=LINE('',#1260,#285);
#165=LINE('',#1262,#286);
#166=LINE('',#1264,#287);
#167=LINE('',#1265,#288);
#168=LINE('',#1268,#289);
#169=LINE('',#1270,#290);
#170=LINE('',#1271,#291);
#171=LINE('',#1275,#292);
#172=LINE('',#1277,#293);
#173=LINE('',#1279,#294);
#174=LINE('',#1280,#295);
#175=LINE('',#1283,#296);
#176=LINE('',#1285,#297);
#177=LINE('',#1286,#298);
#178=LINE('',#1290,#299);
#179=LINE('',#1292,#300);
#180=LINE('',#1294,#301);
#181=LINE('',#1295,#302);
#182=LINE('',#1298,#303);
#183=LINE('',#1300,#304);
#184=LINE('',#1301,#305);
#185=LINE('',#1304,#306);
#186=LINE('',#1306,#307);
#187=LINE('',#1307,#308);
#188=LINE('',#1309,#309);
#189=LINE('',#1311,#310);
#190=LINE('',#1316,#311);
#191=LINE('',#1322,#312);
#192=LINE('',#1324,#313);
#193=LINE('',#1326,#314);
#194=LINE('',#1327,#315);
#195=LINE('',#1329,#316);
#196=LINE('',#1330,#317);
#197=LINE('',#1332,#318);
#198=LINE('',#1333,#319);
#199=LINE('',#1337,#320);
#200=LINE('',#1339,#321);
#201=LINE('',#1341,#322);
#202=LINE('',#1342,#323);
#203=LINE('',#1344,#324);
#204=LINE('',#1345,#325);
#205=LINE('',#1347,#326);
#206=LINE('',#1348,#327);
#207=LINE('',#1352,#328);
#208=LINE('',#1354,#329);
#209=LINE('',#1356,#330);
#210=LINE('',#1357,#331);
#211=LINE('',#1359,#332);
#212=LINE('',#1360,#333);
#213=LINE('',#1362,#334);
#214=LINE('',#1363,#335);
#215=LINE('',#1367,#336);
#216=LINE('',#1369,#337);
#217=LINE('',#1371,#338);
#218=LINE('',#1372,#339);
#219=LINE('',#1374,#340);
#220=LINE('',#1375,#341);
#221=LINE('',#1377,#342);
#222=LINE('',#1378,#343);
#223=LINE('',#1382,#344);
#224=LINE('',#1384,#345);
#225=LINE('',#1386,#346);
#226=LINE('',#1387,#347);
#227=LINE('',#1389,#348);
#228=LINE('',#1390,#349);
#229=LINE('',#1392,#350);
#230=LINE('',#1393,#351);
#231=LINE('',#1397,#352);
#232=LINE('',#1399,#353);
#233=LINE('',#1401,#354);
#234=LINE('',#1402,#355);
#235=LINE('',#1404,#356);
#236=LINE('',#1405,#357);
#237=LINE('',#1407,#358);
#238=LINE('',#1408,#359);
#239=LINE('',#1412,#360);
#240=LINE('',#1414,#361);
#241=LINE('',#1416,#362);
#242=LINE('',#1418,#363);
#243=LINE('',#1420,#364);
#244=LINE('',#1421,#365);
#245=LINE('',#1425,#366);
#246=LINE('',#1427,#367);
#247=LINE('',#1429,#368);
#248=LINE('',#1431,#369);
#249=LINE('',#1433,#370);
#250=LINE('',#1434,#371);
#251=LINE('',#1436,#372);
#252=LINE('',#1437,#373);
#253=LINE('',#1439,#374);
#254=LINE('',#1441,#375);
#255=LINE('',#1443,#376);
#256=LINE('',#1445,#377);
#257=VECTOR('',#983,60.0);
#258=VECTOR('',#984,60.0);
#259=VECTOR('',#985,60.0);
#260=VECTOR('',#986,60.0);
#261=VECTOR('',#989,60.0);
#262=VECTOR('',#990,60.0);
#263=VECTOR('',#991,60.0);
#264=VECTOR('',#994,60.0);
#265=VECTOR('',#995,60.0);
#266=VECTOR('',#996,60.0);
#267=VECTOR('',#997,60.0);
#268=VECTOR('',#1000,60.0);
#269=VECTOR('',#1001,60.0);
#270=VECTOR('',#1002,60.0);
#271=VECTOR('',#1005,60.0);
#272=VECTOR('',#1006,60.0);
#273=VECTOR('',#1007,60.0);
#274=VECTOR('',#1008,60.0);
#275=VECTOR('',#1011,60.0);
#276=VECTOR('',#1012,60.0);
#277=VECTOR('',#1013,60.0);
#278=VECTOR('',#1016,60.0);
#279=VECTOR('',#1017,60.0);
#280=VECTOR('',#1018,60.0);
#281=VECTOR('',#1019,60.0);
#282=VECTOR('',#1022,60.0);
#283=VECTOR('',#1023,60.0);
#284=VECTOR('',#1024,60.0);
#285=VECTOR('',#1027,60.0);
#286=VECTOR('',#1028,60.0);
#287=VECTOR('',#1029,60.0);
#288=VECTOR('',#1030,60.0);
#289=VECTOR('',#1033,60.0);
#290=VECTOR('',#1034,60.0);
#291=VECTOR('',#1035,60.0);
#292=VECTOR('',#1038,60.0);
#293=VECTOR('',#1039,60.0);
#294=VECTOR('',#1040,60.0);
#295=VECTOR('',#1041,60.0);
#296=VECTOR('',#1044,60.0);
#297=VECTOR('',#1045,60.0);
#298=VECTOR('',#1046,60.0);
#299=VECTOR('',#1049,60.0);
#300=VECTOR('',#1050,60.0);
#301=VECTOR('',#1051,60.0);
#302=VECTOR('',#1052,60.0);
#303=VECTOR('',#1055,60.0);
#304=VECTOR('',#1056,60.0);
#305=VECTOR('',#1057,60.0);
#306=VECTOR('',#1060,60.0);
#307=VECTOR('',#1061,60.0);
#308=VECTOR('',#1062,60.0);
#309=VECTOR('',#1065,60.0);
#310=VECTOR('',#1068,60.0);
#311=VECTOR('',#1073,48.0);
#312=VECTOR('',#1080,60.0);
#313=VECTOR('',#1081,60.0);
#314=VECTOR('',#1082,60.0);
#315=VECTOR('',#1083,60.0);
#316=VECTOR('',#1086,60.0);
#317=VECTOR('',#1087,60.0);
#318=VECTOR('',#1090,60.0);
#319=VECTOR('',#1091,60.0);
#320=VECTOR('',#1094,60.0);
#321=VECTOR('',#1095,60.0);
#322=VECTOR('',#1096,60.0);
#323=VECTOR('',#1097,60.0);
#324=VECTOR('',#1100,60.0);
#325=VECTOR('',#1101,60.0);
#326=VECTOR('',#1104,60.0);
#327=VECTOR('',#1105,60.0);
#328=VECTOR('',#1108,60.0);
#329=VECTOR('',#1109,60.0);
#330=VECTOR('',#1110,60.0);
#331=VECTOR('',#1111,60.0);
#332=VECTOR('',#1114,60.0);
#333=VECTOR('',#1115,60.0);
#334=VECTOR('',#1118,60.0);
#335=VECTOR('',#1119,60.0);
#336=VECTOR('',#1122,60.0);
#337=VECTOR('',#1123,60.0);
#338=VECTOR('',#1124,60.0);
#339=VECTOR('',#1125,60.0);
#340=VECTOR('',#1128,60.0);
#341=VECTOR('',#1129,60.0);
#342=VECTOR('',#1132,60.0);
#343=VECTOR('',#1133,60.0);
#344=VECTOR('',#1136,60.0);
#345=VECTOR('',#1137,60.0);
#346=VECTOR('',#1138,60.0);
#347=VECTOR('',#1139,60.0);
#348=VECTOR('',#1142,60.0);
#349=VECTOR('',#1143,60.0);
#350=VECTOR('',#1146,60.0);
#351=VECTOR('',#1147,60.0);
#352=VECTOR('',#1150,60.0);
#353=VECTOR('',#1151,60.0);
#354=VECTOR('',#1152,60.0);
#355=VECTOR('',#1153,60.0);
#356=VECTOR('',#1156,60.0);
#357=VECTOR('',#1157,60.0);
#358=VECTOR('',#1160,60.0);
#359=VECTOR('',#1161,60.0);
#360=VECTOR('',#1164,60.0);
#361=VECTOR('',#1165,60.0);
#362=VECTOR('',#1166,60.0);
#363=VECTOR('',#1167,60.0);
#364=VECTOR('',#1168,60.0);
#365=VECTOR('',#1169,60.0);
#366=VECTOR('',#1172,60.0);
#367=VECTOR('',#1173,60.0);
#368=VECTOR('',#1174,60.0);
#369=VECTOR('',#1175,60.0);
#370=VECTOR('',#1176,60.0);
#371=VECTOR('',#1177,60.0);
#372=VECTOR('',#1180,60.0);
#373=VECTOR('',#1181,60.0);
#374=VECTOR('',#1184,60.0);
#375=VECTOR('',#1187,60.0);
#376=VECTOR('',#1190,60.0);
#377=VECTOR('',#1193,60.0);
#378=VERTEX_POINT('',#1198);
#379=VERTEX_POINT('',#1199);
#380=VERTEX_POINT('',#1201);
#381=VERTEX_POINT('',#1203);
#382=VERTEX_POINT('',#1207);
#383=VERTEX_POINT('',#1209);
#384=VERTEX_POINT('',#1213);
#385=VERTEX_POINT('',#1214);
#386=VERTEX_POINT('',#1216);
#387=VERTEX_POINT('',#1218);
#388=VERTEX_POINT('',#1222);
#389=VERTEX_POINT('',#1224);
#390=VERTEX_POINT('',#1228);
#391=VERTEX_POINT('',#1229);
#392=VERTEX_POINT('',#1231);
#393=VERTEX_POINT('',#1233);
#394=VERTEX_POINT('',#1237);
#395=VERTEX_POINT('',#1239);
#396=VERTEX_POINT('',#1243);
#397=VERTEX_POINT('',#1244);
#398=VERTEX_POINT('',#1246);
#399=VERTEX_POINT('',#1248);
#400=VERTEX_POINT('',#1252);
#401=VERTEX_POINT('',#1254);
#402=VERTEX_POINT('',#1258);
#403=VERTEX_POINT('',#1259);
#404=VERTEX_POINT('',#1261);
#405=VERTEX_POINT('',#1263);
#406=VERTEX_POINT('',#1267);
#407=VERTEX_POINT('',#1269);
#408=VERTEX_POINT('',#1273);
#409=VERTEX_POINT('',#1274);
#410=VERTEX_POINT('',#1276);
#411=VERTEX_POINT('',#1278);
#412=VERTEX_POINT('',#1282);
#413=VERTEX_POINT('',#1284);
#414=VERTEX_POINT('',#1288);
#415=VERTEX_POINT('',#1289);
#416=VERTEX_POINT('',#1291);
#417=VERTEX_POINT('',#1293);
#418=VERTEX_POINT('',#1297);
#419=VERTEX_POINT('',#1299);
#420=VERTEX_POINT('',#1303);
#421=VERTEX_POINT('',#1305);
#422=VERTEX_POINT('',#1313);
#423=VERTEX_POINT('',#1315);
#424=VERTEX_POINT('',#1320);
#425=VERTEX_POINT('',#1321);
#426=VERTEX_POINT('',#1323);
#427=VERTEX_POINT('',#1325);
#428=VERTEX_POINT('',#1335);
#429=VERTEX_POINT('',#1336);
#430=VERTEX_POINT('',#1338);
#431=VERTEX_POINT('',#1340);
#432=VERTEX_POINT('',#1350);
#433=VERTEX_POINT('',#1351);
#434=VERTEX_POINT('',#1353);
#435=VERTEX_POINT('',#1355);
#436=VERTEX_POINT('',#1365);
#437=VERTEX_POINT('',#1366);
#438=VERTEX_POINT('',#1368);
#439=VERTEX_POINT('',#1370);
#440=VERTEX_POINT('',#1380);
#441=VERTEX_POINT('',#1381);
#442=VERTEX_POINT('',#1383);
#443=VERTEX_POINT('',#1385);
#444=VERTEX_POINT('',#1395);
#445=VERTEX_POINT('',#1396);
#446=VERTEX_POINT('',#1398);
#447=VERTEX_POINT('',#1400);
#448=VERTEX_POINT('',#1410);
#449=VERTEX_POINT('',#1411);
#450=VERTEX_POINT('',#1413);
#451=VERTEX_POINT('',#1415);
#452=VERTEX_POINT('',#1417);
#453=VERTEX_POINT('',#1419);
#454=VERTEX_POINT('',#1423);
#455=VERTEX_POINT('',#1424);
#456=VERTEX_POINT('',#1426);
#457=VERTEX_POINT('',#1428);
#458=VERTEX_POINT('',#1430);
#459=VERTEX_POINT('',#1432);
#460=EDGE_CURVE('',#378,#379,#136,.F.);
#461=EDGE_CURVE('',#379,#380,#137,.T.);
#462=EDGE_CURVE('',#380,#381,#138,.F.);
#463=EDGE_CURVE('',#381,#378,#139,.T.);
#464=EDGE_CURVE('',#382,#379,#140,.T.);
#465=EDGE_CURVE('',#383,#382,#141,.T.);
#466=EDGE_CURVE('',#383,#380,#142,.T.);
#467=EDGE_CURVE('',#384,#385,#143,.F.);
#468=EDGE_CURVE('',#385,#386,#144,.T.);
#469=EDGE_CURVE('',#386,#387,#145,.F.);
#470=EDGE_CURVE('',#387,#384,#146,.T.);
#471=EDGE_CURVE('',#388,#385,#147,.T.);
#472=EDGE_CURVE('',#389,#388,#148,.T.);
#473=EDGE_CURVE('',#389,#386,#149,.T.);
#474=EDGE_CURVE('',#390,#391,#150,.F.);
#475=EDGE_CURVE('',#391,#392,#151,.T.);
#476=EDGE_CURVE('',#392,#393,#152,.F.);
#477=EDGE_CURVE('',#393,#390,#153,.T.);
#478=EDGE_CURVE('',#394,#391,#154,.T.);
#479=EDGE_CURVE('',#395,#394,#155,.T.);
#480=EDGE_CURVE('',#395,#392,#156,.T.);
#481=EDGE_CURVE('',#396,#397,#157,.F.);
#482=EDGE_CURVE('',#397,#398,#158,.T.);
#483=EDGE_CURVE('',#398,#399,#159,.F.);
#484=EDGE_CURVE('',#399,#396,#160,.T.);
#485=EDGE_CURVE('',#400,#397,#161,.T.);
#486=EDGE_CURVE('',#401,#400,#162,.T.);
#487=EDGE_CURVE('',#401,#398,#163,.T.);
#488=EDGE_CURVE('',#402,#403,#164,.F.);
#489=EDGE_CURVE('',#403,#404,#165,.T.);
#490=EDGE_CURVE('',#404,#405,#166,.F.);
#491=EDGE_CURVE('',#405,#402,#167,.T.);
#492=EDGE_CURVE('',#406,#403,#168,.T.);
#493=EDGE_CURVE('',#407,#406,#169,.T.);
#494=EDGE_CURVE('',#407,#404,#170,.T.);
#495=EDGE_CURVE('',#408,#409,#171,.F.);
#496=EDGE_CURVE('',#409,#410,#172,.T.);
#497=EDGE_CURVE('',#410,#411,#173,.F.);
#498=EDGE_CURVE('',#411,#408,#174,.T.);
#499=EDGE_CURVE('',#412,#409,#175,.T.);
#500=EDGE_CURVE('',#413,#412,#176,.T.);
#501=EDGE_CURVE('',#413,#410,#177,.T.);
#502=EDGE_CURVE('',#414,#415,#178,.T.);
#503=EDGE_CURVE('',#416,#414,#179,.T.);
#504=EDGE_CURVE('',#417,#416,#180,.T.);
#505=EDGE_CURVE('',#415,#417,#181,.T.);
#506=EDGE_CURVE('',#418,#415,#182,.T.);
#507=EDGE_CURVE('',#419,#417,#183,.T.);
#508=EDGE_CURVE('',#419,#418,#184,.T.);
#509=EDGE_CURVE('',#416,#420,#185,.T.);
#510=EDGE_CURVE('',#414,#421,#186,.T.);
#511=EDGE_CURVE('',#421,#420,#187,.T.);
#512=EDGE_CURVE('',#418,#421,#188,.T.);
#513=EDGE_CURVE('',#420,#419,#189,.T.);
#514=EDGE_CURVE('',#422,#422,#29,.T.);
#515=EDGE_CURVE('',#422,#423,#190,.T.);
#516=EDGE_CURVE('',#423,#423,#30,.T.);
#517=EDGE_CURVE('',#424,#425,#191,.T.);
#518=EDGE_CURVE('',#426,#424,#192,.T.);
#519=EDGE_CURVE('',#427,#426,#193,.T.);
#520=EDGE_CURVE('',#427,#425,#194,.T.);
#521=EDGE_CURVE('',#425,#378,#195,.T.);
#522=EDGE_CURVE('',#382,#427,#196,.T.);
#523=EDGE_CURVE('',#381,#424,#197,.T.);
#524=EDGE_CURVE('',#426,#383,#198,.T.);
#525=EDGE_CURVE('',#428,#429,#199,.T.);
#526=EDGE_CURVE('',#430,#428,#200,.T.);
#527=EDGE_CURVE('',#431,#430,#201,.T.);
#528=EDGE_CURVE('',#431,#429,#202,.T.);
#529=EDGE_CURVE('',#429,#384,#203,.T.);
#530=EDGE_CURVE('',#388,#431,#204,.T.);
#531=EDGE_CURVE('',#387,#428,#205,.T.);
#532=EDGE_CURVE('',#430,#389,#206,.T.);
#533=EDGE_CURVE('',#432,#433,#207,.T.);
#534=EDGE_CURVE('',#434,#432,#208,.T.);
#535=EDGE_CURVE('',#435,#434,#209,.T.);
#536=EDGE_CURVE('',#435,#433,#210,.T.);
#537=EDGE_CURVE('',#433,#390,#211,.T.);
#538=EDGE_CURVE('',#394,#435,#212,.T.);
#539=EDGE_CURVE('',#393,#432,#213,.T.);
#540=EDGE_CURVE('',#434,#395,#214,.T.);
#541=EDGE_CURVE('',#436,#437,#215,.T.);
#542=EDGE_CURVE('',#438,#436,#216,.T.);
#543=EDGE_CURVE('',#439,#438,#217,.T.);
#544=EDGE_CURVE('',#439,#437,#218,.T.);
#545=EDGE_CURVE('',#437,#396,#219,.T.);
#546=EDGE_CURVE('',#400,#439,#220,.T.);
#547=EDGE_CURVE('',#399,#436,#221,.T.);
#548=EDGE_CURVE('',#438,#401,#222,.T.);
#549=EDGE_CURVE('',#440,#441,#223,.T.);
#550=EDGE_CURVE('',#442,#440,#224,.T.);
#551=EDGE_CURVE('',#443,#442,#225,.T.);
#552=EDGE_CURVE('',#443,#441,#226,.T.);
#553=EDGE_CURVE('',#441,#402,#227,.T.);
#554=EDGE_CURVE('',#406,#443,#228,.T.);
#555=EDGE_CURVE('',#405,#440,#229,.T.);
#556=EDGE_CURVE('',#442,#407,#230,.T.);
#557=EDGE_CURVE('',#444,#445,#231,.T.);
#558=EDGE_CURVE('',#446,#444,#232,.T.);
#559=EDGE_CURVE('',#447,#446,#233,.T.);
#560=EDGE_CURVE('',#447,#445,#234,.T.);
#561=EDGE_CURVE('',#445,#408,#235,.T.);
#562=EDGE_CURVE('',#412,#447,#236,.T.);
#563=EDGE_CURVE('',#411,#444,#237,.T.);
#564=EDGE_CURVE('',#446,#413,#238,.T.);
#565=EDGE_CURVE('',#448,#449,#239,.T.);
#566=EDGE_CURVE('',#449,#450,#240,.T.);
#567=EDGE_CURVE('',#450,#451,#241,.T.);
#568=EDGE_CURVE('',#451,#452,#242,.T.);
#569=EDGE_CURVE('',#452,#453,#243,.T.);
#570=EDGE_CURVE('',#453,#448,#244,.T.);
#571=EDGE_CURVE('',#454,#455,#245,.T.);
#572=EDGE_CURVE('',#456,#454,#246,.T.);
#573=EDGE_CURVE('',#457,#456,#247,.T.);
#574=EDGE_CURVE('',#458,#457,#248,.T.);
#575=EDGE_CURVE('',#459,#458,#249,.T.);
#576=EDGE_CURVE('',#455,#459,#250,.T.);
#577=EDGE_CURVE('',#455,#449,#251,.T.);
#578=EDGE_CURVE('',#454,#448,#252,.T.);
#579=EDGE_CURVE('',#459,#450,#253,.T.);
#580=EDGE_CURVE('',#458,#451,#254,.T.);
#581=EDGE_CURVE('',#457,#452,#255,.T.);
#582=EDGE_CURVE('',#456,#453,#256,.T.);
#583=ORIENTED_EDGE('',*,*,#460,.T.);
#584=ORIENTED_EDGE('',*,*,#461,.T.);
#585=ORIENTED_EDGE('',*,*,#462,.T.);
#586=ORIENTED_EDGE('',*,*,#463,.T.);
#587=ORIENTED_EDGE('',*,*,#461,.F.);
#588=ORIENTED_EDGE('',*,*,#464,.F.);
#589=ORIENTED_EDGE('',*,*,#465,.F.);
#590=ORIENTED_EDGE('',*,*,#466,.T.);
#591=ORIENTED_EDGE('',*,*,#467,.T.);
#592=ORIENTED_EDGE('',*,*,#468,.T.);
#593=ORIENTED_EDGE('',*,*,#469,.T.);
#594=ORIENTED_EDGE('',*,*,#470,.T.);
#595=ORIENTED_EDGE('',*,*,#468,.F.);
#596=ORIENTED_EDGE('',*,*,#471,.F.);
#597=ORIENTED_EDGE('',*,*,#472,.F.);
#598=ORIENTED_EDGE('',*,*,#473,.T.);
#599=ORIENTED_EDGE('',*,*,#474,.T.);
#600=ORIENTED_EDGE('',*,*,#475,.T.);
#601=ORIENTED_EDGE('',*,*,#476,.T.);
#602=ORIENTED_EDGE('',*,*,#477,.T.);
#603=ORIENTED_EDGE('',*,*,#475,.F.);
#604=ORIENTED_EDGE('',*,*,#478,.F.);
#605=ORIENTED_EDGE('',*,*,#479,.F.);
#606=ORIENTED_EDGE('',*,*,#480,.T.);
#607=ORIENTED_EDGE('',*,*,#481,.T.);
#608=ORIENTED_EDGE('',*,*,#482,.T.);
#609=ORIENTED_EDGE('',*,*,#483,.T.);
#610=ORIENTED_EDGE('',*,*,#484,.T.);
#611=ORIENTED_EDGE('',*,*,#482,.F.);
#612=ORIENTED_EDGE('',*,*,#485,.F.);
#613=ORIENTED_EDGE('',*,*,#486,.F.);
#614=ORIENTED_EDGE('',*,*,#487,.T.);
#615=ORIENTED_EDGE('',*,*,#488,.T.);
#616=ORIENTED_EDGE('',*,*,#489,.T.);
#617=ORIENTED_EDGE('',*,*,#490,.T.);
#618=ORIENTED_EDGE('',*,*,#491,.T.);
#619=ORIENTED_EDGE('',*,*,#489,.F.);
#620=ORIENTED_EDGE('',*,*,#492,.F.);
#621=ORIENTED_EDGE('',*,*,#493,.F.);
#622=ORIENTED_EDGE('',*,*,#494,.T.);
#623=ORIENTED_EDGE('',*,*,#495,.T.);
#624=ORIENTED_EDGE('',*,*,#496,.T.);
#625=ORIENTED_EDGE('',*,*,#497,.T.);
#626=ORIENTED_EDGE('',*,*,#498,.T.);
#627=ORIENTED_EDGE('',*,*,#496,.F.);
#628=ORIENTED_EDGE('',*,*,#499,.F.);
#629=ORIENTED_EDGE('',*,*,#500,.F.);
#630=ORIENTED_EDGE('',*,*,#501,.T.);
#631=ORIENTED_EDGE('',*,*,#502,.F.);
#632=ORIENTED_EDGE('',*,*,#503,.F.);
#633=ORIENTED_EDGE('',*,*,#504,.F.);
#634=ORIENTED_EDGE('',*,*,#505,.F.);
#635=ORIENTED_EDGE('',*,*,#506,.T.);
#636=ORIENTED_EDGE('',*,*,#505,.T.);
#637=ORIENTED_EDGE('',*,*,#507,.F.);
#638=ORIENTED_EDGE('',*,*,#508,.T.);
#639=ORIENTED_EDGE('',*,*,#509,.F.);
#640=ORIENTED_EDGE('',*,*,#503,.T.);
#641=ORIENTED_EDGE('',*,*,#510,.T.);
#642=ORIENTED_EDGE('',*,*,#511,.T.);
#643=ORIENTED_EDGE('',*,*,#510,.F.);
#644=ORIENTED_EDGE('',*,*,#502,.T.);
#645=ORIENTED_EDGE('',*,*,#506,.F.);
#646=ORIENTED_EDGE('',*,*,#512,.T.);
#647=ORIENTED_EDGE('',*,*,#512,.F.);
#648=ORIENTED_EDGE('',*,*,#508,.F.);
#649=ORIENTED_EDGE('',*,*,#513,.F.);
#650=ORIENTED_EDGE('',*,*,#511,.F.);
#651=ORIENTED_EDGE('',*,*,#514,.F.);
#652=ORIENTED_EDGE('',*,*,#515,.T.);
#653=ORIENTED_EDGE('',*,*,#516,.T.);
#654=ORIENTED_EDGE('',*,*,#515,.F.);
#655=ORIENTED_EDGE('',*,*,#516,.F.);
#656=ORIENTED_EDGE('',*,*,#504,.T.);
#657=ORIENTED_EDGE('',*,*,#509,.T.);
#658=ORIENTED_EDGE('',*,*,#513,.T.);
#659=ORIENTED_EDGE('',*,*,#507,.T.);
#660=ORIENTED_EDGE('',*,*,#517,.F.);
#661=ORIENTED_EDGE('',*,*,#518,.F.);
#662=ORIENTED_EDGE('',*,*,#519,.F.);
#663=ORIENTED_EDGE('',*,*,#520,.T.);
#664=ORIENTED_EDGE('',*,*,#521,.F.);
#665=ORIENTED_EDGE('',*,*,#520,.F.);
#666=ORIENTED_EDGE('',*,*,#522,.F.);
#667=ORIENTED_EDGE('',*,*,#464,.T.);
#668=ORIENTED_EDGE('',*,*,#460,.F.);
#669=ORIENTED_EDGE('',*,*,#523,.F.);
#670=ORIENTED_EDGE('',*,*,#462,.F.);
#671=ORIENTED_EDGE('',*,*,#466,.F.);
#672=ORIENTED_EDGE('',*,*,#524,.F.);
#673=ORIENTED_EDGE('',*,*,#518,.T.);
#674=ORIENTED_EDGE('',*,*,#525,.F.);
#675=ORIENTED_EDGE('',*,*,#526,.F.);
#676=ORIENTED_EDGE('',*,*,#527,.F.);
#677=ORIENTED_EDGE('',*,*,#528,.T.);
#678=ORIENTED_EDGE('',*,*,#529,.F.);
#679=ORIENTED_EDGE('',*,*,#528,.F.);
#680=ORIENTED_EDGE('',*,*,#530,.F.);
#681=ORIENTED_EDGE('',*,*,#471,.T.);
#682=ORIENTED_EDGE('',*,*,#467,.F.);
#683=ORIENTED_EDGE('',*,*,#531,.F.);
#684=ORIENTED_EDGE('',*,*,#469,.F.);
#685=ORIENTED_EDGE('',*,*,#473,.F.);
#686=ORIENTED_EDGE('',*,*,#532,.F.);
#687=ORIENTED_EDGE('',*,*,#526,.T.);
#688=ORIENTED_EDGE('',*,*,#533,.F.);
#689=ORIENTED_EDGE('',*,*,#534,.F.);
#690=ORIENTED_EDGE('',*,*,#535,.F.);
#691=ORIENTED_EDGE('',*,*,#536,.T.);
#692=ORIENTED_EDGE('',*,*,#537,.F.);
#693=ORIENTED_EDGE('',*,*,#536,.F.);
#694=ORIENTED_EDGE('',*,*,#538,.F.);
#695=ORIENTED_EDGE('',*,*,#478,.T.);
#696=ORIENTED_EDGE('',*,*,#474,.F.);
#697=ORIENTED_EDGE('',*,*,#539,.F.);
#698=ORIENTED_EDGE('',*,*,#476,.F.);
#699=ORIENTED_EDGE('',*,*,#480,.F.);
#700=ORIENTED_EDGE('',*,*,#540,.F.);
#701=ORIENTED_EDGE('',*,*,#534,.T.);
#702=ORIENTED_EDGE('',*,*,#541,.F.);
#703=ORIENTED_EDGE('',*,*,#542,.F.);
#704=ORIENTED_EDGE('',*,*,#543,.F.);
#705=ORIENTED_EDGE('',*,*,#544,.T.);
#706=ORIENTED_EDGE('',*,*,#545,.F.);
#707=ORIENTED_EDGE('',*,*,#544,.F.);
#708=ORIENTED_EDGE('',*,*,#546,.F.);
#709=ORIENTED_EDGE('',*,*,#485,.T.);
#710=ORIENTED_EDGE('',*,*,#481,.F.);
#711=ORIENTED_EDGE('',*,*,#547,.F.);
#712=ORIENTED_EDGE('',*,*,#483,.F.);
#713=ORIENTED_EDGE('',*,*,#487,.F.);
#714=ORIENTED_EDGE('',*,*,#548,.F.);
#715=ORIENTED_EDGE('',*,*,#542,.T.);
#716=ORIENTED_EDGE('',*,*,#549,.F.);
#717=ORIENTED_EDGE('',*,*,#550,.F.);
#718=ORIENTED_EDGE('',*,*,#551,.F.);
#719=ORIENTED_EDGE('',*,*,#552,.T.);
#720=ORIENTED_EDGE('',*,*,#553,.F.);
#721=ORIENTED_EDGE('',*,*,#552,.F.);
#722=ORIENTED_EDGE('',*,*,#554,.F.);
#723=ORIENTED_EDGE('',*,*,#492,.T.);
#724=ORIENTED_EDGE('',*,*,#488,.F.);
#725=ORIENTED_EDGE('',*,*,#555,.F.);
#726=ORIENTED_EDGE('',*,*,#490,.F.);
#727=ORIENTED_EDGE('',*,*,#494,.F.);
#728=ORIENTED_EDGE('',*,*,#556,.F.);
#729=ORIENTED_EDGE('',*,*,#550,.T.);
#730=ORIENTED_EDGE('',*,*,#557,.F.);
#731=ORIENTED_EDGE('',*,*,#558,.F.);
#732=ORIENTED_EDGE('',*,*,#559,.F.);
#733=ORIENTED_EDGE('',*,*,#560,.T.);
#734=ORIENTED_EDGE('',*,*,#561,.F.);
#735=ORIENTED_EDGE('',*,*,#560,.F.);
#736=ORIENTED_EDGE('',*,*,#562,.F.);
#737=ORIENTED_EDGE('',*,*,#499,.T.);
#738=ORIENTED_EDGE('',*,*,#495,.F.);
#739=ORIENTED_EDGE('',*,*,#563,.F.);
#740=ORIENTED_EDGE('',*,*,#497,.F.);
#741=ORIENTED_EDGE('',*,*,#501,.F.);
#742=ORIENTED_EDGE('',*,*,#564,.F.);
#743=ORIENTED_EDGE('',*,*,#558,.T.);
#744=ORIENTED_EDGE('',*,*,#565,.T.);
#745=ORIENTED_EDGE('',*,*,#566,.T.);
#746=ORIENTED_EDGE('',*,*,#567,.T.);
#747=ORIENTED_EDGE('',*,*,#568,.T.);
#748=ORIENTED_EDGE('',*,*,#569,.T.);
#749=ORIENTED_EDGE('',*,*,#570,.T.);
#750=ORIENTED_EDGE('',*,*,#523,.T.);
#751=ORIENTED_EDGE('',*,*,#517,.T.);
#752=ORIENTED_EDGE('',*,*,#521,.T.);
#753=ORIENTED_EDGE('',*,*,#463,.F.);
#754=ORIENTED_EDGE('',*,*,#531,.T.);
#755=ORIENTED_EDGE('',*,*,#525,.T.);
#756=ORIENTED_EDGE('',*,*,#529,.T.);
#757=ORIENTED_EDGE('',*,*,#470,.F.);
#758=ORIENTED_EDGE('',*,*,#539,.T.);
#759=ORIENTED_EDGE('',*,*,#533,.T.);
#760=ORIENTED_EDGE('',*,*,#537,.T.);
#761=ORIENTED_EDGE('',*,*,#477,.F.);
#762=ORIENTED_EDGE('',*,*,#547,.T.);
#763=ORIENTED_EDGE('',*,*,#541,.T.);
#764=ORIENTED_EDGE('',*,*,#545,.T.);
#765=ORIENTED_EDGE('',*,*,#484,.F.);
#766=ORIENTED_EDGE('',*,*,#555,.T.);
#767=ORIENTED_EDGE('',*,*,#549,.T.);
#768=ORIENTED_EDGE('',*,*,#553,.T.);
#769=ORIENTED_EDGE('',*,*,#491,.F.);
#770=ORIENTED_EDGE('',*,*,#563,.T.);
#771=ORIENTED_EDGE('',*,*,#557,.T.);
#772=ORIENTED_EDGE('',*,*,#561,.T.);
#773=ORIENTED_EDGE('',*,*,#498,.F.);
#774=ORIENTED_EDGE('',*,*,#571,.F.);
#775=ORIENTED_EDGE('',*,*,#572,.F.);
#776=ORIENTED_EDGE('',*,*,#573,.F.);
#777=ORIENTED_EDGE('',*,*,#574,.F.);
#778=ORIENTED_EDGE('',*,*,#575,.F.);
#779=ORIENTED_EDGE('',*,*,#576,.F.);
#780=ORIENTED_EDGE('',*,*,#514,.T.);
#781=ORIENTED_EDGE('',*,*,#571,.T.);
#782=ORIENTED_EDGE('',*,*,#577,.T.);
#783=ORIENTED_EDGE('',*,*,#565,.F.);
#784=ORIENTED_EDGE('',*,*,#578,.F.);
#785=ORIENTED_EDGE('',*,*,#500,.T.);
#786=ORIENTED_EDGE('',*,*,#562,.T.);
#787=ORIENTED_EDGE('',*,*,#559,.T.);
#788=ORIENTED_EDGE('',*,*,#564,.T.);
#789=ORIENTED_EDGE('',*,*,#576,.T.);
#790=ORIENTED_EDGE('',*,*,#579,.T.);
#791=ORIENTED_EDGE('',*,*,#566,.F.);
#792=ORIENTED_EDGE('',*,*,#577,.F.);
#793=ORIENTED_EDGE('',*,*,#465,.T.);
#794=ORIENTED_EDGE('',*,*,#522,.T.);
#795=ORIENTED_EDGE('',*,*,#519,.T.);
#796=ORIENTED_EDGE('',*,*,#524,.T.);
#797=ORIENTED_EDGE('',*,*,#575,.T.);
#798=ORIENTED_EDGE('',*,*,#580,.T.);
#799=ORIENTED_EDGE('',*,*,#567,.F.);
#800=ORIENTED_EDGE('',*,*,#579,.F.);
#801=ORIENTED_EDGE('',*,*,#472,.T.);
#802=ORIENTED_EDGE('',*,*,#530,.T.);
#803=ORIENTED_EDGE('',*,*,#527,.T.);
#804=ORIENTED_EDGE('',*,*,#532,.T.);
#805=ORIENTED_EDGE('',*,*,#574,.T.);
#806=ORIENTED_EDGE('',*,*,#581,.T.);
#807=ORIENTED_EDGE('',*,*,#568,.F.);
#808=ORIENTED_EDGE('',*,*,#580,.F.);
#809=ORIENTED_EDGE('',*,*,#479,.T.);
#810=ORIENTED_EDGE('',*,*,#538,.T.);
#811=ORIENTED_EDGE('',*,*,#535,.T.);
#812=ORIENTED_EDGE('',*,*,#540,.T.);
#813=ORIENTED_EDGE('',*,*,#573,.T.);
#814=ORIENTED_EDGE('',*,*,#582,.T.);
#815=ORIENTED_EDGE('',*,*,#569,.F.);
#816=ORIENTED_EDGE('',*,*,#581,.F.);
#817=ORIENTED_EDGE('',*,*,#486,.T.);
#818=ORIENTED_EDGE('',*,*,#546,.T.);
#819=ORIENTED_EDGE('',*,*,#543,.T.);
#820=ORIENTED_EDGE('',*,*,#548,.T.);
#821=ORIENTED_EDGE('',*,*,#572,.T.);
#822=ORIENTED_EDGE('',*,*,#578,.T.);
#823=ORIENTED_EDGE('',*,*,#570,.F.);
#824=ORIENTED_EDGE('',*,*,#582,.F.);
#825=ORIENTED_EDGE('',*,*,#493,.T.);
#826=ORIENTED_EDGE('',*,*,#554,.T.);
#827=ORIENTED_EDGE('',*,*,#551,.T.);
#828=ORIENTED_EDGE('',*,*,#556,.T.);
#829=PLANE('',#932);
#830=PLANE('',#933);
#831=PLANE('',#934);
#832=PLANE('',#935);
#833=PLANE('',#936);
#834=PLANE('',#937);
#835=PLANE('',#938);
#836=PLANE('',#939);
#837=PLANE('',#940);
#838=PLANE('',#941);
#839=PLANE('',#942);
#840=PLANE('',#943);
#841=PLANE('',#944);
#842=PLANE('',#945);
#843=PLANE('',#946);
#844=PLANE('',#947);
#845=PLANE('',#948);
#846=PLANE('',#952);
#847=PLANE('',#953);
#848=PLANE('',#954);
#849=PLANE('',#955);
#850=PLANE('',#956);
#851=PLANE('',#957);
#852=PLANE('',#958);
#853=PLANE('',#959);
#854=PLANE('',#960);
#855=PLANE('',#961);
#856=PLANE('',#962);
#857=PLANE('',#963);
#858=PLANE('',#964);
#859=PLANE('',#965);
#860=PLANE('',#966);
#861=PLANE('',#967);
#862=PLANE('',#968);
#863=PLANE('',#969);
#864=PLANE('',#970);
#865=PLANE('',#971);
#866=PLANE('',#972);
#867=PLANE('',#973);
#868=PLANE('',#974);
#869=PLANE('',#975);
#870=PLANE('',#976);
#871=PLANE('',#977);
#872=PLANE('',#978);
#873=ADVANCED_FACE('',(#32),#829,.T.);
#874=ADVANCED_FACE('',(#33),#830,.F.);
#875=ADVANCED_FACE('',(#34),#831,.T.);
#876=ADVANCED_FACE('',(#35),#832,.F.);
#877=ADVANCED_FACE('',(#36),#833,.T.);
#878=ADVANCED_FACE('',(#37),#834,.F.);
#879=ADVANCED_FACE('',(#38),#835,.T.);
#880=ADVANCED_FACE('',(#39),#836,.F.);
#881=ADVANCED_FACE('',(#40),#837,.T.);
#882=ADVANCED_FACE('',(#41),#838,.F.);
#883=ADVANCED_FACE('',(#42),#839,.T.);
#884=ADVANCED_FACE('',(#43),#840,.F.);
#885=ADVANCED_FACE('',(#44),#841,.F.);
#886=ADVANCED_FACE('',(#45),#842,.F.);
#887=ADVANCED_FACE('',(#46),#843,.F.);
#888=ADVANCED_FACE('',(#47),#844,.F.);
#889=ADVANCED_FACE('',(#48),#845,.F.);
#890=ADVANCED_FACE('',(#49),#31,.F.);
#891=ADVANCED_FACE('',(#50,#15),#846,.T.);
#892=ADVANCED_FACE('',(#51),#847,.F.);
#893=ADVANCED_FACE('',(#52),#848,.F.);
#894=ADVANCED_FACE('',(#53),#849,.F.);
#895=ADVANCED_FACE('',(#54),#850,.F.);
#896=ADVANCED_FACE('',(#55),#851,.F.);
#897=ADVANCED_FACE('',(#56),#852,.F.);
#898=ADVANCED_FACE('',(#57),#853,.F.);
#899=ADVANCED_FACE('',(#58),#854,.F.);
#900=ADVANCED_FACE('',(#59),#855,.F.);
#901=ADVANCED_FACE('',(#60),#856,.F.);
#902=ADVANCED_FACE('',(#61),#857,.F.);
#903=ADVANCED_FACE('',(#62),#858,.F.);
#904=ADVANCED_FACE('',(#63),#859,.F.);
#905=ADVANCED_FACE('',(#64),#860,.F.);
#906=ADVANCED_FACE('',(#65),#861,.F.);
#907=ADVANCED_FACE('',(#66),#862,.F.);
#908=ADVANCED_FACE('',(#67),#863,.F.);
#909=ADVANCED_FACE('',(#68),#864,.F.);
#910=ADVANCED_FACE('',(#69,#16,#17,#18,#19,#20,#21),#865,.F.);
#911=ADVANCED_FACE('',(#70,#22),#866,.T.);
#912=ADVANCED_FACE('',(#71,#23),#867,.T.);
#913=ADVANCED_FACE('',(#72,#24),#868,.T.);
#914=ADVANCED_FACE('',(#73,#25),#869,.T.);
#915=ADVANCED_FACE('',(#74,#26),#870,.T.);
#916=ADVANCED_FACE('',(#75,#27),#871,.T.);
#917=ADVANCED_FACE('',(#76,#28),#872,.T.);
#918=CLOSED_SHELL('',(#873,#874,#875,#876,#877,#878,#879,#880,#881,#882, #883,#884,#885,#886,#887,#888,#889,#890,#891,#892,#893,#894,#895,#896,#897, #898,#899,#900,#901,#902,#903,#904,#905,#906,#907,#908,#909,#910,#911,#912, #913,#914,#915,#916,#917));
#919=DERIVED_UNIT_ELEMENT(#921,1.);
#920=DERIVED_UNIT_ELEMENT(#1452,-3.);
#921=( MASS_UNIT() NAMED_UNIT(*) SI_UNIT(.KILO.,.GRAM.) );
#922=DERIVED_UNIT((#919,#920));
#923=MEASURE_REPRESENTATION_ITEM('density measure', POSITIVE_RATIO_MEASURE(7850.),#922);
#924=PROPERTY_DEFINITION_REPRESENTATION(#929,#926);
#925=PROPERTY_DEFINITION_REPRESENTATION(#930,#927);
#926=REPRESENTATION('material name',(#928),#1449);
#927=REPRESENTATION('density',(#923),#1449);
#928=DESCRIPTIVE_REPRESENTATION_ITEM('Steel','Steel');
#929=PROPERTY_DEFINITION('material property','material name',#1459);
#930=PROPERTY_DEFINITION('material property','density of part',#1459);
#931=AXIS2_PLACEMENT_3D('',#1196,#979,#980);
#932=AXIS2_PLACEMENT_3D('',#1197,#981,#982);
#933=AXIS2_PLACEMENT_3D('',#1206,#987,#988);
#934=AXIS2_PLACEMENT_3D('',#1212,#992,#993);
#935=AXIS2_PLACEMENT_3D('',#1221,#998,#999);
#936=AXIS2_PLACEMENT_3D('',#1227,#1003,#1004);
#937=AXIS2_PLACEMENT_3D('',#1236,#1009,#1010);
#938=AXIS2_PLACEMENT_3D('',#1242,#1014,#1015);
#939=AXIS2_PLACEMENT_3D('',#1251,#1020,#1021);
#940=AXIS2_PLACEMENT_3D('',#1257,#1025,#1026);
#941=AXIS2_PLACEMENT_3D('',#1266,#1031,#1032);
#942=AXIS2_PLACEMENT_3D('',#1272,#1036,#1037);
#943=AXIS2_PLACEMENT_3D('',#1281,#1042,#1043);
#944=AXIS2_PLACEMENT_3D('',#1287,#1047,#1048);
#945=AXIS2_PLACEMENT_3D('',#1296,#1053,#1054);
#946=AXIS2_PLACEMENT_3D('',#1302,#1058,#1059);
#947=AXIS2_PLACEMENT_3D('',#1308,#1063,#1064);
#948=AXIS2_PLACEMENT_3D('',#1310,#1066,#1067);
#949=AXIS2_PLACEMENT_3D('',#1312,#1069,#1070);
#950=AXIS2_PLACEMENT_3D('',#1314,#1071,#1072);
#951=AXIS2_PLACEMENT_3D('',#1317,#1074,#1075);
#952=AXIS2_PLACEMENT_3D('',#1318,#1076,#1077);
#953=AXIS2_PLACEMENT_3D('',#1319,#1078,#1079);
#954=AXIS2_PLACEMENT_3D('',#1328,#1084,#1085);
#955=AXIS2_PLACEMENT_3D('',#1331,#1088,#1089);
#956=AXIS2_PLACEMENT_3D('',#1334,#1092,#1093);
#957=AXIS2_PLACEMENT_3D('',#1343,#1098,#1099);
#958=AXIS2_PLACEMENT_3D('',#1346,#1102,#1103);
#959=AXIS2_PLACEMENT_3D('',#1349,#1106,#1107);
#960=AXIS2_PLACEMENT_3D('',#1358,#1112,#1113);
#961=AXIS2_PLACEMENT_3D('',#1361,#1116,#1117);
#962=AXIS2_PLACEMENT_3D('',#1364,#1120,#1121);
#963=AXIS2_PLACEMENT_3D('',#1373,#1126,#1127);
#964=AXIS2_PLACEMENT_3D('',#1376,#1130,#1131);
#965=AXIS2_PLACEMENT_3D('',#1379,#1134,#1135);
#966=AXIS2_PLACEMENT_3D('',#1388,#1140,#1141);
#967=AXIS2_PLACEMENT_3D('',#1391,#1144,#1145);
#968=AXIS2_PLACEMENT_3D('',#1394,#1148,#1149);
#969=AXIS2_PLACEMENT_3D('',#1403,#1154,#1155);
#970=AXIS2_PLACEMENT_3D('',#1406,#1158,#1159);
#971=AXIS2_PLACEMENT_3D('',#1409,#1162,#1163);
#972=AXIS2_PLACEMENT_3D('',#1422,#1170,#1171);
#973=AXIS2_PLACEMENT_3D('',#1435,#1178,#1179);
#974=AXIS2_PLACEMENT_3D('',#1438,#1182,#1183);
#975=AXIS2_PLACEMENT_3D('',#1440,#1185,#1186);
#976=AXIS2_PLACEMENT_3D('',#1442,#1188,#1189);
#977=AXIS2_PLACEMENT_3D('',#1444,#1191,#1192);
#978=AXIS2_PLACEMENT_3D('',#1446,#1194,#1195);
#979=DIRECTION('axis',(0.,0.,1.));
#980=DIRECTION('refdir',(1.,0.,0.));
#981=DIRECTION('center_axis',(0.612372435695795,0.353553390593273,-0.707106781186548));
#982=DIRECTION('ref_axis',(-0.755928946018454,0.,-0.654653670707977));
#983=DIRECTION('',(-0.377964473009227,-0.654653670707977,-0.654653670707977));
#984=DIRECTION('',(0.499999999999999,-0.866025403784439,0.));
#985=DIRECTION('',(0.755928946018454,2.06395364160019E-16,0.654653670707977));
#986=DIRECTION('',(-0.499999999999999,0.866025403784439,0.));
#987=DIRECTION('center_axis',(-0.866025403784439,-0.5,-1.33417167039077E-16));
#988=DIRECTION('ref_axis',(-0.499999999999999,0.866025403784439,7.70284373045276E-17));
#989=DIRECTION('',(7.70284373045287E-17,1.33417167039077E-16,-1.));
#990=DIRECTION('',(-0.499999999999999,0.866025403784439,-1.08950035507671E-15));
#991=DIRECTION('',(7.70284373045287E-17,1.33417167039077E-16,-1.));
#992=DIRECTION('center_axis',(0.612372435695794,-0.353553390593274,-0.707106781186548));
#993=DIRECTION('ref_axis',(-0.755928946018455,0.,-0.654653670707977));
#994=DIRECTION('',(-0.755928946018455,1.29304524180107E-16,-0.654653670707977));
#995=DIRECTION('',(-0.5,-0.866025403784438,7.40614053635221E-33));
#996=DIRECTION('',(0.377964473009227,-0.654653670707977,0.654653670707977));
#997=DIRECTION('',(0.5,0.866025403784438,0.));
#998=DIRECTION('center_axis',(-0.866025403784439,0.5,-1.33417167039077E-16));
#999=DIRECTION('ref_axis',(0.5,0.866025403784439,2.31085311913585E-16));
#1000=DIRECTION('',(2.31085311913586E-16,1.33417167039077E-16,-1.));
#1001=DIRECTION('',(0.5,0.866025403784439,-3.6316678502557E-16));
#1002=DIRECTION('',(2.31085311913586E-16,1.33417167039077E-16,-1.));
#1003=DIRECTION('center_axis',(7.54266255223641E-17,-0.707106781186548, -0.707106781186548));
#1004=DIRECTION('ref_axis',(-1.,0.,-1.06669356777764E-16));
#1005=DIRECTION('',(-0.377964473009227,0.654653670707977,-0.654653670707977));
#1006=DIRECTION('',(-1.,-1.06669356777764E-16,0.));
#1007=DIRECTION('',(-0.377964473009227,-0.654653670707977,0.654653670707977));
#1008=DIRECTION('',(1.,1.06669356777764E-16,0.));
#1009=DIRECTION('center_axis',(-1.06669356777764E-16,1.,-5.17328212811442E-32));
#1010=DIRECTION('ref_axis',(1.,1.06669356777764E-16,3.08113749218113E-16));
#1011=DIRECTION('',(3.08113749218114E-16,-1.88665258376627E-32,-1.));
#1012=DIRECTION('',(1.,1.06669356777764E-16,1.83291993942279E-16));
#1013=DIRECTION('',(3.08113749218114E-16,-1.88665258376627E-32,-1.));
#1014=DIRECTION('center_axis',(-0.612372435695794,-0.353553390593274,-0.707106781186548));
#1015=DIRECTION('ref_axis',(-0.755928946018455,0.,0.654653670707977));
#1016=DIRECTION('',(0.377964473009227,0.654653670707977,-0.654653670707977));
#1017=DIRECTION('',(-0.5,0.866025403784439,0.));
#1018=DIRECTION('',(-0.755928946018454,-6.26020224585176E-16,0.654653670707977));
#1019=DIRECTION('',(0.5,-0.866025403784439,0.));
#1020=DIRECTION('center_axis',(0.866025403784439,0.5,1.33417167039077E-16));
#1021=DIRECTION('ref_axis',(0.5,-0.866025403784439,2.31085311913585E-16));
#1022=DIRECTION('',(2.31085311913586E-16,-1.33417167039077E-16,-1.));
#1023=DIRECTION('',(0.5,-0.866025403784439,0.));
#1024=DIRECTION('',(2.31085311913586E-16,-1.33417167039077E-16,-1.));
#1025=DIRECTION('center_axis',(-0.612372435695794,0.353553390593274,-0.707106781186548));
#1026=DIRECTION('ref_axis',(-0.755928946018455,0.,0.654653670707977));
#1027=DIRECTION('',(0.755928946018455,1.64432878117503E-16,-0.654653670707977));
#1028=DIRECTION('',(0.5,0.866025403784439,0.));
#1029=DIRECTION('',(-0.377964473009228,0.654653670707977,0.654653670707977));
#1030=DIRECTION('',(-0.5,-0.866025403784439,0.));
#1031=DIRECTION('center_axis',(0.866025403784439,-0.5,1.33417167039077E-16));
#1032=DIRECTION('ref_axis',(-0.5,-0.866025403784439,7.70284373045275E-17));
#1033=DIRECTION('',(7.70284373045285E-17,-1.33417167039077E-16,-1.));
#1034=DIRECTION('',(-0.5,-0.866025403784439,-7.26333570051139E-17));
#1035=DIRECTION('',(7.70284373045285E-17,-1.33417167039077E-16,-1.));
#1036=DIRECTION('center_axis',(-1.62022231145913E-16,0.707106781186548, -0.707106781186548));
#1037=DIRECTION('ref_axis',(-1.,0.,2.29134036692499E-16));
#1038=DIRECTION('',(0.377964473009228,-0.654653670707977,-0.654653670707977));
#1039=DIRECTION('',(1.,2.29134036692499E-16,0.));
#1040=DIRECTION('',(0.377964473009226,0.654653670707977,0.654653670707977));
#1041=DIRECTION('',(-1.,-2.29134036692499E-16,0.));
#1042=DIRECTION('center_axis',(2.29134036692499E-16,-1.,0.));
#1043=DIRECTION('ref_axis',(-1.,-2.29134036692499E-16,-1.04971511007453E-30));
#1044=DIRECTION('',(0.,0.,-1.));
#1045=DIRECTION('',(-1.,-2.29134036692499E-16,-8.64990954438174E-17));
#1046=DIRECTION('',(0.,0.,-1.));
#1047=DIRECTION('center_axis',(-1.,0.,0.));
#1048=DIRECTION('ref_axis',(0.,0.,1.));
#1049=DIRECTION('',(0.,-1.,0.));
#1050=DIRECTION('',(0.,-5.55111512312579E-16,-1.));
#1051=DIRECTION('',(0.,1.,1.09345323966097E-30));
#1052=DIRECTION('',(0.,0.,1.));
#1053=DIRECTION('center_axis',(0.,-1.,0.));
#1054=DIRECTION('ref_axis',(0.,0.,-1.));
#1055=DIRECTION('',(-1.,0.,0.));
#1056=DIRECTION('',(-1.,0.,-1.04971511007453E-30));
#1057=DIRECTION('',(0.,0.,-1.));
#1058=DIRECTION('center_axis',(0.,1.,-5.55111512312579E-16));
#1059=DIRECTION('ref_axis',(0.,5.55111512312579E-16,1.));
#1060=DIRECTION('',(1.,5.82708942250839E-46,1.04971511007453E-30));
#1061=DIRECTION('',(1.,0.,0.));
#1062=DIRECTION('',(0.,5.55111512312579E-16,1.));
#1063=DIRECTION('center_axis',(0.,0.,-1.));
#1064=DIRECTION('ref_axis',(0.,1.,0.));
#1065=DIRECTION('',(0.,1.,0.));
#1066=DIRECTION('center_axis',(1.,0.,0.));
#1067=DIRECTION('ref_axis',(0.,0.,-1.));
#1068=DIRECTION('',(0.,-1.,-1.09345323966097E-30));
#1069=DIRECTION('center_axis',(0.,0.,-1.));
#1070=DIRECTION('ref_axis',(-1.,0.,0.));
#1071=DIRECTION('center_axis',(1.04971511007453E-30,1.09345323966097E-30, -1.));
#1072=DIRECTION('ref_axis',(-1.,0.,0.));
#1073=DIRECTION('',(0.,0.,-1.));
#1074=DIRECTION('center_axis',(1.04971511007453E-30,1.09345323966097E-30, -1.));
#1075=DIRECTION('ref_axis',(-1.,0.,-1.04971511007453E-30));
#1076=DIRECTION('center_axis',(-1.04971511007453E-30,-1.09345323966097E-30, 1.));
#1077=DIRECTION('ref_axis',(-1.,0.,-1.04971511007453E-30));
#1078=DIRECTION('center_axis',(0.866025403784439,0.5,1.33417167039077E-16));
#1079=DIRECTION('ref_axis',(0.5,-0.866025403784439,-7.70284373045283E-17));
#1080=DIRECTION('',(-0.5,0.866025403784439,0.));
#1081=DIRECTION('',(7.70284373045287E-17,1.33417167039077E-16,-1.));
#1082=DIRECTION('',(0.5,-0.866025403784439,8.71600284061367E-16));
#1083=DIRECTION('',(7.70284373045287E-17,1.33417167039077E-16,-1.));
#1084=DIRECTION('center_axis',(-0.866025403784439,0.5,-1.23259516440783E-32));
#1085=DIRECTION('ref_axis',(0.5,0.866025403784438,1.54056874609057E-16));
#1086=DIRECTION('',(-0.5,-0.866025403784438,0.));
#1087=DIRECTION('',(0.403695561128949,0.699221222665367,-0.590016589342311));
#1088=DIRECTION('center_axis',(3.88578058618805E-16,-1.,-1.33417167039077E-16));
#1089=DIRECTION('ref_axis',(-1.,-3.88578058618805E-16,-7.70284373045283E-17));
#1090=DIRECTION('',(1.,3.88578058618805E-16,0.));
#1091=DIRECTION('',(-0.807391122257898,-3.92452816689142E-16,0.59001658934231));
#1092=DIRECTION('center_axis',(0.866025403784439,-0.5,1.33417167039077E-16));
#1093=DIRECTION('ref_axis',(-0.5,-0.866025403784439,-2.31085311913585E-16));
#1094=DIRECTION('',(0.5,0.866025403784439,0.));
#1095=DIRECTION('',(2.31085311913586E-16,1.33417167039077E-16,-1.));
#1096=DIRECTION('',(-0.5,-0.866025403784439,2.17900071015342E-16));
#1097=DIRECTION('',(2.31085311913586E-16,1.33417167039077E-16,-1.));
#1098=DIRECTION('center_axis',(5.55111512312578E-17,1.,1.33417167039077E-16));
#1099=DIRECTION('ref_axis',(1.,-5.55111512312578E-17,2.31085311913586E-16));
#1100=DIRECTION('',(-1.,5.55111512312578E-17,0.));
#1101=DIRECTION('',(0.807391122257898,3.38991311656765E-17,-0.59001658934231));
#1102=DIRECTION('center_axis',(-0.866025403784438,-0.500000000000001,-2.66834334078155E-16));
#1103=DIRECTION('ref_axis',(-0.500000000000001,0.866025403784438,1.32991030455772E-31));
#1104=DIRECTION('',(0.500000000000001,-0.866025403784438,0.));
#1105=DIRECTION('',(-0.403695561128949,0.699221222665367,0.59001658934231));
#1106=DIRECTION('center_axis',(3.6900743601127E-16,-1.,1.32562790436459E-31));
#1107=DIRECTION('ref_axis',(-1.,-3.6900743601127E-16,-3.08113749218114E-16));
#1108=DIRECTION('',(1.,3.6900743601127E-16,0.));
#1109=DIRECTION('',(3.08113749218114E-16,-1.88665258376627E-32,-1.));
#1110=DIRECTION('',(-1.,-3.6900743601127E-16,-4.04658013374505E-16));
#1111=DIRECTION('',(3.08113749218114E-16,-1.88665258376627E-32,-1.));
#1112=DIRECTION('center_axis',(0.866025403784439,0.5,2.66834334078155E-16));
#1113=DIRECTION('ref_axis',(0.5,-0.866025403784438,1.54056874609057E-16));
#1114=DIRECTION('',(-0.5,0.866025403784438,0.));
#1115=DIRECTION('',(0.403695561128949,-0.699221222665367,-0.59001658934231));
#1116=DIRECTION('center_axis',(-0.866025403784439,0.499999999999999,-2.66834334078155E-16));
#1117=DIRECTION('ref_axis',(0.499999999999999,0.866025403784439,1.54056874609057E-16));
#1118=DIRECTION('',(-0.499999999999999,-0.866025403784439,0.));
#1119=DIRECTION('',(0.403695561128948,0.699221222665367,0.59001658934231));
#1120=DIRECTION('center_axis',(-0.866025403784439,-0.5,-1.33417167039077E-16));
#1121=DIRECTION('ref_axis',(-0.5,0.866025403784439,-2.31085311913585E-16));
#1122=DIRECTION('',(0.5,-0.866025403784439,0.));
#1123=DIRECTION('',(2.31085311913586E-16,-1.33417167039077E-16,-1.));
#1124=DIRECTION('',(-0.5,0.866025403784439,-1.45266714010228E-16));
#1125=DIRECTION('',(2.31085311913586E-16,-1.33417167039077E-16,-1.));
#1126=DIRECTION('center_axis',(0.866025403784439,-0.5,2.66834334078155E-16));
#1127=DIRECTION('ref_axis',(-0.5,-0.866025403784439,2.58808411219689E-31));
#1128=DIRECTION('',(0.5,0.866025403784439,0.));
#1129=DIRECTION('',(-0.403695561128949,-0.699221222665367,-0.59001658934231));
#1130=DIRECTION('center_axis',(-9.43689570931383E-16,1.,-1.33417167039078E-16));
#1131=DIRECTION('ref_axis',(1.,9.43689570931383E-16,2.31085311913586E-16));
#1132=DIRECTION('',(-1.,-9.43689570931383E-16,0.));
#1133=DIRECTION('',(0.807391122257898,8.40644923593473E-16,0.59001658934231));
#1134=DIRECTION('center_axis',(-0.866025403784439,0.5,-1.33417167039077E-16));
#1135=DIRECTION('ref_axis',(0.5,0.866025403784439,-7.70284373045283E-17));
#1136=DIRECTION('',(-0.5,-0.866025403784439,0.));
#1137=DIRECTION('',(7.70284373045285E-17,-1.33417167039077E-16,-1.));
#1138=DIRECTION('',(0.5,0.866025403784439,-1.45266714010228E-16));
#1139=DIRECTION('',(7.70284373045285E-17,-1.33417167039077E-16,-1.));
#1140=DIRECTION('center_axis',(3.33066907387547E-16,-1.,1.33417167039077E-16));
#1141=DIRECTION('ref_axis',(-1.,-3.33066907387547E-16,-7.70284373045283E-17));
#1142=DIRECTION('',(1.,3.33066907387547E-16,0.));
#1143=DIRECTION('',(-0.807391122257898,-3.47633605998709E-16,-0.59001658934231));
#1144=DIRECTION('center_axis',(0.866025403784438,0.500000000000001,-1.84889274661175E-31));
#1145=DIRECTION('ref_axis',(0.500000000000001,-0.866025403784438,1.54056874609057E-16));
#1146=DIRECTION('',(-0.500000000000001,0.866025403784438,0.));
#1147=DIRECTION('',(0.40369556112895,-0.699221222665366,0.59001658934231));
#1148=DIRECTION('center_axis',(-4.91472115926006E-16,1.,0.));
#1149=DIRECTION('ref_axis',(1.,4.91472115926006E-16,3.12583451333195E-31));
#1150=DIRECTION('',(-1.,-4.91472115926006E-16,0.));
#1151=DIRECTION('',(0.,0.,-1.));
#1152=DIRECTION('',(1.,4.91472115926006E-16,-1.34866923988408E-16));
#1153=DIRECTION('',(0.,0.,-1.));
#1154=DIRECTION('center_axis',(-0.866025403784438,-0.5,0.));
#1155=DIRECTION('ref_axis',(-0.5,0.866025403784438,1.84852701355219E-31));
#1156=DIRECTION('',(0.5,-0.866025403784438,0.));
#1157=DIRECTION('',(-0.403695561128949,0.699221222665367,-0.59001658934231));
#1158=DIRECTION('center_axis',(0.866025403784439,-0.499999999999999,0.));
#1159=DIRECTION('ref_axis',(-0.499999999999999,-0.866025403784439,3.54858160049182E-31));
#1160=DIRECTION('',(0.499999999999999,0.866025403784439,0.));
#1161=DIRECTION('',(-0.403695561128948,-0.699221222665367,0.59001658934231));
#1162=DIRECTION('center_axis',(0.,0.,1.));
#1163=DIRECTION('ref_axis',(1.,0.,0.));
#1164=DIRECTION('',(1.,3.5527136788005E-16,-3.6443947792124E-32));
#1165=DIRECTION('',(0.500000000000001,-0.866025403784438,8.88373999585274E-17));
#1166=DIRECTION('',(-0.5,-0.866025403784439,8.88373999585274E-17));
#1167=DIRECTION('',(-1.,8.88178419700125E-17,-9.11098694803099E-33));
#1168=DIRECTION('',(-0.5,0.866025403784439,-8.88373999585274E-17));
#1169=DIRECTION('',(0.5,0.866025403784439,-8.88373999585274E-17));
#1170=DIRECTION('center_axis',(-1.04971511007453E-30,-1.09345323966097E-30, 1.));
#1171=DIRECTION('ref_axis',(1.,0.,1.04971511007453E-30));
#1172=DIRECTION('',(1.,3.70074341541719E-16,-4.84769910264147E-32));
#1173=DIRECTION('',(0.5,0.866025403784439,-8.88373999585275E-17));
#1174=DIRECTION('',(-0.5,0.866025403784439,-8.88373999585274E-17));
#1175=DIRECTION('',(-1.,0.,1.0514545409619E-32));
#1176=DIRECTION('',(-0.5,-0.866025403784439,8.88373999585274E-17));
#1177=DIRECTION('',(0.5,-0.866025403784439,8.88373999585275E-17));
#1178=DIRECTION('center_axis',(-2.13877256866293E-16,0.644902021637024, 0.76426525662788));
#1179=DIRECTION('ref_axis',(1.,0.,2.79846892177162E-16));
#1180=DIRECTION('',(0.403695561128948,0.699221222665367,-0.59001658934231));
#1181=DIRECTION('',(-0.403695561128949,0.699221222665367,-0.59001658934231));
#1182=DIRECTION('center_axis',(0.558501533689605,0.322451010818513,0.76426525662788));
#1183=DIRECTION('ref_axis',(0.807391122257898,0.,-0.59001658934231));
#1184=DIRECTION('',(0.807391122257898,1.17219474113441E-15,-0.59001658934231));
#1185=DIRECTION('center_axis',(0.558501533689605,-0.322451010818512,0.76426525662788));
#1186=DIRECTION('ref_axis',(0.807391122257898,0.,-0.59001658934231));
#1187=DIRECTION('',(0.403695561128949,-0.699221222665367,-0.59001658934231));
#1188=DIRECTION('center_axis',(-7.12924189554311E-17,-0.644902021637024, 0.76426525662788));
#1189=DIRECTION('ref_axis',(1.,0.,9.32822973923873E-17));
#1190=DIRECTION('',(-0.403695561128949,-0.699221222665367,-0.59001658934231));
#1191=DIRECTION('center_axis',(-0.558501533689605,-0.322451010818512,0.76426525662788));
#1192=DIRECTION('ref_axis',(0.807391122257898,0.,0.59001658934231));
#1193=DIRECTION('',(-0.807391122257898,-6.89526318314356E-17,-0.59001658934231));
#1194=DIRECTION('center_axis',(-0.558501533689605,0.322451010818512,0.76426525662788));
#1195=DIRECTION('ref_axis',(0.807391122257898,0.,0.59001658934231));
#1196=CARTESIAN_POINT('',(0.0,0.0,0.0));
#1197=CARTESIAN_POINT('Origin',(58.66987298125404,53.09097126458886,-405.0));
#1198=CARTESIAN_POINT('',(32.53589838509718,68.3563430688468,-420.0));
#1199=CARTESIAN_POINT('',(49.85640646078595,98.3563430688468,-390.0));
#1200=CARTESIAN_POINT('',(46.37041734813054,92.318432811096,-396.0379102577508));
#1201=CARTESIAN_POINT('',(78.9282032305104,48.00251399636724,-390.0));
#1202=CARTESIAN_POINT('',(71.6602540380204,60.5909712645888,-390.0));
#1203=CARTESIAN_POINT('',(44.28718707913291,48.00251399636724,-420.0));
#1204=CARTESIAN_POINT('',(90.4771065662406,48.00251399636724,-379.9983563254068));
#1205=CARTESIAN_POINT('',(45.67949192448744,45.59097126458886,-420.0));
#1206=CARTESIAN_POINT('Origin',(78.9282032305104,48.00251399636724,-363.0));
#1207=CARTESIAN_POINT('',(49.85640646078595,98.3563430688468,-373.1258354901786));
#1208=CARTESIAN_POINT('',(49.85640646078595,98.3563430688468,-363.0));
#1209=CARTESIAN_POINT('',(78.9282032305104,48.00251399636724,-373.1258354901786));
#1210=CARTESIAN_POINT('',(62.6602540380204,76.1794285327086,-373.1258354901786));
#1211=CARTESIAN_POINT('',(78.9282032305104,48.00251399636724,-363.0));
#1212=CARTESIAN_POINT('Origin',(44.13397459624878,-6.26285780781108,-405.0));
#1213=CARTESIAN_POINT('',(44.28718707878568,24.00251399629662,-420.0));
#1214=CARTESIAN_POINT('',(78.928203230163,24.00251399629656,-390.0));
#1215=CARTESIAN_POINT('',(71.956225004877,24.00251399629656,-396.0379102577298));
#1216=CARTESIAN_POINT('',(49.85640646043868,-26.35131507618306,-390.0));
#1217=CARTESIAN_POINT('',(57.12435565301531,-13.76285780781108,-390.0));
#1218=CARTESIAN_POINT('',(32.5358983847499,3.648684923816958,-420.0));
#1219=CARTESIAN_POINT('',(55.63085812829124,-36.35295875075448,-379.9983563254284));
#1220=CARTESIAN_POINT('',(31.14359353948218,1.237142192188932,-420.0));
#1221=CARTESIAN_POINT('Origin',(49.85640646043868,-26.35131507618306,-363.0));
#1222=CARTESIAN_POINT('',(78.928203230163,24.00251399629656,-373.1258354902386));
#1223=CARTESIAN_POINT('',(78.928203230163,24.00251399629656,-363.0));
#1224=CARTESIAN_POINT('',(49.85640646043868,-26.35131507618306,-373.1258354902386));
#1225=CARTESIAN_POINT('',(66.1243556530152,1.825599460308828,-373.1258354902386));
#1226=CARTESIAN_POINT('',(49.85640646043868,-26.35131507618306,-363.0));
#1227=CARTESIAN_POINT('Origin',(-14.53589838486222,-23.35131507591768,-405.0));
#1228=CARTESIAN_POINT('',(11.75128869368862,-8.35131507591768,-420.0));
#1229=CARTESIAN_POINT('',(29.07179676937734,-38.35131507591768,-390.0));
#1230=CARTESIAN_POINT('',(25.58580765673836,-32.31340481819495,-396.0379102577226));
#1231=CARTESIAN_POINT('',(-29.07179677007172,-38.35131507591768,-390.0));
#1232=CARTESIAN_POINT('',(-14.53589838486222,-38.35131507591768,-390.0));
#1233=CARTESIAN_POINT('',(-11.75128869438294,-8.35131507591768,-420.0));
#1234=CARTESIAN_POINT('',(-34.84624843792026,-48.3529587504822,-379.9983563254356));
#1235=CARTESIAN_POINT('',(-14.53589838486222,-8.35131507591768,-420.0));
#1236=CARTESIAN_POINT('Origin',(-29.07179677007172,-38.35131507591768,-363.0));
#1237=CARTESIAN_POINT('',(29.07179676937734,-38.35131507591768,-373.1258354905218));
#1238=CARTESIAN_POINT('',(29.07179676937734,-38.35131507591768,-363.0));
#1239=CARTESIAN_POINT('',(-29.07179677007172,-38.35131507591768,-373.1258354905218));
#1240=CARTESIAN_POINT('',(3.464101615137785,-38.35131507591768,-373.1258354905218));
#1241=CARTESIAN_POINT('',(-29.07179677007172,-38.35131507591768,-363.0));
#1242=CARTESIAN_POINT('Origin',(-58.66987298119776,18.91405672857912,-405.0));
#1243=CARTESIAN_POINT('',(-32.53589838509706,3.648684924418392,-420.0));
#1244=CARTESIAN_POINT('',(-49.85640646078583,-26.35131507558162,-390.0));
#1245=CARTESIAN_POINT('',(-46.37041734813846,-20.31340481784432,-396.037910257737));
#1246=CARTESIAN_POINT('',(-78.9282032305104,24.00251399689806,-390.0));
#1247=CARTESIAN_POINT('',(-71.6602540379646,11.41405672857912,-390.0));
#1248=CARTESIAN_POINT('',(-44.28718707913283,24.00251399689806,-420.0));
#1249=CARTESIAN_POINT('',(-90.4771065662244,24.002513996898,-379.9983563254206));
#1250=CARTESIAN_POINT('',(-45.67949192443116,26.41405672857912,-420.0));
#1251=CARTESIAN_POINT('Origin',(-78.9282032305104,24.00251399689806,-363.0));
#1252=CARTESIAN_POINT('',(-49.85640646078583,-26.35131507558162,-373.1258354907462));
#1253=CARTESIAN_POINT('',(-49.85640646078583,-26.35131507558162,-363.0));
#1254=CARTESIAN_POINT('',(-78.9282032305104,24.00251399689806,-373.1258354907462));
#1255=CARTESIAN_POINT('',(-62.6602540379646,-4.17440053954077,-373.1258354907462));
#1256=CARTESIAN_POINT('',(-78.9282032305104,24.00251399689806,-363.0));
#1257=CARTESIAN_POINT('Origin',(-44.13397459613124,78.2678858012796,-405.0));
#1258=CARTESIAN_POINT('',(-44.28718707878556,48.00251399696874,-420.0));
#1259=CARTESIAN_POINT('',(-78.928203230163,48.00251399696874,-390.0));
#1260=CARTESIAN_POINT('',(-71.9562250048434,48.00251399696874,-396.0379102577585));
#1261=CARTESIAN_POINT('',(-49.85640646043862,98.3563430694486,-390.0));
#1262=CARTESIAN_POINT('',(-57.12435565289785,85.7678858012796,-390.0));
#1263=CARTESIAN_POINT('',(-32.53589838474984,68.3563430694486,-420.0));
#1264=CARTESIAN_POINT('',(-55.63085812830798,108.357986744049,-379.9983563253996));
#1265=CARTESIAN_POINT('',(-31.14359353936464,70.7678858012796,-420.0));
#1266=CARTESIAN_POINT('Origin',(-49.85640646043862,98.3563430694486,-363.0));
#1267=CARTESIAN_POINT('',(-78.928203230163,48.00251399696874,-373.1258354906862));
#1268=CARTESIAN_POINT('',(-78.928203230163,48.00251399696874,-363.0));
#1269=CARTESIAN_POINT('',(-49.85640646043862,98.3563430694486,-373.1258354906862));
#1270=CARTESIAN_POINT('',(-66.1243556528976,70.1794285331598,-373.1258354906862));
#1271=CARTESIAN_POINT('',(-49.85640646043862,98.3563430694486,-363.0));
#1272=CARTESIAN_POINT('Origin',(14.5358983852095,95.3563430691828,-405.0));
#1273=CARTESIAN_POINT('',(-11.75128869368844,80.3563430691828,-420.0));
#1274=CARTESIAN_POINT('',(-29.07179676937728,110.3563430691828,-390.0));
#1275=CARTESIAN_POINT('',(-25.58580765671346,104.3184328114176,-396.0379102577658));
#1276=CARTESIAN_POINT('',(29.07179677007178,110.3563430691828,-390.0));
#1277=CARTESIAN_POINT('',(14.5358983852095,110.3563430691828,-390.0));
#1278=CARTESIAN_POINT('',(11.75128869438306,80.3563430691828,-420.0));
#1279=CARTESIAN_POINT('',(34.84624843794516,120.3579867437904,-379.9983563253924));
#1280=CARTESIAN_POINT('',(14.5358983852095,80.3563430691828,-420.0));
#1281=CARTESIAN_POINT('Origin',(29.07179677007178,110.3563430691828,-363.0));
#1282=CARTESIAN_POINT('',(-29.07179676937728,110.3563430691828,-373.1258354904024));
#1283=CARTESIAN_POINT('',(-29.07179676937728,110.3563430691828,-363.0));
#1284=CARTESIAN_POINT('',(29.07179677007178,110.3563430691828,-373.1258354904024));
#1285=CARTESIAN_POINT('',(-3.464101614790494,110.3563430691828,-373.1258354904024));
#1286=CARTESIAN_POINT('',(29.07179677007178,110.3563430691828,-363.0));
#1287=CARTESIAN_POINT('Origin',(-8.99999999999982,36.00251399663262,-381.0));
#1288=CARTESIAN_POINT('',(-8.99999999999982,72.6025139966328,-393.0));
#1289=CARTESIAN_POINT('',(-8.99999999999982,-0.597486003367371,-393.0));
#1290=CARTESIAN_POINT('',(-8.99999999999982,72.6025139966328,-393.0));
#1291=CARTESIAN_POINT('',(-8.99999999999982,72.6025139966328,-369.0));
#1292=CARTESIAN_POINT('',(-8.99999999999982,72.6025139966328,-369.0));
#1293=CARTESIAN_POINT('',(-8.99999999999982,-0.597486003367371,-369.0));
#1294=CARTESIAN_POINT('',(-8.99999999999982,36.00125726653722,-369.0));
#1295=CARTESIAN_POINT('',(-8.99999999999982,-0.5974860033673728,-393.0));
#1296=CARTESIAN_POINT('Origin',(8.40000000000018,-0.5974860033673728,-369.0));
#1297=CARTESIAN_POINT('',(9.00000000000018,-0.597486003367371,-393.0));
#1298=CARTESIAN_POINT('',(8.40000000000018,-0.5974860033673728,-393.0));
#1299=CARTESIAN_POINT('',(9.00000000000018,-0.597486003367371,-369.0));
#1300=CARTESIAN_POINT('',(4.200000000000102,-0.597486003367371,-369.0));
#1301=CARTESIAN_POINT('',(9.00000000000018,-0.5974860033673728,-393.0));
#1302=CARTESIAN_POINT('Origin',(8.40000000000018,72.6025139966328,-393.0));
#1303=CARTESIAN_POINT('',(9.00000000000018,72.6025139966328,-369.0));
#1304=CARTESIAN_POINT('',(4.200000000000102,72.6025139966328,-369.0));
#1305=CARTESIAN_POINT('',(9.00000000000018,72.6025139966328,-393.0));
#1306=CARTESIAN_POINT('',(8.40000000000018,72.6025139966328,-393.0));
#1307=CARTESIAN_POINT('',(9.00000000000018,72.6025139966328,-369.0));
#1308=CARTESIAN_POINT('Origin',(8.40000000000018,-0.597486003367371,-393.0));
#1309=CARTESIAN_POINT('',(9.00000000000018,72.6025139966328,-393.0));
#1310=CARTESIAN_POINT('Origin',(9.00000000000018,36.00251399663262,-381.0));
#1311=CARTESIAN_POINT('',(9.00000000000018,36.00125726653722,-369.0));
#1312=CARTESIAN_POINT('Origin',(3.810465849570552E-28,36.00000053644182,-363.0));
#1313=CARTESIAN_POINT('',(48.0,36.00000053644182,-363.0));
#1314=CARTESIAN_POINT('Origin',(3.810465849570552E-28,36.00000053644182,-363.0));
#1315=CARTESIAN_POINT('',(48.0,36.00000053644182,-369.0));
#1316=CARTESIAN_POINT('',(48.0,36.00000053644182,-363.0));
#1317=CARTESIAN_POINT('Origin',(3.810465849570552E-28,36.00000053644182,-369.0));
#1318=CARTESIAN_POINT('Origin',(3.810465849570552E-28,36.00000053644182,-369.0));
#1319=CARTESIAN_POINT('Origin',(75.0000000002352,141.906324564033,-363.0));
#1320=CARTESIAN_POINT('',(129.2153903094084,48.0025139963673,-420.0));
#1321=CARTESIAN_POINT('',(75.0000000002352,141.906324564033,-420.0));
#1322=CARTESIAN_POINT('',(88.5538475774694,118.4303719222182,-420.0));
#1323=CARTESIAN_POINT('',(129.2153903094084,48.0025139963673,-409.8741645093731));
#1324=CARTESIAN_POINT('',(129.2153903094084,48.0025139963673,-363.0));
#1325=CARTESIAN_POINT('',(75.0000000002352,141.906324564033,-409.8741645093738));
#1326=CARTESIAN_POINT('',(79.5538475774694,134.018829190338,-409.8741645093731));
#1327=CARTESIAN_POINT('',(75.0000000002352,141.906324564033,-363.0));
#1328=CARTESIAN_POINT('Origin',(49.85640646078595,98.3563430688468,-363.0));
#1329=CARTESIAN_POINT('',(30.12435565330386,64.1794285327572,-420.0));
#1330=CARTESIAN_POINT('',(46.31547327666636,92.2232668877448,-367.95062545185));
#1331=CARTESIAN_POINT('Origin',(129.2153903094084,48.0025139963673,-363.0));
#1332=CARTESIAN_POINT('',(64.6076951548776,48.00251399636724,-420.0));
#1333=CARTESIAN_POINT('',(76.5031056497238,48.00251399636724,-371.3536487965266));
#1334=CARTESIAN_POINT('Origin',(129.215390309061,24.00251399629656,-363.0));
#1335=CARTESIAN_POINT('',(74.9999999998878,-69.9012965713692,-420.0));
#1336=CARTESIAN_POINT('',(129.215390309061,24.00251399629662,-420.0));
#1337=CARTESIAN_POINT('',(115.6615427319132,0.526561354632198,-420.0));
#1338=CARTESIAN_POINT('',(74.9999999998878,-69.9012965713692,-409.8741645094332));
#1339=CARTESIAN_POINT('',(74.9999999998878,-69.9012965713692,-363.0));
#1340=CARTESIAN_POINT('',(129.215390309061,24.00251399629662,-409.8741645094332));
#1341=CARTESIAN_POINT('',(124.6615427319132,16.1150186227521,-409.8741645094332));
#1342=CARTESIAN_POINT('',(129.215390309061,24.00251399629656,-363.0));
#1343=CARTESIAN_POINT('Origin',(78.928203230163,24.00251399629656,-363.0));
#1344=CARTESIAN_POINT('',(39.46410161525526,24.00251399629662,-420.0));
#1345=CARTESIAN_POINT('',(71.8463368619322,24.00251399629656,-367.950625451916));
#1346=CARTESIAN_POINT('Origin',(74.9999999998878,-69.9012965713692,-363.0));
#1347=CARTESIAN_POINT('',(42.69615242256366,-13.94939128748328,-420.0));
#1348=CARTESIAN_POINT('',(48.64385766999276,-24.2511189644745,-371.3536487965098));
#1349=CARTESIAN_POINT('Origin',(54.21539030882634,-81.901296571104,-363.0));
#1350=CARTESIAN_POINT('',(-54.2153903095206,-81.901296571104,-420.0));
#1351=CARTESIAN_POINT('',(54.21539030882634,-81.901296571104,-420.0));
#1352=CARTESIAN_POINT('',(27.10769515458684,-81.901296571104,-420.0));
#1353=CARTESIAN_POINT('',(-54.2153903095206,-81.901296571104,-409.8741645097169));
#1354=CARTESIAN_POINT('',(-54.2153903095206,-81.901296571104,-363.0));
#1355=CARTESIAN_POINT('',(54.21539030882634,-81.901296571104,-409.8741645097169));
#1356=CARTESIAN_POINT('',(45.10769515458684,-81.901296571104,-409.8741645097169));
#1357=CARTESIAN_POINT('',(54.21539030882634,-81.901296571104,-363.0));
#1358=CARTESIAN_POINT('Origin',(29.07179676937734,-38.35131507591768,-363.0));
#1359=CARTESIAN_POINT('',(9.33974596186464,-4.174400539775154,-420.0));
#1360=CARTESIAN_POINT('',(25.53086358515598,-32.21823889463958,-367.9506254520444));
#1361=CARTESIAN_POINT('Origin',(-54.2153903095206,-81.901296571104,-363.0));
#1362=CARTESIAN_POINT('',(-21.91154273210988,-25.94939128706754,-420.0));
#1363=CARTESIAN_POINT('',(-27.8592479795016,-36.25111896399407,-371.3536487966118));
#1364=CARTESIAN_POINT('Origin',(-75.0000000002346,-69.901296570768,-363.0));
#1365=CARTESIAN_POINT('',(-129.2153903094084,24.002513996898,-420.0));
#1366=CARTESIAN_POINT('',(-75.0000000002346,-69.901296570768,-420.0));
#1367=CARTESIAN_POINT('',(-88.553847577413,-46.42534392905034,-420.0));
#1368=CARTESIAN_POINT('',(-129.2153903094084,24.002513996898,-409.8741645099408));
#1369=CARTESIAN_POINT('',(-129.2153903094084,24.002513996898,-363.0));
#1370=CARTESIAN_POINT('',(-75.0000000002346,-69.901296570768,-409.8741645099408));
#1371=CARTESIAN_POINT('',(-79.553847577413,-62.0138011971702,-409.8741645099408));
#1372=CARTESIAN_POINT('',(-75.0000000002346,-69.901296570768,-363.0));
#1373=CARTESIAN_POINT('Origin',(-49.85640646078583,-26.35131507558162,-363.0));
#1374=CARTESIAN_POINT('',(-30.12435565318632,7.82559946071126,-420.0));
#1375=CARTESIAN_POINT('',(-46.31547327645455,-20.2182388941132,-367.950625452108));
#1376=CARTESIAN_POINT('Origin',(-129.2153903094084,24.002513996898,-363.0));
#1377=CARTESIAN_POINT('',(-64.6076951545308,24.00251399689806,-420.0));
#1378=CARTESIAN_POINT('',(-76.503105649227,24.00251399689806,-371.3536487967312));
#1379=CARTESIAN_POINT('Origin',(-129.215390309061,48.00251399696868,-363.0));
#1380=CARTESIAN_POINT('',(-74.9999999998878,141.9063245646342,-420.0));
#1381=CARTESIAN_POINT('',(-129.215390309061,48.00251399696868,-420.0));
#1382=CARTESIAN_POINT('',(-115.6615427317956,71.4784666388364,-420.0));
#1383=CARTESIAN_POINT('',(-74.9999999998878,141.9063245646342,-409.8741645098809));
#1384=CARTESIAN_POINT('',(-74.9999999998878,141.9063245646342,-363.0));
#1385=CARTESIAN_POINT('',(-129.215390309061,48.00251399696868,-409.8741645098809));
#1386=CARTESIAN_POINT('',(-124.6615427317956,55.8900093707166,-409.8741645098809));
#1387=CARTESIAN_POINT('',(-129.215390309061,48.00251399696868,-363.0));
#1388=CARTESIAN_POINT('Origin',(-78.928203230163,48.00251399696874,-363.0));
#1389=CARTESIAN_POINT('',(-39.46410161490792,48.00251399696874,-420.0));
#1390=CARTESIAN_POINT('',(-71.8463368614924,48.00251399696874,-367.950625452042));
#1391=CARTESIAN_POINT('Origin',(-74.9999999998878,141.9063245646342,-363.0));
#1392=CARTESIAN_POINT('',(-42.69615242250738,85.9544192806512,-420.0));
#1393=CARTESIAN_POINT('',(-48.64385766984942,96.2561469574914,-371.353648796748));
#1394=CARTESIAN_POINT('Origin',(-54.21539030882622,153.906324564369,-363.0));
#1395=CARTESIAN_POINT('',(54.21539030952072,153.906324564369,-420.0));
#1396=CARTESIAN_POINT('',(-54.21539030882622,153.906324564369,-420.0));
#1397=CARTESIAN_POINT('',(-27.1076951542395,153.906324564369,-420.0));
#1398=CARTESIAN_POINT('',(54.21539030952072,153.906324564369,-409.8741645095976));
#1399=CARTESIAN_POINT('',(54.21539030952072,153.906324564369,-363.0));
#1400=CARTESIAN_POINT('',(-54.21539030882622,153.906324564369,-409.8741645095976));
#1401=CARTESIAN_POINT('',(-45.1076951542395,153.906324564369,-409.8741645095976));
#1402=CARTESIAN_POINT('',(-54.21539030882622,153.906324564369,-363.0));
#1403=CARTESIAN_POINT('Origin',(-29.07179676937728,110.3563430691828,-363.0));
#1404=CARTESIAN_POINT('',(-9.33974596180836,76.1794285329432,-420.0));
#1405=CARTESIAN_POINT('',(-25.5308635851477,104.2232668878906,-367.9506254519136));
#1406=CARTESIAN_POINT('Origin',(54.21539030952072,153.906324564369,-363.0));
#1407=CARTESIAN_POINT('',(21.91154273222742,97.954419280536,-420.0));
#1408=CARTESIAN_POINT('',(27.85924797960672,108.2561469574416,-371.353648796646));
#1409=CARTESIAN_POINT('Origin',(3.472588883113302E-10,36.00251399670342,-420.0));
#1410=CARTESIAN_POINT('',(-74.9999999996526,165.906324564369,-420.0));
#1411=CARTESIAN_POINT('',(75.0000000003474,165.906324564369,-420.0));
#1412=CARTESIAN_POINT('',(-74.9999999996526,165.906324564369,-420.0));
#1413=CARTESIAN_POINT('',(150.0000000003474,36.00251399670354,-420.0));
#1414=CARTESIAN_POINT('',(75.0000000003474,165.906324564369,-420.0));
#1415=CARTESIAN_POINT('',(75.0000000003474,-93.9012965709624,-420.0));
#1416=CARTESIAN_POINT('',(150.0000000003474,36.00251399670354,-420.0));
#1417=CARTESIAN_POINT('',(-74.9999999996526,-93.9012965709624,-420.0));
#1418=CARTESIAN_POINT('',(75.0000000003474,-93.9012965709624,-420.0));
#1419=CARTESIAN_POINT('',(-149.9999999996526,36.00251399670336,-420.0));
#1420=CARTESIAN_POINT('',(-74.9999999996526,-93.9012965709624,-420.0));
#1421=CARTESIAN_POINT('',(-149.9999999996526,36.00251399670336,-420.0));
#1422=CARTESIAN_POINT('Origin',(3.472638843149412E-10,36.00251399670342,-363.0));
#1423=CARTESIAN_POINT('',(-35.99999999965278,98.3563430691828,-363.0));
#1424=CARTESIAN_POINT('',(36.00000000034728,98.3563430691828,-363.0));
#1425=CARTESIAN_POINT('',(-35.99999999965278,98.3563430691828,-363.0));
#1426=CARTESIAN_POINT('',(-71.9999999996526,36.00251399670342,-363.0));
#1427=CARTESIAN_POINT('',(-71.9999999996526,36.00251399670342,-363.0));
#1428=CARTESIAN_POINT('',(-35.99999999965272,-26.35131507577614,-363.0));
#1429=CARTESIAN_POINT('',(-35.99999999965272,-26.35131507577614,-363.0));
#1430=CARTESIAN_POINT('',(36.00000000034728,-26.35131507577614,-363.0));
#1431=CARTESIAN_POINT('',(36.00000000034728,-26.35131507577614,-363.0));
#1432=CARTESIAN_POINT('',(72.0000000003474,36.00251399670342,-363.0));
#1433=CARTESIAN_POINT('',(72.0000000003474,36.00251399670342,-363.0));
#1434=CARTESIAN_POINT('',(36.00000000034728,98.3563430691828,-363.0));
#1435=CARTESIAN_POINT('Origin',(-35.99999999965278,98.3563430691828,-363.0));
#1436=CARTESIAN_POINT('',(36.00000000034728,98.3563430691828,-363.0));
#1437=CARTESIAN_POINT('',(-35.99999999965278,98.3563430691828,-363.0));
#1438=CARTESIAN_POINT('Origin',(36.00000000034728,98.3563430691828,-363.0));
#1439=CARTESIAN_POINT('',(72.0000000003474,36.00251399670342,-363.0));
#1440=CARTESIAN_POINT('Origin',(72.0000000003474,36.00251399670342,-363.0));
#1441=CARTESIAN_POINT('',(36.00000000034728,-26.35131507577614,-363.0));
#1442=CARTESIAN_POINT('Origin',(36.00000000034728,-26.35131507577614,-363.0));
#1443=CARTESIAN_POINT('',(-35.99999999965272,-26.35131507577614,-363.0));
#1444=CARTESIAN_POINT('Origin',(-35.99999999965272,-26.35131507577614,-363.0));
#1445=CARTESIAN_POINT('',(-71.9999999996526,36.00251399670342,-363.0));
#1446=CARTESIAN_POINT('Origin',(-71.9999999996526,36.00251399670342,-363.0));
#1447=UNCERTAINTY_MEASURE_WITH_UNIT(LENGTH_MEASURE(0.06),#1451, 'DISTANCE_ACCURACY_VALUE', 'Maximum model space distance between geometric entities at asserted c onnectivities');
#1448=UNCERTAINTY_MEASURE_WITH_UNIT(LENGTH_MEASURE(0.06),#1451, 'DISTANCE_ACCURACY_VALUE', 'Maximum model space distance between geometric entities at asserted c onnectivities');
#1449=( GEOMETRIC_REPRESENTATION_CONTEXT(3) GLOBAL_UNCERTAINTY_ASSIGNED_CONTEXT((#1447)) GLOBAL_UNIT_ASSIGNED_CONTEXT((#1451,#1453,#1454)) REPRESENTATION_CONTEXT('','3D') );
#1450=( GEOMETRIC_REPRESENTATION_CONTEXT(3) GLOBAL_UNCERTAINTY_ASSIGNED_CONTEXT((#1448)) GLOBAL_UNIT_ASSIGNED_CONTEXT((#1451,#1453,#1454)) REPRESENTATION_CONTEXT('','3D') );
#1451=( LENGTH_UNIT() NAMED_UNIT(*) SI_UNIT(.MILLI.,.METRE.) );
#1452=( LENGTH_UNIT() NAMED_UNIT(*) SI_UNIT($,.METRE.) );
#1453=( NAMED_UNIT(*) PLANE_ANGLE_UNIT() SI_UNIT($,.RADIAN.) );
#1454=( NAMED_UNIT(*) SI_UNIT($,.STERADIAN.) SOLID_ANGLE_UNIT() );
#1455=SHAPE_DEFINITION_REPRESENTATION(#1456,#1457);
#1456=PRODUCT_DEFINITION_SHAPE('',$,#1459);
#1457=SHAPE_REPRESENTATION('',(#931),#1449);
#1458=PRODUCT_DEFINITION_CONTEXT('part definition',#1463,'design');
#1459=PRODUCT_DEFINITION('Stand-base','Stand-base',#1460,#1458);
#1460=PRODUCT_DEFINITION_FORMATION('',$,#1465);
#1461=PRODUCT_RELATED_PRODUCT_CATEGORY('Stand-base','Stand-base',(#1465));
#1462=APPLICATION_PROTOCOL_DEFINITION('international standard', 'automotive_design',2009,#1463);
#1463=APPLICATION_CONTEXT( 'Core Data for Automotive Mechanical Design Process');
#1464=PRODUCT_CONTEXT('part definition',#1463,'mechanical');
#1465=PRODUCT('Stand-base','Stand-base',$,(#1464));
#1466=PRESENTATION_STYLE_ASSIGNMENT((#1468));
#1467=PRESENTATION_STYLE_ASSIGNMENT((#1469));
#1468=SURFACE_STYLE_USAGE(.BOTH.,#1470);
#1469=SURFACE_STYLE_USAGE(.BOTH.,#1471);
#1470=SURFACE_SIDE_STYLE('',(#1472));
#1471=SURFACE_SIDE_STYLE('',(#1473));
#1472=SURFACE_STYLE_FILL_AREA(#1474);
#1473=SURFACE_STYLE_FILL_AREA(#1475);
#1474=FILL_AREA_STYLE('Steel - Satin',(#1476));
#1475=FILL_AREA_STYLE('ABS (White)',(#1477));
#1476=FILL_AREA_STYLE_COLOUR('Steel - Satin',#1478);
#1477=FILL_AREA_STYLE_COLOUR('ABS (White)',#1479);
#1478=COLOUR_RGB('Steel - Satin',0.627450980392157,0.627450980392157,0.627450980392157);
#1479=COLOUR_RGB('ABS (White)',0.964705882352941,0.964705882352941,0.952941176470588);
ENDSEC;
END-ISO-10303-21;
