ISO-10303-21;
HEADER;
/* Generated by software containing ST-Developer
 * from STEP Tools, Inc. (www.steptools.com) 
 */

FILE_DESCRIPTION(
/* description */ (''),
/* implementation_level */ '2;1');

FILE_NAME(
/* name */ 'Stand stem.step',
/* time_stamp */ '2024-11-15T18:04:25+01:00',
/* author */ (''),
/* organization */ (''),
/* preprocessor_version */ 'ST-DEVELOPER v20',
/* originating_system */ 'Autodesk Translation Framework v13.20.0.188',

/* authorisation */ '');

FILE_SCHEMA (('AUTOMOTIVE_DESIGN { 1 0 10303 214 3 1 1 }'));
ENDSEC;

DATA;
#10=MECHANICAL_DESIGN_GEOMETRIC_PRESENTATION_REPRESENTATION('',(#13),#669);
#11=SHAPE_REPRESENTATION_RELATIONSHIP('SRR','None',#676,#12);
#12=ADVANCED_BREP_SHAPE_REPRESENTATION('',(#14),#668);
#13=STYLED_ITEM('',(#686),#14);
#14=MANIFOLD_SOLID_BREP('Body1',#391);
#15=CYLINDRICAL_SURFACE('',#421,9.0);
#16=CYLINDRICAL_SURFACE('',#424,9.0);
#17=CYLINDRICAL_SURFACE('',#432,26.99999999999994);
#18=CYLINDRICAL_SURFACE('',#435,26.99999999999988);
#19=CONICAL_SURFACE('',#413,9.0,1.0471975511966);
#20=CONICAL_SURFACE('',#417,9.0,1.0471975511966);
#21=( BOUNDED_CURVE() B_SPLINE_CURVE(2,(#602,#603,#604),.UNSPECIFIED.,.F.,.F.) B_SPLINE_CURVE_WITH_KNOTS((3,3),(0.00902513117842234,0.128901750119267),  .UNSPECIFIED.) CURVE() GEOMETRIC_REPRESENTATION_ITEM() RATIONAL_B_SPLINE_CURVE((1.,1.,1.)) REPRESENTATION_ITEM('') );
#22=( BOUNDED_CURVE() B_SPLINE_CURVE(2,(#607,#608,#609),.UNSPECIFIED.,.F.,.F.) B_SPLINE_CURVE_WITH_KNOTS((3,3),(0.00902513117842234,0.128901750119267),  .UNSPECIFIED.) CURVE() GEOMETRIC_REPRESENTATION_ITEM() RATIONAL_B_SPLINE_CURVE((1.,1.,1.)) REPRESENTATION_ITEM('') );
#23=( BOUNDED_CURVE() B_SPLINE_CURVE(2,(#613,#614,#615),.UNSPECIFIED.,.F.,.F.) B_SPLINE_CURVE_WITH_KNOTS((3,3),(0.00902513117842242,0.128901750119267),  .UNSPECIFIED.) CURVE() GEOMETRIC_REPRESENTATION_ITEM() RATIONAL_B_SPLINE_CURVE((1.,1.,1.)) REPRESENTATION_ITEM('') );
#24=( BOUNDED_CURVE() B_SPLINE_CURVE(2,(#620,#621,#622),.UNSPECIFIED.,.F.,.F.) B_SPLINE_CURVE_WITH_KNOTS((3,3),(0.00902513117842242,0.128901750119267),  .UNSPECIFIED.) CURVE() GEOMETRIC_REPRESENTATION_ITEM() RATIONAL_B_SPLINE_CURVE((1.,1.,1.)) REPRESENTATION_ITEM('') );
#25=CIRCLE('',#408,26.99999999999988);
#26=CIRCLE('',#409,26.99999999999994);
#27=CIRCLE('',#414,2.764617092752062);
#28=CIRCLE('',#415,9.0);
#29=CIRCLE('',#418,2.764617092752062);
#30=CIRCLE('',#419,9.0);
#31=CIRCLE('',#422,9.0);
#32=CIRCLE('',#423,9.0);
#33=CIRCLE('',#425,9.0);
#34=CIRCLE('',#426,9.0);
#35=CIRCLE('',#433,26.99999999999994);
#36=CIRCLE('',#436,26.99999999999988);
#37=FACE_OUTER_BOUND('',#59,.T.);
#38=FACE_OUTER_BOUND('',#60,.T.);
#39=FACE_OUTER_BOUND('',#61,.T.);
#40=FACE_OUTER_BOUND('',#62,.T.);
#41=FACE_OUTER_BOUND('',#63,.T.);
#42=FACE_OUTER_BOUND('',#64,.T.);
#43=FACE_OUTER_BOUND('',#65,.T.);
#44=FACE_OUTER_BOUND('',#66,.T.);
#45=FACE_OUTER_BOUND('',#67,.T.);
#46=FACE_OUTER_BOUND('',#68,.T.);
#47=FACE_OUTER_BOUND('',#69,.T.);
#48=FACE_OUTER_BOUND('',#70,.T.);
#49=FACE_OUTER_BOUND('',#71,.T.);
#50=FACE_OUTER_BOUND('',#72,.T.);
#51=FACE_OUTER_BOUND('',#73,.T.);
#52=FACE_OUTER_BOUND('',#74,.T.);
#53=FACE_OUTER_BOUND('',#75,.T.);
#54=FACE_OUTER_BOUND('',#76,.T.);
#55=FACE_OUTER_BOUND('',#77,.T.);
#56=FACE_OUTER_BOUND('',#78,.T.);
#57=FACE_OUTER_BOUND('',#79,.T.);
#58=FACE_OUTER_BOUND('',#80,.T.);
#59=EDGE_LOOP('',(#245,#246,#247,#248));
#60=EDGE_LOOP('',(#249,#250,#251,#252));
#61=EDGE_LOOP('',(#253,#254,#255,#256,#257,#258,#259,#260,#261,#262,#263, #264,#265,#266));
#62=EDGE_LOOP('',(#267,#268,#269,#270));
#63=EDGE_LOOP('',(#271,#272,#273,#274));
#64=EDGE_LOOP('',(#275,#276,#277,#278));
#65=EDGE_LOOP('',(#279,#280,#281,#282));
#66=EDGE_LOOP('',(#283,#284,#285,#286));
#67=EDGE_LOOP('',(#287,#288,#289,#290));
#68=EDGE_LOOP('',(#291,#292,#293,#294));
#69=EDGE_LOOP('',(#295,#296,#297,#298,#299));
#70=EDGE_LOOP('',(#300,#301,#302,#303,#304));
#71=EDGE_LOOP('',(#305,#306,#307));
#72=EDGE_LOOP('',(#308,#309,#310));
#73=EDGE_LOOP('',(#311,#312,#313));
#74=EDGE_LOOP('',(#314,#315,#316));
#75=EDGE_LOOP('',(#317,#318,#319,#320,#321));
#76=EDGE_LOOP('',(#322,#323,#324,#325));
#77=EDGE_LOOP('',(#326,#327,#328,#329));
#78=EDGE_LOOP('',(#330,#331,#332,#333));
#79=EDGE_LOOP('',(#334,#335,#336,#337,#338));
#80=EDGE_LOOP('',(#339,#340,#341,#342,#343,#344,#345,#346,#347,#348,#349, #350,#351,#352));
#81=LINE('',#551,#119);
#82=LINE('',#553,#120);
#83=LINE('',#555,#121);
#84=LINE('',#556,#122);
#85=LINE('',#559,#123);
#86=LINE('',#561,#124);
#87=LINE('',#562,#125);
#88=LINE('',#565,#126);
#89=LINE('',#567,#127);
#90=LINE('',#569,#128);
#91=LINE('',#573,#129);
#92=LINE('',#575,#130);
#93=LINE('',#577,#131);
#94=LINE('',#579,#132);
#95=LINE('',#581,#133);
#96=LINE('',#583,#134);
#97=LINE('',#585,#135);
#98=LINE('',#590,#136);
#99=LINE('',#591,#137);
#100=LINE('',#592,#138);
#101=LINE('',#595,#139);
#102=LINE('',#596,#140);
#103=LINE('',#600,#141);
#104=LINE('',#606,#142);
#105=LINE('',#619,#143);
#106=LINE('',#632,#144);
#107=LINE('',#638,#145);
#108=LINE('',#641,#146);
#109=LINE('',#642,#147);
#110=LINE('',#645,#148);
#111=LINE('',#646,#149);
#112=LINE('',#648,#150);
#113=LINE('',#650,#151);
#114=LINE('',#653,#152);
#115=LINE('',#654,#153);
#116=LINE('',#658,#154);
#117=LINE('',#662,#155);
#118=LINE('',#664,#156);
#119=VECTOR('',#443,60.0);
#120=VECTOR('',#444,60.0);
#121=VECTOR('',#445,60.0);
#122=VECTOR('',#446,60.0);
#123=VECTOR('',#449,60.0);
#124=VECTOR('',#450,60.0);
#125=VECTOR('',#451,60.0);
#126=VECTOR('',#454,60.0);
#127=VECTOR('',#455,60.0);
#128=VECTOR('',#456,60.0);
#129=VECTOR('',#459,60.0);
#130=VECTOR('',#460,60.0);
#131=VECTOR('',#461,60.0);
#132=VECTOR('',#462,60.0);
#133=VECTOR('',#463,60.0);
#134=VECTOR('',#464,60.0);
#135=VECTOR('',#465,60.0);
#136=VECTOR('',#470,60.0);
#137=VECTOR('',#471,60.0);
#138=VECTOR('',#472,60.0);
#139=VECTOR('',#475,60.0);
#140=VECTOR('',#476,60.0);
#141=VECTOR('',#479,60.0);
#142=VECTOR('',#480,60.0);
#143=VECTOR('',#489,60.0);
#144=VECTOR('',#504,60.0);
#145=VECTOR('',#511,60.0);
#146=VECTOR('',#514,60.0);
#147=VECTOR('',#515,60.0);
#148=VECTOR('',#518,60.0);
#149=VECTOR('',#519,60.0);
#150=VECTOR('',#522,60.0);
#151=VECTOR('',#525,60.0);
#152=VECTOR('',#528,60.0);
#153=VECTOR('',#529,60.0);
#154=VECTOR('',#536,60.0);
#155=VECTOR('',#541,60.0);
#156=VECTOR('',#544,60.0);
#157=VERTEX_POINT('',#549);
#158=VERTEX_POINT('',#550);
#159=VERTEX_POINT('',#552);
#160=VERTEX_POINT('',#554);
#161=VERTEX_POINT('',#558);
#162=VERTEX_POINT('',#560);
#163=VERTEX_POINT('',#564);
#164=VERTEX_POINT('',#566);
#165=VERTEX_POINT('',#568);
#166=VERTEX_POINT('',#570);
#167=VERTEX_POINT('',#572);
#168=VERTEX_POINT('',#574);
#169=VERTEX_POINT('',#576);
#170=VERTEX_POINT('',#578);
#171=VERTEX_POINT('',#580);
#172=VERTEX_POINT('',#582);
#173=VERTEX_POINT('',#584);
#174=VERTEX_POINT('',#588);
#175=VERTEX_POINT('',#589);
#176=VERTEX_POINT('',#594);
#177=VERTEX_POINT('',#598);
#178=VERTEX_POINT('',#599);
#179=VERTEX_POINT('',#601);
#180=VERTEX_POINT('',#605);
#181=VERTEX_POINT('',#611);
#182=VERTEX_POINT('',#618);
#183=VERTEX_POINT('',#628);
#184=VERTEX_POINT('',#630);
#185=VERTEX_POINT('',#634);
#186=VERTEX_POINT('',#635);
#187=VERTEX_POINT('',#640);
#188=VERTEX_POINT('',#644);
#189=VERTEX_POINT('',#652);
#190=VERTEX_POINT('',#660);
#191=EDGE_CURVE('',#157,#158,#81,.T.);
#192=EDGE_CURVE('',#158,#159,#82,.T.);
#193=EDGE_CURVE('',#159,#160,#83,.T.);
#194=EDGE_CURVE('',#160,#157,#84,.T.);
#195=EDGE_CURVE('',#161,#160,#85,.T.);
#196=EDGE_CURVE('',#161,#162,#86,.T.);
#197=EDGE_CURVE('',#157,#162,#87,.T.);
#198=EDGE_CURVE('',#159,#163,#88,.T.);
#199=EDGE_CURVE('',#164,#163,#89,.T.);
#200=EDGE_CURVE('',#165,#164,#90,.T.);
#201=EDGE_CURVE('',#165,#166,#25,.T.);
#202=EDGE_CURVE('',#167,#166,#91,.T.);
#203=EDGE_CURVE('',#167,#168,#92,.T.);
#204=EDGE_CURVE('',#168,#169,#93,.T.);
#205=EDGE_CURVE('',#170,#169,#94,.T.);
#206=EDGE_CURVE('',#171,#170,#95,.T.);
#207=EDGE_CURVE('',#171,#172,#96,.T.);
#208=EDGE_CURVE('',#172,#173,#97,.T.);
#209=EDGE_CURVE('',#173,#161,#26,.T.);
#210=EDGE_CURVE('',#174,#175,#98,.T.);
#211=EDGE_CURVE('',#175,#164,#99,.T.);
#212=EDGE_CURVE('',#163,#174,#100,.T.);
#213=EDGE_CURVE('',#176,#175,#101,.T.);
#214=EDGE_CURVE('',#165,#176,#102,.T.);
#215=EDGE_CURVE('',#177,#178,#103,.T.);
#216=EDGE_CURVE('',#179,#178,#21,.T.);
#217=EDGE_CURVE('',#179,#180,#104,.T.);
#218=EDGE_CURVE('',#180,#177,#22,.T.);
#219=EDGE_CURVE('',#178,#181,#27,.T.);
#220=EDGE_CURVE('',#169,#181,#23,.T.);
#221=EDGE_CURVE('',#169,#179,#28,.T.);
#222=EDGE_CURVE('',#181,#182,#105,.T.);
#223=EDGE_CURVE('',#170,#182,#24,.T.);
#224=EDGE_CURVE('',#182,#177,#29,.T.);
#225=EDGE_CURVE('',#180,#170,#30,.T.);
#226=EDGE_CURVE('',#183,#168,#31,.T.);
#227=EDGE_CURVE('',#184,#183,#32,.T.);
#228=EDGE_CURVE('',#184,#179,#106,.T.);
#229=EDGE_CURVE('',#185,#186,#33,.T.);
#230=EDGE_CURVE('',#171,#185,#34,.T.);
#231=EDGE_CURVE('',#186,#180,#107,.T.);
#232=EDGE_CURVE('',#187,#186,#108,.T.);
#233=EDGE_CURVE('',#185,#187,#109,.T.);
#234=EDGE_CURVE('',#183,#188,#110,.T.);
#235=EDGE_CURVE('',#184,#188,#111,.T.);
#236=EDGE_CURVE('',#167,#183,#112,.T.);
#237=EDGE_CURVE('',#172,#185,#113,.T.);
#238=EDGE_CURVE('',#189,#187,#114,.T.);
#239=EDGE_CURVE('',#173,#189,#115,.T.);
#240=EDGE_CURVE('',#162,#189,#35,.T.);
#241=EDGE_CURVE('',#174,#158,#116,.T.);
#242=EDGE_CURVE('',#190,#176,#36,.T.);
#243=EDGE_CURVE('',#166,#190,#117,.T.);
#244=EDGE_CURVE('',#188,#190,#118,.T.);
#245=ORIENTED_EDGE('',*,*,#191,.T.);
#246=ORIENTED_EDGE('',*,*,#192,.T.);
#247=ORIENTED_EDGE('',*,*,#193,.T.);
#248=ORIENTED_EDGE('',*,*,#194,.T.);
#249=ORIENTED_EDGE('',*,*,#194,.F.);
#250=ORIENTED_EDGE('',*,*,#195,.F.);
#251=ORIENTED_EDGE('',*,*,#196,.T.);
#252=ORIENTED_EDGE('',*,*,#197,.F.);
#253=ORIENTED_EDGE('',*,*,#193,.F.);
#254=ORIENTED_EDGE('',*,*,#198,.T.);
#255=ORIENTED_EDGE('',*,*,#199,.F.);
#256=ORIENTED_EDGE('',*,*,#200,.F.);
#257=ORIENTED_EDGE('',*,*,#201,.T.);
#258=ORIENTED_EDGE('',*,*,#202,.F.);
#259=ORIENTED_EDGE('',*,*,#203,.T.);
#260=ORIENTED_EDGE('',*,*,#204,.T.);
#261=ORIENTED_EDGE('',*,*,#205,.F.);
#262=ORIENTED_EDGE('',*,*,#206,.F.);
#263=ORIENTED_EDGE('',*,*,#207,.T.);
#264=ORIENTED_EDGE('',*,*,#208,.T.);
#265=ORIENTED_EDGE('',*,*,#209,.T.);
#266=ORIENTED_EDGE('',*,*,#195,.T.);
#267=ORIENTED_EDGE('',*,*,#210,.T.);
#268=ORIENTED_EDGE('',*,*,#211,.T.);
#269=ORIENTED_EDGE('',*,*,#199,.T.);
#270=ORIENTED_EDGE('',*,*,#212,.T.);
#271=ORIENTED_EDGE('',*,*,#211,.F.);
#272=ORIENTED_EDGE('',*,*,#213,.F.);
#273=ORIENTED_EDGE('',*,*,#214,.F.);
#274=ORIENTED_EDGE('',*,*,#200,.T.);
#275=ORIENTED_EDGE('',*,*,#215,.T.);
#276=ORIENTED_EDGE('',*,*,#216,.F.);
#277=ORIENTED_EDGE('',*,*,#217,.T.);
#278=ORIENTED_EDGE('',*,*,#218,.T.);
#279=ORIENTED_EDGE('',*,*,#219,.T.);
#280=ORIENTED_EDGE('',*,*,#220,.F.);
#281=ORIENTED_EDGE('',*,*,#221,.T.);
#282=ORIENTED_EDGE('',*,*,#216,.T.);
#283=ORIENTED_EDGE('',*,*,#222,.T.);
#284=ORIENTED_EDGE('',*,*,#223,.F.);
#285=ORIENTED_EDGE('',*,*,#205,.T.);
#286=ORIENTED_EDGE('',*,*,#220,.T.);
#287=ORIENTED_EDGE('',*,*,#224,.T.);
#288=ORIENTED_EDGE('',*,*,#218,.F.);
#289=ORIENTED_EDGE('',*,*,#225,.T.);
#290=ORIENTED_EDGE('',*,*,#223,.T.);
#291=ORIENTED_EDGE('',*,*,#215,.F.);
#292=ORIENTED_EDGE('',*,*,#224,.F.);
#293=ORIENTED_EDGE('',*,*,#222,.F.);
#294=ORIENTED_EDGE('',*,*,#219,.F.);
#295=ORIENTED_EDGE('',*,*,#226,.F.);
#296=ORIENTED_EDGE('',*,*,#227,.F.);
#297=ORIENTED_EDGE('',*,*,#228,.T.);
#298=ORIENTED_EDGE('',*,*,#221,.F.);
#299=ORIENTED_EDGE('',*,*,#204,.F.);
#300=ORIENTED_EDGE('',*,*,#229,.F.);
#301=ORIENTED_EDGE('',*,*,#230,.F.);
#302=ORIENTED_EDGE('',*,*,#206,.T.);
#303=ORIENTED_EDGE('',*,*,#225,.F.);
#304=ORIENTED_EDGE('',*,*,#231,.F.);
#305=ORIENTED_EDGE('',*,*,#229,.T.);
#306=ORIENTED_EDGE('',*,*,#232,.F.);
#307=ORIENTED_EDGE('',*,*,#233,.F.);
#308=ORIENTED_EDGE('',*,*,#227,.T.);
#309=ORIENTED_EDGE('',*,*,#234,.T.);
#310=ORIENTED_EDGE('',*,*,#235,.F.);
#311=ORIENTED_EDGE('',*,*,#226,.T.);
#312=ORIENTED_EDGE('',*,*,#203,.F.);
#313=ORIENTED_EDGE('',*,*,#236,.T.);
#314=ORIENTED_EDGE('',*,*,#230,.T.);
#315=ORIENTED_EDGE('',*,*,#237,.F.);
#316=ORIENTED_EDGE('',*,*,#207,.F.);
#317=ORIENTED_EDGE('',*,*,#208,.F.);
#318=ORIENTED_EDGE('',*,*,#237,.T.);
#319=ORIENTED_EDGE('',*,*,#233,.T.);
#320=ORIENTED_EDGE('',*,*,#238,.F.);
#321=ORIENTED_EDGE('',*,*,#239,.F.);
#322=ORIENTED_EDGE('',*,*,#209,.F.);
#323=ORIENTED_EDGE('',*,*,#239,.T.);
#324=ORIENTED_EDGE('',*,*,#240,.F.);
#325=ORIENTED_EDGE('',*,*,#196,.F.);
#326=ORIENTED_EDGE('',*,*,#192,.F.);
#327=ORIENTED_EDGE('',*,*,#241,.F.);
#328=ORIENTED_EDGE('',*,*,#212,.F.);
#329=ORIENTED_EDGE('',*,*,#198,.F.);
#330=ORIENTED_EDGE('',*,*,#201,.F.);
#331=ORIENTED_EDGE('',*,*,#214,.T.);
#332=ORIENTED_EDGE('',*,*,#242,.F.);
#333=ORIENTED_EDGE('',*,*,#243,.F.);
#334=ORIENTED_EDGE('',*,*,#202,.T.);
#335=ORIENTED_EDGE('',*,*,#243,.T.);
#336=ORIENTED_EDGE('',*,*,#244,.F.);
#337=ORIENTED_EDGE('',*,*,#234,.F.);
#338=ORIENTED_EDGE('',*,*,#236,.F.);
#339=ORIENTED_EDGE('',*,*,#191,.F.);
#340=ORIENTED_EDGE('',*,*,#197,.T.);
#341=ORIENTED_EDGE('',*,*,#240,.T.);
#342=ORIENTED_EDGE('',*,*,#238,.T.);
#343=ORIENTED_EDGE('',*,*,#232,.T.);
#344=ORIENTED_EDGE('',*,*,#231,.T.);
#345=ORIENTED_EDGE('',*,*,#217,.F.);
#346=ORIENTED_EDGE('',*,*,#228,.F.);
#347=ORIENTED_EDGE('',*,*,#235,.T.);
#348=ORIENTED_EDGE('',*,*,#244,.T.);
#349=ORIENTED_EDGE('',*,*,#242,.T.);
#350=ORIENTED_EDGE('',*,*,#213,.T.);
#351=ORIENTED_EDGE('',*,*,#210,.F.);
#352=ORIENTED_EDGE('',*,*,#241,.T.);
#353=PLANE('',#405);
#354=PLANE('',#406);
#355=PLANE('',#407);
#356=PLANE('',#410);
#357=PLANE('',#411);
#358=PLANE('',#412);
#359=PLANE('',#416);
#360=PLANE('',#420);
#361=PLANE('',#427);
#362=PLANE('',#428);
#363=PLANE('',#429);
#364=PLANE('',#430);
#365=PLANE('',#431);
#366=PLANE('',#434);
#367=PLANE('',#437);
#368=PLANE('',#438);
#369=ADVANCED_FACE('',(#37),#353,.T.);
#370=ADVANCED_FACE('',(#38),#354,.T.);
#371=ADVANCED_FACE('',(#39),#355,.F.);
#372=ADVANCED_FACE('',(#40),#356,.T.);
#373=ADVANCED_FACE('',(#41),#357,.T.);
#374=ADVANCED_FACE('',(#42),#358,.T.);
#375=ADVANCED_FACE('',(#43),#19,.T.);
#376=ADVANCED_FACE('',(#44),#359,.T.);
#377=ADVANCED_FACE('',(#45),#20,.T.);
#378=ADVANCED_FACE('',(#46),#360,.T.);
#379=ADVANCED_FACE('',(#47),#15,.T.);
#380=ADVANCED_FACE('',(#48),#16,.T.);
#381=ADVANCED_FACE('',(#49),#361,.T.);
#382=ADVANCED_FACE('',(#50),#362,.T.);
#383=ADVANCED_FACE('',(#51),#363,.T.);
#384=ADVANCED_FACE('',(#52),#364,.T.);
#385=ADVANCED_FACE('',(#53),#365,.T.);
#386=ADVANCED_FACE('',(#54),#17,.F.);
#387=ADVANCED_FACE('',(#55),#366,.T.);
#388=ADVANCED_FACE('',(#56),#18,.F.);
#389=ADVANCED_FACE('',(#57),#367,.T.);
#390=ADVANCED_FACE('',(#58),#368,.T.);
#391=CLOSED_SHELL('',(#369,#370,#371,#372,#373,#374,#375,#376,#377,#378, #379,#380,#381,#382,#383,#384,#385,#386,#387,#388,#389,#390));
#392=DERIVED_UNIT_ELEMENT(#394,1.);
#393=DERIVED_UNIT_ELEMENT(#671,-3.);
#394=( MASS_UNIT() NAMED_UNIT(*) SI_UNIT(.KILO.,.GRAM.) );
#395=DERIVED_UNIT((#392,#393));
#396=MEASURE_REPRESENTATION_ITEM('density measure', POSITIVE_RATIO_MEASURE(7850.),#395);
#397=PROPERTY_DEFINITION_REPRESENTATION(#402,#399);
#398=PROPERTY_DEFINITION_REPRESENTATION(#403,#400);
#399=REPRESENTATION('material name',(#401),#668);
#400=REPRESENTATION('density',(#396),#668);
#401=DESCRIPTIVE_REPRESENTATION_ITEM('Steel','Steel');
#402=PROPERTY_DEFINITION('material property','material name',#678);
#403=PROPERTY_DEFINITION('material property','density of part',#678);
#404=AXIS2_PLACEMENT_3D('',#547,#439,#440);
#405=AXIS2_PLACEMENT_3D('',#548,#441,#442);
#406=AXIS2_PLACEMENT_3D('',#557,#447,#448);
#407=AXIS2_PLACEMENT_3D('',#563,#452,#453);
#408=AXIS2_PLACEMENT_3D('',#571,#457,#458);
#409=AXIS2_PLACEMENT_3D('',#586,#466,#467);
#410=AXIS2_PLACEMENT_3D('',#587,#468,#469);
#411=AXIS2_PLACEMENT_3D('',#593,#473,#474);
#412=AXIS2_PLACEMENT_3D('',#597,#477,#478);
#413=AXIS2_PLACEMENT_3D('',#610,#481,#482);
#414=AXIS2_PLACEMENT_3D('',#612,#483,#484);
#415=AXIS2_PLACEMENT_3D('',#616,#485,#486);
#416=AXIS2_PLACEMENT_3D('',#617,#487,#488);
#417=AXIS2_PLACEMENT_3D('',#623,#490,#491);
#418=AXIS2_PLACEMENT_3D('',#624,#492,#493);
#419=AXIS2_PLACEMENT_3D('',#625,#494,#495);
#420=AXIS2_PLACEMENT_3D('',#626,#496,#497);
#421=AXIS2_PLACEMENT_3D('',#627,#498,#499);
#422=AXIS2_PLACEMENT_3D('',#629,#500,#501);
#423=AXIS2_PLACEMENT_3D('',#631,#502,#503);
#424=AXIS2_PLACEMENT_3D('',#633,#505,#506);
#425=AXIS2_PLACEMENT_3D('',#636,#507,#508);
#426=AXIS2_PLACEMENT_3D('',#637,#509,#510);
#427=AXIS2_PLACEMENT_3D('',#639,#512,#513);
#428=AXIS2_PLACEMENT_3D('',#643,#516,#517);
#429=AXIS2_PLACEMENT_3D('',#647,#520,#521);
#430=AXIS2_PLACEMENT_3D('',#649,#523,#524);
#431=AXIS2_PLACEMENT_3D('',#651,#526,#527);
#432=AXIS2_PLACEMENT_3D('',#655,#530,#531);
#433=AXIS2_PLACEMENT_3D('',#656,#532,#533);
#434=AXIS2_PLACEMENT_3D('',#657,#534,#535);
#435=AXIS2_PLACEMENT_3D('',#659,#537,#538);
#436=AXIS2_PLACEMENT_3D('',#661,#539,#540);
#437=AXIS2_PLACEMENT_3D('',#663,#542,#543);
#438=AXIS2_PLACEMENT_3D('',#665,#545,#546);
#439=DIRECTION('axis',(0.,0.,1.));
#440=DIRECTION('refdir',(1.,0.,0.));
#441=DIRECTION('center_axis',(0.,-0.707106781186548,-0.707106781186547));
#442=DIRECTION('ref_axis',(-1.,0.,0.));
#443=DIRECTION('',(0.,0.707106781186547,-0.707106781186548));
#444=DIRECTION('',(1.,0.,0.));
#445=DIRECTION('',(0.,-0.707106781186547,0.707106781186548));
#446=DIRECTION('',(-1.,0.,0.));
#447=DIRECTION('center_axis',(0.,-1.,0.));
#448=DIRECTION('ref_axis',(0.,0.,1.));
#449=DIRECTION('',(0.,0.,-1.));
#450=DIRECTION('',(-1.,0.,0.));
#451=DIRECTION('',(0.,0.,1.));
#452=DIRECTION('center_axis',(-1.,0.,0.));
#453=DIRECTION('ref_axis',(0.,-1.,0.));
#454=DIRECTION('',(0.,1.,0.));
#455=DIRECTION('',(0.,-0.707106781186547,-0.707106781186548));
#456=DIRECTION('',(0.,0.,-1.));
#457=DIRECTION('center_axis',(-1.,0.,0.));
#458=DIRECTION('ref_axis',(0.,0.,-1.));
#459=DIRECTION('',(0.,-2.7387676091234E-17,-1.));
#460=DIRECTION('',(0.,-1.,0.));
#461=DIRECTION('',(0.,0.,1.));
#462=DIRECTION('',(0.,1.,0.));
#463=DIRECTION('',(0.,0.,1.));
#464=DIRECTION('',(0.,-1.,0.));
#465=DIRECTION('',(0.,-1.23244542410553E-16,-1.));
#466=DIRECTION('center_axis',(-1.,0.,0.));
#467=DIRECTION('ref_axis',(0.,1.,0.));
#468=DIRECTION('center_axis',(0.,0.707106781186548,-0.707106781186547));
#469=DIRECTION('ref_axis',(-1.,0.,0.));
#470=DIRECTION('',(0.,0.707106781186547,0.707106781186548));
#471=DIRECTION('',(1.,0.,0.));
#472=DIRECTION('',(-1.,0.,0.));
#473=DIRECTION('center_axis',(0.,1.,0.));
#474=DIRECTION('ref_axis',(0.,0.,-1.));
#475=DIRECTION('',(0.,0.,-1.));
#476=DIRECTION('',(-1.,0.,0.));
#477=DIRECTION('center_axis',(-0.5,0.,0.866025403784439));
#478=DIRECTION('ref_axis',(0.,-1.,0.));
#479=DIRECTION('',(0.,1.,0.));
#480=DIRECTION('',(0.,-1.,0.));
#481=DIRECTION('center_axis',(0.,0.,-1.));
#482=DIRECTION('ref_axis',(-1.,0.,0.));
#483=DIRECTION('center_axis',(0.,0.,-1.));
#484=DIRECTION('ref_axis',(-1.,0.,0.));
#485=DIRECTION('center_axis',(0.,0.,1.));
#486=DIRECTION('ref_axis',(-1.,0.,0.));
#487=DIRECTION('center_axis',(0.5,0.,0.866025403784439));
#488=DIRECTION('ref_axis',(0.,1.,0.));
#489=DIRECTION('',(0.,-1.,0.));
#490=DIRECTION('center_axis',(0.,0.,-1.));
#491=DIRECTION('ref_axis',(-1.,0.,0.));
#492=DIRECTION('center_axis',(0.,0.,-1.));
#493=DIRECTION('ref_axis',(-1.,0.,0.));
#494=DIRECTION('center_axis',(0.,0.,1.));
#495=DIRECTION('ref_axis',(-1.,0.,0.));
#496=DIRECTION('center_axis',(0.,0.,1.));
#497=DIRECTION('ref_axis',(-1.,0.,0.));
#498=DIRECTION('center_axis',(0.,0.,1.));
#499=DIRECTION('ref_axis',(-1.,0.,0.));
#500=DIRECTION('center_axis',(0.,0.,-1.));
#501=DIRECTION('ref_axis',(-1.,0.,0.));
#502=DIRECTION('center_axis',(0.,0.,-1.));
#503=DIRECTION('ref_axis',(-1.,0.,0.));
#504=DIRECTION('',(0.,0.,1.));
#505=DIRECTION('center_axis',(0.,0.,1.));
#506=DIRECTION('ref_axis',(-1.,0.,0.));
#507=DIRECTION('center_axis',(0.,0.,-1.));
#508=DIRECTION('ref_axis',(-1.,0.,0.));
#509=DIRECTION('center_axis',(0.,0.,-1.));
#510=DIRECTION('ref_axis',(-1.,0.,0.));
#511=DIRECTION('',(0.,0.,1.));
#512=DIRECTION('center_axis',(0.,0.,1.));
#513=DIRECTION('ref_axis',(0.,1.,0.));
#514=DIRECTION('',(0.,1.,0.));
#515=DIRECTION('',(-1.,0.,0.));
#516=DIRECTION('center_axis',(0.,0.,1.));
#517=DIRECTION('ref_axis',(0.,1.,0.));
#518=DIRECTION('',(-1.,0.,0.));
#519=DIRECTION('',(0.,1.,0.));
#520=DIRECTION('center_axis',(0.,0.,1.));
#521=DIRECTION('ref_axis',(0.,1.,0.));
#522=DIRECTION('',(-1.,0.,0.));
#523=DIRECTION('center_axis',(0.,0.,1.));
#524=DIRECTION('ref_axis',(0.,1.,0.));
#525=DIRECTION('',(-1.,0.,0.));
#526=DIRECTION('center_axis',(0.,-1.,1.23244542410553E-16));
#527=DIRECTION('ref_axis',(0.,1.23244542410553E-16,1.));
#528=DIRECTION('',(0.,1.23244542410553E-16,1.));
#529=DIRECTION('',(-1.,0.,0.));
#530=DIRECTION('center_axis',(-1.,0.,0.));
#531=DIRECTION('ref_axis',(0.,1.,0.));
#532=DIRECTION('center_axis',(1.,0.,0.));
#533=DIRECTION('ref_axis',(0.,1.,0.));
#534=DIRECTION('center_axis',(0.,0.,-1.));
#535=DIRECTION('ref_axis',(0.,-1.,0.));
#536=DIRECTION('',(0.,-1.,0.));
#537=DIRECTION('center_axis',(-1.,0.,0.));
#538=DIRECTION('ref_axis',(0.,0.,-1.));
#539=DIRECTION('center_axis',(1.,0.,0.));
#540=DIRECTION('ref_axis',(0.,0.,-1.));
#541=DIRECTION('',(-1.,0.,0.));
#542=DIRECTION('center_axis',(0.,1.,-2.7387676091234E-17));
#543=DIRECTION('ref_axis',(0.,-2.7387676091234E-17,-1.));
#544=DIRECTION('',(0.,-2.7387676091234E-17,-1.));
#545=DIRECTION('center_axis',(-1.,0.,0.));
#546=DIRECTION('ref_axis',(0.,-1.,0.));
#547=CARTESIAN_POINT('',(0.0,0.0,0.0));
#548=CARTESIAN_POINT('Origin',(9.00000000000018,6.00251399663262,-387.0));
#549=CARTESIAN_POINT('',(-7.79999999999982,0.00251399663263263,-381.0));
#550=CARTESIAN_POINT('',(-7.79999999999982,12.00251399663262,-393.0));
#551=CARTESIAN_POINT('',(-7.79999999999982,-21.77547695795148,-359.2220090454156));
#552=CARTESIAN_POINT('',(9.00000000000018,12.00251399663262,-393.0));
#553=CARTESIAN_POINT('',(9.00000000000018,12.00251399663262,-393.0));
#554=CARTESIAN_POINT('',(9.00000000000018,0.00251399663263263,-381.0));
#555=CARTESIAN_POINT('',(9.00000000000018,-21.77547695795148,-359.2220090454156));
#556=CARTESIAN_POINT('',(9.00000000000018,0.00251399663263263,-381.0));
#557=CARTESIAN_POINT('Origin',(9.00000000000018,0.00251399663263263,-393.0));
#558=CARTESIAN_POINT('',(9.00000000000018,0.00251399663263263,-369.0));
#559=CARTESIAN_POINT('',(9.00000000000018,0.00251399663263263,-369.0));
#560=CARTESIAN_POINT('',(-7.79999999999982,0.00251399663263596,-369.0));
#561=CARTESIAN_POINT('',(9.00000000000018,0.00251399663263263,-369.0));
#562=CARTESIAN_POINT('',(-7.79999999999982,0.00251399663263263,-369.0));
#563=CARTESIAN_POINT('Origin',(9.00000000000018,36.00251399663262,-245.8880361816636));
#564=CARTESIAN_POINT('',(9.00000000000018,60.0025139966328,-393.0));
#565=CARTESIAN_POINT('',(9.00000000000018,0.00251399663263263,-393.0));
#566=CARTESIAN_POINT('',(9.00000000000018,72.0025139966328,-381.0));
#567=CARTESIAN_POINT('',(9.00000000000018,93.7805049512166,-359.2220090454156));
#568=CARTESIAN_POINT('',(9.00000000000018,72.0025139966328,-369.0));
#569=CARTESIAN_POINT('',(9.00000000000018,72.0025139966328,-369.0));
#570=CARTESIAN_POINT('',(9.00000000000018,45.00251399663274,-342.0));
#571=CARTESIAN_POINT('Origin',(9.00000000000018,72.0025139966328,-342.0));
#572=CARTESIAN_POINT('',(9.00000000000018,45.00251399663269,-98.7760723633272));
#573=CARTESIAN_POINT('',(9.00000000000018,45.00251399663269,-98.7760723633272));
#574=CARTESIAN_POINT('',(9.00000000000018,39.23361288091344,-98.7760723633272));
#575=CARTESIAN_POINT('',(9.00000000000018,45.00251399663269,-98.7760723633272));
#576=CARTESIAN_POINT('',(9.00000000000018,39.23361288091344,-80.1760723633272));
#577=CARTESIAN_POINT('',(9.00000000000018,39.23361288091344,-98.7760723633272));
#578=CARTESIAN_POINT('',(9.00000000000018,32.77141511235192,-80.1760723633272));
#579=CARTESIAN_POINT('',(9.00000000000018,27.00251399663262,-80.1760723633272));
#580=CARTESIAN_POINT('',(9.00000000000018,32.77141511235192,-98.7760723633272));
#581=CARTESIAN_POINT('',(9.00000000000018,32.77141511235192,-98.7760723633272));
#582=CARTESIAN_POINT('',(9.00000000000018,27.00251399663262,-98.7760723633272));
#583=CARTESIAN_POINT('',(9.00000000000018,45.00251399663269,-98.7760723633272));
#584=CARTESIAN_POINT('',(9.00000000000018,27.00251399663262,-342.0));
#585=CARTESIAN_POINT('',(9.00000000000018,27.00251399663262,-98.7760723633272));
#586=CARTESIAN_POINT('Origin',(9.00000000000018,0.002513996632655946,-342.0));
#587=CARTESIAN_POINT('Origin',(9.00000000000018,66.0025139966328,-387.0));
#588=CARTESIAN_POINT('',(-7.79999999999982,60.0025139966328,-393.0));
#589=CARTESIAN_POINT('',(-7.79999999999982,72.0025139966328,-381.0));
#590=CARTESIAN_POINT('',(-7.79999999999982,93.7805049512166,-359.2220090454156));
#591=CARTESIAN_POINT('',(9.00000000000018,72.0025139966328,-381.0));
#592=CARTESIAN_POINT('',(9.00000000000018,60.0025139966328,-393.0));
#593=CARTESIAN_POINT('Origin',(9.00000000000018,72.0025139966328,-369.0));
#594=CARTESIAN_POINT('',(-7.79999999999982,72.0025139966328,-369.0));
#595=CARTESIAN_POINT('',(-7.79999999999982,72.0025139966328,-369.0));
#596=CARTESIAN_POINT('',(9.00000000000018,72.0025139966328,-369.0));
#597=CARTESIAN_POINT('Origin',(-7.79999999999982,32.77141511235192,-80.1760723633272));
#598=CARTESIAN_POINT('',(-1.56461709275181,34.2827638661478,-76.5760723633272));
#599=CARTESIAN_POINT('',(-1.56461709275181,37.7222641271175,-76.5760723633272));
#600=CARTESIAN_POINT('',(-1.564617092751828,45.00251399663269,-76.5760723633272));
#601=CARTESIAN_POINT('',(-7.79999999999982,39.23361288091344,-80.1760723633272));
#602=CARTESIAN_POINT('Ctrl Pts',(-7.80000000000336,39.2336128809141,-80.176072363329));
#603=CARTESIAN_POINT('Ctrl Pts',(-3.73056893987259,38.47793850401508,-77.8265852453142));
#604=CARTESIAN_POINT('Ctrl Pts',(-1.564617092747658,37.72226412711606,-76.5760723633248));
#605=CARTESIAN_POINT('',(-7.79999999999982,32.77141511235192,-80.1760723633272));
#606=CARTESIAN_POINT('',(-7.79999999999982,45.00251399663269,-80.1760723633272));
#607=CARTESIAN_POINT('Ctrl Pts',(-7.80000000000336,32.7714151123512,-80.176072363329));
#608=CARTESIAN_POINT('Ctrl Pts',(-3.730568939872596,33.52708948925022,-77.8265852453142));
#609=CARTESIAN_POINT('Ctrl Pts',(-1.564617092747658,34.28276386614924,-76.5760723633248));
#610=CARTESIAN_POINT('Origin',(0.60000000000021,36.00251399663269,-80.1760723633272));
#611=CARTESIAN_POINT('',(2.764617092752224,37.7222641271175,-76.5760723633272));
#612=CARTESIAN_POINT('Origin',(0.60000000000021,36.00251399663269,-76.5760723633272));
#613=CARTESIAN_POINT('Ctrl Pts',(9.00000000000378,39.2336128809141,-80.176072363329));
#614=CARTESIAN_POINT('Ctrl Pts',(4.93056893987304,38.47793850401508,-77.8265852453142));
#615=CARTESIAN_POINT('Ctrl Pts',(2.764617092748072,37.72226412711606,-76.5760723633248));
#616=CARTESIAN_POINT('Origin',(0.60000000000021,36.00251399663269,-80.1760723633272));
#617=CARTESIAN_POINT('Origin',(9.00000000000018,39.23361288091344,-80.1760723633272));
#618=CARTESIAN_POINT('',(2.764617092752224,34.2827638661478,-76.5760723633272));
#619=CARTESIAN_POINT('',(2.764617092752242,27.00251399663262,-76.5760723633272));
#620=CARTESIAN_POINT('Ctrl Pts',(9.00000000000378,32.7714151123512,-80.176072363329));
#621=CARTESIAN_POINT('Ctrl Pts',(4.93056893987304,33.52708948925022,-77.8265852453142));
#622=CARTESIAN_POINT('Ctrl Pts',(2.764617092748072,34.28276386614924,-76.5760723633248));
#623=CARTESIAN_POINT('Origin',(0.60000000000021,36.00251399663269,-80.1760723633272));
#624=CARTESIAN_POINT('Origin',(0.60000000000021,36.00251399663269,-76.5760723633272));
#625=CARTESIAN_POINT('Origin',(0.60000000000021,36.00251399663269,-80.1760723633272));
#626=CARTESIAN_POINT('Origin',(0.60000000000021,36.00251399663269,-76.5760723633272));
#627=CARTESIAN_POINT('Origin',(0.60000000000021,36.00251399663269,-98.7760723633272));
#628=CARTESIAN_POINT('',(0.60000000000021,45.00251399663269,-98.7760723633272));
#629=CARTESIAN_POINT('Origin',(0.60000000000021,36.00251399663269,-98.7760723633272));
#630=CARTESIAN_POINT('',(-7.79999999999982,39.23361288091344,-98.7760723633272));
#631=CARTESIAN_POINT('Origin',(0.60000000000021,36.00251399663269,-98.7760723633272));
#632=CARTESIAN_POINT('',(-7.79999999999982,39.23361288091344,-98.7760723633272));
#633=CARTESIAN_POINT('Origin',(0.60000000000021,36.00251399663269,-98.7760723633272));
#634=CARTESIAN_POINT('',(0.60000000000021,27.00251399663262,-98.7760723633272));
#635=CARTESIAN_POINT('',(-7.79999999999982,32.77141511235192,-98.7760723633272));
#636=CARTESIAN_POINT('Origin',(0.60000000000021,36.00251399663269,-98.7760723633272));
#637=CARTESIAN_POINT('Origin',(0.60000000000021,36.00251399663269,-98.7760723633272));
#638=CARTESIAN_POINT('',(-7.79999999999982,32.77141511235192,-98.7760723633272));
#639=CARTESIAN_POINT('Origin',(9.00000000000018,27.00251399663262,-98.7760723633272));
#640=CARTESIAN_POINT('',(-7.79999999999982,27.00251399663262,-98.7760723633272));
#641=CARTESIAN_POINT('',(-7.79999999999982,45.00251399663269,-98.7760723633272));
#642=CARTESIAN_POINT('',(9.00000000000018,27.00251399663262,-98.7760723633272));
#643=CARTESIAN_POINT('Origin',(9.00000000000018,27.00251399663262,-98.7760723633272));
#644=CARTESIAN_POINT('',(-7.79999999999982,45.00251399663269,-98.7760723633272));
#645=CARTESIAN_POINT('',(9.00000000000018,45.00251399663269,-98.7760723633272));
#646=CARTESIAN_POINT('',(-7.79999999999982,45.00251399663269,-98.7760723633272));
#647=CARTESIAN_POINT('Origin',(9.00000000000018,27.00251399663262,-98.7760723633272));
#648=CARTESIAN_POINT('',(9.00000000000018,45.00251399663269,-98.7760723633272));
#649=CARTESIAN_POINT('Origin',(9.00000000000018,27.00251399663262,-98.7760723633272));
#650=CARTESIAN_POINT('',(9.00000000000018,27.00251399663262,-98.7760723633272));
#651=CARTESIAN_POINT('Origin',(9.00000000000018,27.00251399663262,-342.0));
#652=CARTESIAN_POINT('',(-7.79999999999982,27.00251399663262,-342.0));
#653=CARTESIAN_POINT('',(-7.79999999999982,27.00251399663262,-98.7760723633272));
#654=CARTESIAN_POINT('',(9.00000000000018,27.00251399663262,-342.0));
#655=CARTESIAN_POINT('Origin',(9.00000000000018,0.002513996632655946,-342.0));
#656=CARTESIAN_POINT('Origin',(-7.79999999999982,0.002513996632655946,-342.0));
#657=CARTESIAN_POINT('Origin',(9.00000000000018,72.0025139966328,-393.0));
#658=CARTESIAN_POINT('',(-7.79999999999982,0.00251399663263263,-393.0));
#659=CARTESIAN_POINT('Origin',(9.00000000000018,72.0025139966328,-342.0));
#660=CARTESIAN_POINT('',(-7.79999999999982,45.00251399663274,-342.0));
#661=CARTESIAN_POINT('Origin',(-7.79999999999982,72.0025139966328,-342.0));
#662=CARTESIAN_POINT('',(9.00000000000018,45.00251399663274,-342.0));
#663=CARTESIAN_POINT('Origin',(9.00000000000018,45.00251399663269,-98.7760723633272));
#664=CARTESIAN_POINT('',(-7.79999999999982,45.00251399663269,-98.7760723633272));
#665=CARTESIAN_POINT('Origin',(-7.79999999999982,36.00251399663262,-245.8880361816636));
#666=UNCERTAINTY_MEASURE_WITH_UNIT(LENGTH_MEASURE(0.06),#670, 'DISTANCE_ACCURACY_VALUE', 'Maximum model space distance between geometric entities at asserted c onnectivities');
#667=UNCERTAINTY_MEASURE_WITH_UNIT(LENGTH_MEASURE(0.06),#670, 'DISTANCE_ACCURACY_VALUE', 'Maximum model space distance between geometric entities at asserted c onnectivities');
#668=( GEOMETRIC_REPRESENTATION_CONTEXT(3) GLOBAL_UNCERTAINTY_ASSIGNED_CONTEXT((#666)) GLOBAL_UNIT_ASSIGNED_CONTEXT((#670,#672,#673)) REPRESENTATION_CONTEXT('','3D') );
#669=( GEOMETRIC_REPRESENTATION_CONTEXT(3) GLOBAL_UNCERTAINTY_ASSIGNED_CONTEXT((#667)) GLOBAL_UNIT_ASSIGNED_CONTEXT((#670,#672,#673)) REPRESENTATION_CONTEXT('','3D') );
#670=( LENGTH_UNIT() NAMED_UNIT(*) SI_UNIT(.MILLI.,.METRE.) );
#671=( LENGTH_UNIT() NAMED_UNIT(*) SI_UNIT($,.METRE.) );
#672=( NAMED_UNIT(*) PLANE_ANGLE_UNIT() SI_UNIT($,.RADIAN.) );
#673=( NAMED_UNIT(*) SI_UNIT($,.STERADIAN.) SOLID_ANGLE_UNIT() );
#674=SHAPE_DEFINITION_REPRESENTATION(#675,#676);
#675=PRODUCT_DEFINITION_SHAPE('',$,#678);
#676=SHAPE_REPRESENTATION('',(#404),#668);
#677=PRODUCT_DEFINITION_CONTEXT('part definition',#682,'design');
#678=PRODUCT_DEFINITION('Stand-stem','Stand-stem',#679,#677);
#679=PRODUCT_DEFINITION_FORMATION('',$,#684);
#680=PRODUCT_RELATED_PRODUCT_CATEGORY('Stand-stem','Stand-stem',(#684));
#681=APPLICATION_PROTOCOL_DEFINITION('international standard', 'automotive_design',2009,#682);
#682=APPLICATION_CONTEXT( 'Core Data for Automotive Mechanical Design Process');
#683=PRODUCT_CONTEXT('part definition',#682,'mechanical');
#684=PRODUCT('Stand-stem','Stand-stem',$,(#683));
#685=PRESENTATION_STYLE_ASSIGNMENT((#687));
#686=PRESENTATION_STYLE_ASSIGNMENT((#688));
#687=SURFACE_STYLE_USAGE(.BOTH.,#689);
#688=SURFACE_STYLE_USAGE(.BOTH.,#690);
#689=SURFACE_SIDE_STYLE('',(#691));
#690=SURFACE_SIDE_STYLE('',(#692));
#691=SURFACE_STYLE_FILL_AREA(#693);
#692=SURFACE_STYLE_FILL_AREA(#694);
#693=FILL_AREA_STYLE('Steel - Satin',(#695));
#694=FILL_AREA_STYLE('ABS (White)',(#696));
#695=FILL_AREA_STYLE_COLOUR('Steel - Satin',#697);
#696=FILL_AREA_STYLE_COLOUR('ABS (White)',#698);
#697=COLOUR_RGB('Steel - Satin',0.627450980392157,0.627450980392157,0.627450980392157);
#698=COLOUR_RGB('ABS (White)',0.964705882352941,0.964705882352941,0.952941176470588);
ENDSEC;
END-ISO-10303-21;
